<svg width="20" height="20" viewBox="0 0 20 20" fill="none" xmlns="http://www.w3.org/2000/svg">
<mask id="mask0_945_36006" style="mask-type:alpha" maskUnits="userSpaceOnUse" x="0" y="0" width="20" height="20">
<rect width="20" height="20" fill="#D9D9D9"/>
</mask>
<g mask="url(#mask0_945_36006)">
<path d="M4.25 17.5C3.76875 17.5 3.35677 17.3286 3.01406 16.9859C2.67135 16.6432 2.5 16.2312 2.5 15.75V4.25C2.5 3.76875 2.67135 3.35677 3.01406 3.01406C3.35677 2.67135 3.76875 2.5 4.25 2.5H15.75C16.2312 2.5 16.6432 2.67135 16.9859 3.01406C17.3286 3.35677 17.5 3.76875 17.5 4.25V15.75C17.5 16.2312 17.3286 16.6432 16.9859 16.9859C16.6432 17.3286 16.2312 17.5 15.75 17.5H4.25ZM4.25 15.75H9.125V4.25H4.25V15.75ZM10.875 15.75H15.75V10H10.875V15.75ZM10.875 8.25H15.75V4.25H10.875V8.25Z" fill="#202020"/>
</g>
</svg>
