<svg width="80" height="80" viewBox="0 0 80 80" fill="none" xmlns="http://www.w3.org/2000/svg">
<mask id="mask0_948_40749" style="mask-type:alpha" maskUnits="userSpaceOnUse" x="0" y="0" width="80" height="80">
<rect width="80" height="80" fill="#D9D9D9"/>
</mask>
<g mask="url(#mask0_948_40749)">
<path d="M40.0012 55.8333C40.7098 55.8333 41.3035 55.5937 41.7821 55.1145C42.2607 54.6354 42.5 54.0417 42.5 53.3334V39.1666C42.5 38.4583 42.2603 37.8646 41.781 37.3854C41.3016 36.9063 40.7076 36.6667 39.999 36.6667C39.2903 36.6667 38.6967 36.9063 38.2181 37.3854C37.7395 37.8646 37.5002 38.4583 37.5002 39.1666V53.3334C37.5002 54.0417 37.7398 54.6354 38.2192 55.1145C38.6986 55.5937 39.2926 55.8333 40.0012 55.8333ZM40.0001 30.9616C40.7629 30.9616 41.4023 30.7036 41.9183 30.1876C42.4343 29.6716 42.6923 29.0322 42.6923 28.2694C42.6923 27.5066 42.4343 26.8672 41.9183 26.3511C41.4023 25.8351 40.7629 25.5771 40.0001 25.5771C39.2372 25.5771 38.5978 25.8351 38.0818 26.3511C37.5658 26.8672 37.3078 27.5066 37.3078 28.2694C37.3078 29.0322 37.5658 29.6716 38.0818 30.1876C38.5978 30.7036 39.2372 30.9616 40.0001 30.9616ZM40.0057 71.6666C35.6259 71.6666 31.5091 70.8355 27.6553 69.1733C23.8015 67.5111 20.4492 65.2552 17.5985 62.4058C14.7477 59.5563 12.4909 56.2055 10.8279 52.3534C9.16497 48.5013 8.3335 44.3854 8.3335 40.0056C8.3335 35.6258 9.16461 31.509 10.8268 27.6553C12.4891 23.8014 14.7449 20.4492 17.5943 17.5984C20.4438 14.7477 23.7946 12.4908 27.6467 10.8279C31.4988 9.16491 35.6147 8.33344 39.9945 8.33344C44.3743 8.33344 48.4911 9.16455 52.3448 10.8268C56.1987 12.489 59.5509 14.7448 62.4017 17.5943C65.2524 20.4438 67.5093 23.7946 69.1723 27.6467C70.8352 31.4987 71.6667 35.6147 71.6667 39.9944C71.6667 44.3742 70.8356 48.491 69.1733 52.3448C67.5111 56.1986 65.2553 59.5509 62.4058 62.4016C59.5563 65.2524 56.2055 67.5093 52.3534 69.1722C48.5014 70.8351 44.3854 71.6666 40.0057 71.6666ZM40.0001 66.6667C47.4445 66.6667 53.7501 64.0834 58.9168 58.9167C64.0834 53.75 66.6668 47.4445 66.6668 40C66.6668 32.5556 64.0834 26.25 58.9168 21.0834C53.7501 15.9167 47.4445 13.3334 40.0001 13.3334C32.5556 13.3334 26.2501 15.9167 21.0834 21.0834C15.9167 26.25 13.3334 32.5556 13.3334 40C13.3334 47.4445 15.9167 53.75 21.0834 58.9167C26.2501 64.0834 32.5556 66.6667 40.0001 66.6667Z" fill="#FFD400"/>
</g>
</svg>
