<svg width="46" height="44" viewBox="0 0 46 44" fill="none" xmlns="http://www.w3.org/2000/svg">
<g id="icons" clip-path="url(#clip0_1044_38302)">
<path id="Vector" d="M27.9007 34.1669C36.748 29.063 39.7342 17.8365 34.5704 9.09172C29.4067 0.346972 18.0485 -2.60454 9.20113 2.49934C0.353812 7.60321 -2.63232 18.8297 2.53143 27.5745C7.69517 36.3192 19.0534 39.2707 27.9007 34.1669Z" fill="#FFF6CC"/>
<path id="Vector_2" d="M38.5806 44V24.2C35.3012 19.3527 29.1506 16.8667 23 16.8667C16.8493 16.8667 10.6987 19.3527 7.41931 24.2V44H38.5806Z" fill="white"/>
<g id="Group">
<path id="Vector_3" d="M30.4193 8.80005H35.6129" stroke="#BCC0C4" stroke-width="2" stroke-miterlimit="10"/>
<path id="Vector_4" d="M37.0968 8.80005H38.5807" stroke="#BCC0C4" stroke-width="2" stroke-miterlimit="10"/>
<path id="Vector_5" d="M40.0646 8.80005H41.5484" stroke="#BCC0C4" stroke-width="2" stroke-miterlimit="10"/>
<path id="Vector_6" d="M41.5483 5.1333H43.0322" stroke="#BCC0C4" stroke-width="2" stroke-miterlimit="10"/>
<path id="Vector_7" d="M44.5161 5.1333H46" stroke="#BCC0C4" stroke-width="2" stroke-miterlimit="10"/>
<path id="Vector_8" d="M19.2903 5.13333H26.5835C26.91 4.4 27.6816 3.79133 28.5719 3.79133C28.8538 3.79133 29.1283 3.828 29.3732 3.92333C29.8703 2.61066 31.1538 1.672 32.66 1.672C34.5964 1.672 36.1693 3.674 36.1693 5.14066H40.0645" stroke="#BCC0C4" stroke-width="2" stroke-miterlimit="10"/>
<path id="Vector_9" d="M1.48389 8.80004H4.42195C4.91163 8.06671 5.92808 7.29671 7.14485 7.44337C7.67905 6.54137 8.65098 5.85938 9.78614 5.85938C11.4703 5.85938 12.8355 7.33338 12.8503 8.80004H20.0323" stroke="#BCC0C4" stroke-width="2" stroke-miterlimit="10"/>
<path id="Vector_10" d="M21.5161 8.80005H23" stroke="#BCC0C4" stroke-width="2" stroke-miterlimit="10"/>
<path id="Vector_11" d="M24.4839 8.80005H25.9678" stroke="#BCC0C4" stroke-width="2" stroke-miterlimit="10"/>
</g>
<path id="Vector_12" d="M21 33H13.871C12.7664 33 11.871 33.8954 11.871 35V41.2667C11.871 42.3712 12.7664 43.2667 13.871 43.2667H21C22.1046 43.2667 23 42.3712 23 41.2667V35C23 33.8954 22.1046 33 21 33Z" stroke="#705F5E" stroke-width="2" stroke-miterlimit="10"/>
<path id="Vector_13" d="M32.129 33H25C23.8954 33 23 33.8954 23 35V41.2667C23 42.3712 23.8954 43.2667 25 43.2667H32.129C33.2336 43.2667 34.129 42.3712 34.129 41.2667V35C34.129 33.8954 33.2336 33 32.129 33Z" stroke="#705F5E" stroke-width="2" stroke-miterlimit="10"/>
<path id="Vector_14" d="M26.9354 22.7333H19.8064C18.7018 22.7333 17.8064 23.6287 17.8064 24.7333V30.9999C17.8064 32.1045 18.7018 32.9999 19.8064 32.9999H26.9354C28.04 32.9999 28.9354 32.1045 28.9354 30.9999V24.7333C28.9354 23.6287 28.04 22.7333 26.9354 22.7333Z" stroke="#705F5E" stroke-width="2" stroke-miterlimit="10"/>
<path id="Vector_15" d="M7.41931 24.2V43.9999" stroke="#705F5E" stroke-width="2" stroke-miterlimit="10"/>
<path id="Vector_16" d="M38.5807 24.2V43.9999" stroke="#705F5E" stroke-width="2" stroke-miterlimit="10"/>
<path id="Vector_17" d="M23 13.2C14.8388 13.2 8.42843 16.7786 4.45166 22L7.4194 24.2C10.6988 19.3526 16.8494 16.8666 23 16.8666C29.1507 16.8666 35.3013 19.3526 38.5807 24.2L41.5484 22C37.5717 16.7786 31.1613 13.2 23 13.2Z" fill="#FFD400" stroke="#705F5E" stroke-width="2" stroke-linecap="round" stroke-linejoin="round"/>
<path id="Vector_18" d="M25.2258 22.7333H21.5161V25.6666H25.2258V22.7333Z" fill="#EBEBEB" stroke="#705F5E" stroke-width="2" stroke-linecap="round" stroke-linejoin="round"/>
<path id="Vector_19" d="M19.2904 33H15.5807V35.9333H19.2904V33Z" fill="#EBEBEB" stroke="#705F5E" stroke-width="2" stroke-linecap="round" stroke-linejoin="round"/>
<path id="Vector_20" d="M30.4194 33H26.7097V35.9333H30.4194V33Z" fill="#EBEBEB" stroke="#705F5E" stroke-width="2" stroke-linecap="round" stroke-linejoin="round"/>
<path id="Vector_21" d="M3.83337 43.2402H42.1667" stroke="#705F5E" stroke-width="2" stroke-miterlimit="10" stroke-linecap="round"/>
<path id="Vector_22" d="M2.3 43.2402H0" stroke="#705F5E" stroke-width="2" stroke-miterlimit="10"/>
<path id="Vector_23" d="M45.9998 43.2402H43.6998" stroke="#705F5E" stroke-width="2" stroke-miterlimit="10"/>
</g>
<defs>
<clipPath id="clip0_1044_38302">
<rect width="46" height="44" fill="white"/>
</clipPath>
</defs>
</svg>
