<svg width="20" height="20" viewBox="0 0 20 20" fill="none" xmlns="http://www.w3.org/2000/svg">
<mask id="mask0_1015_52164" style="mask-type:alpha" maskUnits="userSpaceOnUse" x="0" y="0" width="20" height="20">
<rect width="20" height="20" fill="#D9D9D9"/>
</mask>
<g mask="url(#mask0_1015_52164)">
<path d="M7.11378 14.7476H7.62418C7.82655 14.7476 8.00121 14.6741 8.14814 14.5271C8.29508 14.3802 8.36855 14.2073 8.36855 14.0083V11.4943H8.49918C8.70155 11.4943 8.86926 11.4209 9.0023 11.2739C9.13536 11.127 9.20189 10.9554 9.20189 10.7592V9.37897C9.20189 8.98837 9.06382 8.65502 8.7877 8.37891C8.51159 8.10278 8.17823 7.96472 7.78764 7.96472H6.9543C6.56041 7.96472 6.22557 8.10278 5.94976 8.37891C5.67396 8.65502 5.53605 8.98837 5.53605 9.37897V10.7592C5.53605 10.9554 5.60258 11.127 5.73564 11.2739C5.86868 11.4209 6.03639 11.4943 6.23878 11.4943H6.36939V14.0083C6.36939 14.2073 6.44286 14.3802 6.5898 14.5271C6.73673 14.6741 6.91139 14.7476 7.11378 14.7476ZM7.37097 7.16343C7.63859 7.16343 7.86576 7.07075 8.05247 6.88539C8.23916 6.70003 8.33251 6.4722 8.33251 6.20191C8.33251 5.9316 8.23916 5.70377 8.05247 5.51841C7.86576 5.33305 7.63859 5.24037 7.37097 5.24037C7.10068 5.24037 6.87285 5.33305 6.68749 5.51841C6.50213 5.70377 6.40945 5.9316 6.40945 6.20191C6.40945 6.4722 6.50213 6.70003 6.68749 6.88539C6.87285 7.07075 7.10068 7.16343 7.37097 7.16343ZM11.8233 8.91422H13.5994C13.7698 8.91422 13.8916 8.84439 13.9647 8.70474C14.0379 8.5651 14.0333 8.42623 13.9508 8.28812L13.0631 6.86422C13.0467 6.83028 12.9328 6.75775 12.7215 6.64664C12.6555 6.64664 12.5895 6.66814 12.5236 6.71114C12.4576 6.75414 12.4017 6.80635 12.3557 6.86778L11.4746 8.28812C11.3895 8.42623 11.3847 8.5651 11.4602 8.70474C11.5358 8.84439 11.6568 8.91422 11.8233 8.91422ZM12.7049 13.3493C12.7697 13.3493 12.8349 13.3285 12.9004 13.2868C12.966 13.2451 13.0211 13.1923 13.0657 13.1282L13.9551 11.7107C14.0304 11.5733 14.0322 11.4342 13.9606 11.2932C13.8889 11.1522 13.768 11.0817 13.5978 11.0817H11.8259C11.6528 11.0817 11.5308 11.1522 11.4598 11.2932C11.3889 11.4342 11.3924 11.5733 11.4703 11.7107L12.3613 13.1331C12.3812 13.1655 12.4958 13.2376 12.7049 13.3493ZM4.5718 16.9318C4.15519 16.9318 3.80042 16.7854 3.50749 16.4924C3.21457 16.1995 3.06812 15.8447 3.06812 15.4281V4.5718C3.06812 4.15519 3.21457 3.80042 3.50749 3.50749C3.80042 3.21457 4.15519 3.06812 4.5718 3.06812H15.4281C15.8447 3.06812 16.1995 3.21457 16.4924 3.50749C16.7854 3.80042 16.9318 4.15519 16.9318 4.5718V15.4281C16.9318 15.8447 16.7854 16.1995 16.4924 16.4924C16.1995 16.7854 15.8447 16.9318 15.4281 16.9318H4.5718ZM4.5737 15.6827H15.4262C15.501 15.6827 15.5625 15.6586 15.6105 15.6105C15.6586 15.5625 15.6827 15.501 15.6827 15.4262V4.5737C15.6827 4.49891 15.6586 4.43748 15.6105 4.38941C15.5625 4.34132 15.501 4.31728 15.4262 4.31728H4.5737C4.49891 4.31728 4.43748 4.34132 4.38941 4.38941C4.34132 4.43748 4.31728 4.49891 4.31728 4.5737V15.4262C4.31728 15.501 4.34132 15.5625 4.38941 15.6105C4.43748 15.6586 4.49891 15.6827 4.5737 15.6827Z" fill="#202020"/>
</g>
</svg>
