<svg width="48" height="48" viewBox="0 0 48 48" fill="none" xmlns="http://www.w3.org/2000/svg">
<g clip-path="url(#clip0_886_45126)">
<path d="M19.9859 39.7684C30.0932 39.7684 38.2475 31.6578 38.199 21.6528C38.1506 11.6479 29.9176 3.53723 19.8103 3.53723C9.70291 3.53723 1.54858 11.6479 1.59707 21.6528C1.64556 31.6578 9.8785 39.7684 19.9859 39.7684Z" fill="#FFF6CC"/>
<path d="M16.2377 27.3154H8.91333V46.1455H16.2377V27.3154Z" fill="white" stroke="#705F5E" stroke-width="2" stroke-miterlimit="10"/>
<path d="M14.7892 24.4185H12.5591C11.7591 24.4185 11.1106 25.067 11.1106 25.8669C11.1106 26.6669 11.7591 27.3154 12.5591 27.3154H14.7892C15.5892 27.3154 16.2377 26.6669 16.2377 25.8669C16.2377 25.067 15.5892 24.4185 14.7892 24.4185Z" fill="white" stroke="#705F5E" stroke-width="2" stroke-miterlimit="10"/>
<path d="M39.6757 34.5577H33.0837V46.1454H39.6757V34.5577Z" fill="white" stroke="#705F5E" stroke-width="2" stroke-miterlimit="10"/>
<path d="M36.7623 31.6608H34.5322C33.7322 31.6608 33.0837 32.3093 33.0837 33.1092C33.0837 33.9092 33.7322 34.5577 34.5322 34.5577H36.7623C37.5623 34.5577 38.2108 33.9092 38.2108 33.1092C38.2108 32.3093 37.5623 31.6608 36.7623 31.6608Z" fill="white" stroke="#705F5E" stroke-width="2" stroke-miterlimit="10"/>
<path d="M33.0836 18.6246H16.2375V46.1454H33.0836V18.6246Z" fill="white" stroke="#705F5E" stroke-width="2" stroke-miterlimit="10"/>
<path d="M31.6187 11.3823H36.7457" stroke="#BCC0C4" stroke-width="2" stroke-miterlimit="10"/>
<path d="M38.2107 11.3823H39.6756" stroke="#BCC0C4" stroke-width="2" stroke-miterlimit="10"/>
<path d="M41.1404 11.3823H42.6053" stroke="#BCC0C4" stroke-width="2" stroke-miterlimit="10"/>
<path d="M42.6052 7.76111H44.0701" stroke="#BCC0C4" stroke-width="2" stroke-miterlimit="10"/>
<path d="M45.5349 7.76111H46.9998" stroke="#BCC0C4" stroke-width="2" stroke-miterlimit="10"/>
<path d="M20.6321 7.76115H27.8319C28.1542 7.03692 28.9159 6.4358 29.7949 6.4358C30.0732 6.4358 30.3442 6.47201 30.5859 6.56616C31.0766 5.26979 32.3437 4.34277 33.8306 4.34277C35.7422 4.34277 37.295 6.31993 37.295 7.76839H41.1403" stroke="#BCC0C4" stroke-width="2" stroke-miterlimit="10" stroke-linecap="round"/>
<path d="M3.05371 11.3823H5.95416C6.43757 10.6581 7.44101 9.89764 8.6422 10.0425C9.16956 9.15169 10.129 8.47815 11.2497 8.47815C12.9123 8.47815 14.26 9.93385 14.2746 11.3823H21.3646" stroke="#BCC0C4" stroke-width="2" stroke-miterlimit="10" stroke-linecap="round"/>
<path d="M22.8296 11.3823H24.2945" stroke="#BCC0C4" stroke-width="2" stroke-miterlimit="10"/>
<path d="M25.7593 11.3823H27.2242" stroke="#BCC0C4" stroke-width="2" stroke-miterlimit="10"/>
<path d="M29.438 15.7277H19.8835C19.0836 15.7277 18.4351 16.3762 18.4351 17.1761C18.4351 17.9761 19.0836 18.6246 19.8835 18.6246H29.438C30.238 18.6246 30.8865 17.9761 30.8865 17.1761C30.8865 16.3762 30.238 15.7277 29.438 15.7277Z" fill="#FDD400" stroke="#705F5E" stroke-width="2" stroke-miterlimit="10"/>
<path d="M26.4918 41.0758H22.8296V46.1454H26.4918V41.0758Z" fill="#FDD400" stroke="#705F5E" stroke-width="2" stroke-miterlimit="10"/>
<path d="M19.8999 31.6607V28.7638H22.8296V31.6607" stroke="#705F5E" stroke-width="2" stroke-miterlimit="10"/>
<path d="M19.8999 37.4547V34.5577H22.8296V37.4547" stroke="#705F5E" stroke-width="2" stroke-miterlimit="10"/>
<path d="M26.4917 31.6607V28.7638H29.4214V31.6607" stroke="#705F5E" stroke-width="2" stroke-miterlimit="10"/>
<path d="M19.8999 25.8669V22.97H22.8296V25.8669" stroke="#705F5E" stroke-width="2" stroke-miterlimit="10"/>
<path d="M26.4917 25.8669V22.97H29.4214V25.8669" stroke="#705F5E" stroke-width="2" stroke-miterlimit="10"/>
<path d="M26.4917 37.4547V34.5577H29.4214V37.4547" stroke="#705F5E" stroke-width="2" stroke-miterlimit="10"/>
<path d="M11.843 31.6608H14.0403" stroke="#705F5E" stroke-width="2" stroke-miterlimit="10"/>
<path d="M11.843 34.5577H14.0403" stroke="#705F5E" stroke-width="2" stroke-miterlimit="10"/>
<path d="M11.843 37.4546H14.0403" stroke="#705F5E" stroke-width="2" stroke-miterlimit="10"/>
<path d="M11.843 40.3516H14.0403" stroke="#705F5E" stroke-width="2" stroke-miterlimit="10"/>
<path d="M11.843 43.2485H14.0403" stroke="#705F5E" stroke-width="2" stroke-miterlimit="10"/>
<path d="M35.281 37.4546H37.4783" stroke="#705F5E" stroke-width="2" stroke-miterlimit="10"/>
<path d="M35.281 40.3516H37.4783" stroke="#705F5E" stroke-width="2" stroke-miterlimit="10"/>
<path d="M35.281 43.2485H37.4783" stroke="#705F5E" stroke-width="2" stroke-miterlimit="10"/>
<path d="M6.71606 45.1454C6.16378 45.1454 5.71606 45.5931 5.71606 46.1454C5.71606 46.6977 6.16378 47.1454 6.71606 47.1454V45.1454ZM8.91337 45.1454H6.71606V47.1454H8.91337V45.1454Z" fill="#705F5E"/>
<path d="M5.25101 46.1454H3.78613" stroke="#705F5E" stroke-width="2" stroke-miterlimit="10"/>
<path d="M41.8728 47.1454C42.4251 47.1454 42.8728 46.6977 42.8728 46.1454C42.8728 45.5931 42.4251 45.1454 41.8728 45.1454V47.1454ZM39.6755 47.1454H41.8728V45.1454H39.6755V47.1454Z" fill="#705F5E"/>
<path d="M43.3379 46.1454H44.8028" stroke="#705F5E" stroke-width="2" stroke-miterlimit="10"/>
</g>
<defs>
<clipPath id="clip0_886_45126">
<rect width="46" height="45" fill="white" transform="translate(1 3)"/>
</clipPath>
</defs>
</svg>
