<svg width="80" height="80" viewBox="0 0 80 80" fill="none" xmlns="http://www.w3.org/2000/svg">
<g id="device_reset">
<mask id="mask0_796_39228" style="mask-type:alpha" maskUnits="userSpaceOnUse" x="0" y="0" width="80" height="80">
<rect id="Bounding box" width="80" height="80" fill="#D9D9D9"/>
</mask>
<g mask="url(#mask0_796_39228)">
<path id="device_reset_2" d="M39.7501 70C31.8613 70 25.0974 67.3472 19.4585 62.0417C13.8196 56.7361 10.6946 50.1944 10.0835 42.4167C10.0279 41.75 10.2363 41.1667 10.7085 40.6667C11.1807 40.1667 11.7779 39.9167 12.5001 39.9167C13.1668 39.9167 13.7363 40.1528 14.2085 40.625C14.6807 41.0972 14.9724 41.6944 15.0835 42.4167C15.6946 48.8056 18.3335 54.1667 23.0001 58.5C27.6668 62.8333 33.2501 65 39.7501 65C46.8057 65 52.7779 62.5278 57.6668 57.5833C62.5557 52.6389 65.0001 46.6389 65.0001 39.5833C65.0001 32.6944 62.5279 26.875 57.5835 22.125C52.639 17.375 46.6946 15 39.7501 15C35.9724 15 32.4307 15.8611 29.1251 17.5833C25.8196 19.3056 22.9446 21.5833 20.5001 24.4167H26.7501C27.4724 24.4167 28.0696 24.6528 28.5418 25.125C29.014 25.5972 29.2501 26.1944 29.2501 26.9167C29.2501 27.6389 29.014 28.2361 28.5418 28.7083C28.0696 29.1806 27.4724 29.4167 26.7501 29.4167H14.3335C13.6113 29.4167 13.014 29.1806 12.5418 28.7083C12.0696 28.2361 11.8335 27.6389 11.8335 26.9167V14.5833C11.8335 13.8611 12.0696 13.2639 12.5418 12.7917C13.014 12.3194 13.6113 12.0833 14.3335 12.0833C15.0557 12.0833 15.6529 12.3194 16.1251 12.7917C16.5974 13.2639 16.8335 13.8611 16.8335 14.5833V20.9167C19.7224 17.5278 23.1529 14.8611 27.1251 12.9167C31.0974 10.9722 35.3057 10 39.7501 10C43.9168 10 47.8335 10.7778 51.5001 12.3333C55.1668 13.8889 58.3751 16.0139 61.1251 18.7083C63.8751 21.4028 66.0418 24.5556 67.6251 28.1667C69.2085 31.7778 70.0001 35.6667 70.0001 39.8333C70.0001 44 69.2085 47.9167 67.6251 51.5833C66.0418 55.25 63.8751 58.4444 61.1251 61.1667C58.3751 63.8889 55.1668 66.0417 51.5001 67.625C47.8335 69.2083 43.9168 70 39.7501 70ZM42.5835 38.8333L52.1668 48.25C52.6668 48.75 52.9168 49.3472 52.9168 50.0417C52.9168 50.7361 52.6668 51.3333 52.1668 51.8333C51.6668 52.3333 51.0835 52.5833 50.4168 52.5833C49.7501 52.5833 49.1668 52.3333 48.6668 51.8333L38.3335 41.6667C38.0557 41.3889 37.8613 41.0972 37.7501 40.7917C37.639 40.4861 37.5835 40.1667 37.5835 39.8333V25.5833C37.5835 24.8611 37.8196 24.2639 38.2918 23.7917C38.764 23.3194 39.3613 23.0833 40.0835 23.0833C40.8057 23.0833 41.4029 23.3194 41.8751 23.7917C42.3474 24.2639 42.5835 24.8611 42.5835 25.5833V38.8333Z" fill="#AEAEAE"/>
</g>
</g>
</svg>
