<svg width="40" height="40" viewBox="0 0 40 40" fill="none" xmlns="http://www.w3.org/2000/svg">
<mask id="mask0_1017_41213" style="mask-type:alpha" maskUnits="userSpaceOnUse" x="0" y="0" width="40" height="40">
<rect width="40" height="40" fill="#D9D9D9"/>
</mask>
<g mask="url(#mask0_1017_41213)">
<path d="M21.6111 19.1666C21.3704 19.3888 21.1158 19.4421 20.8473 19.3264C20.5787 19.2106 20.4445 18.9907 20.4445 18.6666V6.50963C20.4445 6.06801 20.6088 5.70601 20.9375 5.42362C21.2662 5.14121 21.6582 5 22.1133 5H33.3589C33.8141 5 34.2014 5.14121 34.5208 5.42362C34.8403 5.70601 35 6.06592 35 6.50333V14.2222C35 14.6944 34.8429 15.0903 34.5288 15.4097C34.2147 15.7292 33.8255 15.8889 33.3611 15.8889H25L21.6111 19.1666ZM23.2222 13.1111H32.2222V7.77775H23.2222V13.1111ZM33.1667 35C29.713 35 26.3032 34.1782 22.9375 32.5347C19.5717 30.8912 16.5625 28.7431 13.9097 26.0903C11.2569 23.4375 9.10879 20.4283 7.46529 17.0625C5.82176 13.6967 5 10.287 5 6.83333C5 6.30953 5.1746 5.87301 5.52379 5.52379C5.87301 5.1746 6.30953 5 6.83333 5H12.9722C13.3539 5 13.6947 5.12963 13.9946 5.38888C14.2945 5.64815 14.4815 5.99075 14.5555 6.41667L15.6667 11.8611C15.7222 12.25 15.7153 12.6041 15.6458 12.9236C15.5764 13.243 15.4259 13.5185 15.1944 13.75L11.0833 17.9167C12.5093 20.3056 14.1574 22.4306 16.0278 24.2917C17.8982 26.1528 20 27.7408 22.3333 29.0556L26.2778 25.0278C26.5463 24.7408 26.8681 24.5348 27.2431 24.4098C27.6181 24.2848 27.9908 24.2593 28.3611 24.3333L33.5833 25.4445C33.9965 25.5347 34.3359 25.7379 34.6016 26.0538C34.8672 26.3698 35 26.7408 35 27.1667V33.1667C35 33.6905 34.8254 34.127 34.4762 34.4762C34.127 34.8254 33.6905 35 33.1667 35ZM9.72221 15.3333L12.8889 12.1389L12 7.77775H7.80554C7.85182 8.87961 8.02775 10.0463 8.33333 11.2778C8.63889 12.5093 9.10185 13.8611 9.72221 15.3333ZM32.2222 32.1945V28L28.0556 27.1389L24.9445 30.3611C26.0648 30.8704 27.2546 31.287 28.5139 31.6111C29.7732 31.9352 31.0093 32.1297 32.2222 32.1945Z" fill="#202020"/>
</g>
</svg>
