<svg width="48" height="48" viewBox="0 0 48 48" fill="none" xmlns="http://www.w3.org/2000/svg">
<mask id="mask0_2292_2466" style="mask-type:alpha" maskUnits="userSpaceOnUse" x="0" y="0" width="48" height="48">
<rect width="48" height="48" fill="#D9D9D9"/>
</mask>
<g mask="url(#mask0_2292_2466)">
<path d="M41 11H7V37H26.5V40H7C6.2 40 5.5 39.7 4.9 39.1C4.3 38.5 4 37.8 4 37V11C4 10.2 4.3 9.5 4.9 8.9C5.5 8.3 6.2 8 7 8H41C41.8 8 42.5 8.3 43.1 8.9C43.7 9.5 44 10.2 44 11V26.5H41V11ZM40.25 40H31C30.575 40 30.2188 39.8554 29.9312 39.5663C29.6437 39.2771 29.5 38.9187 29.5 38.4913C29.5 38.0638 29.6437 37.7083 29.9312 37.425C30.2188 37.1417 30.575 37 31 37H40.25L37.6 34.35C37.3 34.05 37.1583 33.7 37.175 33.3C37.1917 32.9 37.35 32.5435 37.65 32.2305C37.95 31.9435 38.3 31.8 38.7 31.8C39.1 31.8 39.45 31.95 39.75 32.25L44.95 37.45C45.25 37.75 45.4 38.1 45.4 38.5C45.4 38.9 45.25 39.25 44.95 39.55L39.75 44.75C39.45 45.05 39.1 45.2 38.7 45.2C38.3 45.2 37.95 45.05 37.65 44.75C37.35 44.45 37.2083 44.1 37.225 43.7C37.2417 43.3 37.3833 42.95 37.65 42.65L40.25 40ZM7 11V37V26.5V26.7V11ZM24 21.65L41 11V13.95L24.8 24.1C24.55 24.2667 24.2875 24.35 24.0125 24.35C23.7375 24.35 23.4667 24.2667 23.2 24.1L7 13.95V11L24 21.65Z" fill="#959595"/>
</g>
</svg>
