<svg width="24" height="24" viewBox="0 0 24 24" fill="none" xmlns="http://www.w3.org/2000/svg">
<mask id="mask0_472_17224" style="mask-type:alpha" maskUnits="userSpaceOnUse" x="0" y="0" width="24" height="24">
<path d="M0 0H24V24H0V0Z" fill="#D9D9D9"/>
</mask>
<g mask="url(#mask0_472_17224)">
<rect x="2.5" y="3.5" width="19" height="19" rx="1.5" fill="#202020" stroke="black"/>
<path d="M19.9838 11.0142C19.8908 9.39642 19.024 7.93871 17.6703 6.86464C16.2245 5.72117 14.2174 5 11.9984 5C7.58028 5 4 7.81876 4 11.3027C4 13.5648 5.5122 15.5504 7.78124 16.6622C8.77504 17.1449 9.84733 17.4483 10.9486 17.5578C11.1881 17.5841 11.3605 17.7977 11.334 18.0351L11.1666 19.5245C11.1586 19.6038 11.1731 19.6841 11.2081 19.7555C11.313 19.9706 11.5735 20.0608 11.7904 19.9567C15.1003 18.3721 17.0809 16.7429 18.2631 15.3313C18.4771 15.0746 19.1765 14.1001 19.3219 13.8434C19.6259 13.3061 19.8328 12.7207 19.9343 12.1131C19.9648 11.9545 19.9853 11.7939 19.9968 11.6328C20.0038 11.4266 19.9993 11.2199 19.9838 11.0142ZM9.50739 13.3933H7.86972C7.64377 13.3923 7.46031 13.2109 7.45981 12.9869V9.9228C7.45931 9.81425 7.5028 9.71066 7.58028 9.63433C7.73975 9.47572 7.9982 9.47523 8.15817 9.63334C8.23565 9.71016 8.27914 9.81425 8.27814 9.9228V12.58H9.50539C9.61337 12.579 9.71735 12.6216 9.79334 12.6984C9.87132 12.7743 9.91531 12.8784 9.91381 12.9869C9.91481 13.2104 9.73235 13.3928 9.5064 13.3933H9.50739ZM11.1261 13.0746C11.1251 13.2496 10.9826 13.3909 10.8061 13.3919H10.6227C10.4462 13.3919 10.3027 13.2496 10.3027 13.0746V9.83457C10.3027 9.65961 10.4462 9.51736 10.6227 9.51736H10.8016C10.9791 9.51587 11.1241 9.65713 11.1261 9.83308C11.1261 9.83308 11.1261 9.83408 11.1261 9.83457V13.0746ZM14.9248 12.9696C14.9248 13.1976 14.7428 13.3844 14.5134 13.3919C14.4099 13.3904 14.3109 13.3502 14.2354 13.2793C14.2209 13.2679 13.6711 12.5582 13.2042 11.9614C12.8552 11.5158 12.5528 11.1267 12.5528 11.1267V12.9854C12.5538 13.209 12.3713 13.3914 12.1454 13.3919C12.0424 13.3919 11.9434 13.3542 11.8674 13.2853C11.7819 13.2085 11.7334 13.0994 11.7334 12.9854V9.94015C11.7304 9.7176 11.9039 9.53223 12.1274 9.51785C12.2508 9.51587 12.3688 9.5689 12.4488 9.66209C12.4663 9.68241 13.3111 10.7723 13.7865 11.3924C13.9755 11.6348 14.1065 11.8048 14.1065 11.8048V9.93023C14.108 9.70719 14.2899 9.52677 14.5149 9.52529C14.7378 9.52529 14.9198 9.70223 14.9233 9.92329V12.9701L14.9248 12.9696ZM17.6363 13.3919C17.6198 13.3928 17.6038 13.3928 17.5873 13.3919H15.9471C15.7211 13.3909 15.5387 13.2095 15.5387 12.9854V9.9228C15.5397 9.69926 15.7221 9.51835 15.9471 9.51785H17.5833C17.8092 9.50447 18.0037 9.67547 18.0172 9.8995C18.0307 10.1235 17.8582 10.3163 17.6323 10.3297C17.6158 10.3307 17.5998 10.3307 17.5833 10.3297H16.3615V11.0509H17.5873C17.8127 11.0509 17.9957 11.2323 17.9957 11.4558C17.9957 11.6794 17.8127 11.8608 17.5873 11.8608L16.3615 11.8593V12.5805H17.5873C17.8132 12.5671 18.0077 12.7381 18.0212 12.9621C18.0347 13.1862 17.8622 13.379 17.6363 13.3923V13.3919Z" fill="white"/>
</g>
</svg>
