<svg width="49" height="48" viewBox="0 0 49 48" fill="none" xmlns="http://www.w3.org/2000/svg">
<g id="icon">
<path id="Vector" d="M26.6497 30.5526C33.9401 30.4283 39.7491 24.4338 39.6244 17.1637C39.4996 9.89348 33.4885 4.10065 26.1981 4.22502C18.9076 4.34938 13.0987 10.3438 13.2234 17.614C13.3481 24.8842 19.3592 30.677 26.6497 30.5526Z" fill="#FFF6CC"/>
<path id="Vector_2" d="M44 45V27L33.5 17L25.9444 26.3333L15.1111 17L5 27V45H44Z" fill="white"/>
<path id="Vector_3" d="M4.16016 10.5799H6.78819C7.2262 9.98882 8.13539 9.3682 9.22377 9.48641C9.70159 8.75941 10.571 8.20972 11.5863 8.20972C13.0928 8.20972 14.3139 9.39775 14.3272 10.5799H20.7513" stroke="#BCC0C4" stroke-width="2" stroke-miterlimit="10" stroke-linecap="round"/>
<path id="Vector_4" d="M4.16016 45L45.243 45" stroke="#705F5E" stroke-width="2" stroke-miterlimit="10" stroke-linecap="round"/>
<path id="Vector_5" d="M47.6131 7.94192H43.7747C43.4851 7.10677 42.8003 6.41359 42.0103 6.41359C41.7601 6.41359 41.5165 6.45535 41.2992 6.56392C40.8581 5.06899 39.7191 4 38.3826 4C36.6643 4 35.2685 6.27997 35.2685 7.95027H31.812" stroke="#BCC0C4" stroke-width="2" stroke-miterlimit="10" stroke-linecap="round"/>
<g id="Group 180">
<path id="Vector_6" d="M7.98389 15.4249C7.4316 15.4249 6.98389 15.8726 6.98389 16.4249V22.0553L10.3083 18.7401V16.4249C10.3083 15.8726 9.8606 15.4249 9.30832 15.4249H7.98389Z" fill="white" stroke="#705F5E" stroke-width="2" stroke-miterlimit="10"/>
<path id="Vector_7" d="M6 45V28" stroke="#705F5E" stroke-width="2" stroke-miterlimit="10"/>
<path id="Vector_8" d="M15.2951 14.0988L2.4128 26.6272C1.63898 27.3798 1.63898 28.6226 2.4128 29.3752C3.15673 30.0987 4.34137 30.0987 5.0853 29.3752L15.2951 19.4458L25.5048 29.3752C26.2488 30.0987 27.4334 30.0987 28.1773 29.3752C28.9512 28.6226 28.9512 27.3798 28.1773 26.6272L15.2951 14.0988Z" fill="#FDD400" stroke="#705F5E" stroke-width="2" stroke-linejoin="round"/>
<path id="Vector_9" d="M14 35H13C11.8954 35 11 35.8954 11 37V44H16V37C16 35.8954 15.1046 35 14 35Z" stroke="#705F5E" stroke-width="2" stroke-miterlimit="10"/>
<path id="Vector_10" d="M15.296 29.3595C16.214 29.3595 16.9582 28.6174 16.9582 27.7019C16.9582 26.7864 16.214 26.0443 15.296 26.0443C14.378 26.0443 13.6338 26.7864 13.6338 27.7019C13.6338 28.6174 14.378 29.3595 15.296 29.3595Z" stroke="#705F5E" stroke-width="2" stroke-miterlimit="10" stroke-linecap="round"/>
<path id="Vector_11" d="M25 29L25 45" stroke="#705F5E" stroke-width="2" stroke-miterlimit="10" stroke-linecap="round"/>
</g>
<g id="Group 181">
<path id="Vector_12" d="M26.7253 15.4249C26.173 15.4249 25.7253 15.8726 25.7253 16.4249V22.0553L29.0497 18.7401V16.4249C29.0497 15.8726 28.602 15.4249 28.0497 15.4249H26.7253Z" fill="white" stroke="#705F5E" stroke-width="2" stroke-miterlimit="10"/>
<path id="Vector_13" d="M34.0356 14.0988L24.6654 23.0766L27.4145 25.7501L34.0356 19.4458L44.2453 29.3752C44.9892 30.0987 46.1739 30.0987 46.9178 29.3752C47.6916 28.6226 47.6916 27.3798 46.9178 26.6272L34.0356 14.0988Z" fill="#FDD400" stroke="#705F5E" stroke-width="2" stroke-linejoin="round"/>
<path id="Vector_14" d="M33 35H32C30.8955 35 30 35.8954 30 37V44H35V37C35 35.8954 34.1046 35 33 35Z" stroke="#705F5E" stroke-width="2" stroke-miterlimit="10"/>
<path id="Vector_15" d="M34.0364 29.3595C34.9544 29.3595 35.6986 28.6174 35.6986 27.7019C35.6986 26.7864 34.9544 26.0443 34.0364 26.0443C33.1184 26.0443 32.3742 26.7864 32.3742 27.7019C32.3742 28.6174 33.1184 29.3595 34.0364 29.3595Z" stroke="#705F5E" stroke-width="2" stroke-miterlimit="10" stroke-linecap="round"/>
<path id="Vector_16" d="M44 29V44" stroke="#705F5E" stroke-width="2" stroke-miterlimit="10" stroke-linecap="round"/>
</g>
</g>
</svg>
