<svg width="20" height="20" viewBox="0 0 20 20" fill="none" xmlns="http://www.w3.org/2000/svg">
<mask id="mask0_1015_52165" style="mask-type:alpha" maskUnits="userSpaceOnUse" x="0" y="0" width="20" height="20">
<rect width="20" height="20" fill="#D9D9D9"/>
</mask>
<g mask="url(#mask0_1015_52165)">
<path d="M5.09694 16.2411C4.72888 16.2411 4.41384 16.1101 4.15181 15.8481C3.8898 15.5861 3.75879 15.2711 3.75879 14.903V5.14911C3.75879 4.99152 3.82516 4.88389 3.95791 4.82621C4.09065 4.76852 4.21471 4.79736 4.3301 4.91273L6.05041 6.63307L5.51198 7.17152L6.12414 7.78369L6.6626 7.24523L8.29479 8.87744L7.75635 9.41588L8.35169 10.0112L8.89014 9.4728L10.5712 11.1539L10.0328 11.6923L10.6281 12.2877L11.1666 11.7492L12.8364 13.4191L12.298 13.9575L12.8933 14.5529L13.4318 14.0144L15.1032 15.6859C15.2133 15.7959 15.2394 15.916 15.1817 16.046C15.1241 16.1761 15.0191 16.2411 14.8669 16.2411H5.09694ZM5.29002 14.9664H12.3245L5.03358 7.67548V14.7099C5.03358 14.7847 5.05762 14.8462 5.10571 14.8942C5.15379 14.9423 5.21523 14.9664 5.29002 14.9664Z" fill="#202020"/>
</g>
</svg>
