<svg width="37" height="37" viewBox="0 0 37 37" fill="none" xmlns="http://www.w3.org/2000/svg">
<path fill-rule="evenodd" clip-rule="evenodd" d="M12.839 21.3029V21.3029C12.8318 21.3001 12.8263 21.294 12.8263 21.294C11.6837 20.1254 10.3028 18.2036 9.42972 15.4336C9.42972 15.4336 9.39294 15.3274 9.34035 15.3274C9.28672 15.3274 9.24719 15.4473 9.24719 15.4473V15.4401C7.35726 21.5368 2.78607 23.9502 1.21994 24.4776C1.13401 24.5101 1.13263 24.5777 1.14157 24.6163C1.94113 26.7622 3.13979 28.7239 4.63888 30.4059C4.66776 30.4288 4.72069 30.451 4.80594 30.408C9.70266 27.6356 12.4853 22.2193 12.8583 21.4648C12.8975 21.3838 12.86 21.3315 12.839 21.3029" fill="#FFD300"/>
<path fill-rule="evenodd" clip-rule="evenodd" d="M23.9411 21.3029V21.3029C23.9545 21.3001 23.9579 21.294 23.9579 21.294C25.0991 20.1254 26.4841 18.2036 27.3538 15.4336C27.3538 15.4336 27.393 15.3274 27.4446 15.3274C27.5013 15.3274 27.5377 15.4473 27.5377 15.4473V15.4401C29.4297 21.5368 33.9964 23.9502 35.5643 24.4776C35.6481 24.5101 35.6533 24.5777 35.6406 24.6163C34.8465 26.7622 33.6527 28.7239 32.1467 30.4059C32.1206 30.4288 32.0618 30.451 31.9834 30.408C27.0812 27.6356 24.2955 22.2193 23.9287 21.4648C23.8885 21.3838 23.9259 21.3315 23.9411 21.3029" fill="#FFD300"/>
<path fill-rule="evenodd" clip-rule="evenodd" d="M27.2564 34.1876V34.1876C20.3271 27.4886 18.5117 15.5346 18.5117 15.5346C18.5117 15.5346 18.4839 15.3276 18.3935 15.3276C18.3013 15.3276 18.2742 15.5346 18.2742 15.5346C18.2742 15.5346 16.4564 27.4886 9.53159 34.1876C9.53159 34.1876 9.46181 34.2515 9.5364 34.2966C12.1279 35.7145 15.1062 36.5326 18.2742 36.5555H18.3935H18.5117C21.6797 36.5326 24.6569 35.7145 27.2512 34.2942C27.3241 34.2443 27.2564 34.1876 27.2564 34.1876" fill="#FFD300"/>
<path fill-rule="evenodd" clip-rule="evenodd" d="M27.9875 2.6769C27.8817 2.6243 27.8789 2.76367 27.8789 2.76367C27.8902 4.92082 28.1787 16.8202 36.5503 20.4496C36.6277 20.4854 36.6517 20.4243 36.6545 20.4072C36.7349 19.7059 36.7862 18.9968 36.7862 18.2757C36.7862 11.6676 33.2634 5.88923 27.9875 2.6769" fill="#FFD300"/>
<path fill-rule="evenodd" clip-rule="evenodd" d="M8.80069 2.6769C8.90519 2.6243 8.90519 2.76367 8.90519 2.76367C8.89591 4.92082 8.60612 16.8202 0.23375 20.4496C0.159844 20.4854 0.135781 20.4243 0.130281 20.4072C0.0495 19.7059 0 18.9968 0 18.2757C0 11.6676 3.52516 5.88923 8.80069 2.6769" fill="#FFD300"/>
<path fill-rule="evenodd" clip-rule="evenodd" d="M26.8851 2.05433C24.4926 0.814354 21.7987 0.0888138 18.9345 0C18.8562 0 18.8668 0.0953041 18.8668 0.0953041C18.8668 3.72506 19.455 12.2157 22.3064 17.9506C22.3294 18.0172 22.3796 17.9892 22.405 17.9776C22.4071 17.9739 22.414 17.9677 22.4178 17.965C22.701 17.6644 27.122 12.8367 26.9501 2.17799C26.9436 2.1066 26.9027 2.06424 26.8851 2.05433" fill="#FFD300"/>
<path fill-rule="evenodd" clip-rule="evenodd" d="M9.90105 2.05433C12.2887 0.814354 14.9882 0.0888138 17.8489 0C17.9249 0 17.9207 0.0953041 17.9207 0.0953041C17.9207 3.72506 17.3312 12.2157 14.476 17.9506C14.4537 18.0172 14.4001 17.9892 14.3853 17.9776C14.377 17.9739 14.376 17.9677 14.3657 17.965C14.0821 17.6644 9.66387 12.8367 9.83712 2.17799C9.84399 2.1066 9.87837 2.06424 9.90105 2.05433" fill="#FFD300"/>
</svg>
