<svg width="40" height="40" viewBox="0 0 40 40" fill="none" xmlns="http://www.w3.org/2000/svg">
<mask id="mask0_933_51524" style="mask-type:alpha" maskUnits="userSpaceOnUse" x="0" y="0" width="40" height="40">
<rect width="40" height="40" fill="#D9D9D9"/>
</mask>
<g mask="url(#mask0_933_51524)">
<path d="M13.8761 27.5983L20 21.4744L26.1239 27.5983L27.5983 26.124L21.4743 20L27.5983 13.8761L26.1239 12.4018L20 18.5257L13.8761 12.4018L12.4018 13.8761L18.5257 20L12.4018 26.124L13.8761 27.5983ZM20.0028 35.8333C17.8243 35.8333 15.7734 35.4178 13.8501 34.5867C11.9267 33.7556 10.2477 32.623 8.81309 31.189C7.37845 29.755 6.2454 28.0768 5.41393 26.1543C4.58245 24.2318 4.16672 22.1813 4.16672 20.0028C4.16672 17.8129 4.58227 15.7546 5.41338 13.8277C6.2445 11.9007 7.37705 10.2246 8.81105 8.79925C10.2451 7.37386 11.9233 6.24543 13.8458 5.41396C15.7683 4.58248 17.8187 4.16675 19.9972 4.16675C22.1871 4.16675 24.2455 4.5823 26.1724 5.41341C28.0993 6.24453 29.7754 7.37244 31.2008 8.79716C32.6262 10.2219 33.7546 11.8973 34.5861 13.8234C35.4176 15.7494 35.8333 17.8074 35.8333 19.9972C35.8333 22.1757 35.4177 24.2267 34.5866 26.15C33.7555 28.0733 32.6276 29.7523 31.2029 31.187C29.7781 32.6216 28.1027 33.7546 26.1767 34.5861C24.2507 35.4176 22.1927 35.8333 20.0028 35.8333ZM20 33.7394C23.8276 33.7394 27.0744 32.4035 29.7404 29.7319C32.4064 27.0602 33.7393 23.8163 33.7393 20C33.7393 16.1724 32.4064 12.9256 29.7404 10.2597C27.0744 7.59369 23.8276 6.26071 20 6.26071C16.1838 6.26071 12.9398 7.59369 10.2682 10.2597C7.59651 12.9256 6.26068 16.1724 6.26068 20C6.26068 23.8163 7.59651 27.0602 10.2682 29.7319C12.9398 32.4035 16.1838 33.7394 20 33.7394Z" fill="white"/>
</g>
</svg>
