<svg width="66" height="104" viewBox="0 0 66 104" fill="none" xmlns="http://www.w3.org/2000/svg">
<path fill-rule="evenodd" clip-rule="evenodd" d="M41.0621 94.213H40.576V93.2183C40.576 92.8046 40.3846 92.5484 40.0047 92.449C39.7662 92.6212 39.5802 92.834 39.4434 93.0874C39.3073 93.3409 39.2385 93.6032 39.2385 93.8748V94.213H38.7524V91.6476H39.2385V92.7431C39.2983 92.5365 39.4778 92.323 39.7778 92.0999C40.0773 91.8792 40.4317 91.7023 40.8393 91.567L41.0621 91.9414C40.8136 92.0166 40.6042 92.1019 40.4337 92.1993C40.6149 92.2748 40.7627 92.3889 40.8761 92.5416C41.0002 92.7079 41.0621 92.8962 41.0621 93.1055V94.213Z" fill="#6E5E5E"/>
<path fill-rule="evenodd" clip-rule="evenodd" d="M44.033 94.2131H43.5575V93.8513L43.5503 93.8469C43.3771 94.1229 43.0949 94.2612 42.703 94.2612C42.4115 94.2612 42.1805 94.1809 42.01 94.0197C41.8295 93.8482 41.7388 93.5979 41.7388 93.2703V91.6477H42.2248V93.191C42.2248 93.6119 42.4479 93.8219 42.8938 93.8219C43.0911 93.8219 43.2489 93.7553 43.3675 93.6224C43.4864 93.4899 43.5462 93.3078 43.5462 93.0749V91.6477H44.033V94.2131Z" fill="#6E5E5E"/>
<path fill-rule="evenodd" clip-rule="evenodd" d="M43.7246 91.0033C43.8078 91.0033 43.8501 90.9551 43.8501 90.8584C43.8501 90.7618 43.8078 90.7136 43.7246 90.7136C43.6359 90.7136 43.5902 90.7618 43.5902 90.8584C43.5902 90.9551 43.6359 91.0033 43.7246 91.0033ZM43.3224 90.854C43.3259 90.7525 43.3668 90.6624 43.4455 90.5841C43.5232 90.5069 43.616 90.4677 43.7246 90.4677C43.8353 90.4677 43.9295 90.5069 44.0058 90.5841C44.0831 90.6624 44.1213 90.7539 44.1213 90.8584C44.1213 90.966 44.0831 91.0566 44.0058 91.13C43.9295 91.2041 43.8353 91.2407 43.7246 91.2407H41.946V91.2007L42.2293 90.854H43.3224Z" fill="#6E5E5E"/>
<path fill-rule="evenodd" clip-rule="evenodd" d="M44.0087 90.2747L43.6395 90.4322H43.6147V89.7469H44.0087V90.2747Z" fill="#6E5E5E"/>
<path fill-rule="evenodd" clip-rule="evenodd" d="M45.3045 94.233L44.3774 92.5623H44.8965L45.6046 93.8101C45.7806 93.7647 45.925 93.6465 46.0384 93.4559C46.1519 93.2656 46.2089 93.048 46.2089 92.8038C46.2089 92.5756 46.157 92.3901 46.0539 92.2477C45.9443 92.0946 45.7878 92.0188 45.5885 92.0188H45.2561V92.0021L45.3784 91.599H45.6576C45.9848 91.599 46.245 91.7244 46.4393 91.9741C46.6153 92.1995 46.7029 92.4745 46.7029 92.7994C46.7029 93.1543 46.607 93.4672 46.4148 93.7374C46.2076 94.039 45.9315 94.2036 45.5885 94.233H45.3045Z" fill="#6E5E5E"/>
<path fill-rule="evenodd" clip-rule="evenodd" d="M47.9981 94.2143H47.3543V91.6363C47.3543 91.5082 47.4309 91.3415 47.5866 91.14C47.7417 90.9378 47.82 90.7851 47.82 90.6836C47.82 90.6057 47.7901 90.5436 47.731 90.4968C47.6719 90.4496 47.6 90.4261 47.5162 90.4261C47.3051 90.4261 47.1294 90.5569 46.9895 90.8203L46.6575 90.519C46.8627 90.1805 47.1435 90.0117 47.4993 90.0117C47.7444 90.0117 47.9397 90.0732 48.0833 90.1965C48.2257 90.3202 48.2975 90.4763 48.2975 90.6669C48.2975 90.8145 48.2208 90.9818 48.0686 91.1701C47.9156 91.3576 47.8396 91.513 47.8396 91.6363V93.8088H48.1511V93.8252L47.9981 94.2143Z" fill="#6E5E5E"/>
<path fill-rule="evenodd" clip-rule="evenodd" d="M50.9201 94.2143H50.4468V93.8525L50.4389 93.8488C50.2656 94.1248 49.9834 94.2631 49.5929 94.2631C49.3007 94.2631 49.0704 94.1829 48.9006 94.0223C48.7201 93.8508 48.6287 93.6011 48.6287 93.2735V91.6523H49.1147V93.1943C49.1147 93.6144 49.3375 93.8252 49.7819 93.8252C49.9803 93.8252 50.1381 93.7586 50.256 93.6257C50.3756 93.4932 50.4347 93.3108 50.4347 93.0781V91.6523H50.9201V94.2143Z" fill="#6E5E5E"/>
<path fill-rule="evenodd" clip-rule="evenodd" d="M1.33412 94.2077H0.69165V91.6465H1.17703V93.8023H1.48846V93.818L1.33412 94.2077Z" fill="#6E5E5E"/>
<path fill-rule="evenodd" clip-rule="evenodd" d="M4.22172 94.2076H3.73566V92.7439C3.73566 92.5164 3.67722 92.3415 3.56241 92.2196C3.44485 92.0973 3.27847 92.0368 3.05882 92.0368C2.84329 92.0368 2.6776 92.0973 2.56141 92.2196C2.44591 92.3415 2.38747 92.5164 2.38747 92.7439V93.1169H2.39951C2.44041 93.0367 2.50572 92.9659 2.59441 92.9072C2.69376 92.8392 2.80238 92.8047 2.92201 92.8047H3.20113V93.243H2.92579C2.62569 93.243 2.45588 93.381 2.41566 93.6573L2.33522 94.2076H1.9021V92.6718C1.9021 92.3367 2.0121 92.072 2.23382 91.8752C2.44454 91.6904 2.71919 91.5975 3.05882 91.5975C3.39982 91.5975 3.67585 91.6904 3.88932 91.8752C4.11035 92.072 4.22172 92.3367 4.22172 92.6718V94.2076Z" fill="#6E5E5E"/>
<path fill-rule="evenodd" clip-rule="evenodd" d="M6.5809 92.3176C6.35127 92.1195 6.10137 92.0208 5.83152 92.0208C5.46165 92.0208 5.27774 92.126 5.27774 92.3385C5.27774 92.4379 5.34546 92.5178 5.47987 92.58C5.5658 92.6199 5.71809 92.6626 5.93362 92.7088C6.22512 92.7726 6.44649 92.8526 6.59774 92.9496C6.80502 93.0889 6.90849 93.2772 6.90849 93.5132C6.90849 93.7462 6.79643 93.933 6.56818 94.0724C6.3688 94.195 6.13918 94.2572 5.88068 94.2572C5.37846 94.2572 4.97627 94.099 4.6748 93.7814L4.97009 93.437C5.08043 93.56 5.21862 93.658 5.38465 93.7315C5.55102 93.8053 5.71018 93.8428 5.86384 93.8428C6.01509 93.8428 6.14502 93.8141 6.2533 93.7588C6.37155 93.6966 6.43102 93.6153 6.43102 93.5132C6.43102 93.3404 6.21309 93.2123 5.77515 93.1269C5.48915 93.0702 5.27224 92.9967 5.12409 92.9062C4.90237 92.7713 4.79168 92.5865 4.79168 92.3504C4.79168 92.1243 4.89102 91.9426 5.08696 91.8052C5.28462 91.6672 5.52937 91.5979 5.82362 91.5979C6.21584 91.5979 6.55752 91.7226 6.85212 91.9719L6.5809 92.3176Z" fill="#6E5E5E"/>
<path fill-rule="evenodd" clip-rule="evenodd" d="M6.73465 91.2401H4.65015V91.1994L4.92927 90.8537H5.78315V90.6409L6.1238 90.4722H6.15921V90.8705H6.35858V90.6409L6.69855 90.4722H6.73465V91.2401Z" fill="#6E5E5E"/>
<path fill-rule="evenodd" clip-rule="evenodd" d="M8.22847 93.1669H7.78744V93.2718C7.78744 93.4426 7.8579 93.5779 7.99747 93.6779C8.12706 93.7715 8.28897 93.818 8.48353 93.818C8.73722 93.818 8.93144 93.7282 9.06584 93.5485C9.18719 93.3876 9.24906 93.1748 9.24906 92.9094C9.24906 92.6385 9.17447 92.4257 9.02597 92.2696C8.87712 92.1141 8.68359 92.0366 8.44262 92.0366C8.09234 92.0366 7.79019 92.1695 7.53547 92.4342L7.24878 92.0807C7.57465 91.7599 7.98269 91.5977 8.47081 91.5977C8.84069 91.5977 9.14353 91.7199 9.38003 91.9642C9.6155 92.2081 9.73444 92.5152 9.73444 92.8848C9.73444 93.3118 9.62547 93.6465 9.41028 93.8901C9.19475 94.135 8.88572 94.2569 8.48353 94.2569C8.13565 94.2569 7.85447 94.1671 7.64169 93.9867C7.41412 93.7996 7.30206 93.5427 7.30206 93.2151V92.7406H8.22847V93.1669Z" fill="#6E5E5E"/>
<path fill-rule="evenodd" clip-rule="evenodd" d="M3.07639 100.724H2.59033V99.7545C2.50508 99.6473 2.39233 99.5598 2.25379 99.4912C2.11354 99.4229 1.97123 99.3884 1.82548 99.3884C1.64226 99.3884 1.49376 99.4263 1.38033 99.5004C1.24558 99.5913 1.17786 99.7293 1.17786 99.912C1.17786 100.038 1.22598 100.142 1.31948 100.226C1.4147 100.308 1.52092 100.35 1.6402 100.35C1.81276 100.35 1.94854 100.304 2.04926 100.213L2.28404 100.562C2.11629 100.703 1.90214 100.772 1.6402 100.772C1.36692 100.772 1.14142 100.688 0.961639 100.522C0.782201 100.356 0.692139 100.139 0.692139 99.8714C0.692139 99.579 0.811076 99.3491 1.04964 99.1796C1.25417 99.0328 1.49136 98.9586 1.7612 98.9586C2.08467 98.9586 2.36208 99.056 2.59033 99.2521V99.0819C2.59033 98.9088 2.52192 98.7725 2.38476 98.6765C2.25792 98.5883 2.09739 98.5443 1.90283 98.5443C1.54704 98.5443 1.26895 98.6696 1.0682 98.9214L0.713107 98.6205C0.993607 98.2823 1.40267 98.1139 1.93961 98.1139C2.05064 98.1139 2.15926 98.132 2.26617 98.1699C2.44251 98.1699 2.59376 98.1473 2.72061 98.1012C2.83954 98.0579 2.9657 97.9844 3.10045 97.8799L3.38439 98.2389C3.32217 98.2895 3.23142 98.3356 3.11317 98.3769C2.99458 98.4175 2.88561 98.4442 2.7897 98.4548C2.98117 98.603 3.07639 98.8179 3.07639 99.1028V100.724Z" fill="#6E5E5E"/>
<path fill-rule="evenodd" clip-rule="evenodd" d="M6.03103 100.724H5.54565V99.2077C5.54565 99.0092 5.47931 98.8507 5.34559 98.7311C5.21187 98.6116 5.04137 98.5518 4.8334 98.5518C4.67493 98.5518 4.52299 98.5897 4.38068 98.6652C4.24799 98.7318 4.15174 98.8124 4.09193 98.9095C4.18681 98.9935 4.25865 99.0915 4.30746 99.2029V100.318H4.73646V100.329L4.60618 100.724H3.8214V99.2603C3.76503 99.1253 3.68321 99.0232 3.57837 98.9539V98.918C3.64574 98.7059 3.79321 98.5224 4.02353 98.367C4.27206 98.1976 4.54465 98.1139 4.84131 98.1139C5.20053 98.1139 5.48859 98.2102 5.70549 98.4029C5.92309 98.5959 6.03103 98.8647 6.03103 99.2077V100.724Z" fill="#6E5E5E"/>
<path fill-rule="evenodd" clip-rule="evenodd" d="M8.43193 100.724H7.94656V99.1148C7.94656 98.93 7.89809 98.7885 7.80218 98.6912C7.70696 98.5918 7.57531 98.5443 7.40859 98.5443C7.12121 98.5443 6.88231 98.6843 6.69187 98.9662L6.40381 98.6164C6.509 98.4603 6.65268 98.3383 6.83281 98.2481C7.01328 98.1593 7.20131 98.1139 7.39518 98.1139C7.72484 98.1139 7.97956 98.2027 8.16072 98.381C8.34187 98.559 8.43193 98.8039 8.43193 99.1148V100.724Z" fill="#6E5E5E"/>
<path fill-rule="evenodd" clip-rule="evenodd" d="M11.4236 99.7499C11.4236 100.096 11.3167 100.356 11.1032 100.531C10.9059 100.691 10.6281 100.772 10.2696 100.772C9.91349 100.772 9.63643 100.691 9.43912 100.531C9.22599 100.356 9.12012 100.096 9.12012 99.7499V98.1615H9.60549V99.6785C9.60549 99.9115 9.65912 100.079 9.76602 100.181C9.87259 100.283 10.0407 100.334 10.2696 100.334C10.501 100.334 10.6711 100.283 10.7777 100.181C10.8846 100.079 10.9375 99.9115 10.9375 99.6785V98.1615H11.4236V99.7499Z" fill="#6E5E5E"/>
<path fill-rule="evenodd" clip-rule="evenodd" d="M11.9372 97.7557H10.8448C10.4742 97.7557 10.2903 97.601 10.2903 97.2929V97.1272H10.7268V97.2488C10.7268 97.3393 10.7763 97.3861 10.8764 97.3861H12.0991V97.4135L11.9372 97.7557Z" fill="#6E5E5E"/>
<path fill-rule="evenodd" clip-rule="evenodd" d="M14.4018 100.724H13.9285V100.362L13.9213 100.358C13.7473 100.634 13.4658 100.772 13.0746 100.772C12.7831 100.772 12.5521 100.691 12.3823 100.531C12.2018 100.359 12.1111 100.11 12.1111 99.7826V98.1614H12.5971V99.7033C12.5971 100.123 12.8199 100.333 13.2644 100.333C13.462 100.333 13.6191 100.267 13.7384 100.135C13.8573 100.003 13.9158 99.8205 13.9158 99.5858V98.1614H14.4018V100.724Z" fill="#6E5E5E"/>
<path fill-rule="evenodd" clip-rule="evenodd" d="M17.3447 100.724H16.8593V99.2077C16.8593 99.0061 16.794 98.8466 16.6641 98.7284C16.5317 98.6116 16.3633 98.5518 16.155 98.5518C15.9958 98.5518 15.8442 98.5897 15.7012 98.6652C15.5723 98.7318 15.4781 98.8124 15.4183 98.9095C15.5125 98.9935 15.5843 99.0915 15.6328 99.2029V100.724H15.1464V99.2603C15.09 99.1253 15.0096 99.0232 14.9041 98.9539V98.918C14.9714 98.7059 15.1203 98.5224 15.3492 98.367C15.595 98.1976 15.8662 98.1139 16.1629 98.1139C16.5221 98.1139 16.8088 98.2102 17.0236 98.4029C17.2378 98.5959 17.3447 98.8647 17.3447 99.2077V100.724Z" fill="#6E5E5E"/>
<path fill-rule="evenodd" clip-rule="evenodd" d="M19.7454 100.724H19.2593V99.1148C19.2593 98.93 19.2109 98.7885 19.1163 98.6912C19.0198 98.5918 18.8881 98.5443 18.721 98.5443C18.4347 98.5443 18.1958 98.6843 18.0047 98.9662L17.7173 98.6164C17.8225 98.4603 17.9655 98.3383 18.1456 98.2481C18.3268 98.1593 18.5148 98.1139 18.7087 98.1139C19.0383 98.1139 19.293 98.2027 19.4735 98.381C19.6547 98.559 19.7454 98.8039 19.7454 99.1148V100.724Z" fill="#6E5E5E"/>
<path fill-rule="evenodd" clip-rule="evenodd" d="M22.1055 98.8331C21.8759 98.6343 21.626 98.5356 21.3561 98.5356C20.9863 98.5356 20.8017 98.6412 20.8017 98.8533C20.8017 98.9534 20.8694 99.0333 21.0045 99.0941C21.0904 99.1348 21.2413 99.1788 21.4575 99.2236C21.749 99.2881 21.9704 99.3681 22.121 99.4651C22.329 99.6045 22.4324 99.792 22.4324 100.029C22.4324 100.262 22.3197 100.447 22.0928 100.588C21.8927 100.711 21.6638 100.772 21.4046 100.772C20.9024 100.772 20.5002 100.614 20.1987 100.297L20.4944 99.9512C20.605 100.074 20.7432 100.173 20.9093 100.247C21.0756 100.321 21.2348 100.358 21.3884 100.358C21.54 100.358 21.6696 100.329 21.7772 100.273C21.8955 100.211 21.9553 100.129 21.9553 100.029C21.9553 99.8565 21.737 99.7271 21.2998 99.641C21.0131 99.585 20.7955 99.5115 20.648 99.4203C20.4263 99.2861 20.3163 99.102 20.3163 98.8652C20.3163 98.6405 20.4149 98.4581 20.6109 98.3201C20.8085 98.1821 21.0547 98.1134 21.3482 98.1134C21.7398 98.1134 22.0821 98.2388 22.3754 98.4874L22.1055 98.8331Z" fill="#6E5E5E"/>
<path fill-rule="evenodd" clip-rule="evenodd" d="M23.6187 100.724H22.9749V98.1614H23.4609V100.318H23.7724V100.333L23.6187 100.724Z" fill="#6E5E5E"/>
<path fill-rule="evenodd" clip-rule="evenodd" d="M24.7682 100.744L23.8425 99.0746H24.3602L25.0677 100.321C25.2443 100.276 25.3873 100.158 25.5015 99.9675C25.6142 99.7772 25.6713 99.5596 25.6713 99.3161C25.6713 99.0879 25.6204 98.9031 25.5169 98.7603C25.4059 98.6083 25.2509 98.5321 25.0522 98.5321H24.7198V98.5157L24.8422 98.114H25.1199C25.4472 98.114 25.7081 98.2387 25.9016 98.4881C26.0776 98.7138 26.1646 98.9878 26.1646 99.3123C26.1646 99.6652 26.07 99.9781 25.8775 100.249C25.6699 100.55 25.3952 100.715 25.0522 100.744H24.7682Z" fill="#6E5E5E"/>
<path fill-rule="evenodd" clip-rule="evenodd" d="M26.0479 97.7557H23.9634V97.7151L24.2459 97.3694H26.0479V97.7557Z" fill="#6E5E5E"/>
<path fill-rule="evenodd" clip-rule="evenodd" d="M29.0261 100.724H28.5528V100.362L28.5442 100.358C28.3723 100.634 28.0901 100.772 27.6982 100.772C27.4074 100.772 27.1764 100.691 27.0073 100.531C26.8261 100.359 26.7361 100.11 26.7361 99.7826V98.1614H27.2215V99.7033C27.2215 100.123 27.4435 100.333 27.8894 100.333C28.0863 100.333 28.2448 100.267 28.3627 100.135C28.4816 100.003 28.5408 99.8205 28.5408 99.5858V98.1614H29.0261V100.724Z" fill="#6E5E5E"/>
<path fill-rule="evenodd" clip-rule="evenodd" d="M32.0379 100.724H31.5525V99.1349C31.5525 98.9607 31.5089 98.8213 31.4223 98.7171C31.3284 98.6071 31.1974 98.5518 31.0349 98.5518C30.7777 98.5518 30.5735 98.6365 30.4192 98.8053C30.2789 98.9607 30.2078 99.1503 30.2078 99.373V100.724H29.7224V98.1614H30.1964V98.6164C30.4151 98.2809 30.7272 98.1139 31.1356 98.1139C31.3913 98.1139 31.6027 98.1976 31.7708 98.367C31.9485 98.5463 32.0379 98.7851 32.0379 99.082V100.724Z" fill="#6E5E5E"/>
<path fill-rule="evenodd" clip-rule="evenodd" d="M32.0379 97.7556H29.9541V97.715L30.236 97.3693H31.5969V97.164L32.0011 96.9871H32.0379V97.7556Z" fill="#6E5E5E"/>
<path fill-rule="evenodd" clip-rule="evenodd" d="M32.0138 96.7897L31.6459 96.9478H31.6208V96.2626H32.0138V96.7897Z" fill="#6E5E5E"/>
<path fill-rule="evenodd" clip-rule="evenodd" d="M33.4586 100.724H32.8155V98.1452C32.8155 98.0165 32.8928 97.8511 33.0479 97.6489C33.2036 97.446 33.2806 97.2947 33.2806 97.1919C33.2806 97.1153 33.251 97.0525 33.1915 97.005C33.1324 96.9586 33.0613 96.9343 32.9767 96.9343C32.7656 96.9343 32.5914 97.0658 32.4514 97.3292L32.1194 97.0279C32.3239 96.6887 32.6048 96.5206 32.9612 96.5206C33.207 96.5206 33.4002 96.5821 33.5439 96.7054C33.6869 96.8291 33.7574 96.9859 33.7574 97.1765C33.7574 97.3241 33.6821 97.4914 33.5291 97.6783C33.3768 97.8672 33.3009 98.0233 33.3009 98.1452V100.318H33.6123V100.333L33.4586 100.724Z" fill="#6E5E5E"/>
<path fill-rule="evenodd" clip-rule="evenodd" d="M36.3972 100.724H35.9112V99.7306C35.9112 99.3176 35.7218 99.0607 35.3412 98.962C35.1034 99.1335 34.9167 99.3456 34.7806 99.5997C34.6441 99.8525 34.5764 100.116 34.5764 100.385V100.724H34.0903V98.1613H34.5764V99.2554C34.6348 99.0501 34.8153 98.8353 35.1144 98.6143C35.4138 98.3929 35.7668 98.2146 36.1745 98.0807L36.3972 98.4547C36.1494 98.5309 35.94 98.6163 35.7695 98.7137C35.9507 98.7878 36.0978 98.9032 36.2106 99.0552C36.3347 99.2209 36.3972 99.4088 36.3972 99.6178V100.724Z" fill="#6E5E5E"/>
<path fill-rule="evenodd" clip-rule="evenodd" d="M40.8498 101.053C40.7013 101.322 40.4786 101.455 40.1819 101.455C40.0637 101.455 39.9241 101.429 39.7663 101.372C39.6065 101.315 39.4961 101.287 39.4373 101.287C39.3239 101.287 39.2002 101.359 39.0654 101.505L38.7852 101.198C38.9881 100.979 39.1974 100.868 39.4136 100.868C39.4961 100.868 39.624 100.899 39.7959 100.959C39.9671 101.02 40.0891 101.05 40.1616 101.05C40.3019 101.05 40.4139 100.977 40.4975 100.833L40.8498 101.053ZM40.8539 99.6818C40.8539 100.014 40.7584 100.267 40.5686 100.44C40.3785 100.613 40.1187 100.7 39.7897 100.7C39.46 100.7 39.2015 100.615 39.0162 100.447C38.8224 100.27 38.7247 100.014 38.7247 99.6818V99.1916C38.7247 98.988 38.6677 98.8298 38.5522 98.7192C38.4381 98.6085 38.2779 98.5518 38.0737 98.5518C37.9327 98.5518 37.7977 98.589 37.6681 98.6652C37.5498 98.7318 37.4608 98.8124 37.401 98.9094C37.4962 98.9935 37.5673 99.0915 37.6158 99.2035V100.318H38.0448V100.326L37.9152 100.724H37.1297V99.2596C37.0734 99.126 36.9912 99.0235 36.8867 98.9538V98.918C36.9544 98.7058 37.0954 98.5224 37.3082 98.367C37.5405 98.1976 37.7928 98.1135 38.0689 98.1135C38.4174 98.1135 38.6945 98.2081 38.9007 98.3943C39.1077 98.5812 39.2108 98.8473 39.2108 99.1889V99.6025C39.2108 100.043 39.4023 100.262 39.7897 100.262C40.175 100.262 40.3679 100.043 40.3679 99.6025V98.1613H40.8539V99.6818Z" fill="#6E5E5E"/>
<path fill-rule="evenodd" clip-rule="evenodd" d="M40.4532 97.8031H40.4243V96.9478H40.8468V97.6104L40.4532 97.8031Z" fill="#6E5E5E"/>
<path fill-rule="evenodd" clip-rule="evenodd" d="M43.8658 100.724H43.379V99.1349C43.379 98.9607 43.3368 98.8213 43.2501 98.7171C43.1556 98.6071 43.0267 98.5518 42.8614 98.5518C42.6049 98.5518 42.4 98.6365 42.2457 98.8053C42.1068 98.9607 42.0357 99.1503 42.0357 99.373V100.724H41.5503V98.1614H42.0236V98.6164C42.2429 98.2809 42.5551 98.1139 42.9635 98.1139C43.2192 98.1139 43.4313 98.1976 43.598 98.367C43.7757 98.5463 43.8658 98.7851 43.8658 99.082V100.724Z" fill="#6E5E5E"/>
<path fill-rule="evenodd" clip-rule="evenodd" d="M43.8657 97.7556H41.7812V97.715L42.0645 97.3693H43.424V97.164L43.829 96.9871H43.8657V97.7556Z" fill="#6E5E5E"/>
<path fill-rule="evenodd" clip-rule="evenodd" d="M43.8416 96.7897L43.4738 96.9478H43.448V96.2626H43.8416V96.7897Z" fill="#6E5E5E"/>
<path fill-rule="evenodd" clip-rule="evenodd" d="M46.8037 100.724H46.3183V99.7545C46.2317 99.6473 46.1189 99.5598 45.9801 99.4912C45.8408 99.4229 45.6985 99.3884 45.5535 99.3884C45.3702 99.3884 45.2211 99.4263 45.1076 99.5004C44.9742 99.5913 44.9052 99.7293 44.9052 99.912C44.9052 100.038 44.9533 100.142 45.0475 100.226C45.1413 100.308 45.2482 100.35 45.3675 100.35C45.5401 100.35 45.6758 100.304 45.7759 100.213L46.01 100.562C45.8429 100.703 45.6281 100.772 45.3675 100.772C45.0942 100.772 44.8687 100.688 44.6889 100.522C44.5095 100.356 44.4194 100.139 44.4194 99.8714C44.4194 99.579 44.5391 99.3491 44.7762 99.1796C44.9808 99.0328 45.2193 98.9586 45.4885 98.9586C45.812 98.9586 46.0894 99.056 46.3183 99.2521V99.0819C46.3183 98.9088 46.2492 98.7725 46.1114 98.6765C45.9852 98.5883 45.8247 98.5443 45.6308 98.5443C45.2737 98.5443 44.9962 98.6696 44.7962 98.9214L44.4397 98.6205C44.7202 98.2823 45.1293 98.1139 45.6669 98.1139C45.7779 98.1139 45.8872 98.132 45.9945 98.1699C46.1698 98.1699 46.3204 98.1473 46.4479 98.1012C46.5662 98.0579 46.6937 97.9844 46.8284 97.8799L47.1113 98.2389C47.0495 98.2895 46.9594 98.3356 46.8405 98.3769C46.7219 98.4175 46.6143 98.4442 46.5163 98.4548C46.7085 98.603 46.8037 98.8179 46.8037 99.1028V100.724Z" fill="#6E5E5E"/>
<mask id="mask0_885_35255" style="mask-type:luminance" maskUnits="userSpaceOnUse" x="46" y="101" width="1" height="1">
<path fill-rule="evenodd" clip-rule="evenodd" d="M46.1523 101.109H46.8038V101.999H46.1523V101.109Z" fill="white"/>
</mask>
<g mask="url(#mask0_885_35255)">
<path fill-rule="evenodd" clip-rule="evenodd" d="M46.8038 101.737L46.4325 101.999H46.3957V101.44H46.1523V101.368L46.2283 101.109H46.8038V101.737Z" fill="#6E5E5E"/>
</g>
<path fill-rule="evenodd" clip-rule="evenodd" d="M49.8236 100.724H49.3382V99.2603C49.3382 99.0454 49.2756 98.8739 49.1515 98.7445C49.0275 98.6164 48.86 98.5518 48.65 98.5518C48.3853 98.5518 48.1815 98.6403 48.0385 98.8172C47.914 98.9761 47.8525 99.1735 47.8525 99.4123C47.8525 99.6859 47.9195 99.9055 48.0533 100.072C48.186 100.238 48.3578 100.322 48.5689 100.322H48.9453V100.342L48.803 100.744H48.5125C48.1578 100.744 47.8752 100.613 47.6617 100.35C47.4596 100.103 47.3589 99.7979 47.3589 99.4369C47.3589 99.0587 47.4709 98.7458 47.6947 98.4995C47.9295 98.242 48.2423 98.1139 48.6339 98.1139C48.9862 98.1139 49.2736 98.2181 49.4932 98.4268C49.7136 98.6365 49.8236 98.9125 49.8236 99.2555V100.724Z" fill="#6E5E5E"/>
<path fill-rule="evenodd" clip-rule="evenodd" d="M52.5191 99.8273C52.5191 100.132 52.4198 100.369 52.2197 100.539C52.0396 100.695 51.8055 100.772 51.5195 100.772C51.2232 100.772 50.9829 100.697 50.799 100.547C50.5969 100.381 50.4955 100.144 50.4955 99.8352V99.4324C50.4955 99.2989 50.556 99.1475 50.6756 98.9802C50.7956 98.8124 50.8554 98.6977 50.8554 98.6365C50.8554 98.5904 50.8313 98.5675 50.7829 98.5675H50.3779V98.5563L50.5199 98.1614H50.8595C50.9919 98.1614 51.1019 98.1993 51.1912 98.2768C51.2803 98.3523 51.3253 98.4541 51.3253 98.5843C51.3253 98.6963 51.2682 98.8398 51.1527 99.0167C51.0386 99.1937 50.9809 99.3324 50.9809 99.4352V99.788C50.9809 100.151 51.1637 100.333 51.5274 100.333C51.8653 100.333 52.0338 100.149 52.0338 99.7792V98.1614H52.5191V99.8273Z" fill="#6E5E5E"/>
<path fill-rule="evenodd" clip-rule="evenodd" d="M54.0131 99.6818H53.5721V99.7867C53.5721 99.9581 53.6412 100.093 53.7821 100.193C53.9117 100.286 54.0736 100.333 54.2682 100.333C54.5219 100.333 54.7161 100.244 54.8512 100.064C54.9725 99.9025 55.0337 99.6903 55.0337 99.4242C55.0337 99.1534 54.9584 98.9412 54.8106 98.7851C54.6625 98.6297 54.4683 98.5515 54.228 98.5515C53.877 98.5515 53.5749 98.6843 53.3208 98.9498L53.0334 98.5955C53.36 98.2741 53.7674 98.1139 54.2562 98.1139C54.626 98.1139 54.9275 98.2362 55.1654 98.4794C55.4009 98.7229 55.5191 99.0314 55.5191 99.3996C55.5191 99.8259 55.4101 100.161 55.1949 100.406C54.9794 100.65 54.6704 100.772 54.2682 100.772C53.92 100.772 53.6398 100.682 53.4257 100.502C53.1995 100.314 53.0867 100.058 53.0867 99.7306V99.2555H54.0131V99.6818Z" fill="#6E5E5E"/>
<path fill-rule="evenodd" clip-rule="evenodd" d="M56.6725 100.744L55.7454 99.0746H56.2637L56.9719 100.321C57.1479 100.276 57.2915 100.158 57.405 99.9675C57.5191 99.7772 57.5755 99.5596 57.5755 99.3161C57.5755 99.0879 57.5246 98.9031 57.4211 98.7603C57.3101 98.6083 57.1551 98.5321 56.9557 98.5321H56.6233V98.5157L56.745 98.114H57.0241C57.3507 98.114 57.6116 98.2387 57.8058 98.4881C57.9818 98.7138 58.0688 98.9878 58.0688 99.3123C58.0688 99.6652 57.9735 99.9781 57.7817 100.249C57.5734 100.55 57.2988 100.715 56.9557 100.744H56.6725Z" fill="#6E5E5E"/>
<path fill-rule="evenodd" clip-rule="evenodd" d="M59.3513 100.724H58.7081V97.8429C58.7081 97.6643 58.6376 97.4969 58.4933 97.3415C58.3568 97.1932 58.1877 97.0911 57.9883 97.0358C58.0656 96.8964 58.198 96.7782 58.3805 96.6808C58.5857 96.5743 58.8095 96.5206 59.0525 96.5206C59.3499 96.5206 59.6359 96.5941 59.9147 96.7416L59.6998 97.0952C59.6293 97.0532 59.5372 97.0139 59.421 96.979C59.2863 96.9391 59.1653 96.9189 59.0604 96.9189C58.913 96.9189 58.7841 96.9391 58.6765 96.979C58.8181 97.0518 58.9377 97.156 59.0316 97.2919C59.1398 97.4542 59.1942 97.6315 59.1942 97.8282V100.318H59.5063V100.333L59.3513 100.724Z" fill="#6E5E5E"/>
<path fill-rule="evenodd" clip-rule="evenodd" d="M62.169 100.724H61.6836V99.7546C61.597 99.6473 61.4842 99.5598 61.3453 99.4912C61.2061 99.4229 61.0645 99.3884 60.9187 99.3884C60.7348 99.3884 60.5863 99.4263 60.4736 99.5004C60.3381 99.5913 60.2711 99.7293 60.2711 99.912C60.2711 100.038 60.3179 100.142 60.4127 100.226C60.5066 100.308 60.6128 100.35 60.7328 100.35C60.9101 100.35 61.049 100.304 61.1491 100.213L61.3752 100.562C61.2082 100.703 60.9947 100.772 60.7328 100.772C60.4595 100.772 60.2347 100.688 60.0542 100.522C59.8748 100.356 59.7854 100.139 59.7854 99.8714C59.7854 99.579 59.9037 99.3491 60.1415 99.1797C60.3461 99.0328 60.5846 98.9586 60.8531 98.9586C61.1766 98.9586 61.4546 99.056 61.6836 99.2521V99.0516C61.6836 98.89 61.6203 98.766 61.4956 98.6765C61.3701 98.5884 61.2102 98.5443 61.015 98.5443C60.6785 98.5443 60.3931 98.6697 60.1615 98.9214L59.8057 98.6205C60.1127 98.2823 60.5262 98.1139 61.0439 98.1139C61.3598 98.1139 61.6245 98.1969 61.8372 98.3622C62.059 98.5378 62.169 98.766 62.169 99.0468V100.724Z" fill="#6E5E5E"/>
<path fill-rule="evenodd" clip-rule="evenodd" d="M65.1124 100.724H64.6264V99.2077C64.6264 99.0061 64.56 98.8466 64.4305 98.7284C64.2995 98.6116 64.1297 98.5518 63.922 98.5518C63.7622 98.5518 63.612 98.5897 63.4683 98.6652C63.3394 98.7318 63.2445 98.8124 63.1857 98.9095C63.2796 98.9935 63.3514 99.0915 63.3999 99.2029V100.724H62.9138V99.2603C62.8571 99.1253 62.7767 99.0232 62.6711 98.9539V98.918C62.7385 98.7059 62.8867 98.5224 63.1163 98.367C63.3621 98.1976 63.6333 98.1139 63.9296 98.1139C64.2888 98.1139 64.5755 98.2102 64.7897 98.4029C65.0052 98.5959 65.1124 98.8647 65.1124 99.2077V100.724Z" fill="#6E5E5E"/>
<path fill-rule="evenodd" clip-rule="evenodd" d="M17.1915 92.3109C17.1915 91.651 16.6532 91.1147 15.9904 91.1147C15.3263 91.1147 14.7873 91.651 14.7873 92.3109C14.7873 92.9695 15.3263 93.5045 15.9904 93.5045C16.6532 93.5045 17.1915 92.9695 17.1915 92.3109ZM17.1681 89.4388C16.7477 89.4388 16.3503 89.5249 15.9904 89.6875C15.6298 89.5249 15.2311 89.4388 14.8113 89.4388C13.2143 89.4388 11.9204 90.7232 11.9204 92.3109C11.9204 93.897 13.2143 95.1824 14.8113 95.1824C15.2311 95.1824 15.6298 95.0932 15.9904 94.9337C16.3503 95.0932 16.7477 95.1824 17.1681 95.1824C18.7652 95.1824 20.0577 93.897 20.0577 92.3109C20.0577 90.7232 18.7652 89.4388 17.1681 89.4388ZM15.9904 94.907C14.5456 94.907 13.3779 93.7426 13.3779 92.3109C13.3779 90.878 14.5456 89.7131 15.9904 89.7131C17.4324 89.7131 18.6022 90.878 18.6022 92.3109C18.6022 93.7426 17.4324 94.907 15.9904 94.907Z" fill="#D92128"/>
<path fill-rule="evenodd" clip-rule="evenodd" d="M34.9363 94.2724C33.7472 94.2724 32.9295 93.443 32.9295 92.3229V92.311C32.9295 91.2346 33.7754 90.3468 34.9308 90.3468C35.619 90.3468 36.0346 90.533 36.4316 90.8711L35.9026 91.5031C35.609 91.2619 35.345 91.1181 34.9033 91.1181C34.2917 91.1181 33.8064 91.6551 33.8064 92.3021V92.311C33.8064 93.0047 34.2856 93.5151 34.9645 93.5151C35.2687 93.5151 35.5413 93.4392 35.7554 93.2869V92.7646H34.9088V92.0261H36.567V93.6719C36.1755 94.0042 35.6358 94.2724 34.9363 94.2724ZM30.6501 91.17V92.0261H32.3193V92.7646H30.6501V94.2109H29.8096V90.4148H32.7555V91.17H30.6501ZM27.5343 94.2662C26.5075 94.2662 25.8853 93.6999 25.8853 92.5832V90.4148H26.7237V92.561C26.7237 93.1796 27.0348 93.4983 27.5457 93.4983C28.0578 93.4983 28.3676 93.1909 28.3676 92.5897V90.4148H29.208V92.5572C29.208 93.7033 28.5614 94.2662 27.5343 94.2662ZM24.4526 94.2109V91.732L23.3777 93.3511H23.3536L22.2949 91.7504V94.2109H21.4702V90.4148H22.3746L23.3777 92.022L24.3807 90.4148H25.2872V94.2109H24.4526Z" fill="#58585B"/>
<mask id="mask1_885_35255" style="mask-type:luminance" maskUnits="userSpaceOnUse" x="0" y="0" width="66" height="103">
<path fill-rule="evenodd" clip-rule="evenodd" d="M0 102.126H66V0H0V102.126Z" fill="white"/>
</mask>
<g mask="url(#mask1_885_35255)">
<path fill-rule="evenodd" clip-rule="evenodd" d="M0 86.1978H66V-0.000366211H0V86.1978Z" fill="#6E5E5E"/>
<path fill-rule="evenodd" clip-rule="evenodd" d="M16.813 58.8746H18.1639C18.1639 58.8746 18.3887 58.9303 18.3887 59.1114V59.7676H18.419C18.7902 59.0246 19.5138 58.7189 20.4272 58.7189V59.9134V60.3025C20.3161 60.3025 20.2154 60.3121 20.1151 60.322C19.1708 60.4149 18.3887 60.9423 18.3887 62.213V64.8634C18.3887 64.8634 18.4204 65.3485 17.9646 65.3485H16.813V58.8746Z" fill="#FEFEFE"/>
<path fill-rule="evenodd" clip-rule="evenodd" d="M49.7532 58.8746H51.0993C51.0993 58.8746 51.3275 58.9303 51.3275 59.1114V59.7676H51.3502C51.7242 59.0246 52.454 58.7189 53.3584 58.7189V59.9134V60.3025C53.2539 60.3025 53.1511 60.3121 53.0504 60.322C52.1103 60.4149 51.3275 60.9423 51.3275 62.213V64.8634C51.3275 64.8634 51.3619 65.3485 50.8972 65.3485H49.7532V58.8746Z" fill="#FEFEFE"/>
<path fill-rule="evenodd" clip-rule="evenodd" d="M27.2058 59.1799V65.0877C27.2058 65.0877 27.2028 65.3487 26.9697 65.3487H25.6315V64.7079H25.6053C25.2547 65.1615 24.6277 65.5045 23.7374 65.5045C22.6309 65.5045 21.3552 65.0481 21.3552 63.1649V58.8745H22.6962C22.6962 58.8745 22.9258 58.9107 22.9258 59.1799V62.7147C22.9258 63.6069 23.2847 63.9977 24.0873 63.9977C25.2753 63.9977 25.6315 63.1359 25.6315 62.3564V58.8745H26.9473C26.9473 58.8745 27.2058 58.9107 27.2058 59.1799Z" fill="#FEFEFE"/>
<path fill-rule="evenodd" clip-rule="evenodd" d="M28.7507 58.8746H30.0494C30.0494 58.8746 30.323 58.9105 30.323 59.1609V59.5127H30.3512C30.8095 58.9494 31.4983 58.7189 32.1277 58.7189C33.6715 58.7189 34.3683 59.4963 34.3683 60.9197V65.1036C34.3683 65.1036 34.3827 65.3485 34.1407 65.3485H32.7991V61.3949C32.7991 60.8019 32.5285 60.2267 31.7145 60.2267C30.9542 60.2267 30.323 60.738 30.323 61.9322V65.0875C30.323 65.0875 30.3251 65.3485 30.0869 65.3485H28.7507V58.8746Z" fill="#FEFEFE"/>
<path fill-rule="evenodd" clip-rule="evenodd" d="M38.6968 60.1556C37.5139 60.1556 37.1647 61.179 37.1516 61.8677C37.1647 62.559 37.5139 63.5804 38.6968 63.5804C39.8851 63.5804 40.2319 62.559 40.2429 61.8677C40.2319 61.179 39.8851 60.1556 38.6968 60.1556ZM41.7675 59.1653V65.2159C41.7675 66.8959 40.3739 67.7304 38.6256 67.7304C36.5624 67.7304 35.7219 66.2998 35.7219 65.4889H37.374C37.4888 65.9391 37.9261 66.2998 38.7102 66.2998C39.728 66.2998 40.1952 65.7861 40.1952 64.9901V64.2964C39.6892 64.8381 38.9016 65.0188 38.3355 65.0188C36.7109 65.0188 35.5037 63.8202 35.5037 61.8677C35.5037 59.9223 36.7109 58.7189 38.3355 58.7189C39.277 58.7189 39.783 59.0376 40.167 59.4963H40.1952V58.8746H41.4976C41.4976 58.8746 41.7675 58.8746 41.7675 59.1653Z" fill="#FEFEFE"/>
<path fill-rule="evenodd" clip-rule="evenodd" d="M48.4123 60.0816L47.6712 60.7767L47.5172 60.9199C47.4811 60.8574 47.4494 60.7938 47.4051 60.7317C47.159 60.3562 46.666 60.001 45.8737 60.001C45.1412 59.9846 44.6805 60.2401 44.6805 60.622C44.6805 61.7551 48.7883 60.7938 48.7883 63.2396C48.7883 64.7997 47.3831 65.5044 45.8902 65.5044C44.4715 65.5044 43.4602 65.0668 42.8679 64.4721C42.7411 64.3395 42.8941 64.2036 42.8941 64.2036L43.9191 63.4179C44.277 63.9447 44.9566 64.2261 45.7957 64.2261C46.5457 64.2261 47.0648 63.82 47.0648 63.4698C47.0648 62.3655 43.0268 63.2782 43.0268 60.817C43.0268 59.3571 44.3034 58.719 45.916 58.719C47.2294 58.719 48.0187 59.2816 48.4195 59.683C48.6371 59.8907 48.4123 60.0816 48.4123 60.0816Z" fill="#FEFEFE"/>
<path fill-rule="evenodd" clip-rule="evenodd" d="M54.2904 58.8747H55.6252C55.6252 58.8747 55.862 58.8945 55.862 59.1339V65.0875C55.862 65.0875 55.9012 65.3485 55.6183 65.3485H54.2904V58.8747ZM55.8682 56.4514C55.8682 56.2533 55.6042 56.2345 55.6042 56.2345H54.2904V57.5937C54.2904 57.5937 54.2601 57.8167 54.5214 57.8167H55.8682V56.4514Z" fill="#FEFEFE"/>
<path fill-rule="evenodd" clip-rule="evenodd" d="M15.9811 58.8747H14.2933C13.9688 58.8747 13.711 59.1042 13.711 59.1042L11.4701 61.3041V57.8007C11.4701 57.5161 11.2298 57.3245 11.2298 57.3245L9.89673 56.2345V65.3485H11.1995C11.4962 65.3485 11.4701 65.0093 11.4701 65.0093V63.2853C11.4701 63.217 11.5282 63.1449 11.6117 63.1449C11.721 63.1449 11.8595 63.2969 11.8595 63.2969L13.6783 65.0875C13.6783 65.0875 13.9949 65.3485 14.3703 65.3485H15.9811L12.6938 62.1061L15.9811 58.8747Z" fill="#FEFEFE"/>
<path fill-rule="evenodd" clip-rule="evenodd" d="M16.0645 70.9791C15.8521 71.028 15.6565 71.1096 15.4829 71.2087C15.3117 71.3139 15.1722 71.4382 15.0584 71.6002C14.9439 71.7713 14.8906 71.9691 14.8906 72.2061C14.8906 72.2061 14.8906 72.5788 15.0257 72.8166C15.1216 72.9921 15.2914 73.164 15.4506 73.2835C15.6118 73.4068 15.7868 73.5093 15.9796 73.5995C16.1659 73.6869 16.3409 73.7744 16.5038 73.8676C16.6596 73.9694 16.7967 74.0658 16.9022 74.1792C17.0112 74.2963 17.0638 74.4439 17.0638 74.6256C17.0638 74.7517 16.9933 74.8688 16.8593 74.972C16.7242 75.0758 16.2051 75.1957 15.6393 75.0017C15.5077 74.9563 14.9494 74.6796 14.9494 74.6796V75.5223C15.1192 75.606 15.2553 75.676 15.4111 75.7184C15.5554 75.7683 15.8944 75.8724 16.3024 75.8724C16.8689 75.8724 17.2687 75.73 17.5327 75.4666C17.7936 75.1992 17.9301 74.8688 17.9301 74.4576C17.9301 74.2755 17.8919 74.1119 17.8156 73.9732C17.7434 73.8328 17.6482 73.7112 17.5327 73.594C17.4186 73.4796 17.2876 73.3737 17.1418 73.289C16.9961 73.2097 16.8593 73.125 16.7194 73.0502C16.5946 72.9856 16.4784 72.9269 16.3636 72.8722C16.2539 72.8244 16.1522 72.7616 16.0645 72.6973C15.9697 72.6355 15.8999 72.5542 15.848 72.4678C15.7916 72.3868 15.7651 72.2799 15.7651 72.1535C15.7651 72.035 15.7916 71.9359 15.848 71.8557C15.8999 71.7785 15.9697 71.7201 16.0542 71.6777C16.1453 71.6364 16.3082 71.6002 16.4114 71.5902C17.1222 71.5175 17.7056 71.8505 17.7056 71.8505V71.1475C17.1315 70.9433 16.5489 70.8866 16.0645 70.9791Z" fill="#FEFEFE"/>
<path fill-rule="evenodd" clip-rule="evenodd" d="M13.205 71.4157C12.888 71.0833 12.4147 70.9187 11.7829 70.9187C11.1397 70.9187 10.6598 71.0833 10.3443 71.4157C10.0218 71.7395 9.86475 72.215 9.86475 72.8299V75.7454H10.4422V75.7563H10.5175C10.6537 75.7563 10.7155 75.6678 10.7155 75.5544V75.5503H10.7183V73.0376C10.7183 72.8299 10.7238 72.6352 10.7403 72.4678C10.7585 72.2861 10.8059 72.1413 10.874 72.0077C10.9424 71.8816 11.0493 71.7785 11.1868 71.7109C11.3264 71.6364 11.5213 71.6002 11.7829 71.6002C12.0183 71.6002 12.2088 71.6364 12.3477 71.702C12.4845 71.7648 12.5921 71.8584 12.6577 71.979C12.7337 72.0951 12.7773 72.2355 12.7987 72.3968C12.8169 72.5542 12.8289 72.7322 12.8289 72.9269V75.7454H13.4074H13.4332H13.4755C13.6151 75.7454 13.6845 75.6678 13.6845 75.5503V75.4735V72.8299C13.6845 72.215 13.5233 71.7395 13.205 71.4157Z" fill="#FEFEFE"/>
<path fill-rule="evenodd" clip-rule="evenodd" d="M28.6594 70.9791C28.4411 71.028 28.2459 71.1096 28.0726 71.2087C27.8994 71.3139 27.7591 71.4382 27.6477 71.6002C27.5357 71.7713 27.48 71.9691 27.48 72.2061C27.48 72.2061 27.48 72.5788 27.6151 72.8166C27.712 72.9921 27.8839 73.164 28.0424 73.2835C28.2043 73.4068 28.3806 73.5093 28.5666 73.5995C28.756 73.6869 28.932 73.7744 29.0925 73.8676C29.2541 73.9694 29.3885 74.0658 29.4961 74.1792C29.6026 74.2963 29.6556 74.4439 29.6556 74.6256C29.6556 74.7517 29.5889 74.8688 29.4531 74.972C29.3139 75.0758 28.7962 75.1957 28.2338 75.0017C28.0939 74.9563 27.5422 74.6796 27.5422 74.6796V75.5223C27.712 75.606 27.8437 75.676 27.999 75.7184C28.1506 75.7683 28.482 75.8724 28.8952 75.8724C29.461 75.8724 29.857 75.73 30.122 75.4666C30.3895 75.1992 30.5191 74.8688 30.5191 74.4576C30.5191 74.2755 30.4799 74.1119 30.4111 73.9732C30.3352 73.8328 30.2424 73.7112 30.122 73.594C30.0041 73.4796 29.8759 73.3737 29.7309 73.289C29.5916 73.2097 29.449 73.125 29.3049 73.0502C29.1864 72.9856 29.0664 72.9269 28.9554 72.8722C28.8471 72.8244 28.7453 72.7616 28.6532 72.6973C28.5631 72.6355 28.4892 72.5542 28.4397 72.4678C28.3806 72.3868 28.3572 72.2799 28.3572 72.1535C28.3572 72.035 28.3806 71.9359 28.4397 71.8557C28.4892 71.7785 28.5614 71.7201 28.6449 71.6777C28.7374 71.6364 28.901 71.6002 29.0086 71.5902C29.7116 71.5175 30.2943 71.8505 30.2943 71.8505V71.1475C29.7257 70.9433 29.1393 70.8866 28.6594 70.9791Z" fill="#FEFEFE"/>
<path fill-rule="evenodd" clip-rule="evenodd" d="M17.5024 76.3431C17.6227 76.3431 17.6932 76.4343 17.6932 76.5484V77.5151C17.6932 77.6808 17.5103 77.77 17.5103 77.77L16.9624 78.0651V76.3431H17.5024Z" fill="#FEFEFE"/>
<path fill-rule="evenodd" clip-rule="evenodd" d="M20.9876 71.1339C21.1533 71.1339 21.2234 71.2258 21.2234 71.4068V75.4872C21.2234 75.7041 21.0076 75.7454 21.0076 75.7454H19.9492L18.678 72.5785H19.3565C19.5851 72.5785 19.6419 72.7541 19.6419 72.7541L20.3599 74.6134V71.1339H20.9876Z" fill="#FEFEFE"/>
<path fill-rule="evenodd" clip-rule="evenodd" d="M25.0527 71.4742L25.448 70.9689C25.448 70.9689 25.5632 70.8108 25.7753 70.8108H26.4215V70.8207L25.5965 71.8817" fill="#FEFEFE"/>
<path fill-rule="evenodd" clip-rule="evenodd" d="M30.3447 69.7208C30.3447 69.9366 30.2983 70.0214 30.0869 70.0214H27.3503V70.0125L27.7567 69.4939C27.7567 69.4939 27.8532 69.3361 28.1358 69.3361H29.6167V68.8026C29.6167 68.5809 29.7614 68.5044 29.7614 68.5044L30.3447 68.1956V69.7208Z" fill="#FEFEFE"/>
<path fill-rule="evenodd" clip-rule="evenodd" d="M25.8094 71.4157C25.4911 71.0833 25.0146 70.9187 24.3818 70.9187C23.7407 70.9187 23.2611 71.0833 22.9432 71.4157C22.6311 71.7395 22.4678 72.215 22.4678 72.8299V75.7454H23.048L23.0439 75.7563H23.1144C23.2594 75.7563 23.3258 75.6678 23.3258 75.5544V75.5503V73.7273H24.0813C24.2491 73.7273 24.2927 73.6866 24.344 73.6132C24.3536 73.6094 24.7015 73.0376 24.7015 73.0376H23.3258C23.3258 72.8299 23.3313 72.6352 23.3457 72.4678C23.3622 72.2861 23.411 72.1413 23.477 72.0077C23.5478 71.8816 23.6541 71.7785 23.7905 71.7109C23.9301 71.6364 24.1295 71.6002 24.3818 71.6002C24.6238 71.6002 24.8091 71.6364 24.95 71.702C25.0937 71.7648 25.1971 71.8584 25.2669 71.979C25.335 72.0951 25.3811 72.2355 25.4017 72.3968C25.4213 72.5542 25.4354 72.7322 25.4354 72.9269V75.7454H26.0115H26.0366H26.0799C26.2164 75.7454 26.282 75.6678 26.282 75.5503V75.4735V72.8299C26.282 72.215 26.1249 71.7395 25.8094 71.4157Z" fill="#FEFEFE"/>
<path fill-rule="evenodd" clip-rule="evenodd" d="M27.3368 35.6737C27.3296 35.671 27.3241 35.6648 27.3241 35.6648C26.1815 34.4962 24.8007 32.5744 23.9275 29.8045C23.9275 29.8045 23.8907 29.6982 23.8382 29.6982C23.7845 29.6982 23.745 29.8181 23.745 29.8181V29.811C21.8551 35.9077 17.2839 38.321 15.7177 38.8485C15.6318 38.8809 15.6304 38.9485 15.6394 38.9871C16.4389 41.133 17.6376 43.0948 19.1367 44.7768C19.1656 44.7997 19.2185 44.8219 19.3037 44.7788C24.2005 42.0065 26.9831 36.5902 27.3561 35.8356C27.3953 35.7547 27.3578 35.7024 27.3368 35.6737Z" fill="#FFD300"/>
<path fill-rule="evenodd" clip-rule="evenodd" d="M38.4389 35.6737C38.4523 35.671 38.4557 35.6648 38.4557 35.6648C39.5969 34.4962 40.9819 32.5744 41.8516 29.8045C41.8516 29.8045 41.8908 29.6982 41.9424 29.6982C41.9991 29.6982 42.0355 29.8181 42.0355 29.8181V29.811C43.9275 35.9077 48.4942 38.321 50.0621 38.8485C50.1459 38.8809 50.1511 38.9485 50.1384 38.9871C49.3443 41.133 48.1505 43.0948 46.6445 44.7768C46.6184 44.7997 46.5596 44.8219 46.4812 44.7788C41.579 42.0065 38.7933 36.5902 38.4265 35.8356C38.3863 35.7547 38.4237 35.7024 38.4389 35.6737Z" fill="#FFD300"/>
<path fill-rule="evenodd" clip-rule="evenodd" d="M41.7542 48.5586C34.8249 41.8596 33.0095 29.9056 33.0095 29.9056C33.0095 29.9056 32.9817 29.6986 32.8913 29.6986C32.7991 29.6986 32.772 29.9056 32.772 29.9056C32.772 29.9056 30.9542 41.8596 24.0294 48.5586C24.0294 48.5586 23.9596 48.6224 24.0342 48.6675C26.6257 50.0855 29.604 50.9036 32.772 50.9265H32.8913H33.0095C36.1775 50.9036 39.1547 50.0855 41.749 48.6651C41.8219 48.6153 41.7542 48.5586 41.7542 48.5586Z" fill="#FFD300"/>
<path fill-rule="evenodd" clip-rule="evenodd" d="M42.4853 17.0476C42.3795 16.995 42.3767 17.1344 42.3767 17.1344C42.3881 19.2915 42.6765 31.1909 51.0481 34.8203C51.1255 34.8562 51.1496 34.795 51.1523 34.7779C51.2327 34.0767 51.284 33.3675 51.284 32.6464C51.284 26.0383 47.7612 20.26 42.4853 17.0476Z" fill="#FFD300"/>
<path fill-rule="evenodd" clip-rule="evenodd" d="M23.2985 17.0476C23.403 16.995 23.403 17.1344 23.403 17.1344C23.3937 19.2915 23.1039 31.1909 14.7316 34.8203C14.6576 34.8562 14.6336 34.795 14.6281 34.7779C14.5473 34.0767 14.4978 33.3675 14.4978 32.6464C14.4978 26.0383 18.023 20.26 23.2985 17.0476Z" fill="#FFD300"/>
<path fill-rule="evenodd" clip-rule="evenodd" d="M41.3828 16.4252C38.9903 15.1852 36.2963 14.4597 33.4322 14.3708C33.3538 14.3708 33.3645 14.4662 33.3645 14.4662C33.3645 18.0959 33.9527 26.5865 36.8041 32.3215C36.8271 32.3881 36.8773 32.3601 36.9027 32.3485C36.9048 32.3447 36.9117 32.3386 36.9154 32.3358C37.1987 32.0352 41.6197 27.2075 41.4478 16.5488C41.4412 16.4774 41.4003 16.4351 41.3828 16.4252Z" fill="#FFD300"/>
<path fill-rule="evenodd" clip-rule="evenodd" d="M24.399 16.4252C26.7867 15.1852 29.4861 14.4597 32.3468 14.3708C32.4228 14.3708 32.4187 14.4662 32.4187 14.4662C32.4187 18.0959 31.8291 26.5865 28.9739 32.3215C28.9516 32.3881 28.898 32.3601 28.8832 32.3485C28.8749 32.3447 28.8739 32.3386 28.8636 32.3358C28.58 32.0352 24.1618 27.2075 24.335 16.5488C24.3419 16.4774 24.3763 16.4351 24.399 16.4252Z" fill="#FFD300"/>
</g>
</svg>
