<svg width="80" height="80" viewBox="0 0 80 80" fill="none" xmlns="http://www.w3.org/2000/svg">
<mask id="mask0_59_43600" style="mask-type:alpha" maskUnits="userSpaceOnUse" x="0" y="0" width="80" height="80">
<rect width="80" height="80" fill="#D9D9D9"/>
</mask>
<g mask="url(#mask0_59_43600)">
<path d="M11.3333 33.25L6.33333 37.0833C5.75845 37.5278 5.1425 37.6944 4.4855 37.5833C3.8285 37.4722 3.27778 37.1389 2.83333 36.5833C2.38889 36.0278 2.22067 35.4114 2.32867 34.7342C2.43678 34.0569 2.77167 33.5066 3.33333 33.0833L35 9C35.9006 8.33333 36.9035 8 38.0088 8C39.114 8 40.1111 8.33333 41 9L72.75 33.1667C73.3023 33.5899 73.6209 34.1402 73.7059 34.8175C73.7909 35.4947 73.6111 36.1214 73.1667 36.6975C72.7222 37.2325 72.1806 37.5417 71.5417 37.625C70.9028 37.7083 70.3056 37.5278 69.75 37.0833L64.6667 33.25L38 12.9167L16.3333 29.4167V61.6667H36.4167C36.5278 62.5556 36.6389 63.4167 36.75 64.25C36.8611 65.0833 37.0556 65.8889 37.3333 66.6667H16.3333C14.9583 66.6667 13.7813 66.1771 12.8021 65.1979C11.8229 64.2188 11.3333 63.0417 11.3333 61.6667V33.25Z" fill="#AEAEAE"/>
<path d="M47.5 71C44.9 71 42.6667 70.0667 40.8 68.2C38.9333 66.3333 38 64.1 38 61.5C38 58.9 38.9333 56.6667 40.8 54.8C42.6667 52.9333 44.9 52 47.5 52C50.1 52 52.3333 52.9333 54.2 54.8C56.0667 56.6667 57 58.9 57 61.5C57 64.1 56.0667 66.3333 54.2 68.2C52.3333 70.0667 50.1 71 47.5 71ZM76.9 67.9C76.6 68.2 76.2333 68.35 75.8 68.35C75.3667 68.35 75 68.2 74.7 67.9L62.65 55.85C62.1833 56.2167 61.6583 56.575 61.075 56.925C60.4917 57.275 59.9333 57.5667 59.4 57.8C59.2333 57.3333 59.05 56.8583 58.85 56.375C58.65 55.8917 58.4167 55.45 58.15 55.05C59.95 54.35 61.475 53.1917 62.725 51.575C63.975 49.9583 64.6 48.0333 64.6 45.8C64.6 43.1 63.65 40.7917 61.75 38.875C59.85 36.9583 57.55 36 54.85 36C52.1167 36 49.7917 36.9583 47.875 38.875C45.9583 40.7917 45 43.1 45 45.8C45 46.3667 45.0583 46.9583 45.175 47.575C45.2917 48.1917 45.4333 48.7167 45.6 49.15C45.1667 49.2167 44.6833 49.325 44.15 49.475C43.6167 49.625 43.1333 49.8 42.7 50C42.4667 49.4 42.2917 48.7333 42.175 48C42.0583 47.2667 42 46.5333 42 45.8C42 42.2333 43.25 39.2083 45.75 36.725C48.25 34.2417 51.2833 33 54.85 33C58.3833 33 61.3917 34.25 63.875 36.75C66.3583 39.25 67.6 42.2667 67.6 45.8C67.6 47.2333 67.35 48.65 66.85 50.05C66.35 51.45 65.6667 52.6667 64.8 53.7L76.9 65.7C77.2 66 77.35 66.3667 77.35 66.8C77.35 67.2333 77.2 67.6 76.9 67.9ZM47.5 62.75L50.35 65.6C50.5167 65.7667 50.7083 65.8417 50.925 65.825C51.1417 65.8083 51.3333 65.7167 51.5 65.55C51.6667 65.3833 51.75 65.1917 51.75 64.975C51.75 64.7583 51.6667 64.5667 51.5 64.4L48.6 61.55L51.6 58.55C51.7667 58.3833 51.85 58.1917 51.85 57.975C51.85 57.7583 51.7667 57.5667 51.6 57.4C51.4333 57.2333 51.2417 57.15 51.025 57.15C50.8083 57.15 50.6167 57.2333 50.45 57.4L47.5 60.35L44.55 57.4C44.3833 57.2333 44.2 57.15 44 57.15C43.8 57.15 43.6167 57.2333 43.45 57.4C43.2833 57.5667 43.2 57.7583 43.2 57.975C43.2 58.1917 43.2833 58.3833 43.45 58.55L46.35 61.5L43.45 64.4C43.2833 64.5667 43.2 64.7667 43.2 65C43.2 65.2333 43.2833 65.4333 43.45 65.6C43.6167 65.7667 43.8167 65.85 44.05 65.85C44.2833 65.85 44.4833 65.7667 44.65 65.6L47.5 62.75Z" fill="#AEAEAE"/>
</g>
</svg>
