<svg width="40" height="40" viewBox="0 0 40 40" fill="none" xmlns="http://www.w3.org/2000/svg">
<mask id="mask0_36_43181" style="mask-type:alpha" maskUnits="userSpaceOnUse" x="0" y="0" width="40" height="40">
<rect width="40" height="40" fill="#D9D9D9"/>
</mask>
<g mask="url(#mask0_36_43181)">
<path d="M13.8761 27.5982L20 21.4743L26.124 27.5982L27.5983 26.1239L21.4744 20L27.5983 13.8761L26.124 12.4017L20 18.5256L13.8761 12.4017L12.4018 13.8761L18.5257 20L12.4018 26.1239L13.8761 27.5982ZM20.0028 35.8333C17.8243 35.8333 15.7734 35.4177 13.8501 34.5866C11.9267 33.7555 10.2478 32.6229 8.81312 31.1889C7.37848 29.7549 6.24543 28.0767 5.41396 26.1542C4.58248 24.2317 4.16675 22.1812 4.16675 20.0028C4.16675 17.8129 4.5823 15.7545 5.41341 13.8276C6.24453 11.9007 7.37708 10.2245 8.81108 8.79919C10.2451 7.3738 11.9233 6.24537 13.8458 5.4139C15.7683 4.58242 17.8188 4.16669 19.9972 4.16669C22.1871 4.16669 24.2455 4.58224 26.1724 5.41335C28.0993 6.24446 29.7755 7.37238 31.2008 8.7971C32.6262 10.2219 33.7547 11.8973 34.5861 13.8233C35.4176 15.7493 35.8333 17.8073 35.8333 19.9972C35.8333 22.1757 35.4178 24.2266 34.5867 26.1499C33.7556 28.0733 32.6276 29.7523 31.2029 31.1869C29.7782 32.6215 28.1028 33.7546 26.1767 34.5861C24.2507 35.4175 22.1927 35.8333 20.0028 35.8333ZM20 33.7393C23.8277 33.7393 27.0745 32.4035 29.7404 29.7318C32.4064 27.0602 33.7394 23.8162 33.7394 20C33.7394 16.1723 32.4064 12.9255 29.7404 10.2596C27.0745 7.59363 23.8277 6.26064 20 6.26064C16.1838 6.26064 12.9398 7.59363 10.2682 10.2596C7.59654 12.9255 6.26071 16.1723 6.26071 20C6.26071 23.8162 7.59654 27.0602 10.2682 29.7318C12.9398 32.4035 16.1838 33.7393 20 33.7393Z" fill="#202020"/>
</g>
</svg>
