<svg width="14" height="13" viewBox="0 0 14 13" fill="none" xmlns="http://www.w3.org/2000/svg">
<path d="M13.5 0.587402C13.5 0.493652 13.4688 0.415527 13.4062 0.353027C13.3438 0.290527 13.2656 0.259277 13.1719 0.259277H9.32812C9.23438 0.259277 9.15625 0.29834 9.09375 0.376465C9.03125 0.438965 9 0.51709 9 0.61084V1.38428C9 1.47803 9.03125 1.55615 9.09375 1.61865C9.17188 1.68115 9.25781 1.7124 9.35156 1.7124L11.0625 1.66553L11.1094 1.7124L4.59375 8.22803C4.53125 8.29053 4.5 8.36084 4.5 8.43896C4.5 8.51709 4.53125 8.57959 4.59375 8.62646L5.13281 9.16553C5.17969 9.22803 5.24219 9.25928 5.32031 9.25928C5.39844 9.25928 5.46875 9.22803 5.53125 9.16553L12.0469 2.6499L12.0938 2.69678L12.0469 4.40771C12.0469 4.50146 12.0781 4.5874 12.1406 4.66553C12.2031 4.72803 12.2812 4.75928 12.375 4.75928H13.1484C13.2422 4.75928 13.3203 4.72803 13.3828 4.66553C13.4609 4.60303 13.5 4.5249 13.5 4.43115V0.587402ZM10.0312 5.74365C10.1094 5.6499 10.2031 5.62646 10.3125 5.67334C10.4375 5.72021 10.5 5.80615 10.5 5.93115V11.1343C10.5 11.4468 10.3906 11.7124 10.1719 11.9312C9.95312 12.1499 9.6875 12.2593 9.375 12.2593H1.125C0.8125 12.2593 0.546875 12.1499 0.328125 11.9312C0.109375 11.7124 0 11.4468 0 11.1343V2.88428C0 2.57178 0.109375 2.30615 0.328125 2.0874C0.546875 1.86865 0.8125 1.75928 1.125 1.75928H7.78125C7.85938 1.75928 7.92188 1.79053 7.96875 1.85303L8.53125 2.41553C8.625 2.49365 8.64844 2.59521 8.60156 2.72021C8.55469 2.82959 8.46875 2.88428 8.34375 2.88428H1.26562C1.23438 2.88428 1.20312 2.8999 1.17188 2.93115C1.14062 2.9624 1.125 2.99365 1.125 3.0249V10.9937C1.125 11.0249 1.14062 11.0562 1.17188 11.0874C1.20312 11.1187 1.23438 11.1343 1.26562 11.1343H9.23438C9.26562 11.1343 9.29688 11.1187 9.32812 11.0874C9.35938 11.0562 9.375 11.0249 9.375 10.9937V6.49365C9.375 6.41553 9.40625 6.35303 9.46875 6.30615L10.0312 5.74365Z" fill="#F76F00"/>
</svg>
