<svg width="40" height="40" viewBox="0 0 40 40" fill="none" xmlns="http://www.w3.org/2000/svg">
<path d="M20 40C17.2667 40 14.6833 39.475 12.25 38.425C9.81667 37.375 7.69167 35.9417 5.875 34.125C4.05833 32.3083 2.625 30.1833 1.575 27.75C0.525 25.3167 0 22.7333 0 20C0 17.2333 0.525 14.6333 1.575 12.2C2.625 9.76667 4.05833 7.65 5.875 5.85C7.69167 4.05 9.81667 2.625 12.25 1.575C14.6833 0.525 17.2667 0 20 0C22.7667 0 25.3667 0.525 27.8 1.575C30.2333 2.625 32.35 4.05 34.15 5.85C35.95 7.65 37.375 9.76667 38.425 12.2C39.475 14.6333 40 17.2333 40 20C40 22.7333 39.475 25.3167 38.425 27.75C37.375 30.1833 35.95 32.3083 34.15 34.125C32.35 35.9417 30.2333 37.375 27.8 38.425C25.3667 39.475 22.7667 40 20 40ZM21.6 21.5L18.95 24.15C18.65 24.45 18.5 24.8 18.5 25.2C18.5 25.6 18.65 25.95 18.95 26.25C19.25 26.55 19.6 26.7 20 26.7C20.4 26.7 20.75 26.55 21.05 26.25L26.25 21.05C26.55 20.75 26.7 20.4 26.7 20C26.7 19.6 26.55 19.25 26.25 18.95L21.05 13.75C20.75 13.45 20.4 13.3 20 13.3C19.6 13.3 19.25 13.45 18.95 13.75C18.65 14.05 18.5 14.4 18.5 14.8C18.5 15.2 18.65 15.55 18.95 15.85L21.6 18.5H14C13.5667 18.5 13.2083 18.6417 12.925 18.925C12.6417 19.2083 12.5 19.5667 12.5 20C12.5 20.4333 12.6417 20.7917 12.925 21.075C13.2083 21.3583 13.5667 21.5 14 21.5H21.6Z" fill="#EBEBEB"/>
</svg>
