<svg width="24" height="24" viewBox="0 0 24 24" fill="none" xmlns="http://www.w3.org/2000/svg">
<path d="M21.3008 7.64453C21.7227 9.12109 21.7227 12.2852 21.7227 12.2852C21.7227 12.2852 21.7227 15.4141 21.3008 16.9258C21.0898 17.7695 20.4219 18.4023 19.6133 18.6133C18.1016 19 12.125 19 12.125 19C12.125 19 6.11328 19 4.60156 18.6133C3.79297 18.4023 3.125 17.7695 2.91406 16.9258C2.49219 15.4141 2.49219 12.2852 2.49219 12.2852C2.49219 12.2852 2.49219 9.12109 2.91406 7.64453C3.125 6.80078 3.79297 6.13281 4.60156 5.92188C6.11328 5.5 12.125 5.5 12.125 5.5C12.125 5.5 18.1016 5.5 19.6133 5.92188C20.4219 6.13281 21.0898 6.80078 21.3008 7.64453ZM10.1562 15.1328L15.1484 12.2852L10.1562 9.4375V15.1328Z" fill="#5B5B5B"/>
</svg>
