<svg width="20" height="20" viewBox="0 0 20 20" fill="none" xmlns="http://www.w3.org/2000/svg">
<g id="elevator">
<mask id="mask0_832_34547" style="mask-type:alpha" maskUnits="userSpaceOnUse" x="0" y="0" width="20" height="20">
<rect id="Bounding box" width="20" height="20" fill="#D9D9D9"/>
</mask>
<g mask="url(#mask0_832_34547)">
<path id="elevator_2" d="M7.11403 14.7478H7.62442C7.8268 14.7478 8.00145 14.6743 8.14838 14.5274C8.29532 14.3804 8.3688 14.2075 8.3688 14.0086V11.4946H8.49942C8.7018 11.4946 8.86951 11.4211 9.00255 11.2742C9.1356 11.1272 9.20213 10.9557 9.20213 10.7594V9.37921C9.20213 8.98862 9.06407 8.65526 8.78794 8.37915C8.51183 8.10303 8.17848 7.96496 7.78788 7.96496H6.95455C6.56066 7.96496 6.22581 8.10303 5.95001 8.37915C5.6742 8.65526 5.5363 8.98862 5.5363 9.37921V10.7594C5.5363 10.9557 5.60283 11.1272 5.73588 11.2742C5.86892 11.4211 6.03664 11.4946 6.23903 11.4946H6.36963V14.0086C6.36963 14.2075 6.4431 14.3804 6.59005 14.5274C6.73698 14.6743 6.91164 14.7478 7.11403 14.7478ZM7.37121 7.16367C7.63884 7.16367 7.866 7.07099 8.05271 6.88563C8.23941 6.70027 8.33276 6.47244 8.33276 6.20215C8.33276 5.93185 8.23941 5.70401 8.05271 5.51865C7.866 5.33329 7.63884 5.24061 7.37121 5.24061C7.10092 5.24061 6.8731 5.33329 6.68773 5.51865C6.50237 5.70401 6.40969 5.93185 6.40969 6.20215C6.40969 6.47244 6.50237 6.70027 6.68773 6.88563C6.8731 7.07099 7.10092 7.16367 7.37121 7.16367ZM11.8236 8.91446H13.5997C13.7701 8.91446 13.8918 8.84464 13.965 8.70498C14.0381 8.56535 14.0335 8.42647 13.9511 8.28836L13.0634 6.86446C13.0469 6.83052 12.933 6.75799 12.7217 6.64688C12.6557 6.64688 12.5898 6.66838 12.5238 6.71138C12.4579 6.75438 12.4019 6.8066 12.356 6.86803L11.4748 8.28836C11.3897 8.42647 11.385 8.56535 11.4605 8.70498C11.536 8.84464 11.657 8.91446 11.8236 8.91446ZM12.7052 13.3495C12.77 13.3495 12.8352 13.3287 12.9007 13.287C12.9662 13.2454 13.0213 13.1925 13.0659 13.1284L13.9553 11.711C14.0306 11.5736 14.0325 11.4344 13.9608 11.2934C13.8891 11.1525 13.7682 11.082 13.5981 11.082H11.8261C11.6531 11.082 11.5311 11.1525 11.4601 11.2934C11.3891 11.4344 11.3926 11.5736 11.4706 11.711L12.3616 13.1333C12.3815 13.1658 12.496 13.2379 12.7052 13.3495ZM4.57205 16.9321C4.15544 16.9321 3.80066 16.7856 3.50773 16.4927C3.21482 16.1998 3.06836 15.845 3.06836 15.4284V4.57205C3.06836 4.15544 3.21482 3.80067 3.50773 3.50773C3.80066 3.21482 4.15544 3.06836 4.57205 3.06836H15.4284C15.845 3.06836 16.1998 3.21482 16.4927 3.50773C16.7856 3.80067 16.9321 4.15544 16.9321 4.57205V15.4284C16.9321 15.845 16.7856 16.1998 16.4927 16.4927C16.1998 16.7856 15.845 16.9321 15.4284 16.9321H4.57205ZM4.57394 15.6829H15.4265C15.5013 15.6829 15.5627 15.6589 15.6108 15.6108C15.6589 15.5627 15.6829 15.5013 15.6829 15.4265V4.57394C15.6829 4.49915 15.6589 4.43772 15.6108 4.38965C15.5627 4.34157 15.5013 4.31753 15.4265 4.31753H4.57394C4.49915 4.31753 4.43772 4.34157 4.38965 4.38965C4.34157 4.43772 4.31753 4.49915 4.31753 4.57394V15.4265C4.31753 15.5013 4.34157 15.5627 4.38965 15.6108C4.43772 15.6589 4.49915 15.6829 4.57394 15.6829Z" fill="#202020"/>
</g>
</g>
</svg>
