<svg width="24" height="24" viewBox="0 0 24 24" fill="none" xmlns="http://www.w3.org/2000/svg">
<mask id="mask0_1202_20959" style="mask-type:alpha" maskUnits="userSpaceOnUse" x="0" y="0" width="24" height="24">
<rect width="24" height="24" fill="#D9D9D9"/>
</mask>
<g mask="url(#mask0_1202_20959)">
<path d="M5.00006 21C4.71672 21 4.47922 20.9042 4.28756 20.7125C4.09589 20.5208 4.00006 20.2833 4.00006 20V11.625L3.00006 12.4C2.76672 12.5667 2.51672 12.6333 2.25006 12.6C1.98339 12.5667 1.76672 12.4333 1.60006 12.2C1.43339 11.9667 1.36672 11.7167 1.40006 11.45C1.43339 11.1833 1.55839 10.9667 1.77506 10.8L4.00006 9.1V7C4.00006 6.71667 4.09589 6.47917 4.28756 6.2875C4.47922 6.09583 4.71672 6 5.00006 6C5.28339 6 5.52089 6.09583 5.71256 6.2875C5.90422 6.47917 6.00006 6.71667 6.00006 7V7.575L11.4001 3.475C11.4834 3.40833 11.5751 3.35417 11.6751 3.3125C11.7751 3.27083 11.8834 3.25 12.0001 3.25C12.1167 3.25 12.2251 3.27083 12.3251 3.3125C12.4251 3.35417 12.5167 3.40833 12.6001 3.475L22.2251 10.8C22.4417 10.9667 22.5667 11.1833 22.6001 11.45C22.6334 11.7167 22.5667 11.9667 22.4001 12.2C22.2334 12.4167 22.0167 12.5417 21.7501 12.575C21.4834 12.6083 21.2417 12.5417 21.0251 12.375L20.0001 11.625V20C20.0001 20.2833 19.9042 20.5208 19.7126 20.7125C19.5209 20.9042 19.2834 21 19.0001 21H5.00006ZM6.00006 19H11.0001V16C11.0001 15.7167 11.0959 15.4792 11.2876 15.2875C11.4792 15.0958 11.7167 15 12.0001 15C12.2834 15 12.5209 15.0958 12.7126 15.2875C12.9042 15.4792 13.0001 15.7167 13.0001 16V19H18.0001V10.1L12.0001 5.525L6.00006 10.1V19ZM5.30006 5C4.93339 5 4.63756 4.84583 4.41256 4.5375C4.18756 4.22917 4.17506 3.9 4.37506 3.55C4.64172 3.08333 5.00422 2.70833 5.46256 2.425C5.92089 2.14167 6.43339 2 7.00006 2C7.18339 2 7.35839 1.95833 7.52506 1.875C7.69172 1.79167 7.81672 1.65833 7.90006 1.475C7.98339 1.325 8.09589 1.20833 8.23756 1.125C8.37922 1.04167 8.54172 1 8.72506 1C9.10839 1 9.40006 1.15833 9.60006 1.475C9.80006 1.79167 9.80839 2.11667 9.62506 2.45C9.35839 2.91667 8.99589 3.29167 8.53756 3.575C8.07922 3.85833 7.56672 4 7.00006 4C6.81672 4 6.64172 4.04583 6.47506 4.1375C6.30839 4.22917 6.18339 4.35833 6.10006 4.525C6.01672 4.69167 5.90006 4.8125 5.75006 4.8875C5.60006 4.9625 5.45006 5 5.30006 5Z" fill="#202020"/>
</g>
</svg>
