<svg width="80" height="80" viewBox="0 0 80 80" fill="none" xmlns="http://www.w3.org/2000/svg">
<mask id="mask0_338_21315" style="mask-type:alpha" maskUnits="userSpaceOnUse" x="0" y="0" width="80" height="80">
<rect width="80" height="80" fill="#D9D9D9"/>
</mask>
<g mask="url(#mask0_338_21315)">
<path d="M35.0832 55.166L58.6665 31.5827L54.8332 27.8327L35.0832 47.5827L25.0832 37.5827L21.3332 41.3327L35.0832 55.166ZM39.9998 73.3327C35.4443 73.3327 31.1387 72.4577 27.0832 70.7077C23.0276 68.9577 19.4859 66.5688 16.4582 63.541C13.4304 60.5132 11.0415 56.9716 9.2915 52.916C7.5415 48.8605 6.6665 44.5549 6.6665 39.9993C6.6665 35.3882 7.5415 31.0549 9.2915 26.9993C11.0415 22.9438 13.4304 19.416 16.4582 16.416C19.4859 13.416 23.0276 11.041 27.0832 9.29102C31.1387 7.54102 35.4443 6.66602 39.9998 6.66602C44.6109 6.66602 48.9443 7.54102 52.9998 9.29102C57.0554 11.041 60.5832 13.416 63.5832 16.416C66.5832 19.416 68.9582 22.9438 70.7082 26.9993C72.4582 31.0549 73.3332 35.3882 73.3332 39.9993C73.3332 44.5549 72.4582 48.8605 70.7082 52.916C68.9582 56.9716 66.5832 60.5132 63.5832 63.541C60.5832 66.5688 57.0554 68.9577 52.9998 70.7077C48.9443 72.4577 44.6109 73.3327 39.9998 73.3327ZM39.9998 68.3327C47.8887 68.3327 54.5832 65.5688 60.0832 60.041C65.5832 54.5132 68.3332 47.8327 68.3332 39.9993C68.3332 32.1105 65.5832 25.416 60.0832 19.916C54.5832 14.416 47.8887 11.666 39.9998 11.666C32.1665 11.666 25.4859 14.416 19.9582 19.916C14.4304 25.416 11.6665 32.1105 11.6665 39.9993C11.6665 47.8327 14.4304 54.5132 19.9582 60.041C25.4859 65.5688 32.1665 68.3327 39.9998 68.3327Z" fill="#44C177"/>
</g>
</svg>
