<svg width="135" height="16" viewBox="0 0 135 16" fill="none" xmlns="http://www.w3.org/2000/svg">
<g id="Krungsri Property">
<path d="M0.552734 11.9233V1.04586H2.73873V5.87609L6.41211 1.04586H8.92112L5.27779 5.7559L9.19907 11.9233H6.55484L3.7829 7.5062L2.73873 8.89592V11.9233H0.552734Z" fill="#6E5E5E"/>
<path d="M11.1477 11.9233V3.89292H13.191L13.2511 5.5681H13.2886C13.3737 5.31269 13.4839 5.0673 13.6191 4.83192C13.7594 4.59153 13.9271 4.3812 14.1224 4.20091C14.3228 4.02062 14.5506 3.87539 14.806 3.76521C15.0514 3.66004 15.3244 3.60996 15.6249 3.61497C15.6399 3.61497 15.6549 3.61497 15.6699 3.61497V5.6958C15.6249 5.6958 15.5798 5.6958 15.5347 5.6958C15.2192 5.70081 14.9312 5.74838 14.6708 5.83853C14.3754 5.94871 14.1224 6.11898 13.9121 6.34935C13.7068 6.57972 13.549 6.87018 13.4389 7.22074C13.3287 7.5713 13.2736 7.97945 13.2736 8.4452V11.9233H11.1477Z" fill="#6E5E5E"/>
<path d="M17.5735 9.04616V3.77272H19.6994V8.89592C19.6994 9.36667 19.7795 9.71223 19.9398 9.93258C20.105 10.1529 20.3679 10.2631 20.7285 10.2631C20.9539 10.2631 21.1592 10.2105 21.3445 10.1054C21.5298 10.0002 21.6901 9.85496 21.8253 9.66966C21.9605 9.48436 22.0657 9.26401 22.1408 9.0086C22.2159 8.75319 22.2535 8.47274 22.2535 8.16726V3.77272H24.3794V11.9233H22.3136L22.2535 10.7514H22.2234C22.1232 10.9467 21.9955 11.1295 21.8403 11.2998C21.6901 11.465 21.5198 11.6078 21.3295 11.728C21.1442 11.8481 20.9414 11.9408 20.721 12.0059C20.5007 12.076 20.2728 12.1111 20.0374 12.1111C19.6167 12.1111 19.2512 12.0334 18.9407 11.8782C18.6352 11.7229 18.3798 11.5101 18.1744 11.2397C17.9741 10.9642 17.8239 10.6387 17.7237 10.2631C17.6235 9.88751 17.5735 9.48186 17.5735 9.04616Z" fill="#6E5E5E"/>
<path d="M26.974 11.9233V3.77272H29.0323L29.0924 4.93709H29.13C29.2301 4.74177 29.3553 4.56149 29.5056 4.39622C29.6608 4.23096 29.8361 4.08823 30.0314 3.96804C30.2267 3.84784 30.4396 3.7552 30.6699 3.69009C30.9053 3.61998 31.1557 3.58492 31.4211 3.58492C31.8118 3.58492 32.1548 3.66255 32.4503 3.8178C32.7457 3.97304 32.9911 4.19089 33.1865 4.47134C33.3818 4.75179 33.527 5.08733 33.6222 5.47795C33.7223 5.86357 33.7724 6.28925 33.7724 6.755V11.9233H31.6465V7.06299C31.6465 6.50209 31.5639 6.09143 31.3986 5.83102C31.2383 5.56559 30.9779 5.43288 30.6173 5.43288C30.392 5.43288 30.1867 5.48046 30.0014 5.57561C29.8161 5.67076 29.6558 5.80598 29.5206 5.98126C29.3854 6.15654 29.2802 6.36938 29.2051 6.61978C29.13 6.86517 29.0924 7.14061 29.0924 7.4461V11.9233H26.974Z" fill="#6E5E5E"/>
<path d="M35.9689 7.81419C35.9689 7.17817 36.0415 6.60225 36.1868 6.08643C36.337 5.56559 36.5473 5.11988 36.8178 4.74929C37.0882 4.37869 37.4112 4.09324 37.7868 3.89292C38.1674 3.68759 38.5906 3.58492 39.0563 3.58492C39.3017 3.58492 39.5396 3.62248 39.77 3.6976C40.0054 3.77272 40.2232 3.87539 40.4235 4.0056C40.6239 4.1358 40.7991 4.28855 40.9494 4.46383C41.1046 4.63911 41.2273 4.82691 41.3175 5.02723H41.355L41.4151 3.77272H43.4734V11.3223C43.4734 11.9082 43.3808 12.4291 43.1955 12.8848C43.0102 13.3405 42.7498 13.7236 42.4142 14.0341C42.0787 14.3496 41.6755 14.59 41.2048 14.7553C40.739 14.9206 40.2232 15.0032 39.6573 15.0032C39.2867 15.0032 38.9336 14.9706 38.5981 14.9055C38.2626 14.8454 37.9521 14.7603 37.6666 14.6501C37.3812 14.545 37.1207 14.4173 36.8854 14.267C36.65 14.1218 36.4472 13.9615 36.2769 13.7862L37.261 12.3815C37.5615 12.6469 37.9045 12.8573 38.2901 13.0125C38.6757 13.1678 39.0864 13.2454 39.5221 13.2454C39.7525 13.2454 39.9778 13.2078 40.1982 13.1327C40.4235 13.0576 40.6239 12.9399 40.7991 12.7796C40.9744 12.6194 41.1146 12.4115 41.2198 12.1561C41.33 11.9057 41.3851 11.6028 41.3851 11.2472V10.6162H41.355C41.2549 10.7965 41.1247 10.9667 40.9644 11.127C40.8091 11.2822 40.6339 11.42 40.4386 11.5402C40.2432 11.6603 40.0279 11.7555 39.7925 11.8256C39.5622 11.8907 39.3218 11.9233 39.0714 11.9233C38.6357 11.9233 38.23 11.8281 37.8544 11.6378C37.4788 11.4475 37.1508 11.1746 36.8703 10.819C36.5899 10.4584 36.3695 10.0252 36.2093 9.51942C36.049 9.01361 35.9689 8.4452 35.9689 7.81419ZM38.1549 7.81419C38.1549 8.16475 38.1849 8.48526 38.245 8.77573C38.3102 9.06119 38.4053 9.30658 38.5305 9.51191C38.6557 9.71223 38.8135 9.86998 39.0038 9.98516C39.1991 10.0953 39.4269 10.1504 39.6874 10.1504C39.9378 10.1504 40.1631 10.0953 40.3634 9.98516C40.5688 9.86998 40.7415 9.70972 40.8818 9.50439C41.027 9.29907 41.1372 9.05367 41.2123 8.76822C41.2924 8.47775 41.3325 8.15474 41.3325 7.79917C41.3325 7.46363 41.2949 7.14812 41.2198 6.85265C41.1447 6.55718 41.0345 6.29927 40.8893 6.07891C40.7491 5.85856 40.5763 5.68328 40.3709 5.55307C40.1706 5.42286 39.9428 5.35776 39.6874 5.35776C39.4219 5.35776 39.1916 5.42286 38.9962 5.55307C38.8059 5.68328 38.6482 5.85856 38.523 6.07891C38.3978 6.29927 38.3051 6.55968 38.245 6.86016C38.1849 7.16064 38.1549 7.47865 38.1549 7.81419Z" fill="#6E5E5E"/>
<path d="M45.5047 10.9242L46.4286 9.6321C46.6991 9.87749 47.0021 10.0853 47.3376 10.2556C47.6781 10.4259 48.0512 10.511 48.4569 10.511C48.6121 10.511 48.7549 10.496 48.8851 10.4659C49.0203 10.4359 49.133 10.3858 49.2231 10.3157C49.3183 10.2456 49.3909 10.1554 49.441 10.0453C49.496 9.93008 49.5236 9.78735 49.5236 9.61707C49.5236 9.47685 49.4935 9.35415 49.4334 9.24899C49.3784 9.13881 49.3007 9.04366 49.2006 8.96353C49.1004 8.87839 48.9827 8.80327 48.8475 8.73817C48.7123 8.67306 48.5671 8.61046 48.4118 8.55037C48.2315 8.48026 48.0437 8.41014 47.8484 8.34003C47.6531 8.26992 47.4603 8.18979 47.27 8.09965C47.0797 8.0095 46.8969 7.90433 46.7216 7.78414C46.5513 7.66395 46.4011 7.51872 46.2709 7.34844C46.1407 7.17316 46.0355 6.97034 45.9554 6.73997C45.8803 6.5096 45.8427 6.23667 45.8427 5.92116C45.8427 5.52052 45.9103 5.17497 46.0455 4.8845C46.1807 4.58903 46.371 4.34614 46.6164 4.15584C46.8668 3.96052 47.1673 3.8178 47.5179 3.72765C47.8684 3.6325 48.2591 3.58492 48.6898 3.58492C48.9301 3.58492 49.178 3.60496 49.4334 3.64502C49.6889 3.68508 49.9418 3.74518 50.1922 3.82531C50.4476 3.90043 50.693 3.99808 50.9283 4.11828C51.1687 4.23847 51.3916 4.37869 51.5969 4.53895L50.703 5.83102C50.5728 5.72585 50.43 5.6332 50.2748 5.55307C50.1246 5.47294 49.9693 5.40534 49.809 5.35025C49.6538 5.29516 49.4986 5.2551 49.3433 5.23006C49.1881 5.20001 49.0428 5.18498 48.9076 5.18498C48.547 5.18498 48.2916 5.24508 48.1414 5.36527C47.9961 5.48546 47.9235 5.65073 47.9235 5.86107C47.9235 6.08142 48.0212 6.26171 48.2165 6.40193C48.4118 6.53715 48.6522 6.65484 48.9377 6.755C49.1179 6.8201 49.3082 6.88771 49.5086 6.95782C49.7139 7.02793 49.9142 7.11056 50.1095 7.20572C50.3098 7.30087 50.4977 7.41355 50.6729 7.54376C50.8532 7.67397 51.011 7.83172 51.1462 8.01701C51.2864 8.20231 51.3966 8.41766 51.4767 8.66305C51.5568 8.90844 51.5969 9.1964 51.5969 9.52693C51.5969 9.95261 51.5143 10.3282 51.349 10.6537C51.1838 10.9742 50.9584 11.2422 50.6729 11.4575C50.3925 11.6729 50.062 11.8356 49.6813 11.9458C49.3007 12.056 48.8976 12.1111 48.4719 12.1111C47.8359 12.1111 47.27 12.0034 46.7742 11.788C46.2834 11.5677 45.8602 11.2797 45.5047 10.9242Z" fill="#6E5E5E"/>
<path d="M53.9061 11.9233V3.89292H55.9494L56.0095 5.5681H56.047C56.1322 5.31269 56.2423 5.0673 56.3776 4.83192C56.5178 4.59153 56.6856 4.3812 56.8809 4.20091C57.0812 4.02062 57.3091 3.87539 57.5645 3.76521C57.8099 3.66004 58.0828 3.60996 58.3833 3.61497C58.3983 3.61497 58.4133 3.61497 58.4283 3.61497V5.6958C58.3833 5.6958 58.3382 5.6958 58.2931 5.6958C57.9776 5.70081 57.6897 5.74838 57.4292 5.83853C57.1338 5.94871 56.8809 6.11898 56.6705 6.34935C56.4652 6.57972 56.3074 6.87018 56.1973 7.22074C56.0871 7.5713 56.032 7.97945 56.032 8.4452V11.9233H53.9061Z" fill="#6E5E5E"/>
<path d="M60.4596 2.84875V0.812988H62.7057V2.84875H60.4596ZM60.5197 11.9233V3.77272H62.6456V11.9233H60.5197Z" fill="#6E5E5E"/>
<path d="M70.3514 11.9233V1.04586H74.0924C74.7184 1.04586 75.2618 1.14101 75.7225 1.33132C76.1833 1.52162 76.5639 1.78204 76.8643 2.11257C77.1648 2.43809 77.3877 2.82371 77.5329 3.26942C77.6781 3.71012 77.7508 4.18338 77.7508 4.68919C77.7508 5.25009 77.6656 5.76591 77.4954 6.23667C77.3301 6.70742 77.0847 7.11307 76.7592 7.45361C76.4387 7.78915 76.0405 8.05207 75.5648 8.24238C75.094 8.42767 74.5556 8.52032 73.9497 8.52032H72.5374V11.9233H70.3514ZM72.5374 6.58222H74.0173C74.2426 6.58222 74.448 6.53464 74.6333 6.43949C74.8186 6.33933 74.9788 6.20662 75.114 6.04135C75.2493 5.87108 75.3519 5.67577 75.422 5.45542C75.4972 5.23506 75.5347 5.00219 75.5347 4.7568C75.5347 4.44129 75.4972 4.17336 75.422 3.95301C75.3469 3.72765 75.2392 3.54486 75.099 3.40463C74.9638 3.26441 74.7985 3.16175 74.6032 3.09664C74.4079 3.03154 74.1901 2.99899 73.9497 2.99899H72.5374V6.58222Z" fill="#6E5E5E"/>
<path d="M80.09 11.9233V3.89292H82.1333L82.1934 5.5681H82.2309C82.3161 5.31269 82.4262 5.0673 82.5615 4.83192C82.7017 4.59153 82.8694 4.3812 83.0648 4.20091C83.2651 4.02062 83.4929 3.87539 83.7484 3.76521C83.9938 3.66004 84.2667 3.60996 84.5672 3.61497C84.5822 3.61497 84.5972 3.61497 84.6122 3.61497V5.6958C84.5672 5.6958 84.5221 5.6958 84.477 5.6958C84.1615 5.70081 83.8736 5.74838 83.6131 5.83853C83.3177 5.94871 83.0648 6.11898 82.8544 6.34935C82.6491 6.57972 82.4913 6.87018 82.3812 7.22074C82.271 7.5713 82.2159 7.97945 82.2159 8.4452V11.9233H80.09Z" fill="#6E5E5E"/>
<path d="M86.2754 7.84424C86.2754 7.27332 86.358 6.72996 86.5233 6.21413C86.6886 5.6983 86.9314 5.24508 87.252 4.85445C87.5725 4.46383 87.9681 4.15584 88.4389 3.93048C88.9096 3.70011 89.4505 3.58492 90.0615 3.58492C90.6724 3.58492 91.2133 3.70011 91.6841 3.93048C92.1548 4.15584 92.5479 4.46383 92.8634 4.85445C93.184 5.24508 93.4268 5.6983 93.5921 6.21413C93.7574 6.72996 93.84 7.27332 93.84 7.84424C93.84 8.41515 93.7574 8.95852 93.5921 9.47435C93.4268 9.99017 93.184 10.4434 92.8634 10.834C92.5479 11.2246 92.1548 11.5351 91.6841 11.7655C91.2133 11.9959 90.6724 12.1111 90.0615 12.1111C89.4505 12.1111 88.9096 11.9959 88.4389 11.7655C87.9681 11.5351 87.5725 11.2246 87.252 10.834C86.9314 10.4434 86.6886 9.99017 86.5233 9.47435C86.358 8.95852 86.2754 8.41515 86.2754 7.84424ZM88.4238 7.84424C88.4238 8.20482 88.4614 8.53785 88.5365 8.84334C88.6116 9.14382 88.7193 9.40674 88.8595 9.6321C89.0048 9.85245 89.1775 10.0252 89.3779 10.1504C89.5832 10.2756 89.8111 10.3382 90.0615 10.3382C90.3119 10.3382 90.5372 10.2756 90.7375 10.1504C90.9379 10.0252 91.1081 9.85245 91.2484 9.6321C91.3936 9.40674 91.5038 9.14382 91.5789 8.84334C91.654 8.53785 91.6916 8.20482 91.6916 7.84424C91.6916 7.48867 91.654 7.16064 91.5789 6.86016C91.5038 6.55468 91.3936 6.29175 91.2484 6.0714C91.1081 5.84604 90.9379 5.67076 90.7375 5.54556C90.5372 5.42036 90.3119 5.35776 90.0615 5.35776C89.8111 5.35776 89.5832 5.42036 89.3779 5.54556C89.1775 5.67076 89.0048 5.84604 88.8595 6.0714C88.7193 6.29175 88.6116 6.55468 88.5365 6.86016C88.4614 7.16064 88.4238 7.48867 88.4238 7.84424Z" fill="#6E5E5E"/>
<path d="M96.0666 14.6426V3.77272H98.1249L98.185 5.02723H98.2225C98.3127 4.82691 98.4354 4.63911 98.5906 4.46383C98.7509 4.28855 98.9337 4.1358 99.139 4.0056C99.3443 3.87539 99.5697 3.77272 99.8151 3.6976C100.06 3.62248 100.313 3.58492 100.574 3.58492C101.055 3.58492 101.49 3.68759 101.881 3.89292C102.271 4.09324 102.605 4.3812 102.88 4.7568C103.16 5.1324 103.376 5.58813 103.526 6.12399C103.681 6.65484 103.759 7.24828 103.759 7.90433C103.759 8.56038 103.676 9.14883 103.511 9.66966C103.346 10.1905 103.118 10.6312 102.827 10.9918C102.542 11.3524 102.204 11.6303 101.813 11.8256C101.428 12.0159 101.009 12.1111 100.559 12.1111C100.293 12.1111 100.038 12.076 99.7925 12.0059C99.5521 11.9408 99.3293 11.8481 99.124 11.728C98.9186 11.6078 98.7358 11.4675 98.5756 11.3073C98.4153 11.147 98.2851 10.9768 98.185 10.7965H98.1549V15.3262H98.1098L96.0666 14.6426ZM98.2 7.88931C98.2 8.26491 98.2425 8.60546 98.3277 8.91094C98.4178 9.21143 98.5405 9.46934 98.6958 9.68468C98.851 9.89502 99.0338 10.0578 99.2441 10.173C99.4595 10.2831 99.6924 10.3382 99.9428 10.3382C100.203 10.3382 100.434 10.2831 100.634 10.173C100.839 10.0578 101.009 9.89502 101.145 9.68468C101.285 9.47435 101.39 9.21894 101.46 8.91846C101.535 8.61798 101.573 8.27994 101.573 7.90433C101.573 7.54376 101.538 7.20822 101.468 6.89772C101.398 6.58723 101.292 6.3193 101.152 6.09394C101.017 5.86357 100.847 5.68328 100.641 5.55307C100.441 5.42286 100.208 5.35776 99.9428 5.35776C99.6874 5.35776 99.452 5.42286 99.2366 5.55307C99.0263 5.68328 98.8435 5.86357 98.6883 6.09394C98.538 6.3193 98.4178 6.58723 98.3277 6.89772C98.2425 7.20321 98.2 7.53374 98.2 7.88931Z" fill="#6E5E5E"/>
<path d="M105.647 7.84424C105.647 7.27332 105.723 6.72996 105.873 6.21413C106.028 5.6983 106.256 5.24508 106.556 4.85445C106.862 4.46383 107.242 4.15584 107.698 3.93048C108.159 3.70011 108.695 3.58492 109.306 3.58492C109.917 3.58492 110.438 3.70011 110.868 3.93048C111.304 4.15584 111.657 4.47635 111.927 4.89201C112.203 5.30267 112.403 5.79596 112.528 6.37188C112.659 6.9428 112.724 7.57381 112.724 8.26491H107.751C107.756 8.53534 107.808 8.79826 107.909 9.05367C108.009 9.30908 108.141 9.53945 108.307 9.74478C108.477 9.9451 108.677 10.1079 108.908 10.2331C109.143 10.3533 109.398 10.4133 109.674 10.4133C109.854 10.4133 110.019 10.3908 110.17 10.3457C110.32 10.3007 110.46 10.2406 110.59 10.1655C110.726 10.0903 110.851 10.0027 110.966 9.90253C111.086 9.80237 111.199 9.6972 111.304 9.58703L112.401 10.834C112.245 11.0143 112.07 11.1821 111.875 11.3373C111.685 11.4926 111.472 11.6278 111.236 11.743C111.001 11.8582 110.738 11.9483 110.448 12.0134C110.162 12.0785 109.849 12.1111 109.509 12.1111C108.898 12.1111 108.352 11.9959 107.871 11.7655C107.395 11.5351 106.992 11.2246 106.662 10.834C106.331 10.4434 106.078 9.99017 105.903 9.47435C105.733 8.95852 105.647 8.41515 105.647 7.84424ZM107.781 7.01792H110.71C110.71 6.6974 110.675 6.42447 110.605 6.19911C110.535 5.96874 110.44 5.78094 110.32 5.6357C110.205 5.49047 110.067 5.3853 109.907 5.3202C109.751 5.25009 109.586 5.21503 109.411 5.21503C109.221 5.21503 109.038 5.25009 108.863 5.3202C108.692 5.3853 108.535 5.49047 108.389 5.6357C108.249 5.77593 108.126 5.96123 108.021 6.19159C107.916 6.42196 107.836 6.6974 107.781 7.01792Z" fill="#6E5E5E"/>
<path d="M114.973 11.9233V3.89292H117.016L117.076 5.5681H117.114C117.199 5.31269 117.309 5.0673 117.444 4.83192C117.584 4.59153 117.752 4.3812 117.948 4.20091C118.148 4.02062 118.376 3.87539 118.631 3.76521C118.877 3.66004 119.149 3.60996 119.45 3.61497C119.465 3.61497 119.48 3.61497 119.495 3.61497V5.6958C119.45 5.6958 119.405 5.6958 119.36 5.6958C119.044 5.70081 118.756 5.74838 118.496 5.83853C118.2 5.94871 117.948 6.11898 117.737 6.34935C117.532 6.57972 117.374 6.87018 117.264 7.22074C117.154 7.5713 117.099 7.97945 117.099 8.4452V11.9233H114.973Z" fill="#6E5E5E"/>
<path d="M121.031 5.47795V3.77272H122.067L122.465 1.3839H124.11V3.77272H125.876V5.47795H124.11V9.29406C124.11 9.49939 124.128 9.67216 124.163 9.81239C124.198 9.9476 124.253 10.0578 124.328 10.1429C124.403 10.223 124.496 10.2806 124.606 10.3157C124.721 10.3507 124.859 10.3683 125.019 10.3683C125.19 10.3683 125.35 10.3633 125.5 10.3533C125.65 10.3382 125.803 10.3182 125.958 10.2932V11.8782C125.673 11.9533 125.395 12.0109 125.125 12.051C124.859 12.091 124.571 12.1111 124.261 12.1111C123.514 12.1111 122.954 11.9007 122.578 11.4801C122.202 11.0544 122.015 10.3908 122.015 9.48937V5.47795H121.031Z" fill="#6E5E5E"/>
<path d="M128.05 8.85836V3.77272H130.168V8.70812C130.168 9.17887 130.243 9.52443 130.393 9.74478C130.549 9.96513 130.807 10.0753 131.167 10.0753C131.393 10.0753 131.595 10.0252 131.776 9.92507C131.961 9.8199 132.119 9.67467 132.249 9.48937C132.379 9.30407 132.479 9.08372 132.549 8.82831C132.625 8.5729 132.662 8.29246 132.662 7.98697V3.77272H134.788V11.3223C134.788 11.8832 134.71 12.389 134.555 12.8397C134.4 13.2955 134.172 13.6836 133.872 14.0041C133.576 14.3246 133.208 14.57 132.767 14.7403C132.332 14.9156 131.831 15.0032 131.265 15.0032C130.919 15.0032 130.591 14.9756 130.281 14.9206C129.97 14.8705 129.682 14.8004 129.417 14.7102C129.157 14.6201 128.916 14.5124 128.696 14.3872C128.48 14.267 128.29 14.1368 128.125 13.9966L129.034 12.6294C129.349 12.8197 129.675 12.9699 130.01 13.0801C130.346 13.1903 130.686 13.2454 131.032 13.2454C131.538 13.2454 131.941 13.0801 132.241 12.7496C132.542 12.4241 132.692 11.9233 132.692 11.2472V10.5711H132.647C132.547 10.7664 132.422 10.9467 132.271 11.112C132.121 11.2772 131.951 11.42 131.761 11.5402C131.575 11.6603 131.373 11.7555 131.152 11.8256C130.937 11.8907 130.712 11.9233 130.476 11.9233C130.055 11.9233 129.692 11.8456 129.387 11.6904C129.086 11.5351 128.836 11.3223 128.636 11.0519C128.435 10.7764 128.288 10.4534 128.192 10.0828C128.097 9.70722 128.05 9.29907 128.05 8.85836Z" fill="#6E5E5E"/>
</g>
</svg>
