<svg width="20" height="20" viewBox="0 0 20 20" fill="none" xmlns="http://www.w3.org/2000/svg">
<mask id="mask0_1015_52163" style="mask-type:alpha" maskUnits="userSpaceOnUse" x="0" y="0" width="20" height="20">
<rect width="20" height="20" fill="#D9D9D9"/>
</mask>
<g mask="url(#mask0_1015_52163)">
<path d="M16.7395 7.97919L15.7499 6.9896L16.5103 6.22919L13.7708 3.51044L13.0312 4.27085L12.0416 3.28127L12.7499 2.56252C13.0346 2.2778 13.3767 2.13544 13.776 2.13544C14.1753 2.13544 14.5173 2.2778 14.802 2.56252L17.4583 5.21877C17.743 5.50349 17.8853 5.84203 17.8853 6.2344C17.8853 6.62676 17.743 6.9653 17.4583 7.25002L16.7395 7.97919ZM7.14575 17.5729C6.95825 17.7604 6.6961 17.882 6.35929 17.9375C6.02249 17.9931 5.71172 17.8785 5.427 17.5938L2.56242 14.7188C2.28464 14.4452 2.14575 14.1163 2.14575 13.7323C2.14575 13.3483 2.28464 13.0174 2.56242 12.7396L3.302 12.0209L4.29159 13L3.552 13.7292L6.27075 16.4688L7.02075 15.7292L7.99992 16.7188L7.14575 17.5729ZM15.1874 10.9896L16.4895 9.70835L10.3333 3.5521L9.03117 4.83335L15.1874 10.9896ZM9.72909 16.4688L11.0103 15.1875L4.85409 9.03127L3.57284 10.3125L9.72909 16.4688ZM9.62492 11.8021L11.8437 9.60419L10.4166 8.19794L8.21867 10.3959L9.62492 11.8021ZM10.7187 17.4584C10.4478 17.7292 10.1197 17.8646 9.73429 17.8646C9.34888 17.8646 9.02075 17.7292 8.74992 17.4584L2.58325 11.2709C2.30547 10.9931 2.16659 10.6684 2.16659 10.2969C2.16659 9.92537 2.30547 9.60071 2.58325 9.32294L3.8645 8.04169C4.13811 7.76391 4.46693 7.62502 4.85096 7.62502C5.23499 7.62502 5.56589 7.76391 5.84367 8.04169L7.22909 9.40627L9.427 7.18752L8.04159 5.81252C7.76381 5.53474 7.62492 5.20662 7.62492 4.82815C7.62492 4.44967 7.76381 4.12155 8.04159 3.84377L9.34367 2.56252C9.61728 2.28474 9.9461 2.14585 10.3301 2.14585C10.7142 2.14585 11.0451 2.28474 11.3228 2.56252L17.4999 8.69794C17.7777 8.97155 17.9166 9.30037 17.9166 9.6844C17.9166 10.0684 17.7777 10.3993 17.4999 10.6771L16.1978 11.9584C15.9201 12.2361 15.5919 12.375 15.2135 12.375C14.835 12.375 14.5069 12.2361 14.2291 11.9584L12.8124 10.5729L10.6145 12.7917L11.9999 14.1771C12.2708 14.4479 12.4096 14.7778 12.4166 15.1667C12.4235 15.5556 12.2916 15.8854 12.0208 16.1563L10.7187 17.4584Z" fill="#202020"/>
</g>
</svg>
