<svg width="24" height="24" viewBox="0 0 24 24" fill="none" xmlns="http://www.w3.org/2000/svg">
<path d="M11.875 8.20703C14.0898 8.20703 15.918 10.0352 15.918 12.25C15.918 14.5 14.0898 16.293 11.875 16.293C9.625 16.293 7.83203 14.5 7.83203 12.25C7.83203 10.0352 9.625 8.20703 11.875 8.20703ZM11.875 14.8867C13.3164 14.8867 14.4766 13.7266 14.4766 12.25C14.4766 10.8086 13.3164 9.64844 11.875 9.64844C10.3984 9.64844 9.23828 10.8086 9.23828 12.25C9.23828 13.7266 10.4336 14.8867 11.875 14.8867ZM17.0078 8.06641C17.0078 7.53906 16.5859 7.11719 16.0586 7.11719C15.5312 7.11719 15.1094 7.53906 15.1094 8.06641C15.1094 8.59375 15.5312 9.01562 16.0586 9.01562C16.5859 9.01562 17.0078 8.59375 17.0078 8.06641ZM19.6797 9.01562C19.75 10.3164 19.75 14.2188 19.6797 15.5195C19.6094 16.7852 19.3281 17.875 18.4141 18.8242C17.5 19.7383 16.375 20.0195 15.1094 20.0898C13.8086 20.1602 9.90625 20.1602 8.60547 20.0898C7.33984 20.0195 6.25 19.7383 5.30078 18.8242C4.38672 17.875 4.10547 16.7852 4.03516 15.5195C3.96484 14.2188 3.96484 10.3164 4.03516 9.01562C4.10547 7.75 4.38672 6.625 5.30078 5.71094C6.25 4.79688 7.33984 4.51562 8.60547 4.44531C9.90625 4.375 13.8086 4.375 15.1094 4.44531C16.375 4.51562 17.5 4.79688 18.4141 5.71094C19.3281 6.625 19.6094 7.75 19.6797 9.01562ZM17.9922 16.8906C18.4141 15.8711 18.3086 13.4102 18.3086 12.25C18.3086 11.125 18.4141 8.66406 17.9922 7.60938C17.7109 6.94141 17.1836 6.37891 16.5156 6.13281C15.4609 5.71094 13 5.81641 11.875 5.81641C10.7148 5.81641 8.25391 5.71094 7.23438 6.13281C6.53125 6.41406 6.00391 6.94141 5.72266 7.60938C5.30078 8.66406 5.40625 11.125 5.40625 12.25C5.40625 13.4102 5.30078 15.8711 5.72266 16.8906C6.00391 17.5938 6.53125 18.1211 7.23438 18.4023C8.25391 18.8242 10.7148 18.7188 11.875 18.7188C13 18.7188 15.4609 18.8242 16.5156 18.4023C17.1836 18.1211 17.7461 17.5938 17.9922 16.8906Z" fill="#5B5B5B"/>
</svg>
