<svg width="47" height="41" viewBox="0 0 47 41" fill="none" xmlns="http://www.w3.org/2000/svg">
<g id="icons" clip-path="url(#clip0_1003_10244)">
<path id="Vector" d="M23.4632 27.7653C30.7731 27.6381 36.5975 21.505 36.4725 14.0666C36.3475 6.62827 30.3203 0.701455 23.0104 0.828695C15.7005 0.955934 9.87602 7.08905 10.0011 14.5274C10.1261 21.9657 16.1533 27.8926 23.4632 27.7653Z" fill="#FFF6CC"/>
<path id="Vector_2" d="M33.6875 39.0999V26.4477L21.2538 13.7954L8.82001 26.4477V39.0999H33.6875Z" fill="white"/>
<path id="Vector_3" d="M0.97998 3.61771H3.69654C4.1493 2.96491 5.08912 2.27948 6.21416 2.41004C6.70808 1.6071 7.60674 1 8.65632 1C10.2135 1 11.4758 2.31212 11.4895 3.61771H18.13" stroke="#BCC0C4" stroke-width="2" stroke-miterlimit="10" stroke-linecap="round"/>
<path id="Vector_4" d="M11.535 8.56006C10.9827 8.56006 10.535 9.00777 10.535 9.56006V17.2857L14.8225 12.9229V9.56006C14.8225 9.00777 14.3748 8.56006 13.8225 8.56006H11.535Z" fill="white" stroke="#705F5E" stroke-width="2" stroke-miterlimit="10"/>
<path id="Vector_5" d="M8.82001 39.0999V26.0114" stroke="#705F5E" stroke-width="2" stroke-miterlimit="10"/>
<path id="Vector_6" d="M21.2538 6.81482L4.24801 23.691C3.45974 24.4733 3.45974 25.748 4.24801 26.5302L4.95414 27.231C5.73393 28.0048 6.99194 28.0048 7.77173 27.231L21.2538 13.8517L34.7358 27.231C35.5156 28.0048 36.7736 28.0048 37.5534 27.231L38.2595 26.5302C39.0478 25.748 39.0478 24.4733 38.2595 23.691L21.2538 6.81482Z" fill="#FDD400" stroke="#705F5E" stroke-width="2" stroke-linejoin="round"/>
<path id="Vector_7" d="M17.11 29.5017H15.1075C14.0029 29.5017 13.1075 30.3971 13.1075 31.5017V39.1H19.11V31.5017C19.11 30.3971 18.2146 29.5017 17.11 29.5017Z" stroke="#705F5E" stroke-width="2" stroke-miterlimit="10"/>
<path id="Vector_8" d="M4.53247 40.0999H37.1175" stroke="#705F5E" stroke-width="2" stroke-miterlimit="10" stroke-linecap="round"/>
<path id="Vector_9" d="M21.2537 24.2663C22.4377 24.2663 23.3975 23.2896 23.3975 22.0849C23.3975 20.8801 22.4377 19.9034 21.2537 19.9034C20.0698 19.9034 19.11 20.8801 19.11 22.0849C19.11 23.2896 20.0698 24.2663 21.2537 24.2663Z" stroke="#705F5E" stroke-width="2" stroke-miterlimit="10" stroke-linecap="round"/>
<path id="Vector_10" d="M44.835 9.42516H40.8773C40.5786 8.68725 39.8726 8.0748 39.0579 8.0748C38.8 8.0748 38.5488 8.11169 38.3248 8.20762C37.8699 6.88677 36.6955 5.94226 35.3174 5.94226C33.5456 5.94226 32.1065 7.95673 32.1065 9.43254H28.5425" stroke="#BCC0C4" stroke-width="2" stroke-miterlimit="10" stroke-linecap="round"/>
<path id="Vector_11" d="M33.6875 26.0114V39.0999" stroke="#705F5E" stroke-width="2" stroke-miterlimit="10" stroke-linecap="round"/>
</g>
<defs>
<clipPath id="clip0_1003_10244">
<rect width="46.06" height="41" fill="white"/>
</clipPath>
</defs>
</svg>
