<svg width="40" height="40" viewBox="0 0 40 40" fill="none" xmlns="http://www.w3.org/2000/svg">
<mask id="mask0_284_19620" style="mask-type:alpha" maskUnits="userSpaceOnUse" x="0" y="0" width="40" height="40">
<rect width="40" height="40" fill="#D9D9D9"/>
</mask>
<g mask="url(#mask0_284_19620)">
<path d="M9.44442 36.6668C8.69442 36.6668 8.04396 36.3914 7.49305 35.8405C6.94213 35.2895 6.66667 34.6391 6.66667 33.8891V6.11125C6.66667 5.36125 6.94213 4.71079 7.49305 4.15987C8.04396 3.60895 8.69442 3.3335 9.44442 3.3335H22.1805C22.5592 3.3335 22.92 3.40757 23.2631 3.5557C23.6062 3.70387 23.9028 3.90295 24.1528 4.15295L32.5139 12.514C32.7639 12.764 32.963 13.0606 33.1111 13.4037C33.2593 13.7468 33.3333 14.1077 33.3333 14.4863V22.778C33.3333 23.1715 33.1998 23.5013 32.9326 23.7675C32.6655 24.0338 32.3345 24.1669 31.9396 24.1669C31.5447 24.1669 31.2153 24.0338 30.9514 23.7675C30.6875 23.5013 30.5556 23.1715 30.5556 22.778V15.0002H23.0555C22.662 15.0002 22.3322 14.8671 22.066 14.6009C21.7998 14.3347 21.6667 14.0048 21.6667 13.6113V6.11125H9.44442V33.8891H24.4445C24.838 33.8891 25.1679 34.0227 25.434 34.2898C25.7003 34.5569 25.8334 34.8879 25.8334 35.2828C25.8334 35.6777 25.7003 36.0071 25.434 36.271C25.1679 36.5349 24.838 36.6668 24.4445 36.6668H9.44442ZM31.3889 31.7085V35.028C31.3889 35.4215 31.2553 35.7513 30.9882 36.0175C30.721 36.2837 30.39 36.4168 29.9951 36.4168C29.6002 36.4168 29.2709 36.2837 29.007 36.0175C28.7431 35.7513 28.6111 35.4215 28.6111 35.028V28.3335C28.6111 27.94 28.7442 27.6101 29.0104 27.3439C29.2766 27.0777 29.6065 26.9446 30 26.9446H36.6945C37.088 26.9446 37.4179 27.0782 37.684 27.3453C37.9502 27.6125 38.0833 27.9435 38.0833 28.3384C38.0833 28.7333 37.9502 29.0627 37.684 29.3265C37.4179 29.5904 37.088 29.7224 36.6945 29.7224H33.3333L37.5555 33.9446C37.8241 34.2131 37.9583 34.5363 37.9583 34.9143C37.9583 35.2922 37.8277 35.6186 37.5664 35.8935C37.2814 36.1683 36.9471 36.3057 36.5634 36.3057C36.1798 36.3057 35.8485 36.1668 35.5695 35.889L31.3889 31.7085Z" fill="#202020"/>
</g>
</svg>
