<svg width="20" height="20" viewBox="0 0 20 20" fill="none" xmlns="http://www.w3.org/2000/svg">
<g id="file_open">
<mask id="mask0_832_34588" style="mask-type:alpha" maskUnits="userSpaceOnUse" x="0" y="0" width="20" height="20">
<rect id="Bounding box" width="20" height="20" fill="#D9D9D9"/>
</mask>
<g mask="url(#mask0_832_34588)">
<path id="file_open_2" d="M5.5 17.729C5.0875 17.729 4.73437 17.5821 4.44062 17.2884C4.14687 16.9946 4 16.6415 4 16.229V3.229C4 2.8165 4.14687 2.46338 4.44062 2.16963C4.73437 1.87588 5.0875 1.729 5.5 1.729H11.375C11.5725 1.729 11.7608 1.76373 11.9398 1.83317C12.1188 1.90262 12.2847 2.01373 12.4375 2.1665L15.5625 5.2915C15.7153 5.44428 15.8264 5.61018 15.8958 5.78919C15.9653 5.9682 16 6.15648 16 6.354V10.979C16 11.1915 15.9285 11.3696 15.7856 11.5134C15.6427 11.6571 15.4656 11.729 15.2544 11.729C15.0431 11.729 14.8646 11.6571 14.7188 11.5134C14.5729 11.3696 14.5 11.1915 14.5 10.979V6.729H11.75C11.5375 6.729 11.3594 6.65713 11.2156 6.51338C11.0719 6.36963 11 6.1915 11 5.979V3.229H5.5V16.229H11.75C11.9625 16.229 12.1406 16.3005 12.2844 16.4434C12.4281 16.5863 12.5 16.7634 12.5 16.9746C12.5 17.1859 12.4281 17.3644 12.2844 17.5103C12.1406 17.6561 11.9625 17.729 11.75 17.729H5.5ZM15.5 15.7915V16.7206C15.5 16.9355 15.4285 17.1156 15.2856 17.261C15.1427 17.4063 14.9656 17.479 14.7544 17.479C14.5431 17.479 14.3646 17.407 14.2188 17.263C14.0729 17.119 14 16.9406 14 16.7278V13.9858C14 13.7729 14.072 13.5936 14.216 13.4478C14.36 13.3019 14.5384 13.229 14.7512 13.229H17.4932C17.7061 13.229 17.8854 13.3005 18.0312 13.4434C18.1771 13.5863 18.25 13.7634 18.25 13.9746C18.25 14.1859 18.1772 14.3644 18.0317 14.5103C17.8862 14.6561 17.7059 14.729 17.4908 14.729H16.5417L18.2292 16.4165C18.3819 16.5693 18.4583 16.7429 18.4583 16.9373C18.4583 17.1318 18.3853 17.3054 18.2391 17.4582C18.0797 17.6109 17.8981 17.6873 17.6944 17.6873C17.4907 17.6873 17.3148 17.6109 17.1667 17.4582L15.5 15.7915Z" fill="#1C1B1F"/>
</g>
</g>
</svg>
