<svg width="20" height="20" viewBox="0 0 20 20" fill="none" xmlns="http://www.w3.org/2000/svg">
<g id="pool">
<mask id="mask0_832_34541" style="mask-type:alpha" maskUnits="userSpaceOnUse" x="0" y="0" width="20" height="20">
<rect id="Bounding box" width="20" height="20" fill="#D9D9D9"/>
</mask>
<g mask="url(#mask0_832_34541)">
<path id="pool_2" d="M2.57062 17.0473C2.42312 17.0964 2.29277 17.0703 2.17956 16.9691C2.06636 16.8679 2.00977 16.73 2.00977 16.5553C2.00977 16.3901 2.06983 16.2279 2.18995 16.0688C2.31009 15.9097 2.47224 15.7839 2.67641 15.6915C2.93709 15.5665 3.19978 15.4346 3.46447 15.2957C3.72915 15.1568 4.10482 15.0873 4.59147 15.0873C5.26614 15.0873 5.75091 15.2234 6.04579 15.4956C6.34066 15.7678 6.75733 15.9038 7.29579 15.9038C7.82784 15.9038 8.23944 15.7678 8.53058 15.4956C8.8217 15.2234 9.30461 15.0873 9.97929 15.0873C10.654 15.0873 11.1465 15.2234 11.4568 15.4956C11.7672 15.7678 12.1884 15.9038 12.7205 15.9038C13.2525 15.9038 13.657 15.7678 13.9338 15.4956C14.2107 15.2234 14.6885 15.0873 15.3671 15.0873C15.8538 15.0873 16.2294 15.1568 16.4941 15.2957C16.7588 15.4346 17.0298 15.5665 17.307 15.6915C17.5085 15.7877 17.6693 15.9153 17.7895 16.0745C17.9096 16.2337 17.9697 16.394 17.9697 16.5553C17.9697 16.73 17.9131 16.8679 17.7998 16.9691C17.6866 17.0703 17.5576 17.0964 17.4128 17.0473C17.0255 16.9388 16.6951 16.7932 16.4216 16.6105C16.1481 16.4278 15.7966 16.3365 15.3671 16.3365C14.8628 16.3365 14.4703 16.4726 14.1896 16.7448C13.9089 17.0169 13.4192 17.153 12.7205 17.153C12.0218 17.153 11.5179 17.0169 11.2088 16.7448C10.8998 16.4726 10.49 16.3365 9.97929 16.3365C9.46861 16.3365 9.06836 16.4726 8.77856 16.7448C8.48877 17.0169 7.99451 17.153 7.29579 17.153C6.59708 17.153 6.10004 17.0169 5.80468 16.7448C5.50934 16.4726 5.10156 16.3365 4.58135 16.3365C4.1586 16.3365 3.81395 16.4278 3.54739 16.6105C3.28084 16.7932 2.95524 16.9388 2.57062 17.0473ZM2.57062 13.3726C2.42312 13.4217 2.29277 13.3957 2.17956 13.2944C2.06636 13.1932 2.00977 13.0553 2.00977 12.8806C2.00977 12.7154 2.06983 12.5532 2.18995 12.3941C2.31009 12.235 2.47224 12.1093 2.67641 12.0168C2.93709 11.9057 3.19978 11.7807 3.46447 11.6418C3.72915 11.5029 4.10482 11.4335 4.59147 11.4335C5.26614 11.4335 5.75075 11.5661 6.04531 11.8313C6.33986 12.0966 6.7545 12.2292 7.28922 12.2292C7.82565 12.2292 8.23944 12.0966 8.53058 11.8313C8.8217 11.5661 9.30461 11.4335 9.97929 11.4335C10.654 11.4335 11.1387 11.5661 11.4336 11.8313C11.7285 12.0966 12.1451 12.2292 12.6836 12.2292C13.2157 12.2292 13.6273 12.0966 13.9184 11.8313C14.2095 11.5661 14.6924 11.4335 15.3671 11.4335C15.8538 11.4335 16.2329 11.5064 16.5045 11.6522C16.7762 11.7981 17.0437 11.9265 17.307 12.0376C17.5085 12.1306 17.6693 12.254 17.7895 12.4078C17.9096 12.5617 17.9697 12.7193 17.9697 12.8806C17.9697 13.0553 17.9131 13.1932 17.7998 13.2944C17.6866 13.3957 17.5576 13.4217 17.4128 13.3726C17.0255 13.2641 16.6951 13.122 16.4216 12.9463C16.1481 12.7705 15.7999 12.6827 15.3769 12.6827C14.8564 12.6827 14.4532 12.8153 14.1671 13.0805C13.8811 13.3457 13.3919 13.4783 12.6996 13.4783C11.9796 13.4783 11.4739 13.3457 11.1825 13.0805C10.891 12.8153 10.49 12.6827 9.97929 12.6827C9.49051 12.6827 9.09414 12.8153 8.79018 13.0805C8.48622 13.3457 7.98809 13.4783 7.29579 13.4783C6.60348 13.4783 6.10736 13.3457 5.80741 13.0805C5.50747 12.8153 5.10215 12.6827 4.59147 12.6827C4.16197 12.6827 3.81395 12.7705 3.54739 12.9463C3.28084 13.122 2.95524 13.2641 2.57062 13.3726ZM7.28779 9.82048C7.0505 9.82048 6.84401 9.76866 6.66833 9.66502C6.49263 9.5614 6.33481 9.45483 6.19485 9.34533L8.82306 6.71712L7.77737 5.67144C7.41305 5.30978 7.04183 5.0437 6.66372 4.87319C6.28561 4.70266 5.83898 4.58599 5.32383 4.52319C5.12022 4.49916 4.95153 4.41196 4.81777 4.26158C4.684 4.11121 4.61712 3.93346 4.61712 3.72833C4.61712 3.49403 4.69859 3.29683 4.86152 3.13675C5.02443 2.97667 5.22154 2.90784 5.45285 2.93027C6.15464 2.99258 6.76051 3.13715 7.27045 3.36398C7.78038 3.59081 8.285 3.9537 8.78429 4.45265L13.7637 9.42867C13.6238 9.53817 13.4709 9.63084 13.305 9.70669C13.1391 9.78255 12.9347 9.82048 12.6916 9.82048C12.2648 9.82048 11.8888 9.68506 11.5634 9.41423C11.2381 9.1434 10.7101 9.00798 9.97929 9.00798C9.24852 9.00798 8.72235 9.1434 8.40077 9.41423C8.07918 9.68506 7.70819 9.82048 7.28779 9.82048ZM13.7373 6.65142C13.2175 6.65142 12.7755 6.46926 12.4112 6.10494C12.0469 5.74063 11.8647 5.2986 11.8647 4.77883C11.8647 4.24946 12.0469 3.80501 12.4112 3.4455C12.7755 3.086 13.2175 2.90625 13.7373 2.90625C14.257 2.90625 14.6991 3.086 15.0634 3.4455C15.4277 3.80501 15.6099 4.24946 15.6099 4.77883C15.6099 5.2986 15.4277 5.74063 15.0634 6.10494C14.6991 6.46926 14.257 6.65142 13.7373 6.65142Z" fill="#202020"/>
</g>
</g>
</svg>
