<svg width="24" height="24" viewBox="0 0 24 24" fill="none" xmlns="http://www.w3.org/2000/svg">
<mask id="mask0_948_38983" style="mask-type:alpha" maskUnits="userSpaceOnUse" x="0" y="0" width="24" height="24">
<rect width="24" height="24" fill="#D9D9D9"/>
</mask>
<g mask="url(#mask0_948_38983)">
<path d="M8.4 16.9999L12 13.3999L15.6 16.9999L17 15.5999L13.4 11.9999L17 8.39994L15.6 6.99994L12 10.5999L8.4 6.99994L7 8.39994L10.6 11.9999L7 15.5999L8.4 16.9999ZM12 21.9999C10.6167 21.9999 9.31667 21.7374 8.1 21.2124C6.88333 20.6874 5.825 19.9749 4.925 19.0749C4.025 18.1749 3.3125 17.1166 2.7875 15.8999C2.2625 14.6833 2 13.3833 2 11.9999C2 10.6166 2.2625 9.31661 2.7875 8.09994C3.3125 6.88327 4.025 5.82494 4.925 4.92494C5.825 4.02494 6.88333 3.31244 8.1 2.78744C9.31667 2.26244 10.6167 1.99994 12 1.99994C13.3833 1.99994 14.6833 2.26244 15.9 2.78744C17.1167 3.31244 18.175 4.02494 19.075 4.92494C19.975 5.82494 20.6875 6.88327 21.2125 8.09994C21.7375 9.31661 22 10.6166 22 11.9999C22 13.3833 21.7375 14.6833 21.2125 15.8999C20.6875 17.1166 19.975 18.1749 19.075 19.0749C18.175 19.9749 17.1167 20.6874 15.9 21.2124C14.6833 21.7374 13.3833 21.9999 12 21.9999Z" fill="#44C177"/>
</g>
</svg>
