<svg width="44" height="44" viewBox="0 0 44 44" fill="none" xmlns="http://www.w3.org/2000/svg">
<path d="M0 0H42C43.1046 0 44 0.895431 44 2V42C44 43.1046 43.1046 44 42 44H0V0Z" fill="#FFD400"/>
<mask id="mask0_473_18240" style="mask-type:alpha" maskUnits="userSpaceOnUse" x="10" y="10" width="24" height="24">
<rect x="10" y="10" width="24" height="24" fill="#D9D9D9"/>
</mask>
<g mask="url(#mask0_473_18240)">
<path d="M18 28C17.45 28 16.9792 27.8042 16.5875 27.4125C16.1958 27.0208 16 26.55 16 26V14C16 13.45 16.1958 12.9792 16.5875 12.5875C16.9792 12.1958 17.45 12 18 12H30C30.55 12 31.0208 12.1958 31.4125 12.5875C31.8042 12.9792 32 13.45 32 14V26C32 26.55 31.8042 27.0208 31.4125 27.4125C31.0208 27.8042 30.55 28 30 28H18ZM18 26H30V14H18V26ZM14 32C13.45 32 12.9792 31.8042 12.5875 31.4125C12.1958 31.0208 12 30.55 12 30V16H14V30H28V32H14Z" fill="#1C1B1F"/>
</g>
</svg>
