<svg width="20" height="20" viewBox="0 0 20 20" fill="none" xmlns="http://www.w3.org/2000/svg">
<mask id="mask0_945_36008" style="mask-type:alpha" maskUnits="userSpaceOnUse" x="0" y="0" width="20" height="20">
<rect width="20" height="20" fill="#D9D9D9"/>
</mask>
<g mask="url(#mask0_945_36008)">
<path d="M16.6719 9.75C16.763 9.75 16.8359 9.78646 16.8906 9.85938C16.9635 9.91406 17 9.98698 17 10.0781V10.7344C17 10.8255 16.9635 10.9076 16.8906 10.9805C16.8359 11.0352 16.763 11.0625 16.6719 11.0625H16.125V12.375C16.125 12.8125 16.0247 13.2227 15.8242 13.6055C15.6419 13.9701 15.3776 14.2708 15.0312 14.5078V15.5469C15.0312 15.638 14.9948 15.7109 14.9219 15.7656C14.8672 15.8385 14.7943 15.875 14.7031 15.875H14.0469C13.9557 15.875 13.8737 15.8385 13.8008 15.7656C13.7461 15.7109 13.7188 15.638 13.7188 15.5469V15H13.5H6.5H6.28125V15.5469C6.28125 15.638 6.24479 15.7109 6.17188 15.7656C6.11719 15.8385 6.04427 15.875 5.95312 15.875H5.29688C5.20573 15.875 5.1237 15.8385 5.05078 15.7656C4.99609 15.7109 4.96875 15.638 4.96875 15.5469V14.5078C4.6224 14.2708 4.34896 13.9701 4.14844 13.6055C3.96615 13.2227 3.875 12.8125 3.875 12.375V11.0625H3.32812C3.23698 11.0625 3.15495 11.0352 3.08203 10.9805C3.02734 10.9076 3 10.8255 3 10.7344V10.0781C3 9.98698 3.02734 9.91406 3.08203 9.85938C3.15495 9.78646 3.23698 9.75 3.32812 9.75H3.875V5.8125C3.875 5.21094 4.08464 4.70052 4.50391 4.28125C4.94141 3.84375 5.46094 3.625 6.0625 3.625C6.42708 3.625 6.76432 3.71615 7.07422 3.89844C7.40234 4.0625 7.66667 4.28125 7.86719 4.55469C8.15885 4.48177 8.45964 4.48177 8.76953 4.55469C9.09766 4.6276 9.38021 4.77344 9.61719 4.99219C9.67188 4.9375 9.74479 4.91016 9.83594 4.91016C9.92708 4.91016 10 4.9375 10.0547 4.99219L10.3828 5.32031C10.4375 5.375 10.4648 5.44792 10.4648 5.53906C10.4648 5.63021 10.4375 5.71224 10.3828 5.78516L7.78516 8.38281C7.71224 8.4375 7.63021 8.46484 7.53906 8.46484C7.44792 8.46484 7.375 8.4375 7.32031 8.38281L6.99219 8.05469C6.9375 8 6.91016 7.92708 6.91016 7.83594C6.91016 7.74479 6.9375 7.67188 6.99219 7.61719C6.70052 7.30729 6.53646 6.94271 6.5 6.52344C6.46354 6.08594 6.5638 5.69401 6.80078 5.34766C6.63672 5.07422 6.39062 4.9375 6.0625 4.9375C5.82552 4.9375 5.61589 5.02865 5.43359 5.21094C5.26953 5.375 5.1875 5.57552 5.1875 5.8125V9.75H16.6719ZM7.8125 5.8125C7.6849 5.95833 7.61198 6.13151 7.59375 6.33203C7.59375 6.51432 7.64844 6.6875 7.75781 6.85156L8.85156 5.75781C8.6875 5.64844 8.50521 5.60286 8.30469 5.62109C8.1224 5.62109 7.95833 5.6849 7.8125 5.8125ZM14.8125 12.375V11.0625H5.1875V12.375C5.1875 12.7396 5.3151 13.0495 5.57031 13.3047C5.82552 13.5599 6.13542 13.6875 6.5 13.6875H13.5C13.8646 13.6875 14.1745 13.5599 14.4297 13.3047C14.6849 13.0495 14.8125 12.7396 14.8125 12.375Z" fill="#202020"/>
</g>
</svg>
