<svg width="40" height="40" viewBox="0 0 40 40" fill="none" xmlns="http://www.w3.org/2000/svg">
<path d="M18.4 21.5H26C26.4333 21.5 26.7917 21.3583 27.075 21.075C27.3583 20.7917 27.5 20.4333 27.5 20C27.5 19.5667 27.3583 19.2083 27.075 18.925C26.7917 18.6417 26.4333 18.5 26 18.5H18.4L21.05 15.85C21.35 15.55 21.5 15.2 21.5 14.8C21.5 14.4 21.35 14.05 21.05 13.75C20.75 13.45 20.4 13.3 20 13.3C19.6 13.3 19.25 13.45 18.95 13.75L13.75 18.95C13.45 19.25 13.3 19.6 13.3 20C13.3 20.4 13.45 20.75 13.75 21.05L18.95 26.25C19.25 26.55 19.6 26.7 20 26.7C20.4 26.7 20.75 26.55 21.05 26.25C21.35 25.95 21.5 25.6 21.5 25.2C21.5 24.8 21.35 24.45 21.05 24.15L18.4 21.5ZM20 40C17.2667 40 14.6833 39.475 12.25 38.425C9.81667 37.375 7.69167 35.9417 5.875 34.125C4.05833 32.3083 2.625 30.1833 1.575 27.75C0.525 25.3167 0 22.7333 0 20C0 17.2333 0.525 14.6333 1.575 12.2C2.625 9.76667 4.05833 7.65 5.875 5.85C7.69167 4.05 9.81667 2.625 12.25 1.575C14.6833 0.525 17.2667 0 20 0C22.7667 0 25.3667 0.525 27.8 1.575C30.2333 2.625 32.35 4.05 34.15 5.85C35.95 7.65 37.375 9.76667 38.425 12.2C39.475 14.6333 40 17.2333 40 20C40 22.7333 39.475 25.3167 38.425 27.75C37.375 30.1833 35.95 32.3083 34.15 34.125C32.35 35.9417 30.2333 37.375 27.8 38.425C25.3667 39.475 22.7667 40 20 40Z" fill="#EBEBEB"/>
</svg>
