<svg width="40" height="40" viewBox="0 0 40 40" fill="none" xmlns="http://www.w3.org/2000/svg">
<mask id="mask0_1017_41210" style="mask-type:alpha" maskUnits="userSpaceOnUse" x="0" y="0" width="40" height="40">
<rect width="40" height="40" fill="#D9D9D9"/>
</mask>
<g mask="url(#mask0_1017_41210)">
<path d="M20 36.6666C17.0555 36.6666 14.6527 36.2245 12.7916 35.3403C10.9305 34.456 9.99996 33.3241 9.99996 31.9444C9.99996 31.1204 10.3611 30.3657 11.0833 29.6806C11.8055 28.9954 12.8009 28.4444 14.0694 28.0278L14.8888 30.6944C14.4351 30.8333 14.0185 31.0208 13.6388 31.2569C13.2592 31.4931 12.9722 31.7222 12.7777 31.9444C13.2129 32.463 14.1435 32.9167 15.5694 33.3056C16.9953 33.6945 18.4722 33.8889 20 33.8889C21.5277 33.8889 23.0115 33.6945 24.4514 33.3056C25.8912 32.9167 26.8287 32.463 27.2639 31.9444C27.0694 31.7407 26.787 31.5208 26.4166 31.2847C26.0463 31.0486 25.625 30.8518 25.1528 30.6944L25.9444 28.0278C27.2129 28.4444 28.206 28.9954 28.9236 29.6806C29.6412 30.3657 30 31.1204 30 31.9444C30 33.3241 29.0694 34.456 27.2083 35.3403C25.3472 36.2245 22.9444 36.6666 20 36.6666ZM20 26.9861C20.5574 25.9584 21.1459 25.0162 21.7653 24.1597C22.3847 23.3033 22.9953 22.4908 23.5972 21.7222C24.7546 20.2222 25.6713 18.9144 26.3472 17.7986C27.0231 16.6829 27.3611 15.24 27.3611 13.4701C27.3611 11.4208 26.6461 9.68194 25.2163 8.2536C23.7864 6.82524 22.0456 6.11106 19.994 6.11106C17.9424 6.11106 16.2037 6.82524 14.7777 8.2536C13.3518 9.68194 12.6388 11.4208 12.6388 13.4701C12.6388 15.24 12.9768 16.6829 13.6527 17.7986C14.3287 18.9144 15.2453 20.2222 16.4027 21.7222C17.0046 22.4908 17.6152 23.3033 18.2346 24.1597C18.854 25.0162 19.4425 25.9584 20 26.9861ZM20 32.0556C19.6759 32.0556 19.3888 31.9628 19.1388 31.7772C18.8888 31.5916 18.7083 31.3418 18.5972 31.0278C17.9398 29.0185 17.1155 27.3472 16.1244 26.0139C15.1333 24.6806 14.1705 23.4028 13.2361 22.1806C12.3101 20.9583 11.5162 19.6898 10.8541 18.375C10.1921 17.0602 9.86108 15.4255 9.86108 13.4711C9.86108 10.6385 10.8409 8.24072 12.8005 6.27777C14.7601 4.3148 17.1599 3.33331 20 3.33331C22.84 3.33331 25.2398 4.31312 27.1994 6.27273C29.159 8.23237 30.1388 10.6322 30.1388 13.4722C30.1388 15.4259 29.8113 17.0587 29.1562 18.3706C28.5012 19.6824 27.7037 20.9524 26.7638 22.1806C25.8379 23.4028 24.8773 24.6806 23.8819 26.0139C22.8865 27.3472 22.0615 29.016 21.4068 31.0203C21.293 31.3308 21.1111 31.581 20.8611 31.7708C20.6111 31.9606 20.324 32.0556 20 32.0556ZM20.0058 16.3194C20.7889 16.3194 21.4583 16.0397 22.0138 15.4803C22.5694 14.9209 22.8472 14.2496 22.8472 13.4664C22.8472 12.6832 22.5675 12.0139 22.008 11.4583C21.4486 10.9028 20.7773 10.625 19.9942 10.625C19.211 10.625 18.5416 10.9047 17.9861 11.4641C17.4305 12.0235 17.1528 12.6948 17.1528 13.478C17.1528 14.2612 17.4325 14.9306 17.9919 15.4861C18.5513 16.0416 19.2226 16.3194 20.0058 16.3194Z" fill="#202020"/>
</g>
</svg>
