<svg width="44" height="44" viewBox="0 0 44 44" fill="none" xmlns="http://www.w3.org/2000/svg">
<g id="BT">
<rect id="Rectangle 16" x="1" y="1" width="42" height="42" rx="1" stroke="#433938" stroke-width="2"/>
<g id="delete">
<mask id="mask0_476_25243" style="mask-type:alpha" maskUnits="userSpaceOnUse" x="10" y="10" width="24" height="24">
<rect id="Bounding box" x="10" y="10" width="24" height="24" fill="#D9D9D9"/>
</mask>
<g mask="url(#mask0_476_25243)">
<path id="delete_2" d="M17 31C16.45 31 15.9792 30.8042 15.5875 30.4125C15.1958 30.0208 15 29.55 15 29V16H14V14H19V13H25V14H30V16H29V29C29 29.55 28.8042 30.0208 28.4125 30.4125C28.0208 30.8042 27.55 31 27 31H17ZM27 16H17V29H27V16ZM19 27H21V18H19V27ZM23 27H25V18H23V27Z" fill="#433938"/>
</g>
</g>
</g>
</svg>
