<svg width="24" height="24" viewBox="0 0 24 24" fill="none" xmlns="http://www.w3.org/2000/svg">
<mask id="mask0_472_17215" style="mask-type:alpha" maskUnits="userSpaceOnUse" x="0" y="0" width="24" height="24">
<rect width="24" height="24" fill="#D9D9D9"/>
</mask>
<g mask="url(#mask0_472_17215)">
<path d="M4.125 19.7751C3.60937 19.7751 3.16796 19.5915 2.80077 19.2243C2.43359 18.8571 2.25 18.4157 2.25 17.9001V6.1001C2.25 5.58446 2.43359 5.14306 2.80077 4.77587C3.16796 4.40869 3.60937 4.2251 4.125 4.2251H19.875C20.3906 4.2251 20.832 4.40869 21.1992 4.77587C21.5664 5.14306 21.75 5.58446 21.75 6.1001V17.9001C21.75 18.4157 21.5664 18.8571 21.1992 19.2243C20.832 19.5915 20.3906 19.7751 19.875 19.7751H4.125ZM19.875 7.9751L12.4875 12.6126C12.4042 12.6543 12.3229 12.6876 12.2438 12.7126C12.1646 12.7376 12.0833 12.7501 12 12.7501C11.9167 12.7501 11.8354 12.7376 11.7563 12.7126C11.6771 12.6876 11.5958 12.6543 11.5125 12.6126L4.125 7.9751V17.9001H19.875V7.9751ZM12 11.0251L19.85 6.1001H4.15L12 11.0251ZM4.125 8.2126V6.83135V6.8501V6.8376V8.2126Z" fill="#1C1B1F"/>
</g>
</svg>
