<svg width="80" height="80" viewBox="0 0 80 80" fill="none" xmlns="http://www.w3.org/2000/svg">
<g id="favorite">
<mask id="mask0_796_38813" style="mask-type:alpha" maskUnits="userSpaceOnUse" x="0" y="0" width="80" height="80">
<rect id="Bounding box" width="80" height="80" fill="#AEAEAE"/>
</mask>
<g mask="url(#mask0_796_38813)">
<path id="favorite_2" d="M40.0001 68.3359C39.4057 68.3359 38.8007 68.2285 38.1851 68.0135C37.5694 67.7986 37.0281 67.4547 36.5611 66.9818L32.1667 62.9193C25.2779 56.5304 19.3056 50.4332 14.2501 44.6276C9.19453 38.822 6.66675 32.7526 6.66675 26.4193C6.66675 21.4107 8.3473 17.228 11.7084 13.8712C15.0695 10.5144 19.2223 8.83594 24.1667 8.83594C27.0001 8.83594 29.8056 9.51649 32.5834 10.8776C35.3612 12.2387 37.8334 14.4748 40.0001 17.5859C42.4445 14.4748 44.9723 12.2387 47.5834 10.8776C50.1945 9.51649 52.9445 8.83594 55.8334 8.83594C60.7779 8.83594 64.9306 10.5144 68.2918 13.8712C71.6529 17.228 73.3334 21.4107 73.3334 26.4193C73.3334 32.7526 70.8056 38.822 65.7501 44.6276C60.6945 50.4332 54.7223 56.5304 47.8334 62.9193L43.4167 67.0026C42.9584 67.4682 42.4272 67.8068 41.823 68.0184C41.2188 68.2301 40.6112 68.3359 40.0001 68.3359ZM37.8334 23.0859C36.3334 20.3637 34.3612 18.1415 31.9167 16.4193C29.4723 14.697 26.889 13.8359 24.1667 13.8359C20.5001 13.8359 17.5001 15.0165 15.1667 17.3776C12.8334 19.7387 11.6667 22.7645 11.6667 26.455C11.6667 29.6534 12.7468 33.0208 14.9068 36.5571C17.0669 40.0934 19.6503 43.524 22.6568 46.8488C25.6634 50.1735 28.7779 53.2665 32.0001 56.1276C35.2223 58.9887 37.889 61.3915 40.0001 63.3359C42.1112 61.447 44.7779 59.0582 48.0001 56.1693C51.2223 53.2804 54.3334 50.1554 57.3334 46.7943C60.3334 43.4332 62.9167 39.9834 65.0834 36.4449C67.2501 32.9064 68.3334 29.5645 68.3334 26.4193C68.3334 22.7526 67.1529 19.7387 64.7917 17.3776C62.4306 15.0165 59.4445 13.8359 55.8334 13.8359C53.0556 13.8359 50.4584 14.6832 48.0417 16.3776C45.6251 18.072 43.6112 20.3082 42.0001 23.0859C41.7223 23.5304 41.4167 23.8498 41.0834 24.0443C40.7501 24.2387 40.3612 24.3359 39.9167 24.3359C39.4723 24.3359 39.0695 24.2387 38.7084 24.0443C38.3473 23.8498 38.0556 23.5304 37.8334 23.0859Z" fill="#AEAEAE"/>
</g>
</g>
</svg>
