<svg width="24" height="24" viewBox="0 0 24 24" fill="none" xmlns="http://www.w3.org/2000/svg">
<path d="M19.1367 8.59375C19.1367 8.76953 19.1367 8.91016 19.1367 9.08594C19.1367 13.9727 15.4453 19.5625 8.66016 19.5625C6.55078 19.5625 4.61719 18.9648 3 17.9102C3.28125 17.9453 3.5625 17.9805 3.87891 17.9805C5.60156 17.9805 7.18359 17.3828 8.44922 16.3984C6.83203 16.3633 5.46094 15.3086 5.00391 13.832C5.25 13.8672 5.46094 13.9023 5.70703 13.9023C6.02344 13.9023 6.375 13.832 6.65625 13.7617C4.96875 13.4102 3.70312 11.9336 3.70312 10.1406V10.1055C4.19531 10.3867 4.79297 10.5273 5.39062 10.5625C4.37109 9.89453 3.73828 8.76953 3.73828 7.50391C3.73828 6.80078 3.91406 6.16797 4.23047 5.64062C6.05859 7.85547 8.80078 9.33203 11.8594 9.50781C11.7891 9.22656 11.7539 8.94531 11.7539 8.66406C11.7539 6.625 13.4062 4.97266 15.4453 4.97266C16.5 4.97266 17.4492 5.39453 18.1523 6.13281C18.9609 5.95703 19.7695 5.64062 20.4727 5.21875C20.1914 6.09766 19.6289 6.80078 18.8555 7.25781C19.5938 7.1875 20.332 6.97656 20.9648 6.69531C20.4727 7.43359 19.8398 8.06641 19.1367 8.59375Z" fill="#5B5B5B"/>
</svg>
