<svg width="40" height="40" viewBox="0 0 40 40" fill="none" xmlns="http://www.w3.org/2000/svg">
<mask id="mask0_1017_41211" style="mask-type:alpha" maskUnits="userSpaceOnUse" x="0" y="0" width="40" height="40">
<rect width="40" height="40" fill="#D9D9D9"/>
</mask>
<g mask="url(#mask0_1017_41211)">
<path d="M8.0555 35C7.65736 35 7.32635 34.8681 7.06246 34.6042C6.79857 34.3403 6.66663 34.0093 6.66663 33.6111V18.6528L4.44438 20.3611C4.12957 20.6019 3.78699 20.6945 3.41663 20.6389C3.04624 20.5833 2.74068 20.3982 2.49996 20.0834C2.25921 19.7685 2.16661 19.426 2.22217 19.0556C2.27772 18.6852 2.45828 18.3796 2.76383 18.1389L6.66663 15.1667V11.6667C6.66663 11.2685 6.79857 10.9375 7.06246 10.6736C7.32635 10.4098 7.65736 10.2778 8.0555 10.2778C8.45364 10.2778 8.78465 10.4098 9.04854 10.6736C9.31243 10.9375 9.44438 11.2685 9.44438 11.6667V13.0417L19.1666 5.65281C19.287 5.5602 19.4166 5.48844 19.5555 5.43752C19.6944 5.3866 19.8425 5.36115 20 5.36115C20.1574 5.36115 20.3055 5.3866 20.4444 5.43752C20.5833 5.48844 20.7129 5.5602 20.8333 5.65281L37.2638 18.1667C37.5694 18.4074 37.7453 18.713 37.7916 19.0834C37.8379 19.4537 37.7407 19.7963 37.5 20.1111C37.2592 20.4167 36.9583 20.5926 36.5972 20.6389C36.2361 20.6852 35.9028 20.588 35.5972 20.3472L33.3333 18.6528V33.6111C33.3333 34.0093 33.2013 34.3403 32.9375 34.6042C32.6736 34.8681 32.3426 35 31.9444 35H8.0555ZM9.44438 32.2223H18.6111V26.9445C18.6111 26.5463 18.743 26.2153 19.0069 25.9514C19.2708 25.6875 19.6018 25.5556 20 25.5556C20.3981 25.5556 20.7291 25.6875 20.993 25.9514C21.2569 26.2153 21.3888 26.5463 21.3888 26.9445V32.2223H30.5555V16.5278L20 8.4861L9.44438 16.5278V32.2223ZM8.36104 8.33335C7.86104 8.33335 7.46522 8.14585 7.17358 7.77085C6.88192 7.39585 6.83793 6.99077 7.04163 6.5556C7.39346 5.68521 7.96058 4.97688 8.743 4.4306C9.52542 3.8843 10.4074 3.61115 11.3888 3.61115C11.7499 3.61115 12.0879 3.51855 12.4028 3.33335C12.7176 3.14816 12.9537 2.89353 13.1111 2.56948C13.2685 2.28242 13.4606 2.0602 13.6875 1.90281C13.9143 1.7454 14.162 1.66669 14.4305 1.66669C14.9398 1.66669 15.3333 1.85651 15.611 2.23615C15.8888 2.61576 15.9305 3.01852 15.736 3.44444C15.3842 4.2963 14.8217 5.00001 14.0486 5.55556C13.2754 6.11112 12.3888 6.3889 11.3888 6.3889C11.0277 6.3889 10.6944 6.48381 10.3888 6.67365C10.0833 6.86345 9.84254 7.11576 9.66663 7.43056C9.50921 7.72687 9.31476 7.95141 9.08329 8.10419C8.85179 8.25697 8.61104 8.33335 8.36104 8.33335Z" fill="#202020"/>
</g>
</svg>
