<svg width="349" height="37" viewBox="0 0 349 37" fill="none" xmlns="http://www.w3.org/2000/svg">
<path d="M0 28.3245V0.593685H5.6834V12.9079L15.2339 0.593685H21.7571L12.2847 12.6014L22.4797 28.3245H15.6049L8.39816 17.0637L5.6834 20.6066V28.3245H0Z" fill="#6E5E5E"/>
<path d="M27.5459 28.3245V7.85197H32.8583L33.0145 12.1227H33.1122C33.3335 11.4715 33.62 10.8459 33.9715 10.2459C34.3361 9.63302 34.7723 9.09679 35.2801 8.63716C35.8009 8.17754 36.3933 7.80728 37.0574 7.5264C37.6954 7.25828 38.405 7.13061 39.1862 7.14337C39.2252 7.14337 39.2643 7.14337 39.3034 7.14337V12.4482C39.1862 12.4482 39.069 12.4482 38.9518 12.4482C38.1315 12.461 37.3829 12.5823 36.7058 12.8121C35.9376 13.093 35.2801 13.5271 34.7332 14.1144C34.1994 14.7017 33.7892 15.4422 33.5028 16.3359C33.2163 17.2296 33.0731 18.2702 33.0731 19.4576V28.3245H27.5459Z" fill="#6E5E5E"/>
<path d="M44.2524 20.9896V7.54555H49.7796V20.6066C49.7796 21.8068 49.9879 22.6877 50.4046 23.2495C50.8342 23.8112 51.5178 24.0921 52.4553 24.0921C53.0412 24.0921 53.575 23.9581 54.0568 23.69C54.5385 23.4218 54.9552 23.0516 55.3067 22.5792C55.6583 22.1068 55.9317 21.545 56.127 20.8939C56.3223 20.2428 56.42 19.5278 56.42 18.749V7.54555H61.9471V28.3245H56.5762L56.42 25.337H56.3419C56.0815 25.8349 55.7494 26.3009 55.3458 26.735C54.9552 27.1563 54.5125 27.5202 54.0177 27.8266C53.536 28.133 53.0086 28.3692 52.4357 28.5352C51.8628 28.7139 51.2704 28.8033 50.6585 28.8033C49.5647 28.8033 48.6143 28.6054 47.807 28.2096C47.0127 27.8138 46.3487 27.2712 45.8149 26.5818C45.2941 25.8796 44.9034 25.0497 44.643 24.0921C44.3826 23.1346 44.2524 22.1004 44.2524 20.9896Z" fill="#6E5E5E"/>
<path d="M68.693 28.3245V7.54555H74.0444L74.2006 10.514H74.2983C74.5587 10.016 74.8842 9.55642 75.2748 9.13509C75.6785 8.71377 76.1342 8.3499 76.642 8.04348C77.1498 7.73706 77.7031 7.50086 78.3021 7.33489C78.914 7.15614 79.565 7.06677 80.2551 7.06677C81.2707 7.06677 82.1626 7.26467 82.9308 7.66046C83.699 8.05625 84.337 8.61163 84.8448 9.3266C85.3526 10.0416 85.7302 10.897 85.9776 11.8929C86.238 12.8759 86.3682 13.9612 86.3682 15.1486V28.3245H80.841V15.9337C80.841 14.5038 80.6262 13.4569 80.1965 12.793C79.7799 12.1163 79.1028 11.778 78.1653 11.778C77.5794 11.778 77.0456 11.8992 76.5638 12.1418C76.0821 12.3844 75.6654 12.7291 75.3139 13.176C74.9623 13.6228 74.6889 14.1655 74.4936 14.8038C74.2983 15.4294 74.2006 16.1316 74.2006 16.9105V28.3245H68.693Z" fill="#6E5E5E"/>
<path d="M92.0789 17.8489C92.0789 16.2274 92.2677 14.7591 92.6453 13.4441C93.0359 12.1163 93.5828 10.98 94.2859 10.0352C94.989 9.09041 95.8288 8.36266 96.8053 7.85197C97.7949 7.3285 98.8951 7.06677 100.106 7.06677C100.744 7.06677 101.362 7.16253 101.961 7.35404C102.573 7.54555 103.14 7.80728 103.661 8.13923C104.181 8.47119 104.637 8.86059 105.028 9.30745C105.431 9.75431 105.75 10.2331 105.985 10.7438H106.082L106.239 7.54555H111.59V26.7924C111.59 28.2862 111.349 29.614 110.867 30.7759C110.386 31.9377 109.709 32.9144 108.836 33.706C107.964 34.5104 106.916 35.1232 105.692 35.5445C104.481 35.9658 103.14 36.1765 101.668 36.1765C100.705 36.1765 99.787 36.0935 98.9146 35.9275C98.0423 35.7743 97.235 35.5573 96.4929 35.2764C95.7507 35.0083 95.0736 34.6827 94.4617 34.2997C93.8497 33.9294 93.3224 33.5209 92.8797 33.074L95.4382 29.4928C96.2194 30.1694 97.1113 30.7057 98.1139 31.1014C99.1165 31.4972 100.184 31.6951 101.317 31.6951C101.916 31.6951 102.502 31.5994 103.075 31.4079C103.661 31.2164 104.181 30.9163 104.637 30.5078C105.093 30.0992 105.457 29.5694 105.731 28.9182C106.017 28.2798 106.16 27.5074 106.16 26.6009V24.9922H106.082C105.822 25.4519 105.483 25.886 105.067 26.2945C104.663 26.6903 104.207 27.0414 103.7 27.3478C103.192 27.6542 102.632 27.8968 102.02 28.0756C101.421 28.2415 100.796 28.3245 100.145 28.3245C99.0123 28.3245 97.9576 28.082 96.9811 27.5968C96.0046 27.1116 95.1518 26.4158 94.4226 25.5093C93.6935 24.5901 93.1206 23.4857 92.7039 22.1962C92.2873 20.9067 92.0789 19.4576 92.0789 17.8489ZM97.7623 17.8489C97.7623 18.7426 97.8405 19.5597 97.9967 20.3002C98.166 21.028 98.4134 21.6536 98.7389 22.177C99.0644 22.6877 99.4745 23.0899 99.9693 23.3835C100.477 23.6644 101.07 23.8049 101.747 23.8049C102.398 23.8049 102.984 23.6644 103.504 23.3835C104.038 23.0899 104.487 22.6813 104.852 22.1579C105.23 21.6344 105.516 21.0088 105.711 20.2811C105.92 19.5405 106.024 18.717 106.024 17.8106C106.024 16.9551 105.926 16.1508 105.731 15.3975C105.536 14.6442 105.249 13.9867 104.871 13.4249C104.507 12.8632 104.058 12.4163 103.524 12.0844C103.003 11.7524 102.411 11.5864 101.747 11.5864C101.057 11.5864 100.458 11.7524 99.9498 12.0844C99.455 12.4163 99.0449 12.8632 98.7193 13.4249C98.3938 13.9867 98.153 14.6506 97.9967 15.4167C97.8405 16.1827 97.7623 16.9934 97.7623 17.8489Z" fill="#6E5E5E"/>
<path d="M116.871 25.7774L119.273 22.4834C119.976 23.109 120.764 23.6389 121.637 24.073C122.522 24.5071 123.492 24.7241 124.547 24.7241C124.95 24.7241 125.321 24.6858 125.66 24.6092C126.011 24.5326 126.304 24.4049 126.539 24.2262C126.786 24.0474 126.975 23.8176 127.105 23.5367C127.248 23.2431 127.32 22.8792 127.32 22.4451C127.32 22.0876 127.242 21.7748 127.086 21.5067C126.942 21.2258 126.741 20.9833 126.48 20.779C126.22 20.5619 125.914 20.3704 125.562 20.2045C125.211 20.0385 124.833 19.8789 124.429 19.7257C123.961 19.5469 123.472 19.3682 122.965 19.1894C122.457 19.0107 121.956 18.8064 121.461 18.5766C120.966 18.3468 120.491 18.0787 120.035 17.7723C119.592 17.4658 119.202 17.0956 118.863 16.6615C118.525 16.2146 118.251 15.6975 118.043 15.1102C117.848 14.5229 117.75 13.8271 117.75 13.0228C117.75 12.0014 117.926 11.1204 118.277 10.3799C118.629 9.62664 119.124 9.00742 119.762 8.52226C120.413 8.02433 121.194 7.66046 122.105 7.43064C123.017 7.18806 124.032 7.06677 125.152 7.06677C125.777 7.06677 126.422 7.11784 127.086 7.21998C127.75 7.32212 128.407 7.47533 129.058 7.67961C129.722 7.87112 130.36 8.12008 130.972 8.4265C131.597 8.73292 132.177 9.09041 132.71 9.49897L130.386 12.793C130.048 12.5248 129.677 12.2886 129.273 12.0844C128.882 11.8801 128.479 11.7077 128.062 11.5673C127.658 11.4268 127.255 11.3247 126.851 11.2609C126.448 11.1843 126.07 11.146 125.718 11.146C124.781 11.146 124.117 11.2992 123.726 11.6056C123.349 11.912 123.16 12.3333 123.16 12.8696C123.16 13.4313 123.414 13.891 123.922 14.2484C124.429 14.5932 125.054 14.8932 125.797 15.1486C126.265 15.3145 126.76 15.4869 127.281 15.6656C127.815 15.8444 128.336 16.055 128.843 16.2976C129.364 16.5402 129.852 16.8275 130.308 17.1594C130.777 17.4914 131.187 17.8935 131.539 18.3659C131.903 18.8383 132.19 19.3873 132.398 20.0129C132.606 20.6385 132.71 21.3727 132.71 22.2153C132.71 23.3006 132.496 24.2581 132.066 25.088C131.636 25.9051 131.05 26.5882 130.308 27.1372C129.579 27.6862 128.72 28.1011 127.73 28.382C126.741 28.6629 125.692 28.8033 124.586 28.8033C122.932 28.8033 121.461 28.5288 120.172 27.9798C118.896 27.418 117.796 26.6839 116.871 25.7774Z" fill="#6E5E5E"/>
<path d="M138.714 28.3245V7.85197H144.026L144.183 12.1227H144.28C144.502 11.4715 144.788 10.8459 145.14 10.2459C145.504 9.63302 145.94 9.09679 146.448 8.63716C146.969 8.17754 147.561 7.80728 148.225 7.5264C148.863 7.25828 149.573 7.13061 150.354 7.14337C150.393 7.14337 150.432 7.14337 150.472 7.14337V12.4482C150.354 12.4482 150.237 12.4482 150.12 12.4482C149.3 12.461 148.551 12.5823 147.874 12.8121C147.106 13.093 146.448 13.5271 145.901 14.1144C145.368 14.7017 144.957 15.4422 144.671 16.3359C144.384 17.2296 144.241 18.2702 144.241 19.4576V28.3245H138.714Z" fill="#6E5E5E"/>
<path d="M155.753 5.18996V0H161.592V5.18996H155.753ZM155.909 28.3245V7.54555H161.436V28.3245H155.909Z" fill="#6E5E5E"/>
<path d="M181.47 28.3245V0.593685H191.197C192.824 0.593685 194.237 0.836266 195.435 1.32143C196.633 1.80659 197.622 2.4705 198.404 3.31315C199.185 4.14303 199.764 5.12612 200.142 6.26242C200.519 7.38596 200.708 8.59248 200.708 9.88199C200.708 11.3119 200.487 12.627 200.044 13.8271C199.614 15.0273 198.976 16.0614 198.13 16.9296C197.297 17.785 196.262 18.4553 195.025 18.9405C193.801 19.4129 192.401 19.6491 190.826 19.6491H187.154V28.3245H181.47ZM187.154 14.7081H191.001C191.587 14.7081 192.121 14.5868 192.603 14.3442C193.085 14.0889 193.501 13.7505 193.853 13.3292C194.204 12.8951 194.471 12.3972 194.654 11.8354C194.849 11.2736 194.947 10.68 194.947 10.0543C194.947 9.25 194.849 8.56694 194.654 8.00518C194.458 7.43064 194.178 6.96463 193.814 6.60714C193.462 6.24965 193.033 5.98792 192.525 5.82195C192.017 5.65597 191.451 5.57298 190.826 5.57298H187.154V14.7081Z" fill="#6E5E5E"/>
<path d="M206.79 28.3245V7.85197H212.102L212.258 12.1227H212.356C212.577 11.4715 212.864 10.8459 213.215 10.2459C213.58 9.63302 214.016 9.09679 214.524 8.63716C215.045 8.17754 215.637 7.80728 216.301 7.5264C216.939 7.25828 217.649 7.13061 218.43 7.14337C218.469 7.14337 218.508 7.14337 218.547 7.14337V12.4482C218.43 12.4482 218.313 12.4482 218.196 12.4482C217.376 12.461 216.627 12.5823 215.95 12.8121C215.182 13.093 214.524 13.5271 213.977 14.1144C213.443 14.7017 213.033 15.4422 212.747 16.3359C212.46 17.2296 212.317 18.2702 212.317 19.4576V28.3245H206.79Z" fill="#6E5E5E"/>
<path d="M222.871 17.9255C222.871 16.47 223.086 15.0847 223.516 13.7697C223.946 12.4546 224.577 11.2992 225.41 10.3033C226.244 9.30745 227.272 8.52226 228.496 7.94772C229.72 7.36042 231.126 7.06677 232.715 7.06677C234.303 7.06677 235.71 7.36042 236.933 7.94772C238.157 8.52226 239.179 9.30745 240 10.3033C240.833 11.2992 241.465 12.4546 241.894 13.7697C242.324 15.0847 242.539 16.47 242.539 17.9255C242.539 19.381 242.324 20.7662 241.894 22.0813C241.465 23.3963 240.833 24.5518 240 25.5476C239.179 26.5435 238.157 27.3351 236.933 27.9224C235.71 28.5097 234.303 28.8033 232.715 28.8033C231.126 28.8033 229.72 28.5097 228.496 27.9224C227.272 27.3351 226.244 26.5435 225.41 25.5476C224.577 24.5518 223.946 23.3963 223.516 22.0813C223.086 20.7662 222.871 19.381 222.871 17.9255ZM228.457 17.9255C228.457 18.8447 228.555 19.6938 228.75 20.4726C228.945 21.2386 229.225 21.9089 229.59 22.4834C229.968 23.0452 230.417 23.4857 230.938 23.8049C231.471 24.1241 232.064 24.2836 232.715 24.2836C233.366 24.2836 233.952 24.1241 234.473 23.8049C234.993 23.4857 235.436 23.0452 235.801 22.4834C236.178 21.9089 236.465 21.2386 236.66 20.4726C236.855 19.6938 236.953 18.8447 236.953 17.9255C236.953 17.019 236.855 16.1827 236.66 15.4167C236.465 14.6379 236.178 13.9676 235.801 13.4058C235.436 12.8313 234.993 12.3844 234.473 12.0652C233.952 11.746 233.366 11.5864 232.715 11.5864C232.064 11.5864 231.471 11.746 230.938 12.0652C230.417 12.3844 229.968 12.8313 229.59 13.4058C229.225 13.9676 228.945 14.6379 228.75 15.4167C228.555 16.1827 228.457 17.019 228.457 17.9255Z" fill="#6E5E5E"/>
<path d="M248.328 35.2572V7.54555H253.679L253.835 10.7438H253.933C254.167 10.2331 254.486 9.75431 254.89 9.30745C255.307 8.86059 255.782 8.47119 256.316 8.13923C256.849 7.80728 257.435 7.54555 258.073 7.35404C258.711 7.16253 259.369 7.06677 260.046 7.06677C261.296 7.06677 262.429 7.3285 263.444 7.85197C264.46 8.36266 265.326 9.09679 266.042 10.0543C266.771 11.0119 267.331 12.1737 267.721 13.5399C268.125 14.8932 268.327 16.4061 268.327 18.0787C268.327 19.7512 268.112 21.2514 267.682 22.5792C267.253 23.907 266.66 25.0305 265.905 25.9498C265.163 26.869 264.284 27.5776 263.268 28.0756C262.266 28.5607 261.179 28.8033 260.007 28.8033C259.317 28.8033 258.653 28.7139 258.015 28.5352C257.39 28.3692 256.81 28.133 256.277 27.8266C255.743 27.5202 255.267 27.1627 254.851 26.7541C254.434 26.3456 254.096 25.9115 253.835 25.4519H253.757V37H253.64L248.328 35.2572ZM253.874 18.0404C253.874 18.9979 253.985 19.8661 254.206 20.6449C254.441 21.411 254.76 22.0685 255.163 22.6175C255.567 23.1537 256.042 23.5687 256.589 23.8623C257.149 24.1432 257.754 24.2836 258.405 24.2836C259.082 24.2836 259.681 24.1432 260.202 23.8623C260.736 23.5687 261.179 23.1537 261.53 22.6175C261.895 22.0813 262.168 21.4301 262.351 20.6641C262.546 19.898 262.644 19.0362 262.644 18.0787C262.644 17.1594 262.552 16.304 262.37 15.5124C262.188 14.7208 261.914 14.0378 261.55 13.4633C261.198 12.8759 260.756 12.4163 260.222 12.0844C259.701 11.7524 259.095 11.5864 258.405 11.5864C257.741 11.5864 257.129 11.7524 256.57 12.0844C256.023 12.4163 255.547 12.8759 255.144 13.4633C254.753 14.0378 254.441 14.7208 254.206 15.5124C253.985 16.2912 253.874 17.1339 253.874 18.0404Z" fill="#6E5E5E"/>
<path d="M273.237 17.9255C273.237 16.47 273.432 15.0847 273.823 13.7697C274.226 12.4546 274.819 11.2992 275.6 10.3033C276.394 9.30745 277.384 8.52226 278.569 7.94772C279.767 7.36042 281.16 7.06677 282.748 7.06677C284.337 7.06677 285.691 7.36042 286.811 7.94772C287.943 8.52226 288.861 9.33937 289.565 10.3991C290.281 11.446 290.801 12.7036 291.127 14.1718C291.465 15.6273 291.635 17.236 291.635 18.9979H278.706C278.719 19.6874 278.855 20.3577 279.116 21.0088C279.376 21.6599 279.721 22.2472 280.151 22.7707C280.593 23.2814 281.114 23.6963 281.713 24.0155C282.325 24.3219 282.989 24.4752 283.705 24.4752C284.174 24.4752 284.604 24.4177 284.994 24.3028C285.385 24.1879 285.75 24.0347 286.088 23.8432C286.44 23.6517 286.765 23.4282 287.065 23.1729C287.377 22.9175 287.67 22.6494 287.943 22.3685L290.795 25.5476C290.391 26.0072 289.936 26.435 289.428 26.8307C288.933 27.2265 288.38 27.5713 287.768 27.8649C287.156 28.1586 286.472 28.3884 285.717 28.5543C284.975 28.7203 284.161 28.8033 283.276 28.8033C281.687 28.8033 280.268 28.5097 279.018 27.9224C277.781 27.3351 276.733 26.5435 275.874 25.5476C275.014 24.5518 274.357 23.3963 273.901 22.0813C273.458 20.7662 273.237 19.381 273.237 17.9255ZM278.784 15.8188H286.401C286.401 15.0017 286.309 14.3059 286.127 13.7314C285.945 13.1441 285.697 12.6653 285.385 12.295C285.085 11.9248 284.727 11.6567 284.311 11.4907C283.907 11.3119 283.477 11.2226 283.022 11.2226C282.527 11.2226 282.052 11.3119 281.596 11.4907C281.153 11.6567 280.743 11.9248 280.366 12.295C280.001 12.6525 279.682 13.1249 279.409 13.7122C279.135 14.2995 278.927 15.0017 278.784 15.8188Z" fill="#6E5E5E"/>
<path d="M297.482 28.3245V7.85197H302.795L302.951 12.1227H303.048C303.27 11.4715 303.556 10.8459 303.908 10.2459C304.272 9.63302 304.709 9.09679 305.216 8.63716C305.737 8.17754 306.33 7.80728 306.994 7.5264C307.632 7.25828 308.341 7.13061 309.122 7.14337C309.161 7.14337 309.201 7.14337 309.24 7.14337V12.4482C309.122 12.4482 309.005 12.4482 308.888 12.4482C308.068 12.461 307.319 12.5823 306.642 12.8121C305.874 13.093 305.216 13.5271 304.669 14.1144C304.136 14.7017 303.725 15.4422 303.439 16.3359C303.153 17.2296 303.009 18.2702 303.009 19.4576V28.3245H297.482Z" fill="#6E5E5E"/>
<path d="M313.232 11.8929V7.54555H315.927L316.962 1.45549H321.239V7.54555H325.829V11.8929H321.239V21.6216C321.239 22.1451 321.285 22.5856 321.376 22.9431C321.467 23.2878 321.61 23.5687 321.806 23.7857C322.001 23.99 322.242 24.1368 322.528 24.2262C322.828 24.3156 323.186 24.3602 323.602 24.3602C324.045 24.3602 324.462 24.3475 324.852 24.3219C325.243 24.2836 325.64 24.2326 326.044 24.1687V28.2096C325.302 28.4011 324.579 28.548 323.876 28.6501C323.186 28.7522 322.437 28.8033 321.63 28.8033C319.69 28.8033 318.232 28.2671 317.255 27.1946C316.278 26.1094 315.79 24.4177 315.79 22.1196V11.8929H313.232Z" fill="#6E5E5E"/>
<path d="M331.481 20.5109V7.54555H336.989V20.1278C336.989 21.328 337.184 22.2089 337.575 22.7707C337.978 23.3325 338.649 23.6134 339.586 23.6134C340.172 23.6134 340.699 23.4857 341.168 23.2303C341.65 22.9622 342.06 22.592 342.399 22.1196C342.737 21.6472 342.998 21.0854 343.18 20.4343C343.375 19.7831 343.473 19.0682 343.473 18.2893V7.54555H349V26.7924C349 28.2224 348.798 29.5119 348.395 30.661C347.991 31.8228 347.398 32.8123 346.617 33.6294C345.849 34.4465 344.892 35.0721 343.746 35.5062C342.613 35.9531 341.311 36.1765 339.84 36.1765C338.942 36.1765 338.089 36.1063 337.282 35.9658C336.474 35.8382 335.726 35.6594 335.036 35.4296C334.359 35.1998 333.734 34.9253 333.161 34.6061C332.601 34.2997 332.106 33.9677 331.676 33.6102L334.04 30.1247C334.86 30.6099 335.706 30.9929 336.579 31.2738C337.451 31.5547 338.336 31.6951 339.235 31.6951C340.55 31.6951 341.598 31.2738 342.379 30.4312C343.16 29.6013 343.551 28.3245 343.551 26.6009V24.8773H343.434C343.173 25.3753 342.848 25.8349 342.457 26.2562C342.067 26.6775 341.624 27.0414 341.129 27.3478C340.647 27.6542 340.12 27.8968 339.547 28.0756C338.987 28.2415 338.401 28.3245 337.789 28.3245C336.696 28.3245 335.752 28.1266 334.958 27.7308C334.176 27.3351 333.525 26.7924 333.004 26.103C332.484 25.4008 332.1 24.5773 331.852 23.6325C331.605 22.6749 331.481 21.6344 331.481 20.5109Z" fill="#6E5E5E"/>
</svg>
