<svg width="24" height="24" viewBox="0 0 24 24" fill="none" xmlns="http://www.w3.org/2000/svg">
<mask id="mask0_1015_52856" style="mask-type:alpha" maskUnits="userSpaceOnUse" x="0" y="0" width="24" height="24">
<rect width="24" height="24" fill="#D9D9D9"/>
</mask>
<g mask="url(#mask0_1015_52856)">
<path d="M6.65 21C6.46667 21 6.3125 20.9375 6.1875 20.8125C6.0625 20.6875 6 20.5333 6 20.35C6 20.2667 6.025 20.1708 6.075 20.0625C6.125 19.9542 6.19167 19.875 6.275 19.825L7.5 19C6.51667 19 5.6875 18.6625 5.0125 17.9875C4.3375 17.3125 4 16.4833 4 15.5V6C4 4.61667 4.64167 3.60417 5.925 2.9625C7.20833 2.32083 9.23333 2 12 2C14.8667 2 16.9167 2.30833 18.15 2.925C19.3833 3.54167 20 4.56667 20 6V15.5C20 16.4833 19.6625 17.3125 18.9875 17.9875C18.3125 18.6625 17.4833 19 16.5 19L17.725 19.825C17.8083 19.875 17.875 19.95 17.925 20.05C17.975 20.15 18 20.25 18 20.35C18 20.5333 17.9375 20.6875 17.8125 20.8125C17.6875 20.9375 17.5333 21 17.35 21H6.65ZM6 10H18V7H6V10ZM12 16C12.4167 16 12.7708 15.8542 13.0625 15.5625C13.3542 15.2708 13.5 14.9167 13.5 14.5C13.5 14.0833 13.3542 13.7292 13.0625 13.4375C12.7708 13.1458 12.4167 13 12 13C11.5833 13 11.2292 13.1458 10.9375 13.4375C10.6458 13.7292 10.5 14.0833 10.5 14.5C10.5 14.9167 10.6458 15.2708 10.9375 15.5625C11.2292 15.8542 11.5833 16 12 16ZM7.5 17H16.5C16.9333 17 17.2917 16.8583 17.575 16.575C17.8583 16.2917 18 15.9333 18 15.5V12H6V15.5C6 15.9333 6.14167 16.2917 6.425 16.575C6.70833 16.8583 7.06667 17 7.5 17ZM12 4C10.5667 4 9.37917 4.08333 8.4375 4.25C7.49583 4.41667 6.83333 4.66667 6.45 5H17.65C17.35 4.66667 16.7292 4.41667 15.7875 4.25C14.8458 4.08333 13.5833 4 12 4Z" fill="#202020"/>
</g>
</svg>
