<svg width="52" height="52" viewBox="0 0 52 52" fill="none" xmlns="http://www.w3.org/2000/svg">
<g filter="url(#filter0_d_2292_4298)">
<rect x="2" y="2" width="44" height="44" rx="8" fill="white"/>
<rect x="2.5" y="2.5" width="43" height="43" rx="7.5" stroke="#EDEDED"/>
</g>
<mask id="mask0_2292_4298" style="mask-type:alpha" maskUnits="userSpaceOnUse" x="12" y="12" width="24" height="24">
<rect x="12" y="12" width="24" height="24" fill="#D9D9D9"/>
</mask>
<g mask="url(#mask0_2292_4298)">
<path d="M22.65 32.15L20.925 30.575C19.1583 28.9583 17.5625 27.3542 16.1375 25.7625C14.7125 24.1708 14 22.4167 14 20.5C14 18.9333 14.525 17.625 15.575 16.575C16.625 15.525 17.9333 15 19.5 15C20.3833 15 21.2167 15.1875 22 15.5625C22.7833 15.9375 23.45 16.45 24 17.1C24.55 16.45 25.2167 15.9375 26 15.5625C26.7833 15.1875 27.6167 15 28.5 15C30.0667 15 31.375 15.525 32.425 16.575C33.475 17.625 34 18.9333 34 20.5C34 22.4167 33.2917 24.175 31.875 25.775C30.4583 27.375 28.85 28.9833 27.05 30.6L25.35 32.15C24.9667 32.5 24.5167 32.675 24 32.675C23.4833 32.675 23.0333 32.5 22.65 32.15Z" fill="#FFD400"/>
</g>
<defs>
<filter id="filter0_d_2292_4298" x="0" y="0" width="52" height="52" filterUnits="userSpaceOnUse" color-interpolation-filters="sRGB">
<feFlood flood-opacity="0" result="BackgroundImageFix"/>
<feColorMatrix in="SourceAlpha" type="matrix" values="0 0 0 0 0 0 0 0 0 0 0 0 0 0 0 0 0 0 127 0" result="hardAlpha"/>
<feOffset dx="2" dy="2"/>
<feGaussianBlur stdDeviation="2"/>
<feComposite in2="hardAlpha" operator="out"/>
<feColorMatrix type="matrix" values="0 0 0 0 0 0 0 0 0 0 0 0 0 0 0 0 0 0 0.25 0"/>
<feBlend mode="normal" in2="BackgroundImageFix" result="effect1_dropShadow_2292_4298"/>
<feBlend mode="normal" in="SourceGraphic" in2="effect1_dropShadow_2292_4298" result="shape"/>
</filter>
</defs>
</svg>
