<svg width="41" height="32" viewBox="0 0 41 32" fill="none" xmlns="http://www.w3.org/2000/svg">
<path d="M30.7 20.9502C29.384 20.9502 28.2717 20.4959 27.363 19.5872C26.4543 18.6785 26 17.5662 26 16.2502C26 14.9342 26.4543 13.8219 27.363 12.9132C28.2717 12.0045 29.384 11.5502 30.7 11.5502C32.016 11.5502 33.1283 12.0045 34.037 12.9132C34.9457 13.8219 35.4 14.9342 35.4 16.2502C35.4 17.5662 34.9457 18.6785 34.037 19.5872C33.1283 20.4959 32.016 20.9502 30.7 20.9502ZM22.4 32.0002C21.975 32.0002 21.6188 31.8564 21.3313 31.5689C21.0438 31.2814 20.9 30.9252 20.9 30.5002V29.4502C20.9 28.5835 21.0833 27.8419 21.45 27.2252C21.8167 26.6085 22.3333 26.1335 23 25.8002C24.2333 25.1669 25.4833 24.7002 26.75 24.4002C28.0167 24.1002 29.3333 23.9502 30.7 23.9502C32.0667 23.9502 33.3833 24.0919 34.65 24.3752C35.9167 24.6585 37.1667 25.1335 38.4 25.8002C39.0667 26.1002 39.5833 26.5669 39.95 27.2002C40.3167 27.8335 40.5 28.5835 40.5 29.4502V30.5002C40.5 30.9252 40.3563 31.2814 40.0688 31.5689C39.7813 31.8564 39.425 32.0002 39 32.0002H22.4ZM16.5 15.9502C14.3 15.9502 12.5 15.2502 11.1 13.8502C9.7 12.4502 9 10.6502 9 8.4502C9 6.2502 9.7 4.4502 11.1 3.0502C12.5 1.6502 14.3 0.950195 16.5 0.950195C18.7 0.950195 20.5 1.6502 21.9 3.0502C23.3 4.4502 24 6.2502 24 8.4502C24 10.6502 23.3 12.4502 21.9 13.8502C20.5 15.2502 18.7 15.9502 16.5 15.9502ZM2 32.0002C1.575 32.0002 1.21875 31.8564 0.93125 31.5689C0.64375 31.2814 0.5 30.9252 0.5 30.5002V27.3002C0.5 26.1669 0.783333 25.1252 1.35 24.1752C1.91667 23.2252 2.76667 22.5002 3.9 22.0002C6.13333 21.0002 8.275 20.2502 10.325 19.7502C12.375 19.2502 14.4335 19.0002 16.5005 19.0002C17.3335 19.0002 18.1333 19.0335 18.9 19.1002C19.6667 19.1669 20.2833 19.2502 20.75 19.3502V21.2905C20.4892 21.4149 20.2657 21.5392 20.0794 21.6636C19.8931 21.788 19.7 21.9502 19.5 22.1502C19.0667 22.0835 18.6 22.0419 18.1 22.0252C17.6 22.0085 17.0667 22.0002 16.5 22.0002C14.6124 22.0002 12.7655 22.1919 10.9593 22.5752C9.1531 22.9585 7.2 23.6669 5.1 24.7002C4.63333 24.9335 4.25 25.3002 3.95 25.8002C3.65 26.3002 3.5 26.8002 3.5 27.3002V29.0002H17.9V32.0002H2ZM16.5 12.9502C17.8 12.9502 18.875 12.5252 19.725 11.6752C20.575 10.8252 21 9.7502 21 8.4502C21 7.1502 20.575 6.0752 19.725 5.2252C18.875 4.3752 17.8 3.9502 16.5 3.9502C15.2 3.9502 14.125 4.3752 13.275 5.2252C12.425 6.0752 12 7.1502 12 8.4502C12 9.7502 12.425 10.8252 13.275 11.6752C14.125 12.5252 15.2 12.9502 16.5 12.9502Z" fill="#959595"/>
</svg>
