<svg width="46" height="45" viewBox="0 0 46 45" fill="none" xmlns="http://www.w3.org/2000/svg">
<g id="icons" clip-path="url(#clip0_1003_37877)">
<path id="Vector" d="M18.986 36.7684C29.0933 36.7684 37.2477 28.6578 37.1992 18.6528C37.1507 8.64787 28.9177 0.537231 18.8104 0.537231C8.70303 0.537231 0.548707 8.64787 0.597194 18.6528C0.645682 28.6578 8.87862 36.7684 18.986 36.7684Z" fill="#FFF6CC"/>
<path id="Vector_2" d="M15.2377 24.3154H7.91333V43.1455H15.2377V24.3154Z" fill="white" stroke="#705F5E" stroke-width="2" stroke-miterlimit="10"/>
<path id="Vector_3" d="M13.7892 21.4185H11.5591C10.7591 21.4185 10.1106 22.067 10.1106 22.8669C10.1106 23.6669 10.7591 24.3154 11.5591 24.3154H13.7892C14.5892 24.3154 15.2377 23.6669 15.2377 22.8669C15.2377 22.067 14.5892 21.4185 13.7892 21.4185Z" fill="white" stroke="#705F5E" stroke-width="2" stroke-miterlimit="10"/>
<path id="Vector_4" d="M38.6756 31.5577H32.0837V43.1454H38.6756V31.5577Z" fill="white" stroke="#705F5E" stroke-width="2" stroke-miterlimit="10"/>
<path id="Vector_5" d="M35.7623 28.6608H33.5321C32.7322 28.6608 32.0837 29.3093 32.0837 30.1092C32.0837 30.9092 32.7322 31.5577 33.5321 31.5577H35.7623C36.5622 31.5577 37.2107 30.9092 37.2107 30.1092C37.2107 29.3093 36.5622 28.6608 35.7623 28.6608Z" fill="white" stroke="#705F5E" stroke-width="2" stroke-miterlimit="10"/>
<path id="Vector_6" d="M32.0837 15.6246H15.2377V43.1454H32.0837V15.6246Z" fill="white" stroke="#705F5E" stroke-width="2" stroke-miterlimit="10"/>
<g id="Group">
<path id="Vector_7" d="M30.6188 8.38232H35.7459" stroke="#BCC0C4" stroke-width="2" stroke-miterlimit="10"/>
<path id="Vector_8" d="M37.2108 8.38232H38.6757" stroke="#BCC0C4" stroke-width="2" stroke-miterlimit="10"/>
<path id="Vector_9" d="M40.1405 8.38232H41.6054" stroke="#BCC0C4" stroke-width="2" stroke-miterlimit="10"/>
<path id="Vector_10" d="M41.6054 4.76111H43.0703" stroke="#BCC0C4" stroke-width="2" stroke-miterlimit="10"/>
<path id="Vector_11" d="M44.5352 4.76111H46" stroke="#BCC0C4" stroke-width="2" stroke-miterlimit="10"/>
<path id="Vector_12" d="M19.6323 4.76115H26.8322C27.1544 4.03692 27.9162 3.4358 28.7951 3.4358C29.0734 3.4358 29.3444 3.47201 29.5861 3.56616C30.0769 2.26979 31.344 1.34277 32.8308 1.34277C34.7425 1.34277 36.2953 3.31993 36.2953 4.76839H40.1405" stroke="#BCC0C4" stroke-width="2" stroke-miterlimit="10" stroke-linecap="round"/>
<path id="Vector_13" d="M2.05383 8.38232H4.95428C5.43769 7.65809 6.44113 6.89764 7.64232 7.04249C8.16968 6.15169 9.12917 5.47815 10.2498 5.47815C11.9124 5.47815 13.2601 6.93385 13.2748 8.38232H20.3647" stroke="#BCC0C4" stroke-width="2" stroke-miterlimit="10" stroke-linecap="round"/>
<path id="Vector_14" d="M21.8296 8.38232H23.2945" stroke="#BCC0C4" stroke-width="2" stroke-miterlimit="10"/>
<path id="Vector_15" d="M24.7593 8.38232H26.2242" stroke="#BCC0C4" stroke-width="2" stroke-miterlimit="10"/>
</g>
<path id="Vector_16" d="M28.438 12.7277H18.8835C18.0835 12.7277 17.435 13.3762 17.435 14.1761C17.435 14.9761 18.0835 15.6246 18.8835 15.6246H28.438C29.2379 15.6246 29.8864 14.9761 29.8864 14.1761C29.8864 13.3762 29.2379 12.7277 28.438 12.7277Z" fill="#FDD400" stroke="#705F5E" stroke-width="2" stroke-miterlimit="10"/>
<path id="Vector_17" d="M25.4918 38.0758H21.8296V43.1454H25.4918V38.0758Z" fill="#FDD400" stroke="#705F5E" stroke-width="2" stroke-miterlimit="10"/>
<path id="Vector_18" d="M18.8998 28.6607V25.7638H21.8296V28.6607" stroke="#705F5E" stroke-width="2" stroke-miterlimit="10"/>
<path id="Vector_19" d="M18.8998 34.4547V31.5577H21.8296V34.4547" stroke="#705F5E" stroke-width="2" stroke-miterlimit="10"/>
<path id="Vector_20" d="M25.4918 28.6607V25.7638H28.4215V28.6607" stroke="#705F5E" stroke-width="2" stroke-miterlimit="10"/>
<path id="Vector_21" d="M18.8998 22.8669V19.97H21.8296V22.8669" stroke="#705F5E" stroke-width="2" stroke-miterlimit="10"/>
<path id="Vector_22" d="M25.4918 22.8669V19.97H28.4215V22.8669" stroke="#705F5E" stroke-width="2" stroke-miterlimit="10"/>
<path id="Vector_23" d="M25.4918 34.4547V31.5577H28.4215V34.4547" stroke="#705F5E" stroke-width="2" stroke-miterlimit="10"/>
<path id="Vector_24" d="M10.8431 28.6608H13.0404" stroke="#705F5E" stroke-width="2" stroke-miterlimit="10"/>
<path id="Vector_25" d="M10.8431 31.5577H13.0404" stroke="#705F5E" stroke-width="2" stroke-miterlimit="10"/>
<path id="Vector_26" d="M10.8431 34.4546H13.0404" stroke="#705F5E" stroke-width="2" stroke-miterlimit="10"/>
<path id="Vector_27" d="M10.8431 37.3516H13.0404" stroke="#705F5E" stroke-width="2" stroke-miterlimit="10"/>
<path id="Vector_28" d="M10.8431 40.2485H13.0404" stroke="#705F5E" stroke-width="2" stroke-miterlimit="10"/>
<path id="Vector_29" d="M34.281 34.4546H36.4783" stroke="#705F5E" stroke-width="2" stroke-miterlimit="10"/>
<path id="Vector_30" d="M34.281 37.3516H36.4783" stroke="#705F5E" stroke-width="2" stroke-miterlimit="10"/>
<path id="Vector_31" d="M34.281 40.2485H36.4783" stroke="#705F5E" stroke-width="2" stroke-miterlimit="10"/>
<path id="Vector_32" d="M5.716 42.1454C5.16372 42.1454 4.716 42.5931 4.716 43.1454C4.716 43.6977 5.16372 44.1454 5.716 44.1454V42.1454ZM7.91331 42.1454H5.716V44.1454H7.91331V42.1454Z" fill="#705F5E"/>
<path id="Vector_33" d="M4.25113 43.1454H2.78625" stroke="#705F5E" stroke-width="2" stroke-miterlimit="10"/>
<path id="Vector_34" d="M40.873 44.1454C41.4253 44.1454 41.873 43.6977 41.873 43.1454C41.873 42.5931 41.4253 42.1454 40.873 42.1454V44.1454ZM38.6757 44.1454H40.873V42.1454H38.6757V44.1454Z" fill="#705F5E"/>
<path id="Vector_35" d="M42.3378 43.1454H43.8027" stroke="#705F5E" stroke-width="2" stroke-miterlimit="10"/>
</g>
<defs>
<clipPath id="clip0_1003_37877">
<rect width="46" height="45" fill="white"/>
</clipPath>
</defs>
</svg>
