<svg width="20" height="20" viewBox="0 0 20 20" fill="none" xmlns="http://www.w3.org/2000/svg">
<mask id="mask0_945_36005" style="mask-type:alpha" maskUnits="userSpaceOnUse" x="0" y="0" width="20" height="20">
<rect width="20" height="20" fill="#D9D9D9"/>
</mask>
<g mask="url(#mask0_945_36005)">
<path d="M5.08325 15.75H7.41659V10.75H12.5833V15.75H14.9166V8.375L9.99992 4.6875L5.08325 8.375V15.75ZM5.08325 17.5C4.602 17.5 4.19002 17.3286 3.84731 16.9859C3.50461 16.6432 3.33325 16.2312 3.33325 15.75V8.375C3.33325 8.09874 3.39597 7.83701 3.5214 7.58983C3.64683 7.34267 3.82022 7.13911 4.04159 6.97917L8.9619 3.289C9.11225 3.17967 9.27575 3.09375 9.45242 3.03125C9.62909 2.96875 9.81311 2.9375 10.0045 2.9375C10.1959 2.9375 10.3784 2.96875 10.552 3.03125C10.7256 3.09375 10.8876 3.17967 11.0379 3.289L15.9583 6.97917C16.1796 7.13911 16.353 7.34267 16.4784 7.58983C16.6039 7.83701 16.6666 8.09874 16.6666 8.375V15.75C16.6666 16.2312 16.4952 16.6432 16.1525 16.9859C15.8098 17.3286 15.3978 17.5 14.9166 17.5H10.8333V12.5H9.16659V17.5H5.08325Z" fill="#202020"/>
</g>
</svg>
