<svg width="48" height="41" viewBox="0 0 48 41" fill="none" xmlns="http://www.w3.org/2000/svg">
<g id="Icons" clip-path="url(#clip0_473_18289)">
<path id="Vector" d="M12.824 7.51029L4 13.4089V15.2977H43.008L44 13.4089L36 7.29419L12.824 7.51029Z" fill="#FDD400"/>
<path id="Vector_2" d="M4 39.3083H44" stroke="#705F5E" stroke-width="2" stroke-miterlimit="10" stroke-linecap="round"/>
<path id="Vector_3" d="M36 15.2977V13.697L32 8.8949V7.29419" stroke="white" stroke-width="2" stroke-miterlimit="10"/>
<path id="Vector_4" d="M28 15.2977V13.697L26.4 8.8949V7.29419" stroke="white" stroke-width="2" stroke-miterlimit="10"/>
<path id="Vector_5" d="M12 15.2977V13.697L16 8.8949V7.29419" stroke="white" stroke-width="2" stroke-miterlimit="10"/>
<path id="Vector_6" d="M20 15.2977V13.697L21.6 8.8949V7.29419" stroke="white" stroke-width="2" stroke-miterlimit="10"/>
<path id="Vector_7" d="M40.8 16.098H7.20001V39.3083H40.8V16.098Z" fill="white" stroke="#705F5E" stroke-width="2" stroke-miterlimit="10"/>
<path id="Vector_8" d="M18.4 20.9001H7.20001V39.3083H18.4V20.9001Z" fill="white" stroke="#705F5E" stroke-width="2" stroke-miterlimit="10"/>
<path id="Vector_9" d="M15.2 29.7041V32.9055" stroke="#705F5E" stroke-width="2" stroke-miterlimit="10"/>
<path id="Vector_10" d="M38.024 30.0723L31.52 36.5711" stroke="#705F5E" stroke-width="2" stroke-miterlimit="10"/>
<path id="Vector_11" d="M38.024 33.9299L35.376 36.5711" stroke="#705F5E" stroke-width="2" stroke-miterlimit="10"/>
<path id="Vector_12" d="M33.1988 1.69165H14.8012C13.2542 1.69165 12 2.94581 12 4.49289C12 6.03998 13.2542 7.29413 14.8012 7.29413H33.1988C34.7458 7.29413 36 6.03998 36 4.49289C36 2.94581 34.7458 1.69165 33.1988 1.69165Z" fill="white" stroke="#705F5E" stroke-width="2" stroke-miterlimit="10"/>
<path id="Vector_13" d="M4 15.2977V20.0999C4 22.1728 5.928 24.1016 8 24.1016C10.072 24.1016 12 22.1728 12 20.0999C12 22.1728 13.928 24.1016 16 24.1016C18.072 24.1016 20 22.1728 20 20.0999C20 22.1728 21.928 24.1016 24 24.1016C26.072 24.1016 28 22.1728 28 20.0999C28 22.1728 29.928 24.1016 32 24.1016C34.072 24.1016 36 22.1728 36 20.0999C36 22.1728 37.928 24.1016 40 24.1016C42.072 24.1016 44 22.1728 44 20.0999V15.2977H4Z" fill="#FDD400" stroke="#705F5E" stroke-width="2" stroke-miterlimit="10"/>
<path id="Vector_14" d="M36 7.29419H12L4.78547 12.8085C4.29041 13.1869 4 13.7744 4 14.3975V15.2977H44V14.3975C44 13.7744 43.7096 13.1869 43.2145 12.8085L36 7.29419Z" stroke="#705F5E" stroke-width="2" stroke-miterlimit="10"/>
<path id="Vector_15" d="M12 18.4991V20.0999" stroke="#705F5E" stroke-width="2" stroke-miterlimit="10"/>
<path id="Vector_16" d="M20 18.4991V20.0999" stroke="#705F5E" stroke-width="2" stroke-miterlimit="10"/>
<path id="Vector_17" d="M28 18.4991V20.0999" stroke="#705F5E" stroke-width="2" stroke-miterlimit="10"/>
<path id="Vector_18" d="M36 18.4991V20.0999" stroke="#705F5E" stroke-width="2" stroke-miterlimit="10"/>
<path id="Vector_19" d="M2.4 39.3083H0" stroke="#705F5E" stroke-width="2" stroke-miterlimit="10"/>
<path id="Vector_20" d="M48 39.3083H45.6" stroke="#705F5E" stroke-width="2" stroke-miterlimit="10"/>
</g>
<defs>
<clipPath id="clip0_473_18289">
<rect width="48" height="41" fill="white"/>
</clipPath>
</defs>
</svg>
