<svg width="80" height="80" viewBox="0 0 80 80" fill="none" xmlns="http://www.w3.org/2000/svg">
<mask id="mask0_948_40748" style="mask-type:alpha" maskUnits="userSpaceOnUse" x="0" y="0" width="80" height="80">
<rect width="80" height="80" fill="#D9D9D9"/>
</mask>
<g mask="url(#mask0_948_40748)">
<path d="M22.5003 72.4996C18.167 72.4996 14.4448 70.9073 11.3337 67.7227C8.22255 64.538 6.66699 60.7278 6.66699 56.292C6.66699 51.8562 8.22255 48.046 11.3337 44.8613C14.4448 41.6767 18.167 40.0844 22.5003 40.0844C26.8337 40.0844 30.5559 41.6767 33.667 44.8613C36.7781 48.046 38.3337 51.8562 38.3337 56.292C38.3337 60.7278 36.7781 64.538 33.667 67.7227C30.5559 70.9073 26.8337 72.4996 22.5003 72.4996ZM69.667 69.0875L47.7503 46.6527C46.9725 47.2783 46.0975 47.8896 45.1253 48.4867C44.1531 49.0839 43.2225 49.5815 42.3337 49.9795C42.0559 49.1834 41.7503 48.373 41.417 47.5484C41.0837 46.7238 40.6948 45.9703 40.2503 45.2879C43.2503 44.0936 45.792 42.1174 47.8753 39.3593C49.9587 36.6011 51.0003 33.317 51.0003 29.5067C51.0003 24.9004 49.417 20.9622 46.2503 17.6922C43.0837 14.4223 39.2503 12.7873 34.7503 12.7873C30.1948 12.7873 26.3198 14.4223 23.1253 17.6922C19.9309 20.9622 18.3337 24.9004 18.3337 29.5067C18.3337 30.4735 18.4309 31.4829 18.6253 32.535C18.8198 33.5871 19.0559 34.4828 19.3337 35.2221C18.6114 35.3358 17.8059 35.5206 16.917 35.7765C16.0281 36.0324 15.2225 36.331 14.5003 36.6722C14.1114 35.6486 13.8198 34.5112 13.6253 33.2601C13.4309 32.009 13.3337 30.7579 13.3337 29.5067C13.3337 23.4218 15.417 18.2609 19.5837 14.0242C23.7503 9.78744 28.8059 7.66907 34.7503 7.66907C40.6392 7.66907 45.6531 9.80165 49.792 14.0668C53.9309 18.332 56.0003 23.4786 56.0003 29.5067C56.0003 31.9521 55.5837 34.369 54.7503 36.7575C53.917 39.146 52.7781 41.2217 51.3337 42.9847L73.3337 65.3342L69.667 69.0875ZM16.7503 64.3105L22.5003 58.4246L28.167 64.2252L30.0837 62.2632L24.3337 56.3773L30.2503 50.3208L28.3337 48.3588L22.5003 54.33L16.667 48.3588L14.7503 50.3208L20.5837 56.292L14.7503 62.2632L16.7503 64.3105Z" fill="#AEAEAE"/>
</g>
</svg>
