<svg width="20" height="20" viewBox="0 0 20 20" fill="none" xmlns="http://www.w3.org/2000/svg">
<g id="exercise">
<mask id="mask0_832_34535" style="mask-type:alpha" maskUnits="userSpaceOnUse" x="0" y="0" width="20" height="20">
<rect id="Bounding box" width="20" height="20" fill="#D9D9D9"/>
</mask>
<g mask="url(#mask0_832_34535)">
<path id="exercise_2" d="M16.7397 7.979L15.7502 6.98942L16.5106 6.229L13.771 3.51025L13.0314 4.27067L12.0418 3.28109L12.7502 2.56234C13.0349 2.27762 13.3769 2.13525 13.7762 2.13525C14.1755 2.13525 14.5175 2.27762 14.8022 2.56234L17.4585 5.21859C17.7432 5.50331 17.8856 5.84185 17.8856 6.23421C17.8856 6.62657 17.7432 6.96512 17.4585 7.24984L16.7397 7.979ZM7.146 17.5728C6.9585 17.7603 6.69634 17.8818 6.35954 17.9373C6.02273 17.9929 5.71197 17.8783 5.42725 17.5936L2.56266 14.7186C2.28488 14.445 2.146 14.1162 2.146 13.7321C2.146 13.3481 2.28488 13.0172 2.56266 12.7394L3.30225 12.0207L4.29183 12.9998L3.55225 13.729L6.271 16.4686L7.021 15.729L8.00016 16.7186L7.146 17.5728ZM15.1877 10.9894L16.4897 9.70817L10.3335 3.55192L9.03141 4.83317L15.1877 10.9894ZM9.72933 16.4686L11.0106 15.1873L4.85433 9.03109L3.57308 10.3123L9.72933 16.4686ZM9.62516 11.8019L11.8439 9.604L10.4168 8.19775L8.21891 10.3957L9.62516 11.8019ZM10.7189 17.4582C10.4481 17.729 10.12 17.8644 9.73454 17.8644C9.34912 17.8644 9.021 17.729 8.75016 17.4582L2.5835 11.2707C2.30572 10.9929 2.16683 10.6682 2.16683 10.2967C2.16683 9.92519 2.30572 9.60053 2.5835 9.32275L3.86475 8.0415C4.13836 7.76373 4.46718 7.62484 4.8512 7.62484C5.23523 7.62484 5.56613 7.76373 5.84391 8.0415L7.22933 9.40609L9.42725 7.18734L8.04183 5.81234C7.76405 5.53456 7.62516 5.20643 7.62516 4.82796C7.62516 4.44949 7.76405 4.12137 8.04183 3.84359L9.34391 2.56234C9.61752 2.28456 9.94634 2.14567 10.3304 2.14567C10.7144 2.14567 11.0453 2.28456 11.3231 2.56234L17.5002 8.69775C17.7779 8.97136 17.9168 9.30018 17.9168 9.68421C17.9168 10.0682 17.7779 10.3991 17.5002 10.6769L16.1981 11.9582C15.9203 12.2359 15.5922 12.3748 15.2137 12.3748C14.8352 12.3748 14.5071 12.2359 14.2293 11.9582L12.8127 10.5728L10.6147 12.7915L12.0002 14.1769C12.271 14.4478 12.4099 14.7776 12.4168 15.1665C12.4238 15.5554 12.2918 15.8853 12.021 16.1561L10.7189 17.4582Z" fill="#202020"/>
</g>
</g>
</svg>
