<svg width="24" height="24" viewBox="0 0 24 24" fill="none" xmlns="http://www.w3.org/2000/svg">
<mask id="mask0_472_17218" style="mask-type:alpha" maskUnits="userSpaceOnUse" x="0" y="0" width="24" height="24">
<rect width="24" height="24" fill="#D9D9D9"/>
</mask>
<g mask="url(#mask0_472_17218)">
<path d="M15.95 8.12505V5.17505H8.04999V8.12505H6.17499V4.22505C6.17499 3.96297 6.26364 3.74328 6.44094 3.566C6.61822 3.3887 6.8379 3.30005 7.09999 3.30005H16.9C17.1621 3.30005 17.3818 3.3887 17.559 3.566C17.7363 3.74328 17.825 3.96297 17.825 4.22505V8.12505H15.95ZM17.875 12.4125C18.1333 12.4125 18.3542 12.3209 18.5375 12.1375C18.7208 11.9542 18.8125 11.7334 18.8125 11.475C18.8125 11.2167 18.7208 10.9959 18.5375 10.8125C18.3542 10.6292 18.1333 10.5375 17.875 10.5375C17.6167 10.5375 17.3958 10.6292 17.2125 10.8125C17.0292 10.9959 16.9375 11.2167 16.9375 11.475C16.9375 11.7334 17.0292 11.9542 17.2125 12.1375C17.3958 12.3209 17.6167 12.4125 17.875 12.4125ZM8.04999 18.9H15.95V14.9H8.04999V18.9ZM8.04999 20.775C7.53435 20.775 7.09295 20.5915 6.72576 20.2243C6.35858 19.8571 6.17499 19.4157 6.17499 18.9V16.85H3.22499C2.9629 16.85 2.74321 16.7614 2.56591 16.5841C2.38863 16.4068 2.29999 16.1871 2.29999 15.925V10.975C2.29999 10.175 2.57707 9.50005 3.13124 8.95005C3.6854 8.40005 4.35832 8.12505 5.14999 8.12505H18.85C19.65 8.12505 20.325 8.40005 20.875 8.95005C21.425 9.50005 21.7 10.175 21.7 10.975V15.925C21.7 16.1871 21.6113 16.4068 21.434 16.5841C21.2568 16.7614 21.0371 16.85 20.775 16.85H17.825V18.9C17.825 19.4157 17.6414 19.8571 17.2742 20.2243C16.907 20.5915 16.4656 20.775 15.95 20.775H8.04999ZM19.825 14.975V10.975C19.825 10.6988 19.7313 10.4672 19.5438 10.2804C19.3563 10.0935 19.124 10 18.8469 10H5.15319C4.87605 10 4.64374 10.0935 4.45624 10.2804C4.26874 10.4672 4.17499 10.6988 4.17499 10.975V14.975H6.17499V13.025H17.825V14.975H19.825Z" fill="#1C1B1F"/>
</g>
</svg>
