<svg width="20" height="20" viewBox="0 0 20 20" fill="none" xmlns="http://www.w3.org/2000/svg">
<g id="Icon 20px">
<mask id="mask0_1016_41096" style="mask-type:alpha" maskUnits="userSpaceOnUse" x="0" y="0" width="20" height="20">
<rect id="Bounding box" width="20" height="20" fill="#D9D9D9"/>
</mask>
<g mask="url(#mask0_1016_41096)">
<path id="&#238;&#140;&#180;" d="M12.2567 12.5759C14.317 12.5759 16 14.1537 16 16.058C16 16.5477 15.5647 16.9286 15.0424 16.9286H3.92857C3.40625 16.9286 3 16.5477 3 16.058C3 14.1537 4.65402 12.5759 6.71429 12.5759L8.1942 14.453L8.74554 13.4464H8.57143C8.31027 13.4464 8.10714 13.256 8.10714 13.0112C8.10714 12.7935 8.31027 12.5759 8.57143 12.5759H10.4286C10.6607 12.5759 10.8929 12.7935 10.8929 13.0112C10.8929 13.256 10.6607 13.4464 10.4286 13.4464H10.2254L10.7768 14.453L12.2567 12.5759ZM3.92857 16.058H8.33929L6.25 13.5008C4.9442 13.6913 3.92857 14.7794 3.92857 16.058ZM9.5 16.058L10.1384 15.2419L9.5 13.9905L8.83259 15.2419L9.5 16.058ZM10.6607 16.058H15.0714C15.0714 14.7794 14.0268 13.6913 12.721 13.5008L10.6607 16.058ZM5.23438 5.80204L4.59598 5.20354C4.45089 5.06752 4.39286 4.9043 4.39286 4.71387C4.39286 4.41462 4.59598 4.14258 4.9442 4.06097C9.15179 3.05441 9.32589 3.0272 9.44196 3.0272C9.44196 3.0272 9.47098 3.0272 9.5 3.0272L9.52902 3C9.64509 3 9.8192 3.05441 14.0558 4.06097C14.375 4.14258 14.6071 4.41462 14.6071 4.71387C14.6071 4.9043 14.5201 5.06752 14.346 5.20354L13.7076 5.80204V6.40053C13.7076 6.75419 13.5045 7.10784 13.1272 7.21666C12.0536 7.59752 10.8058 7.78795 9.47098 7.78795C8.13616 7.78795 6.88839 7.59752 5.81473 7.21666C5.46652 7.10784 5.23438 6.75419 5.23438 6.40053V5.80204ZM9.5 6.863C9.73214 6.67257 10.1674 6.26451 10.2835 5.52999L9.5 5.23075L8.6875 5.52999C8.80357 6.26451 9.23884 6.67257 9.5 6.863ZM7.70089 4.3058L5.49554 4.82268L6.16295 5.44838V6.40053C6.80134 6.61816 7.49777 6.78139 8.25223 6.863C7.96205 6.42773 7.75893 5.88365 7.75893 5.17634C7.75893 5.06752 7.81696 4.9315 7.96205 4.87709L9.35491 4.33301C9.38393 4.33301 9.44196 4.3058 9.5 4.3058C9.52902 4.3058 9.58705 4.33301 9.61607 4.33301L11.0089 4.87709C11.154 4.9315 11.2411 5.06752 11.2411 5.17634C11.2411 5.88365 11.0089 6.42773 10.7188 6.863C11.4732 6.78139 12.1987 6.61816 12.8371 6.40053L12.808 5.80204V5.44838L13.4754 4.82268C13.4754 4.82268 9.64509 3.92494 9.5 3.89774C9.32589 3.92494 8.80357 4.03376 7.70089 4.3058ZM12.721 8.22321C13.0112 8.22321 13.2433 8.46805 13.1562 8.7401C12.9241 10.4268 11.3281 11.7054 9.47098 11.7054C7.61384 11.7054 6.04688 10.4268 5.78571 8.7401C5.72768 8.46805 5.95982 8.22321 6.25 8.22321C6.48214 8.22321 6.68527 8.38644 6.68527 8.60407C6.85938 9.88267 8.04911 10.8348 9.47098 10.8348C10.8929 10.8348 12.0826 9.88267 12.2567 8.60407C12.3147 8.38644 12.4888 8.22321 12.721 8.22321Z" fill="#202020"/>
</g>
</g>
</svg>
