<svg width="24" height="24" viewBox="0 0 24 24" fill="none" xmlns="http://www.w3.org/2000/svg">
<mask id="mask0_472_17212" style="mask-type:alpha" maskUnits="userSpaceOnUse" x="0" y="0" width="24" height="24">
<rect width="24" height="24" fill="#D9D9D9"/>
</mask>
<g mask="url(#mask0_472_17212)">
<path d="M12.875 20.5625V18.6875H14.75V20.5625H12.875ZM11 18.6875V13.9375H12.875V18.6875H11ZM18.625 15.8125V12.0625H20.5V15.8125H18.625ZM16.75 12.0625V10.1875H18.625V12.0625H16.75ZM5.375 13.9375V12.0625H7.25V13.9375H5.375ZM3.5 12.0625V10.1875H5.375V12.0625H3.5ZM12 5.4375V3.5625H13.875V5.4375H12ZM4.875 7.8125H7.75V4.9375H4.875V7.8125ZM4.425 9.1875C4.16292 9.1875 3.94322 9.09885 3.76592 8.92155C3.58864 8.74427 3.5 8.52458 3.5 8.2625V4.4875C3.5 4.22542 3.58864 4.00573 3.76592 3.82845C3.94322 3.65115 4.16292 3.5625 4.425 3.5625H8.2C8.46208 3.5625 8.68177 3.65115 8.85905 3.82845C9.03635 4.00573 9.125 4.22542 9.125 4.4875V8.2625C9.125 8.52458 9.03635 8.74427 8.85905 8.92155C8.68177 9.09885 8.46208 9.1875 8.2 9.1875H4.425ZM4.875 19.1875H7.75V16.3125H4.875V19.1875ZM4.425 20.5625C4.16292 20.5625 3.94322 20.4739 3.76592 20.2966C3.58864 20.1193 3.5 19.8996 3.5 19.6375V15.8625C3.5 15.6004 3.58864 15.3807 3.76592 15.2035C3.94322 15.0261 4.16292 14.9375 4.425 14.9375H8.2C8.46208 14.9375 8.68177 15.0261 8.85905 15.2035C9.03635 15.3807 9.125 15.6004 9.125 15.8625V19.6375C9.125 19.8996 9.03635 20.1193 8.85905 20.2966C8.68177 20.4739 8.46208 20.5625 8.2 20.5625H4.425ZM16.25 7.8125H19.125V4.9375H16.25V7.8125ZM15.8 9.1875C15.5379 9.1875 15.3182 9.09885 15.141 8.92155C14.9636 8.74427 14.875 8.52458 14.875 8.2625V4.4875C14.875 4.22542 14.9636 4.00573 15.141 3.82845C15.3182 3.65115 15.5379 3.5625 15.8 3.5625H19.575C19.8371 3.5625 20.0568 3.65115 20.2341 3.82845C20.4114 4.00573 20.5 4.22542 20.5 4.4875V8.2625C20.5 8.52458 20.4114 8.74427 20.2341 8.92155C20.0568 9.09885 19.8371 9.1875 19.575 9.1875H15.8ZM16.75 20.5625V17.6875H14.875V15.8125H18.625V18.6875H20.5V20.5625H16.75ZM12.875 13.9375V12.0625H16.75V13.9375H12.875ZM9.125 13.9375V12.0625H7.25V10.1875H12.875V12.0625H11V13.9375H9.125ZM10.125 9.1875V5.4375H12V7.3125H13.875V9.1875H10.125ZM5.625 7.0625V5.6875H7V7.0625H5.625ZM5.625 18.4375V17.0625H7V18.4375H5.625ZM17 7.0625V5.6875H18.375V7.0625H17Z" fill="#1C1B1F"/>
</g>
</svg>
