<svg width="26" height="40" viewBox="0 0 26 40" fill="none" xmlns="http://www.w3.org/2000/svg">
<g id="Logo_Krungsri_Verticle_THA">
<path id="Fill 1" fill-rule="evenodd" clip-rule="evenodd" d="M15.7931 36.2359H15.6062V35.8534C15.6062 35.6943 15.5325 35.5957 15.3864 35.5575C15.2947 35.6237 15.2232 35.7056 15.1705 35.803C15.1182 35.9005 15.0917 36.0014 15.0917 36.1059V36.2359H14.9048V35.2493H15.0917V35.6706C15.1147 35.5911 15.1838 35.509 15.2992 35.4232C15.4143 35.3383 15.5506 35.2703 15.7074 35.2183L15.7931 35.3623C15.6975 35.3912 15.617 35.424 15.5514 35.4614C15.6211 35.4905 15.678 35.5344 15.7216 35.5931C15.7693 35.6571 15.7931 35.7295 15.7931 35.81V36.2359Z" fill="#6E5E5E"/>
<path id="Fill 3" fill-rule="evenodd" clip-rule="evenodd" d="M16.9356 36.2357H16.7528V36.0966L16.75 36.0949C16.6833 36.201 16.5748 36.2542 16.4241 36.2542C16.312 36.2542 16.2231 36.2233 16.1575 36.1613C16.0881 36.0954 16.0532 35.9991 16.0532 35.8731V35.249H16.2402V35.8426C16.2402 36.0045 16.326 36.0853 16.4975 36.0853C16.5733 36.0853 16.634 36.0596 16.6796 36.0085C16.7254 35.9576 16.7484 35.8875 16.7484 35.7979V35.249H16.9356V36.2357Z" fill="#6E5E5E"/>
<path id="Fill 5" fill-rule="evenodd" clip-rule="evenodd" d="M16.8174 35.0014C16.8494 35.0014 16.8656 34.9829 16.8656 34.9457C16.8656 34.9085 16.8494 34.89 16.8174 34.89C16.7833 34.89 16.7657 34.9085 16.7657 34.9457C16.7657 34.9829 16.7833 35.0014 16.8174 35.0014ZM16.6627 34.944C16.664 34.905 16.6797 34.8703 16.71 34.8402C16.7399 34.8105 16.7756 34.7954 16.8174 34.7954C16.8599 34.7954 16.8962 34.8105 16.9255 34.8402C16.9553 34.8703 16.9699 34.9055 16.9699 34.9457C16.9699 34.9871 16.9553 35.0219 16.9255 35.0502C16.8962 35.0787 16.8599 35.0927 16.8174 35.0927H16.1333V35.0774L16.2422 34.944H16.6627Z" fill="#6E5E5E"/>
<path id="Fill 7" fill-rule="evenodd" clip-rule="evenodd" d="M16.9264 34.721L16.7844 34.7816H16.7749V34.5181H16.9264V34.721Z" fill="#6E5E5E"/>
<path id="Fill 9" fill-rule="evenodd" clip-rule="evenodd" d="M17.4249 36.2435L17.0684 35.601H17.268L17.5404 36.0809C17.608 36.0634 17.6636 36.018 17.7072 35.9447C17.7508 35.8715 17.7728 35.7878 17.7728 35.6939C17.7728 35.6061 17.7528 35.5347 17.7132 35.48C17.671 35.4211 17.6108 35.3919 17.5341 35.3919H17.4063V35.3855L17.4534 35.2305H17.5607C17.6866 35.2305 17.7867 35.2787 17.8614 35.3747C17.9291 35.4614 17.9628 35.5672 17.9628 35.6921C17.9628 35.8286 17.9259 35.949 17.852 36.0529C17.7723 36.1689 17.6661 36.2323 17.5341 36.2435H17.4249Z" fill="#6E5E5E"/>
<path id="Fill 11" fill-rule="evenodd" clip-rule="evenodd" d="M18.4609 36.2365H18.2133V35.245C18.2133 35.1957 18.2428 35.1316 18.3027 35.0541C18.3623 34.9763 18.3925 34.9176 18.3925 34.8785C18.3925 34.8486 18.3809 34.8247 18.3582 34.8067C18.3355 34.7885 18.3078 34.7795 18.2756 34.7795C18.1944 34.7795 18.1268 34.8298 18.073 34.9311L17.9453 34.8152C18.0242 34.685 18.1323 34.6201 18.2691 34.6201C18.3634 34.6201 18.4385 34.6438 18.4937 34.6912C18.5485 34.7388 18.5761 34.7988 18.5761 34.8721C18.5761 34.9289 18.5466 34.9932 18.488 35.0656C18.4292 35.1378 18.4 35.1975 18.4 35.245V36.0806H18.5198V36.0869L18.4609 36.2365Z" fill="#6E5E5E"/>
<path id="Fill 13" fill-rule="evenodd" clip-rule="evenodd" d="M19.5844 36.2363H19.4024V36.0972L19.3994 36.0958C19.3327 36.2019 19.2242 36.2551 19.074 36.2551C18.9616 36.2551 18.873 36.2242 18.8077 36.1625C18.7383 36.0965 18.7031 36.0005 18.7031 35.8745V35.251H18.8901V35.844C18.8901 36.0056 18.9757 36.0867 19.1467 36.0867C19.223 36.0867 19.2837 36.0611 19.329 36.01C19.375 35.959 19.3978 35.8888 19.3978 35.7994V35.251H19.5844V36.2363Z" fill="#6E5E5E"/>
<path id="Fill 15" fill-rule="evenodd" clip-rule="evenodd" d="M0.513217 36.2336H0.266113V35.2485H0.452796V36.0777H0.57258V36.0837L0.513217 36.2336Z" fill="#6E5E5E"/>
<path id="Fill 17" fill-rule="evenodd" clip-rule="evenodd" d="M1.62361 36.2339H1.43666V35.6709C1.43666 35.5834 1.41419 35.5161 1.37003 35.4692C1.32481 35.4222 1.26082 35.3989 1.17634 35.3989C1.09344 35.3989 1.02971 35.4222 0.985027 35.4692C0.940604 35.5161 0.918128 35.5834 0.918128 35.6709V35.8144H0.922755C0.938489 35.7835 0.963609 35.7563 0.997719 35.7337C1.03593 35.7076 1.07771 35.6943 1.12372 35.6943H1.23107V35.8628H1.12517C1.00975 35.8628 0.944438 35.9159 0.928969 36.0222L0.898032 36.2339H0.731445V35.6432C0.731445 35.5143 0.773753 35.4125 0.859029 35.3368C0.940075 35.2657 1.04571 35.23 1.17634 35.23C1.30749 35.23 1.41366 35.2657 1.49576 35.3368C1.58077 35.4125 1.62361 35.5143 1.62361 35.6432V36.2339Z" fill="#6E5E5E"/>
<path id="Fill 19" fill-rule="evenodd" clip-rule="evenodd" d="M2.53096 35.5068C2.44265 35.4306 2.34653 35.3926 2.24274 35.3926C2.10048 35.3926 2.02975 35.4331 2.02975 35.5148C2.02975 35.553 2.0558 35.5838 2.10749 35.6077C2.14054 35.6231 2.19911 35.6395 2.28201 35.6572C2.39413 35.6818 2.47927 35.7125 2.53744 35.7499C2.61717 35.8035 2.65696 35.8759 2.65696 35.9666C2.65696 36.0562 2.61386 36.1281 2.52607 36.1817C2.44939 36.2289 2.36107 36.2528 2.26165 36.2528C2.06849 36.2528 1.9138 36.192 1.79785 36.0698L1.91142 35.9373C1.95386 35.9846 2.00701 36.0223 2.07087 36.0506C2.13486 36.079 2.19607 36.0934 2.25517 36.0934C2.31334 36.0934 2.36332 36.0824 2.40497 36.0611C2.45045 36.0372 2.47332 36.0059 2.47332 35.9666C2.47332 35.9002 2.3895 35.8509 2.22106 35.818C2.11106 35.7962 2.02764 35.768 1.97065 35.7332C1.88538 35.6813 1.8428 35.6102 1.8428 35.5194C1.8428 35.4324 1.88101 35.3625 1.95637 35.3097C2.03239 35.2567 2.12653 35.23 2.2397 35.23C2.39056 35.23 2.52197 35.2779 2.63528 35.3738L2.53096 35.5068Z" fill="#6E5E5E"/>
<path id="Fill 21" fill-rule="evenodd" clip-rule="evenodd" d="M2.5903 35.0922H1.78857V35.0766L1.89593 34.9436H2.22434V34.8618L2.35537 34.7969H2.36898V34.9501H2.44567V34.8618L2.57642 34.7969H2.5903V35.0922Z" fill="#6E5E5E"/>
<path id="Fill 23" fill-rule="evenodd" clip-rule="evenodd" d="M3.16489 35.8335H2.99526V35.8739C2.99526 35.9396 3.02236 35.9916 3.07604 36.0301C3.12589 36.0661 3.18816 36.084 3.26299 36.084C3.36056 36.084 3.43526 36.0494 3.48696 35.9803C3.53363 35.9184 3.55743 35.8366 3.55743 35.7345C3.55743 35.6303 3.52874 35.5484 3.47162 35.4884C3.41437 35.4286 3.33994 35.3988 3.24726 35.3988C3.11253 35.3988 2.99632 35.4499 2.89835 35.5517L2.78809 35.4158C2.91342 35.2924 3.07036 35.23 3.2581 35.23C3.40036 35.23 3.51684 35.277 3.6078 35.371C3.69836 35.4648 3.74411 35.5829 3.74411 35.725C3.74411 35.8893 3.7022 36.018 3.61943 36.1117C3.53654 36.2059 3.41768 36.2528 3.26299 36.2528C3.12919 36.2528 3.02104 36.2182 2.9392 36.1489C2.85168 36.0769 2.80858 35.9781 2.80858 35.8521V35.6696H3.16489V35.8335Z" fill="#6E5E5E"/>
<path id="Fill 25" fill-rule="evenodd" clip-rule="evenodd" d="M1.18313 38.7399H0.996185V38.367C0.963397 38.3258 0.920031 38.2921 0.86675 38.2657C0.812808 38.2394 0.758072 38.2262 0.702015 38.2262C0.631546 38.2262 0.574431 38.2408 0.530801 38.2693C0.478974 38.3042 0.452928 38.3573 0.452928 38.4276C0.452928 38.4761 0.471438 38.5159 0.507399 38.5482C0.544022 38.58 0.584875 38.5959 0.630753 38.5959C0.697123 38.5959 0.749346 38.5784 0.788084 38.5433L0.878385 38.6777C0.813866 38.7317 0.731498 38.7584 0.630753 38.7584C0.525645 38.7584 0.438914 38.7262 0.369767 38.6624C0.300753 38.5985 0.266113 38.5148 0.266113 38.412C0.266113 38.2995 0.311858 38.2111 0.403613 38.1459C0.482279 38.0894 0.573505 38.0609 0.677291 38.0609C0.801702 38.0609 0.908397 38.0983 0.996185 38.1738V38.1083C0.996185 38.0417 0.969875 37.9893 0.917123 37.9524C0.868337 37.9185 0.806594 37.9015 0.731762 37.9015C0.594923 37.9015 0.487964 37.9498 0.410753 38.0466L0.274178 37.9308C0.382063 37.8008 0.539394 37.736 0.745909 37.736C0.788613 37.736 0.830392 37.743 0.87151 37.7575C0.939334 37.7575 0.997508 37.7489 1.04629 37.7311C1.09204 37.7144 1.14056 37.6862 1.19239 37.646L1.30159 37.7841C1.27766 37.8035 1.24276 37.8213 1.19728 37.8372C1.15167 37.8528 1.10976 37.863 1.07287 37.8671C1.14651 37.9241 1.18313 38.0068 1.18313 38.1163V38.7399Z" fill="#6E5E5E"/>
<path id="Fill 27" fill-rule="evenodd" clip-rule="evenodd" d="M2.31979 38.7402H2.13311V38.157C2.13311 38.0807 2.10759 38.0197 2.05616 37.9737C2.00473 37.9278 1.93916 37.9048 1.85917 37.9048C1.79822 37.9048 1.73978 37.9193 1.68505 37.9484C1.63401 37.974 1.59699 38.005 1.57399 38.0423C1.61048 38.0746 1.63811 38.1123 1.65689 38.1552V38.584H1.82189V38.5883L1.77178 38.7402H1.46994V38.1772C1.44826 38.1253 1.41679 38.0861 1.37646 38.0594V38.0456C1.40238 37.964 1.4591 37.8935 1.54768 37.8337C1.64327 37.7685 1.74811 37.7363 1.86221 37.7363C2.00037 37.7363 2.11116 37.7734 2.19459 37.8475C2.27828 37.9217 2.31979 38.0251 2.31979 38.157V38.7402Z" fill="#6E5E5E"/>
<path id="Fill 29" fill-rule="evenodd" clip-rule="evenodd" d="M3.24294 38.7402H3.05626V38.1213C3.05626 38.0502 3.03761 37.9958 3.00073 37.9584C2.9641 37.9201 2.91347 37.9019 2.84934 37.9019C2.73882 37.9019 2.64693 37.9557 2.57368 38.0641L2.46289 37.9296C2.50335 37.8695 2.55861 37.8226 2.62789 37.788C2.6973 37.7538 2.76962 37.7363 2.84419 37.7363C2.97098 37.7363 3.06895 37.7705 3.13862 37.8391C3.2083 37.9075 3.24294 38.0017 3.24294 38.1213V38.7402Z" fill="#6E5E5E"/>
<path id="Fill 31" fill-rule="evenodd" clip-rule="evenodd" d="M4.39376 38.3653C4.39376 38.4985 4.35264 38.5983 4.27054 38.6658C4.19465 38.7274 4.08782 38.7584 3.94993 38.7584C3.81296 38.7584 3.70639 38.7274 3.6305 38.6658C3.54853 38.5983 3.50781 38.4985 3.50781 38.3653V37.7544H3.6945V38.3379C3.6945 38.4275 3.71512 38.4918 3.75624 38.5311C3.79722 38.5704 3.86188 38.5901 3.94993 38.5901C4.03891 38.5901 4.10435 38.5704 4.14534 38.5311C4.18645 38.4918 4.20682 38.4275 4.20682 38.3379V37.7544H4.39376V38.3653Z" fill="#6E5E5E"/>
<path id="Fill 33" fill-rule="evenodd" clip-rule="evenodd" d="M4.59143 37.5982H4.17127C4.02874 37.5982 3.95801 37.5387 3.95801 37.4202V37.3564H4.12592V37.4032C4.12592 37.438 4.14495 37.456 4.18343 37.456H4.65371V37.4665L4.59143 37.5982Z" fill="#6E5E5E"/>
<path id="Fill 35" fill-rule="evenodd" clip-rule="evenodd" d="M5.53926 38.74H5.35721V38.6009L5.35443 38.5994C5.28753 38.7056 5.17925 38.7585 5.02879 38.7585C4.91668 38.7585 4.82783 38.7274 4.76252 38.6659C4.69311 38.5997 4.6582 38.5039 4.6582 38.3779V37.7544H4.84515V38.3475C4.84515 38.5091 4.93082 38.5896 5.10177 38.5896C5.17779 38.5896 5.23822 38.5642 5.28409 38.5134C5.32984 38.4627 5.35231 38.3925 5.35231 38.3023V37.7544H5.53926V38.74Z" fill="#6E5E5E"/>
<path id="Fill 37" fill-rule="evenodd" clip-rule="evenodd" d="M6.67112 38.7402H6.48444V38.157C6.48444 38.0795 6.45932 38.0181 6.40934 37.9727C6.35844 37.9278 6.29366 37.9048 6.21354 37.9048C6.15233 37.9048 6.09402 37.9193 6.03902 37.9484C5.98944 37.974 5.95322 38.005 5.93021 38.0423C5.96644 38.0746 5.99407 38.1123 6.01271 38.1552V38.7402H5.82563V38.1772C5.80395 38.1253 5.77301 38.0861 5.73242 38.0594V38.0456C5.75834 37.964 5.81558 37.8935 5.90364 37.8337C5.99817 37.7685 6.10248 37.7363 6.21658 37.7363C6.35474 37.7363 6.46501 37.7734 6.54764 37.8475C6.63001 37.9217 6.67112 38.0251 6.67112 38.157V38.7402Z" fill="#6E5E5E"/>
<path id="Fill 39" fill-rule="evenodd" clip-rule="evenodd" d="M7.5945 38.7402H7.40755V38.1213C7.40755 38.0502 7.38891 37.9958 7.35255 37.9584C7.3154 37.9201 7.26477 37.9019 7.20051 37.9019C7.09038 37.9019 6.99849 37.9557 6.92498 38.0641L6.81445 37.9296C6.85491 37.8695 6.90991 37.8226 6.97919 37.788C7.04886 37.7538 7.12118 37.7363 7.19575 37.7363C7.32254 37.7363 7.42051 37.7705 7.48992 37.8391C7.5596 37.9075 7.5945 38.0017 7.5945 38.1213V38.7402Z" fill="#6E5E5E"/>
<path id="Fill 41" fill-rule="evenodd" clip-rule="evenodd" d="M8.50193 38.0127C8.41361 37.9362 8.3175 37.8982 8.21371 37.8982C8.07145 37.8982 8.00045 37.9388 8.00045 38.0204C8.00045 38.0589 8.0265 38.0896 8.07846 38.113C8.11151 38.1287 8.16955 38.1456 8.25271 38.1628C8.36483 38.1877 8.44997 38.2184 8.50788 38.2557C8.58787 38.3093 8.62767 38.3814 8.62767 38.4725C8.62767 38.5621 8.5843 38.6334 8.49704 38.6876C8.42009 38.7347 8.33204 38.7584 8.23235 38.7584C8.03919 38.7584 7.8845 38.6976 7.76855 38.5756L7.88226 38.4427C7.92483 38.49 7.97798 38.5279 8.04184 38.5564C8.10583 38.5848 8.16704 38.5993 8.22614 38.5993C8.28444 38.5993 8.33429 38.588 8.37567 38.5664C8.42115 38.5428 8.44416 38.5113 8.44416 38.4725C8.44416 38.4063 8.3602 38.3565 8.19203 38.3234C8.08176 38.3018 7.99807 38.2736 7.94136 38.2385C7.85608 38.1869 7.81377 38.1161 7.81377 38.025C7.81377 37.9386 7.85172 37.8684 7.92708 37.8153C8.0031 37.7622 8.09776 37.7358 8.21067 37.7358C8.36126 37.7358 8.49294 37.7841 8.60572 37.8797L8.50193 38.0127Z" fill="#6E5E5E"/>
<path id="Fill 43" fill-rule="evenodd" clip-rule="evenodd" d="M9.08406 38.74H8.83643V37.7544H9.02337V38.5838H9.14316V38.5896L9.08406 38.74Z" fill="#6E5E5E"/>
<path id="Fill 45" fill-rule="evenodd" clip-rule="evenodd" d="M9.52646 38.7478L9.17041 38.1058H9.36952L9.64161 38.5852C9.70957 38.568 9.76457 38.5225 9.80846 38.4492C9.85183 38.376 9.87378 38.2923 9.87378 38.1987C9.87378 38.1109 9.85421 38.0398 9.81441 37.9849C9.77171 37.9264 9.71208 37.8971 9.63566 37.8971H9.50781V37.8908L9.55488 37.7363H9.66171C9.78757 37.7363 9.88792 37.7843 9.96236 37.8802C10.03 37.967 10.0635 38.0724 10.0635 38.1972C10.0635 38.3329 10.0271 38.4533 9.9531 38.5575C9.87325 38.6732 9.76761 38.7365 9.63566 38.7478H9.52646Z" fill="#6E5E5E"/>
<path id="Fill 47" fill-rule="evenodd" clip-rule="evenodd" d="M10.0185 37.5983H9.2168V37.5827L9.32547 37.4497H10.0185V37.5983Z" fill="#6E5E5E"/>
<path id="Fill 49" fill-rule="evenodd" clip-rule="evenodd" d="M11.164 38.74H10.9819V38.6009L10.9786 38.5994C10.9125 38.7056 10.804 38.7585 10.6533 38.7585C10.5414 38.7585 10.4526 38.7274 10.3875 38.6659C10.3178 38.5997 10.2832 38.5039 10.2832 38.3779V37.7544H10.4699V38.3475C10.4699 38.5091 10.5553 38.5896 10.7268 38.5896C10.8025 38.5896 10.8635 38.5642 10.9088 38.5134C10.9546 38.4627 10.9773 38.3925 10.9773 38.3023V37.7544H11.164V38.74Z" fill="#6E5E5E"/>
<path id="Fill 51" fill-rule="evenodd" clip-rule="evenodd" d="M12.3222 38.7402H12.1355V38.129C12.1355 38.062 12.1187 38.0084 12.0854 37.9683C12.0493 37.926 11.999 37.9048 11.9364 37.9048C11.8375 37.9048 11.759 37.9373 11.6996 38.0022C11.6457 38.062 11.6183 38.1349 11.6183 38.2206V38.7402H11.4316V37.7546H11.614V37.9296C11.698 37.8006 11.8181 37.7363 11.9752 37.7363C12.0735 37.7363 12.1548 37.7685 12.2195 37.8337C12.2878 37.9027 12.3222 37.9945 12.3222 38.1087V38.7402Z" fill="#6E5E5E"/>
<path id="Fill 53" fill-rule="evenodd" clip-rule="evenodd" d="M12.3225 37.5983H11.521V37.5827L11.6294 37.4498H12.1528V37.3708L12.3083 37.3027H12.3225V37.5983Z" fill="#6E5E5E"/>
<path id="Fill 55" fill-rule="evenodd" clip-rule="evenodd" d="M12.3127 37.2266L12.1713 37.2875H12.1616V37.0239H12.3127V37.2266Z" fill="#6E5E5E"/>
<path id="Fill 57" fill-rule="evenodd" clip-rule="evenodd" d="M12.8686 38.7402H12.6212V37.7484C12.6212 37.6989 12.651 37.6353 12.7106 37.5575C12.7705 37.4794 12.8001 37.4212 12.8001 37.3817C12.8001 37.3523 12.7888 37.3281 12.7659 37.3098C12.7431 37.292 12.7158 37.2826 12.6833 37.2826C12.6021 37.2826 12.535 37.3332 12.4812 37.4345L12.3535 37.3186C12.4322 37.1882 12.5402 37.1235 12.6773 37.1235C12.7718 37.1235 12.8461 37.1472 12.9014 37.1946C12.9564 37.2422 12.9835 37.3025 12.9835 37.3758C12.9835 37.4325 12.9545 37.4969 12.8957 37.5688C12.8371 37.6414 12.8079 37.7015 12.8079 37.7484V38.584H12.9277V38.5898L12.8686 38.7402Z" fill="#6E5E5E"/>
<path id="Fill 59" fill-rule="evenodd" clip-rule="evenodd" d="M13.9991 38.7398H13.8121V38.3577C13.8121 38.1989 13.7393 38.1001 13.5929 38.0621C13.5014 38.1281 13.4297 38.2096 13.3773 38.3074C13.3248 38.4046 13.2988 38.5058 13.2988 38.6094V38.7398H13.1118V37.7542H13.2988V38.175C13.3212 38.096 13.3907 38.0134 13.5057 37.9284C13.6208 37.8432 13.7566 37.7746 13.9134 37.7231L13.9991 37.867C13.9038 37.8963 13.8232 37.9292 13.7577 37.9666C13.8273 37.9951 13.8839 38.0395 13.9273 38.098C13.975 38.1617 13.9991 38.234 13.9991 38.3144V38.7398Z" fill="#6E5E5E"/>
<path id="Fill 61" fill-rule="evenodd" clip-rule="evenodd" d="M15.7113 38.8664C15.6542 38.9698 15.5685 39.0211 15.4544 39.0211C15.4089 39.0211 15.3552 39.0109 15.2945 38.9891C15.2331 38.9673 15.1906 38.9565 15.168 38.9565C15.1244 38.9565 15.0768 38.9841 15.025 39.0401L14.9172 38.9223C14.9952 38.8379 15.0757 38.7953 15.1589 38.7953C15.1906 38.7953 15.2398 38.8071 15.3059 38.8302C15.3718 38.8538 15.4187 38.8651 15.4466 38.8651C15.5005 38.8651 15.5436 38.8371 15.5758 38.7816L15.7113 38.8664ZM15.7129 38.339C15.7129 38.4668 15.6761 38.5641 15.6031 38.6308C15.53 38.6973 15.4301 38.7307 15.3035 38.7307C15.1767 38.7307 15.0773 38.6981 15.0061 38.6332C14.9315 38.5654 14.8939 38.4668 14.8939 38.339V38.1505C14.8939 38.0722 14.872 38.0113 14.8276 37.9688C14.7837 37.9262 14.7221 37.9044 14.6435 37.9044C14.5893 37.9044 14.5374 37.9187 14.4875 37.948C14.442 37.9736 14.4078 38.0046 14.3848 38.042C14.4214 38.0743 14.4488 38.112 14.4674 38.1551V38.5836H14.6324V38.5869L14.5826 38.7399H14.2805V38.1766C14.2588 38.1253 14.2272 38.0858 14.187 38.059V38.0452C14.2131 37.9637 14.2673 37.8931 14.3491 37.8333C14.4385 37.7682 14.5355 37.7358 14.6417 37.7358C14.7757 37.7358 14.8823 37.7722 14.9616 37.8438C15.0412 37.9157 15.0809 38.018 15.0809 38.1494V38.3085C15.0809 38.4779 15.1545 38.5621 15.3035 38.5621C15.4517 38.5621 15.5259 38.4779 15.5259 38.3085V37.7542H15.7129V38.339Z" fill="#6E5E5E"/>
<path id="Fill 63" fill-rule="evenodd" clip-rule="evenodd" d="M15.559 37.6166H15.5479V37.2876H15.7103V37.5425L15.559 37.6166Z" fill="#6E5E5E"/>
<path id="Fill 65" fill-rule="evenodd" clip-rule="evenodd" d="M16.8715 38.7402H16.6843V38.129C16.6843 38.062 16.6681 38.0084 16.6347 37.9683C16.5984 37.926 16.5488 37.9048 16.4852 37.9048C16.3866 37.9048 16.3078 37.9373 16.2484 38.0022C16.195 38.062 16.1676 38.1349 16.1676 38.2206V38.7402H15.981V37.7546H16.163V37.9296C16.2474 37.8006 16.3674 37.7363 16.5245 37.7363C16.6228 37.7363 16.7044 37.7685 16.7685 37.8337C16.8369 37.9027 16.8715 37.9945 16.8715 38.1087V38.7402Z" fill="#6E5E5E"/>
<path id="Fill 67" fill-rule="evenodd" clip-rule="evenodd" d="M16.8716 37.5983H16.0698V37.5827L16.1788 37.4498H16.7017V37.3708L16.8574 37.3027H16.8716V37.5983Z" fill="#6E5E5E"/>
<path id="Fill 69" fill-rule="evenodd" clip-rule="evenodd" d="M16.8623 37.2266L16.7209 37.2875H16.7109V37.0239H16.8623V37.2266Z" fill="#6E5E5E"/>
<path id="Fill 71" fill-rule="evenodd" clip-rule="evenodd" d="M18.0015 38.7399H17.8148V38.367C17.7815 38.3258 17.7381 38.2921 17.6847 38.2657C17.6312 38.2394 17.5764 38.2262 17.5206 38.2262C17.4502 38.2262 17.3928 38.2408 17.3492 38.2693C17.2979 38.3042 17.2713 38.3573 17.2713 38.4276C17.2713 38.4761 17.2898 38.5159 17.326 38.5482C17.3621 38.58 17.4032 38.5959 17.4491 38.5959C17.5155 38.5959 17.5677 38.5784 17.6062 38.5433L17.6962 38.6777C17.632 38.7317 17.5493 38.7584 17.4491 38.7584C17.344 38.7584 17.2573 38.7262 17.1881 38.6624C17.1191 38.5985 17.0845 38.5148 17.0845 38.412C17.0845 38.2995 17.1305 38.2111 17.2217 38.1459C17.3004 38.0894 17.3921 38.0609 17.4957 38.0609C17.6201 38.0609 17.7268 38.0983 17.8148 38.1738V38.1083C17.8148 38.0417 17.7882 37.9893 17.7352 37.9524C17.6867 37.9185 17.625 37.9015 17.5504 37.9015C17.413 37.9015 17.3063 37.9498 17.2294 38.0466L17.0923 37.9308C17.2002 37.8008 17.3575 37.736 17.5643 37.736C17.607 37.736 17.649 37.743 17.6903 37.7575C17.7577 37.7575 17.8156 37.7489 17.8647 37.7311C17.9101 37.7144 17.9592 37.6862 18.011 37.646L18.1198 37.7841C18.096 37.8035 18.0614 37.8213 18.0156 37.8372C17.97 37.8528 17.9286 37.863 17.891 37.8671C17.9649 37.9241 18.0015 38.0068 18.0015 38.1163V38.7399Z" fill="#6E5E5E"/>
<g id="Group 75">
<mask id="mask0_1893_16522" style="mask-type:luminance" maskUnits="userSpaceOnUse" x="17" y="38" width="2" height="2">
<path id="Clip 74" fill-rule="evenodd" clip-rule="evenodd" d="M17.751 38.8882H18.0015V39.2302H17.751V38.8882Z" fill="white"/>
</mask>
<g mask="url(#mask0_1893_16522)">
<path id="Fill 73" fill-rule="evenodd" clip-rule="evenodd" d="M18.0015 39.1297L17.8587 39.2303H17.8446V39.0152H17.751V38.9875L17.7802 38.8882H18.0015V39.1297Z" fill="#6E5E5E"/>
</g>
</g>
<path id="Fill 76" fill-rule="evenodd" clip-rule="evenodd" d="M19.1628 38.7402H18.9761V38.1772C18.9761 38.0946 18.9521 38.0287 18.9043 37.9789C18.8566 37.9296 18.7922 37.9048 18.7114 37.9048C18.6096 37.9048 18.5312 37.9388 18.4762 38.0068C18.4284 38.0679 18.4047 38.1439 18.4047 38.2357C18.4047 38.3409 18.4305 38.4254 18.4819 38.4895C18.5329 38.5534 18.5991 38.5854 18.6802 38.5854H18.825V38.5932L18.7703 38.748H18.6585C18.5221 38.748 18.4134 38.6974 18.3313 38.5962C18.2536 38.5014 18.2148 38.384 18.2148 38.2452C18.2148 38.0997 18.2579 37.9794 18.344 37.8847C18.4343 37.7856 18.5546 37.7363 18.7052 37.7363C18.8407 37.7363 18.9513 37.7764 19.0357 37.8567C19.1205 37.9373 19.1628 38.0435 19.1628 38.1754V38.7402Z" fill="#6E5E5E"/>
<path id="Fill 78" fill-rule="evenodd" clip-rule="evenodd" d="M20.1995 38.3951C20.1995 38.5125 20.1613 38.6035 20.0844 38.6687C20.0151 38.7287 19.9251 38.7585 19.8151 38.7585C19.7011 38.7585 19.6087 38.7295 19.5379 38.672C19.4602 38.6081 19.4212 38.5168 19.4212 38.3982V38.2433C19.4212 38.1919 19.4445 38.1337 19.4905 38.0693C19.5366 38.0048 19.5596 37.9607 19.5596 37.9371C19.5596 37.9194 19.5504 37.9106 19.5317 37.9106H19.376V37.9063L19.4306 37.7544H19.5612C19.6121 37.7544 19.6544 37.769 19.6888 37.7988C19.723 37.8278 19.7404 37.867 19.7404 37.917C19.7404 37.9601 19.7184 38.0153 19.674 38.0834C19.6301 38.1514 19.6079 38.2048 19.6079 38.2443V38.38C19.6079 38.5198 19.6782 38.5896 19.8181 38.5896C19.9481 38.5896 20.0128 38.519 20.0128 38.3766V37.7544H20.1995V38.3951Z" fill="#6E5E5E"/>
<path id="Fill 80" fill-rule="evenodd" clip-rule="evenodd" d="M20.7743 38.3394H20.6046V38.3797C20.6046 38.4457 20.6312 38.4977 20.6854 38.5359C20.7353 38.5719 20.7975 38.5898 20.8724 38.5898C20.9699 38.5898 21.0446 38.5555 21.0966 38.4864C21.1433 38.4242 21.1668 38.3427 21.1668 38.2403C21.1668 38.1361 21.1378 38.0545 21.081 37.9945C21.024 37.9347 20.9493 37.9046 20.8569 37.9046C20.7219 37.9046 20.6057 37.9557 20.508 38.0578L20.3975 37.9216C20.5231 37.7979 20.6797 37.7363 20.8677 37.7363C21.01 37.7363 21.1259 37.7834 21.2174 37.8769C21.308 37.9706 21.3535 38.0892 21.3535 38.2308C21.3535 38.3948 21.3116 38.5238 21.2288 38.618C21.1459 38.7117 21.0271 38.7586 20.8724 38.7586C20.7384 38.7586 20.6307 38.7241 20.5483 38.6549C20.4613 38.5827 20.418 38.4839 20.418 38.3582V38.1754H20.7743V38.3394Z" fill="#6E5E5E"/>
<path id="Fill 82" fill-rule="evenodd" clip-rule="evenodd" d="M21.797 38.7478L21.4404 38.1058H21.6398L21.9122 38.5852C21.9799 38.568 22.0351 38.5225 22.0787 38.4492C22.1226 38.376 22.1443 38.2923 22.1443 38.1987C22.1443 38.1109 22.1248 38.0398 22.085 37.9849C22.0423 37.9264 21.9826 37.8971 21.9059 37.8971H21.7781V37.8908L21.8249 37.7363H21.9323C22.0579 37.7363 22.1582 37.7843 22.2329 37.8802C22.3006 37.967 22.334 38.0724 22.334 38.1972C22.334 38.3329 22.2974 38.4533 22.2237 38.5575C22.1435 38.6732 22.0379 38.7365 21.9059 38.7478H21.797Z" fill="#6E5E5E"/>
<path id="Fill 84" fill-rule="evenodd" clip-rule="evenodd" d="M22.8274 38.7402H22.5801V37.6321C22.5801 37.5634 22.553 37.499 22.4974 37.4392C22.445 37.3822 22.3799 37.3429 22.3032 37.3217C22.333 37.2681 22.3839 37.2226 22.4541 37.1852C22.533 37.1442 22.6191 37.1235 22.7125 37.1235C22.8269 37.1235 22.9369 37.1518 23.0441 37.2085L22.9615 37.3445C22.9344 37.3284 22.899 37.3133 22.8543 37.2998C22.8025 37.2845 22.7559 37.2767 22.7156 37.2767C22.6589 37.2767 22.6093 37.2845 22.5679 37.2998C22.6224 37.3278 22.6684 37.3679 22.7045 37.4202C22.7461 37.4826 22.767 37.5508 22.767 37.6265V38.584H22.8871V38.5898L22.8274 38.7402Z" fill="#6E5E5E"/>
<path id="Fill 86" fill-rule="evenodd" clip-rule="evenodd" d="M23.9114 38.7402H23.7247V38.3674C23.6914 38.3261 23.648 38.2925 23.5946 38.2661C23.5411 38.2398 23.4866 38.2265 23.4305 38.2265C23.3598 38.2265 23.3027 38.2411 23.2593 38.2696C23.2072 38.3046 23.1814 38.3576 23.1814 38.4279C23.1814 38.4764 23.1994 38.5162 23.2359 38.5485C23.272 38.5803 23.3129 38.5962 23.359 38.5962C23.4272 38.5962 23.4806 38.5787 23.5191 38.5437L23.6061 38.6781C23.5419 38.7321 23.4597 38.7587 23.359 38.7587C23.2539 38.7587 23.1674 38.7266 23.098 38.6627C23.029 38.5988 22.9946 38.5152 22.9946 38.4123C22.9946 38.2998 23.0401 38.2114 23.1316 38.1462C23.2103 38.0897 23.302 38.0612 23.4053 38.0612C23.5297 38.0612 23.6366 38.0987 23.7247 38.1741V38.097C23.7247 38.0348 23.7004 37.9871 23.6524 37.9527C23.6041 37.9188 23.5426 37.9019 23.4675 37.9019C23.3381 37.9019 23.2284 37.9501 23.1393 38.0469L23.0024 37.9312C23.1205 37.8011 23.2795 37.7363 23.4787 37.7363C23.6002 37.7363 23.702 37.7683 23.7838 37.8318C23.8691 37.8994 23.9114 37.9871 23.9114 38.0951V38.7402Z" fill="#6E5E5E"/>
<path id="Fill 88" fill-rule="evenodd" clip-rule="evenodd" d="M25.0435 38.7402H24.8565V38.157C24.8565 38.0795 24.831 38.0181 24.7812 37.9727C24.7308 37.9278 24.6655 37.9048 24.5856 37.9048C24.5241 37.9048 24.4664 37.9193 24.4111 37.9484C24.3615 37.974 24.325 38.005 24.3024 38.0423C24.3385 38.0746 24.3661 38.1123 24.3848 38.1552V38.7402H24.1978V38.1772C24.176 38.1253 24.1451 38.0861 24.1045 38.0594V38.0456C24.1304 37.964 24.1874 37.8935 24.2757 37.8337C24.3702 37.7685 24.4746 37.7363 24.5885 37.7363C24.7267 37.7363 24.8369 37.7734 24.9193 37.8475C25.0022 37.9217 25.0435 38.0251 25.0435 38.157V38.7402Z" fill="#6E5E5E"/>
<path id="Fill 90" fill-rule="evenodd" clip-rule="evenodd" d="M6.61229 35.5041C6.61229 35.2502 6.40525 35.044 6.15035 35.044C5.89491 35.044 5.68761 35.2502 5.68761 35.5041C5.68761 35.7574 5.89491 35.9631 6.15035 35.9631C6.40525 35.9631 6.61229 35.7574 6.61229 35.5041ZM6.6033 34.3994C6.44161 34.3994 6.28877 34.4325 6.15035 34.4951C6.01166 34.4325 5.85829 34.3994 5.69686 34.3994C5.08261 34.3994 4.58496 34.8934 4.58496 35.5041C4.58496 36.1141 5.08261 36.6085 5.69686 36.6085C5.85829 36.6085 6.01166 36.5742 6.15035 36.5128C6.28877 36.5742 6.44161 36.6085 6.6033 36.6085C7.21756 36.6085 7.71467 36.1141 7.71467 35.5041C7.71467 34.8934 7.21756 34.3994 6.6033 34.3994ZM6.15035 36.5026C5.59466 36.5026 5.14554 36.0547 5.14554 35.5041C5.14554 34.9529 5.59466 34.5049 6.15035 34.5049C6.70497 34.5049 7.15489 34.9529 7.15489 35.5041C7.15489 36.0547 6.70497 36.5026 6.15035 36.5026Z" fill="#D92128"/>
<path id="Fill 92" fill-rule="evenodd" clip-rule="evenodd" d="M13.4371 36.2584C12.9797 36.2584 12.6652 35.9394 12.6652 35.5086V35.504C12.6652 35.09 12.9906 34.7485 13.435 34.7485C13.6996 34.7485 13.8595 34.8201 14.0122 34.9502L13.8087 35.1933C13.6958 35.1005 13.5943 35.0452 13.4244 35.0452C13.1892 35.0452 13.0025 35.2517 13.0025 35.5006V35.504C13.0025 35.7708 13.1868 35.9671 13.4479 35.9671C13.5649 35.9671 13.6698 35.9379 13.7521 35.8793V35.6785H13.4265V35.3944H14.0643V36.0274C13.9137 36.1552 13.7061 36.2584 13.4371 36.2584ZM11.7885 35.0652V35.3944H12.4305V35.6785H11.7885V36.2347H11.4653V34.7747H12.5983V35.0652H11.7885ZM10.5902 36.256C10.1952 36.256 9.95594 36.0382 9.95594 35.6087V34.7747H10.2784V35.6001C10.2784 35.8381 10.3981 35.9607 10.5945 35.9607C10.7915 35.9607 10.9106 35.8424 10.9106 35.6112V34.7747H11.2339V35.5987C11.2339 36.0395 10.9852 36.256 10.5902 36.256ZM9.40488 36.2347V35.2813L8.99145 35.904H8.9822L8.57499 35.2884V36.2347H8.25781V34.7747H8.60566L8.99145 35.3928L9.37725 34.7747H9.72589V36.2347H9.40488Z" fill="#58585B"/>
<mask id="mask1_1893_16522" style="mask-type:luminance" maskUnits="userSpaceOnUse" x="0" y="0" width="26" height="40">
<path id="Clip 95" fill-rule="evenodd" clip-rule="evenodd" d="M0 39.2793H25.3846V0H0V39.2793Z" fill="white"/>
</mask>
<g mask="url(#mask1_1893_16522)">
<path id="Fill 94" fill-rule="evenodd" clip-rule="evenodd" d="M0 33.1527H25.3846V-0.000488281H0V33.1527Z" fill="#6E5E5E"/>
<path id="Fill 96" fill-rule="evenodd" clip-rule="evenodd" d="M6.46631 22.6439H6.9859C6.9859 22.6439 7.07237 22.6653 7.07237 22.7349V22.9873H7.084C7.22679 22.7016 7.50509 22.584 7.85638 22.584V23.0434V23.1931C7.81368 23.1931 7.77494 23.1967 7.73633 23.2006C7.37315 23.2363 7.07237 23.4391 7.07237 23.9279V24.9473C7.07237 24.9473 7.08453 25.1338 6.90922 25.1338H6.46631V22.6439Z" fill="#FEFEFE"/>
<path id="Fill 97" fill-rule="evenodd" clip-rule="evenodd" d="M19.1357 22.6439H19.6535C19.6535 22.6439 19.7413 22.6653 19.7413 22.7349V22.9873H19.75C19.8938 22.7016 20.1745 22.584 20.5224 22.584V23.0434V23.1931C20.4822 23.1931 20.4427 23.1967 20.4039 23.2006C20.0423 23.2363 19.7413 23.4391 19.7413 23.9279V24.9473C19.7413 24.9473 19.7545 25.1338 19.5757 25.1338H19.1357V22.6439Z" fill="#FEFEFE"/>
<path id="Fill 98" fill-rule="evenodd" clip-rule="evenodd" d="M10.4636 22.7615V25.0337C10.4636 25.0337 10.4624 25.1341 10.3728 25.1341H9.85809V24.8876H9.84804C9.71319 25.0621 9.47203 25.194 9.1296 25.194C8.70402 25.194 8.21338 25.0185 8.21338 24.2942V22.644H8.72914C8.72914 22.644 8.81745 22.658 8.81745 22.7615V24.121C8.81745 24.4642 8.95548 24.6145 9.2642 24.6145C9.72112 24.6145 9.85809 24.283 9.85809 23.9832V22.644H10.3642C10.3642 22.644 10.4636 22.658 10.4636 22.7615Z" fill="#FEFEFE"/>
<path id="Fill 99" fill-rule="evenodd" clip-rule="evenodd" d="M11.0581 22.6439H11.5576C11.5576 22.6439 11.6628 22.6577 11.6628 22.754V22.8893H11.6737C11.8499 22.6727 12.1149 22.584 12.357 22.584C12.9507 22.584 13.2187 22.883 13.2187 23.4305V25.0396C13.2187 25.0396 13.2243 25.1338 13.1312 25.1338H12.6152V23.6132C12.6152 23.3851 12.5111 23.1639 12.198 23.1639C11.9056 23.1639 11.6628 23.3606 11.6628 23.8199V25.0335C11.6628 25.0335 11.6636 25.1338 11.572 25.1338H11.0581V22.6439Z" fill="#FEFEFE"/>
<path id="Fill 100" fill-rule="evenodd" clip-rule="evenodd" d="M14.8834 23.1366C14.4284 23.1366 14.2941 23.5302 14.2891 23.7951C14.2941 24.061 14.4284 24.4538 14.8834 24.4538C15.3404 24.4538 15.4738 24.061 15.4781 23.7951C15.4738 23.5302 15.3404 23.1366 14.8834 23.1366ZM16.0644 22.7557V25.0829C16.0644 25.729 15.5284 26.05 14.856 26.05C14.0625 26.05 13.7392 25.4997 13.7392 25.1878H14.3746C14.4188 25.361 14.587 25.4997 14.8885 25.4997C15.28 25.4997 15.4597 25.3021 15.4597 24.996V24.7292C15.2651 24.9376 14.9622 25.0071 14.7444 25.0071C14.1196 25.0071 13.6553 24.546 13.6553 23.7951C13.6553 23.0468 14.1196 22.584 14.7444 22.584C15.1066 22.584 15.3012 22.7066 15.4489 22.883H15.4597V22.6439H15.9606C15.9606 22.6439 16.0644 22.6439 16.0644 22.7557Z" fill="#FEFEFE"/>
<path id="Fill 101" fill-rule="evenodd" clip-rule="evenodd" d="M18.6201 23.1081L18.335 23.3754L18.2758 23.4305C18.2619 23.4064 18.2497 23.382 18.2327 23.3581C18.138 23.2137 17.9484 23.0771 17.6437 23.0771C17.3619 23.0708 17.1848 23.169 17.1848 23.3159C17.1848 23.7517 18.7647 23.382 18.7647 24.3227C18.7647 24.9227 18.2242 25.1937 17.65 25.1937C17.1044 25.1937 16.7154 25.0254 16.4876 24.7967C16.4388 24.7457 16.4977 24.6934 16.4977 24.6934L16.8919 24.3913C17.0295 24.5939 17.2909 24.7021 17.6137 24.7021C17.9021 24.7021 18.1018 24.5459 18.1018 24.4112C18.1018 23.9865 16.5487 24.3375 16.5487 23.3909C16.5487 22.8294 17.0397 22.584 17.6599 22.584C18.1651 22.584 18.4687 22.8004 18.6228 22.9547C18.7065 23.0346 18.6201 23.1081 18.6201 23.1081Z" fill="#FEFEFE"/>
<path id="Fill 102" fill-rule="evenodd" clip-rule="evenodd" d="M20.8808 22.6439H21.3942C21.3942 22.6439 21.4853 22.6515 21.4853 22.7436V25.0334C21.4853 25.0334 21.5003 25.1338 21.3915 25.1338H20.8808V22.6439ZM21.4876 21.7118C21.4876 21.6356 21.3861 21.6284 21.3861 21.6284H20.8808V22.1512C20.8808 22.1512 20.8691 22.237 20.9696 22.237H21.4876V21.7118Z" fill="#FEFEFE"/>
<path id="Fill 103" fill-rule="evenodd" clip-rule="evenodd" d="M6.14679 22.6439H5.49763C5.37282 22.6439 5.27366 22.7322 5.27366 22.7322L4.41177 23.5782V22.2308C4.41177 22.1214 4.31936 22.0477 4.31936 22.0477L3.80664 21.6284V25.1338H4.30772C4.42182 25.1338 4.41177 25.0033 4.41177 25.0033V24.3403C4.41177 24.314 4.43412 24.2863 4.46624 24.2863C4.50829 24.2863 4.56157 24.3447 4.56157 24.3447L5.2611 25.0334C5.2611 25.0334 5.38287 25.1338 5.52724 25.1338H6.14679L4.88245 23.8867L6.14679 22.6439Z" fill="#FEFEFE"/>
<path id="Fill 104" fill-rule="evenodd" clip-rule="evenodd" d="M6.17855 27.2998C6.09685 27.3186 6.02162 27.35 5.95485 27.3881C5.88901 27.4285 5.83533 27.4764 5.79157 27.5386C5.74754 27.6045 5.72705 27.6805 5.72705 27.7717C5.72705 27.7717 5.72705 27.915 5.77901 28.0065C5.8159 28.074 5.88121 28.1401 5.94242 28.1861C6.00443 28.2335 6.07173 28.2729 6.1459 28.3076C6.21756 28.3412 6.28485 28.3749 6.34752 28.4107C6.40741 28.4499 6.46016 28.4869 6.50075 28.5306C6.54266 28.5756 6.56289 28.6324 6.56289 28.7023C6.56289 28.7508 6.53579 28.7958 6.48423 28.8355C6.43227 28.8754 6.23263 28.9216 6.01501 28.8469C5.96437 28.8295 5.74966 28.723 5.74966 28.723V29.0472C5.81497 29.0793 5.86733 29.1063 5.92722 29.1226C5.98275 29.1418 6.11311 29.1818 6.27004 29.1818C6.48793 29.1818 6.64169 29.127 6.74323 29.0257C6.84358 28.9229 6.89607 28.7958 6.89607 28.6376C6.89607 28.5676 6.88139 28.5047 6.85204 28.4513C6.82427 28.3973 6.78765 28.3506 6.74323 28.3055C6.69933 28.2615 6.64896 28.2208 6.5929 28.1882C6.53685 28.1577 6.48423 28.1251 6.43042 28.0963C6.38242 28.0715 6.33774 28.0489 6.29358 28.0279C6.2514 28.0095 6.21227 27.9853 6.17855 27.9606C6.14206 27.9369 6.11522 27.9056 6.09526 27.8723C6.07358 27.8412 6.0634 27.8001 6.0634 27.7515C6.0634 27.7059 6.07358 27.6678 6.09526 27.6369C6.11522 27.6072 6.14206 27.5847 6.17459 27.5685C6.20962 27.5526 6.27229 27.5386 6.31195 27.5348C6.58537 27.5068 6.80973 27.6349 6.80973 27.6349V27.3646C6.58894 27.286 6.36484 27.2642 6.17855 27.2998Z" fill="#FEFEFE"/>
<path id="Fill 105" fill-rule="evenodd" clip-rule="evenodd" d="M5.07864 27.4675C4.95675 27.3397 4.77469 27.2764 4.53169 27.2764C4.28432 27.2764 4.09975 27.3397 3.97838 27.4675C3.85437 27.5921 3.79395 27.775 3.79395 28.0114V29.1328H4.01606V29.137H4.04502C4.09737 29.137 4.12117 29.103 4.12117 29.0593V29.0578H4.12223V28.0913C4.12223 28.0114 4.12434 27.9366 4.13069 27.8722C4.1377 27.8023 4.15594 27.7466 4.18212 27.6952C4.20843 27.6467 4.24955 27.6071 4.30243 27.581C4.35611 27.5524 4.43107 27.5385 4.53169 27.5385C4.62225 27.5385 4.6955 27.5524 4.74891 27.5776C4.80153 27.6018 4.84291 27.6378 4.86816 27.6842C4.89738 27.7288 4.91417 27.7828 4.92237 27.8449C4.92938 27.9054 4.93401 27.9739 4.93401 28.0488V29.1328H5.15652H5.16643H5.1827C5.23637 29.1328 5.26308 29.103 5.26308 29.0578V29.0282V28.0114C5.26308 27.775 5.20107 27.5921 5.07864 27.4675Z" fill="#FEFEFE"/>
<path id="Fill 106" fill-rule="evenodd" clip-rule="evenodd" d="M11.023 27.2998C10.939 27.3186 10.8639 27.35 10.7973 27.3881C10.7306 27.4285 10.6767 27.4764 10.6339 27.5386C10.5908 27.6045 10.5693 27.6805 10.5693 27.7717C10.5693 27.7717 10.5693 27.915 10.6213 28.0065C10.6586 28.074 10.7247 28.1401 10.7856 28.1861C10.8479 28.2335 10.9157 28.2729 10.9873 28.3076C11.0601 28.3412 11.1278 28.3749 11.1895 28.4107C11.2517 28.4499 11.3034 28.4869 11.3448 28.5306C11.3857 28.5756 11.4061 28.6324 11.4061 28.7023C11.4061 28.7508 11.3805 28.7958 11.3282 28.8355C11.2747 28.8754 11.0756 28.9216 10.8593 28.8469C10.8055 28.8295 10.5933 28.723 10.5933 28.723V29.0472C10.6586 29.0793 10.7092 29.1063 10.769 29.1226C10.8273 29.1418 10.9547 29.1818 11.1137 29.1818C11.3313 29.1818 11.4836 29.127 11.5855 29.0257C11.6884 28.9229 11.7382 28.7958 11.7382 28.6376C11.7382 28.5676 11.7231 28.5047 11.6967 28.4513C11.6675 28.3973 11.6318 28.3506 11.5855 28.3055C11.5402 28.2615 11.4909 28.2208 11.4351 28.1882C11.3815 28.1577 11.3266 28.1251 11.2712 28.0963C11.2256 28.0715 11.1795 28.0489 11.1368 28.0279C11.0951 28.0095 11.056 27.9853 11.0206 27.9606C10.9859 27.9369 10.9575 27.9056 10.9385 27.8723C10.9157 27.8412 10.9067 27.8001 10.9067 27.7515C10.9067 27.7059 10.9157 27.6678 10.9385 27.6369C10.9575 27.6072 10.9853 27.5847 11.0174 27.5685C11.053 27.5526 11.1159 27.5386 11.1573 27.5348C11.4277 27.5068 11.6518 27.6349 11.6518 27.6349V27.3646C11.4331 27.286 11.2075 27.2642 11.023 27.2998Z" fill="#FEFEFE"/>
<path id="Fill 107" fill-rule="evenodd" clip-rule="evenodd" d="M6.73163 29.3628C6.7779 29.3628 6.80501 29.3979 6.80501 29.4418V29.8136C6.80501 29.8773 6.73467 29.9116 6.73467 29.9116L6.52393 30.0251V29.3628H6.73163Z" fill="#FEFEFE"/>
<path id="Fill 108" fill-rule="evenodd" clip-rule="evenodd" d="M8.07192 27.3594C8.13565 27.3594 8.16262 27.3947 8.16262 27.4643V29.0337C8.16262 29.1171 8.07959 29.133 8.07959 29.133H7.67251L7.18359 27.915H7.44458C7.5325 27.915 7.55431 27.9825 7.55431 27.9825L7.8305 28.6976V27.3594H8.07192Z" fill="#FEFEFE"/>
<path id="Fill 109" fill-rule="evenodd" clip-rule="evenodd" d="M9.63574 27.49L9.78779 27.2957C9.78779 27.2957 9.83208 27.2349 9.91365 27.2349H10.1622V27.2387L9.8449 27.6467" fill="#FEFEFE"/>
<path id="Fill 110" fill-rule="evenodd" clip-rule="evenodd" d="M11.6712 26.8156C11.6712 26.8987 11.6534 26.9312 11.5721 26.9312H10.5195V26.9278L10.6758 26.7284C10.6758 26.7284 10.713 26.6677 10.8216 26.6677H11.3912V26.4625C11.3912 26.3772 11.4469 26.3478 11.4469 26.3478L11.6712 26.229V26.8156Z" fill="#FEFEFE"/>
<path id="Fill 111" fill-rule="evenodd" clip-rule="evenodd" d="M9.92683 27.4675C9.8044 27.3397 9.62116 27.2764 9.37776 27.2764C9.13118 27.2764 8.94675 27.3397 8.82445 27.4675C8.7044 27.5921 8.6416 27.775 8.6416 28.0114V29.1328H8.86477L8.86319 29.137H8.89029C8.94608 29.137 8.9716 29.103 8.9716 29.0593V29.0578V28.3566H9.2622C9.32672 28.3566 9.34351 28.341 9.36321 28.3127C9.36691 28.3113 9.50071 28.0913 9.50071 28.0913H8.9716C8.9716 28.0114 8.97372 27.9366 8.97927 27.8722C8.98562 27.8023 9.00439 27.7466 9.02977 27.6952C9.05701 27.6467 9.09786 27.6071 9.15035 27.581C9.20403 27.5524 9.28071 27.5385 9.37776 27.5385C9.47083 27.5385 9.54209 27.5524 9.5963 27.5776C9.65157 27.6018 9.69136 27.6378 9.7182 27.6842C9.74438 27.7288 9.76209 27.7828 9.77003 27.8449C9.77756 27.9054 9.78298 27.9739 9.78298 28.0488V29.1328H10.0046H10.0142H10.0309C10.0834 29.1328 10.1086 29.103 10.1086 29.0578V29.0282V28.0114C10.1086 27.775 10.0482 27.5921 9.92683 27.4675Z" fill="#FEFEFE"/>
<path id="Fill 112" fill-rule="evenodd" clip-rule="evenodd" d="M10.5141 13.7206C10.5113 13.7196 10.5092 13.7172 10.5092 13.7172C10.0697 13.2677 9.53864 12.5286 9.20282 11.4632C9.20282 11.4632 9.18867 11.4224 9.16845 11.4224C9.14782 11.4224 9.13262 11.4685 9.13262 11.4685V11.4657C8.40572 13.8106 6.64757 14.7388 6.04521 14.9417C6.01216 14.9542 6.01163 14.9802 6.01507 14.995C6.32259 15.8204 6.78361 16.5749 7.36019 17.2218C7.37129 17.2306 7.39165 17.2391 7.42444 17.2226C9.3078 16.1563 10.378 14.0731 10.5215 13.7829C10.5366 13.7518 10.5222 13.7317 10.5141 13.7206Z" fill="#FFD300"/>
<path id="Fill 113" fill-rule="evenodd" clip-rule="evenodd" d="M14.7842 13.7206C14.7893 13.7196 14.7906 13.7172 14.7906 13.7172C15.2296 13.2677 15.7623 12.5286 16.0968 11.4632C16.0968 11.4632 16.1118 11.4224 16.1317 11.4224C16.1535 11.4224 16.1675 11.4685 16.1675 11.4685V11.4657C16.8952 13.8106 18.6516 14.7388 19.2546 14.9417C19.2869 14.9542 19.2889 14.9802 19.284 14.995C18.9786 15.8204 18.5194 16.5749 17.9402 17.2218C17.9301 17.2306 17.9075 17.2391 17.8774 17.2226C15.9919 16.1563 14.9205 14.0731 14.7794 13.7829C14.7639 13.7518 14.7783 13.7317 14.7842 13.7206Z" fill="#FFD300"/>
<path id="Fill 114" fill-rule="evenodd" clip-rule="evenodd" d="M16.0591 18.6762C13.394 16.0997 12.6958 11.502 12.6958 11.502C12.6958 11.502 12.6851 11.4224 12.6503 11.4224C12.6148 11.4224 12.6044 11.502 12.6044 11.502C12.6044 11.502 11.9053 16.0997 9.24187 18.6762C9.24187 18.6762 9.21503 18.7008 9.24372 18.7181C10.2405 19.2635 11.3859 19.5781 12.6044 19.5869H12.6503H12.6958C13.9142 19.5781 15.0593 19.2635 16.0571 18.7172C16.0851 18.698 16.0591 18.6762 16.0591 18.6762Z" fill="#FFD300"/>
<path id="Fill 115" fill-rule="evenodd" clip-rule="evenodd" d="M16.3406 6.55681C16.2999 6.53658 16.2988 6.59018 16.2988 6.59018C16.3032 7.41985 16.4141 11.9965 19.634 13.3925C19.6637 13.4062 19.673 13.3827 19.6741 13.3762C19.705 13.1064 19.7247 12.8337 19.7247 12.5563C19.7247 10.0148 18.3698 7.79232 16.3406 6.55681Z" fill="#FFD300"/>
<path id="Fill 116" fill-rule="evenodd" clip-rule="evenodd" d="M8.96105 6.55681C9.00124 6.53658 9.00124 6.59018 9.00124 6.59018C8.99767 7.41985 8.88622 11.9965 5.66608 13.3925C5.63765 13.4062 5.6284 13.3827 5.62628 13.3762C5.59521 13.1064 5.57617 12.8337 5.57617 12.5563C5.57617 10.0148 6.932 7.79232 8.96105 6.55681Z" fill="#FFD300"/>
<path id="Fill 117" fill-rule="evenodd" clip-rule="evenodd" d="M15.9167 6.31747C14.9965 5.84056 13.9603 5.5615 12.8588 5.52734C12.8286 5.52734 12.8327 5.564 12.8327 5.564C12.8327 6.96006 13.0589 10.2257 14.1556 12.4314C14.1645 12.4571 14.1838 12.4463 14.1936 12.4418C14.1944 12.4404 14.197 12.438 14.1985 12.437C14.3074 12.3213 16.0078 10.4645 15.9417 6.36503C15.9391 6.33757 15.9234 6.32128 15.9167 6.31747Z" fill="#FFD300"/>
<path id="Fill 118" fill-rule="evenodd" clip-rule="evenodd" d="M9.38441 6.31747C10.3028 5.84056 11.341 5.5615 12.4413 5.52734C12.4705 5.52734 12.4689 5.564 12.4689 5.564C12.4689 6.96006 12.2422 10.2257 11.144 12.4314C11.1354 12.4571 11.1148 12.4463 11.1091 12.4418C11.1059 12.4404 11.1055 12.438 11.1016 12.437C10.9925 12.3213 9.29318 10.4645 9.35982 6.36503C9.36246 6.33757 9.37568 6.32128 9.38441 6.31747Z" fill="#FFD300"/>
</g>
</g>
</svg>
