<svg width="20" height="20" viewBox="0 0 20 20" fill="none" xmlns="http://www.w3.org/2000/svg">
<g id="bed">
<mask id="mask0_832_34529" style="mask-type:alpha" maskUnits="userSpaceOnUse" x="0" y="0" width="20" height="20">
<rect id="Bounding box" width="20" height="20" fill="#D9D9D9"/>
</mask>
<g mask="url(#mask0_832_34529)">
<path id="bed_2" d="M2.69792 15.6873C2.48264 15.6873 2.29167 15.604 2.125 15.4373C1.95833 15.2707 1.875 15.0819 1.875 14.8709V10.8748C1.875 10.5484 1.94792 10.2292 2.09375 9.91711C2.23958 9.605 2.4375 9.33396 2.6875 9.104V6.854C2.6875 6.18271 2.92795 5.60864 3.40885 5.13177C3.88976 4.65493 4.46875 4.4165 5.14583 4.4165H8.375C8.68563 4.4165 8.97856 4.47553 9.25381 4.59359C9.52905 4.71164 9.77778 4.86789 10 5.06234C10.2222 4.86789 10.4757 4.71164 10.7604 4.59359C11.0451 4.47553 11.3403 4.4165 11.6458 4.4165H14.8333C15.5069 4.4165 16.0885 4.65493 16.5781 5.13177C17.0677 5.60864 17.3125 6.18271 17.3125 6.854V9.104C17.5625 9.33396 17.7604 9.605 17.9062 9.91711C18.0521 10.2292 18.125 10.5484 18.125 10.8748V14.8709C18.125 15.0819 18.0417 15.2707 17.875 15.4373C17.7083 15.604 17.5174 15.6873 17.3021 15.6873C17.0868 15.6873 16.8958 15.604 16.7292 15.4373C16.5625 15.2707 16.4792 15.0797 16.4792 14.8644V14.104H3.52083V14.8644C3.52083 15.0797 3.4375 15.2707 3.27083 15.4373C3.10417 15.604 2.91319 15.6873 2.69792 15.6873ZM10.8333 8.43734H15.6667V6.8573C15.6667 6.63346 15.5872 6.44501 15.4282 6.29194C15.2692 6.13887 15.0722 6.06234 14.8372 6.06234H11.6442C11.4092 6.06234 11.2153 6.13887 11.0625 6.29194C10.9097 6.44501 10.8333 6.63468 10.8333 6.86094V8.43734ZM4.33333 8.43734H9.16667V6.85659C9.16667 6.63264 9.09212 6.44428 8.94302 6.2915C8.79392 6.13873 8.60458 6.06234 8.375 6.06234H5.13383C4.90425 6.06234 4.71344 6.13887 4.5614 6.29194C4.40935 6.44501 4.33333 6.63468 4.33333 6.86094V8.43734ZM3.52083 12.4582H16.4792V10.8712C16.4792 10.6434 16.4048 10.4551 16.256 10.3063C16.1072 10.1576 15.9193 10.0832 15.6923 10.0832H4.31883C4.08867 10.0832 3.89812 10.1569 3.74721 10.3044C3.59629 10.4518 3.52083 10.6384 3.52083 10.8642V12.4582Z" fill="#202020"/>
</g>
</g>
</svg>
