<svg width="40" height="40" viewBox="0 0 40 40" fill="none" xmlns="http://www.w3.org/2000/svg">
<mask id="mask0_1017_41212" style="mask-type:alpha" maskUnits="userSpaceOnUse" x="0" y="0" width="40" height="40">
<rect width="40" height="40" fill="#D9D9D9"/>
</mask>
<g mask="url(#mask0_1017_41212)">
<path d="M9.4445 36.6666C8.6945 36.6666 8.04404 36.3912 7.49312 35.8403C6.94221 35.2894 6.66675 34.6389 6.66675 33.8889V6.11106C6.66675 5.36106 6.94221 4.71061 7.49312 4.15969C8.04404 3.60877 8.6945 3.33331 9.4445 3.33331H22.1806C22.5592 3.33331 22.9201 3.40738 23.2632 3.55552C23.6063 3.70369 23.9029 3.90277 24.1529 4.15277L32.514 12.5139C32.764 12.7639 32.963 13.0604 33.1112 13.4035C33.2593 13.7466 33.3334 14.1075 33.3334 14.4861V22.7778C33.3334 23.1713 33.1998 23.5012 32.9327 23.7674C32.6656 24.0336 32.3346 24.1667 31.9397 24.1667C31.5448 24.1667 31.2154 24.0336 30.9515 23.7674C30.6876 23.5012 30.5557 23.1713 30.5557 22.7778V15H23.0556C22.6621 15 22.3323 14.8669 22.066 14.6007C21.7998 14.3345 21.6667 14.0046 21.6667 13.6111V6.11106H9.4445V33.8889H24.4445C24.8381 33.8889 25.1679 34.0225 25.4341 34.2896C25.7003 34.5567 25.8335 34.8878 25.8335 35.2826C25.8335 35.6775 25.7003 36.0069 25.4341 36.2708C25.1679 36.5347 24.8381 36.6666 24.4445 36.6666H9.4445ZM31.389 31.7083V35.0278C31.389 35.4213 31.2554 35.7512 30.9882 36.0174C30.7211 36.2836 30.3901 36.4166 29.9952 36.4166C29.6003 36.4166 29.2709 36.2836 29.007 36.0174C28.7432 35.7512 28.6112 35.4213 28.6112 35.0278V28.3333C28.6112 27.9398 28.7443 27.6099 29.0105 27.3437C29.2767 27.0775 29.6066 26.9444 30.0001 26.9444H36.6945C37.0881 26.9444 37.4179 27.078 37.6841 27.3451C37.9503 27.6123 38.0834 27.9433 38.0834 28.3382C38.0834 28.7331 37.9503 29.0625 37.6841 29.3264C37.4179 29.5902 37.0881 29.7222 36.6945 29.7222H33.3334L37.5556 33.9444C37.8242 34.2129 37.9584 34.5362 37.9584 34.9141C37.9584 35.292 37.8278 35.6184 37.5665 35.8933C37.2815 36.1681 36.9471 36.3055 36.5635 36.3055C36.1799 36.3055 35.8485 36.1666 35.5695 35.8889L31.389 31.7083Z" fill="#202020"/>
</g>
</svg>
