<svg width="24" height="24" viewBox="0 0 24 24" fill="none" xmlns="http://www.w3.org/2000/svg">
<mask id="mask0_948_38981" style="mask-type:alpha" maskUnits="userSpaceOnUse" x="0" y="0" width="24" height="24">
<rect width="24" height="24" fill="#D9D9D9"/>
</mask>
<g mask="url(#mask0_948_38981)">
<path d="M17 9H19V7H17V9ZM17 13H19V11H17V13ZM17 17H19V15H17V17ZM17 21V19H21V5H12V6.4L10 4.95C10 4.41667 10.1958 3.95833 10.5875 3.575C10.9792 3.19167 11.45 3 12 3H21C21.55 3 22.0208 3.19583 22.4125 3.5875C22.8042 3.97917 23 4.45 23 5V19C23 19.55 22.8042 20.0208 22.4125 20.4125C22.0208 20.8042 21.55 21 21 21H17ZM1 20V12.025C1 11.6917 1.075 11.3833 1.225 11.1C1.375 10.8167 1.58333 10.5833 1.85 10.4L6.85 6.825C7.2 6.575 7.58333 6.45 8 6.45C8.41667 6.45 8.8 6.575 9.15 6.825L14.15 10.4C14.4167 10.5833 14.625 10.8167 14.775 11.1C14.925 11.3833 15 11.6917 15 12.025V20C15 20.2833 14.9042 20.5208 14.7125 20.7125C14.5208 20.9042 14.2833 21 14 21H9V16H7V21H2C1.71667 21 1.47917 20.9042 1.2875 20.7125C1.09583 20.5208 1 20.2833 1 20ZM3 19H5V14H11V19H13V12L8 8.45L3 12V19Z" fill="#202020"/>
</g>
</svg>
