<svg width="28" height="28" viewBox="0 0 28 28" fill="none" xmlns="http://www.w3.org/2000/svg">
<path d="M13.9963 20.293C13.8136 20.293 13.6435 20.2629 13.4861 20.2027C13.3287 20.1425 13.176 20.0384 13.0278 19.8902L6.83335 13.6958C6.56483 13.4272 6.4352 13.0985 6.44448 12.7096C6.45373 12.3207 6.59262 11.9921 6.86115 11.7236C7.12964 11.455 7.46066 11.3184 7.85419 11.3138C8.24769 11.3092 8.5787 11.4411 8.84723 11.7096L12.6111 15.5013V2.05684C12.6111 1.66334 12.7447 1.33348 13.0119 1.06726C13.279 0.801066 13.61 0.667969 14.0049 0.667969C14.3998 0.667969 14.7292 0.801066 14.9931 1.06726C15.257 1.33348 15.3889 1.66334 15.3889 2.05684V15.5013L19.1806 11.7096C19.4491 11.4411 19.7801 11.3092 20.1736 11.3138C20.5671 11.3184 20.8982 11.455 21.1667 11.7236C21.4352 11.9921 21.5695 12.3207 21.5695 12.7096C21.5695 13.0985 21.4352 13.4272 21.1667 13.6958L14.9722 19.8902C14.8241 20.0384 14.6701 20.1425 14.5102 20.2027C14.3503 20.2629 14.179 20.293 13.9963 20.293ZM3.44444 27.3346C2.69444 27.3346 2.04398 27.0592 1.49306 26.5083C0.942145 25.9573 0.666687 25.3069 0.666687 24.5569V20.3068C0.666687 19.9133 0.800257 19.5835 1.0674 19.3173C1.33453 19.0511 1.66555 18.918 2.06044 18.918C2.45533 18.918 2.78471 19.0511 3.0486 19.3173C3.31249 19.5835 3.44444 19.9133 3.44444 20.3068V24.5569H24.5556V20.3068C24.5556 19.9133 24.6892 19.5835 24.9563 19.3173C25.2235 19.0511 25.5545 18.918 25.9494 18.918C26.3442 18.918 26.6736 19.0511 26.9375 19.3173C27.2014 19.5835 27.3334 19.9133 27.3334 20.3068V24.5569C27.3334 25.3069 27.0579 25.9573 26.507 26.5083C25.9561 27.0592 25.3056 27.3346 24.5556 27.3346H3.44444Z" fill="#202020"/>
</svg>
