<svg width="52" height="52" viewBox="0 0 52 52" fill="none" xmlns="http://www.w3.org/2000/svg">
<g filter="url(#filter0_d_2292_1856)">
<rect x="2" y="2" width="44" height="44" rx="8" fill="white"/>
<rect x="2.5" y="2.5" width="43" height="43" rx="7.5" stroke="#EDEDED"/>
</g>
<mask id="mask0_2292_1856" style="mask-type:alpha" maskUnits="userSpaceOnUse" x="12" y="12" width="24" height="24">
<rect x="12" y="12" width="24" height="24" rx="8" fill="#D9D9D9"/>
</mask>
<g mask="url(#mask0_2292_1856)">
<path d="M22.65 32.15L20.925 30.575C19.1583 28.9583 17.5625 27.3542 16.1375 25.7625C14.7125 24.1708 14 22.4167 14 20.5C14 18.9333 14.525 17.625 15.575 16.575C16.625 15.525 17.9333 15 19.5 15C20.3833 15 21.2167 15.1875 22 15.5625C23.1997 16.1368 24.8003 16.1368 26 15.5625C26.7833 15.1875 27.6167 15 28.5 15C30.0667 15 31.375 15.525 32.425 16.575C33.475 17.625 34 18.9333 34 20.5C34 22.4167 33.2917 24.175 31.875 25.775C30.4583 27.375 28.85 28.9833 27.05 30.6L25.35 32.15C24.9667 32.5167 24.5167 32.7 24 32.7C23.4833 32.7 23.0333 32.5167 22.65 32.15ZM23.05 19.1C22.5667 18.4167 22.05 17.8958 21.5 17.5375C20.95 17.1792 20.2833 17 19.5 17C18.5 17 17.6667 17.3333 17 18C16.3333 18.6667 16 19.5 16 20.5C16 21.3667 16.3083 22.2875 16.925 23.2625C17.5417 24.2375 18.2792 25.1833 19.1375 26.1C19.9958 27.0167 20.8792 27.875 21.7875 28.675C23.0485 29.7856 24.9515 29.7856 26.2125 28.675C27.1208 27.875 28.0042 27.0167 28.8625 26.1C29.7208 25.1833 30.4583 24.2375 31.075 23.2625C31.6917 22.2875 32 21.3667 32 20.5C32 19.5 31.6667 18.6667 31 18C30.3333 17.3333 29.5 17 28.5 17C27.7167 17 27.05 17.1792 26.5 17.5375C25.95 17.8958 25.4333 18.4167 24.95 19.1C24.8333 19.2667 24.6917 19.3917 24.525 19.475C24.3583 19.5583 24.1833 19.6 24 19.6C23.8167 19.6 23.6417 19.5583 23.475 19.475C23.3083 19.3917 23.1667 19.2667 23.05 19.1Z" fill="#202020"/>
</g>
<defs>
<filter id="filter0_d_2292_1856" x="0" y="0" width="52" height="52" filterUnits="userSpaceOnUse" color-interpolation-filters="sRGB">
<feFlood flood-opacity="0" result="BackgroundImageFix"/>
<feColorMatrix in="SourceAlpha" type="matrix" values="0 0 0 0 0 0 0 0 0 0 0 0 0 0 0 0 0 0 127 0" result="hardAlpha"/>
<feOffset dx="2" dy="2"/>
<feGaussianBlur stdDeviation="2"/>
<feComposite in2="hardAlpha" operator="out"/>
<feColorMatrix type="matrix" values="0 0 0 0 0 0 0 0 0 0 0 0 0 0 0 0 0 0 0.25 0"/>
<feBlend mode="normal" in2="BackgroundImageFix" result="effect1_dropShadow_2292_1856"/>
<feBlend mode="normal" in="SourceGraphic" in2="effect1_dropShadow_2292_1856" result="shape"/>
</filter>
</defs>
</svg>
