<svg width="20" height="20" viewBox="0 0 20 20" fill="none" xmlns="http://www.w3.org/2000/svg">
<mask id="mask0_1015_52161" style="mask-type:alpha" maskUnits="userSpaceOnUse" x="0" y="0" width="20" height="20">
<rect width="20" height="20" fill="#D9D9D9"/>
</mask>
<g mask="url(#mask0_1015_52161)">
<path d="M5.81146 17.5393C5.45926 17.5393 5.16293 17.418 4.92246 17.1754C4.682 16.9329 4.56177 16.6356 4.56177 16.2837V7.41236C4.56177 7.06453 4.68304 6.76863 4.92558 6.52465C5.16814 6.28069 5.4654 6.15872 5.81737 6.15872H7.25246V5.61703C7.25246 4.86489 7.49423 4.20263 7.97777 3.63026C8.46131 3.05788 9.08016 2.75086 9.83433 2.70919C10.6441 2.66753 11.3327 2.91635 11.9003 3.45565C12.4678 3.99496 12.7516 4.65986 12.7516 5.45036V6.15872H14.1884C14.5364 6.15872 14.8324 6.28069 15.0764 6.52465C15.3203 6.76863 15.4423 7.06453 15.4423 7.41236V16.2837C15.4423 16.6356 15.3202 16.9329 15.0761 17.1754C14.832 17.418 14.5359 17.5393 14.1878 17.5393H5.81146ZM5.81737 16.5401H14.1867C14.2508 16.5401 14.3096 16.514 14.363 16.462C14.4164 16.4099 14.4431 16.3504 14.4431 16.2837V7.4143C14.4431 7.3502 14.4164 7.29144 14.363 7.23801C14.3096 7.18459 14.2508 7.15788 14.1867 7.15788H12.7516V8.6603C12.7516 8.79853 12.703 8.91603 12.6058 9.01278C12.5085 9.10951 12.3914 9.15788 12.2544 9.15788C12.1174 9.15788 11.9995 9.10951 11.9007 9.01278C11.8019 8.91603 11.7525 8.79853 11.7525 8.6603V7.15788H8.25162V8.6603C8.25162 8.79853 8.203 8.91603 8.10577 9.01278C8.00855 9.10951 7.89143 9.15788 7.75443 9.15788C7.61742 9.15788 7.4995 9.10951 7.40068 9.01278C7.30186 8.91603 7.25246 8.79853 7.25246 8.6603V7.15788H5.81737C5.75059 7.15788 5.69116 7.18459 5.63906 7.23801C5.58698 7.29144 5.56093 7.3502 5.56093 7.4143V16.2837C5.56093 16.3504 5.58698 16.4099 5.63906 16.462C5.69116 16.514 5.75059 16.5401 5.81737 16.5401ZM8.25162 6.15872H11.7525V5.45036C11.7525 4.96521 11.5822 4.55358 11.2418 4.21549C10.9013 3.8774 10.4863 3.70836 9.99658 3.70836C9.5069 3.70836 9.09365 3.87801 8.75683 4.21732C8.42002 4.55663 8.25162 4.96764 8.25162 5.45036V6.15872Z" fill="#202020"/>
</g>
</svg>
