<svg width="20" height="20" viewBox="0 0 20 20" fill="none" xmlns="http://www.w3.org/2000/svg">
<g id="airport_shuttle">
<mask id="mask0_832_34565" style="mask-type:alpha" maskUnits="userSpaceOnUse" x="0" y="0" width="20" height="20">
<rect id="Bounding box" width="20" height="20" fill="#D9D9D9"/>
</mask>
<g mask="url(#mask0_832_34565)">
<path id="airport_shuttle_2" d="M5.26946 14.8611C4.67999 14.8611 4.18294 14.6641 3.7783 14.27C3.37365 13.8759 3.16437 13.3854 3.15049 12.7986H2.95496C2.53356 12.7986 2.19117 12.6512 1.92778 12.3564C1.6644 12.0615 1.53271 11.7071 1.53271 11.293V5.92527C1.53271 5.5932 1.65094 5.30894 1.8874 5.07248C2.12387 4.83601 2.40815 4.71777 2.74021 4.71777H13.1593C13.36 4.71777 13.5514 4.75605 13.7333 4.83261C13.9152 4.90915 14.0775 5.0167 14.2202 5.15527L17.999 8.78825C18.1477 8.93041 18.2636 9.09709 18.3465 9.28831C18.4295 9.47952 18.4709 9.68063 18.4709 9.89163V11.293C18.4709 11.7071 18.3386 12.0615 18.074 12.3564C17.8093 12.6512 17.4676 12.7986 17.0487 12.7986H16.9982C16.9843 13.3854 16.7744 13.8759 16.3684 14.27C15.9624 14.6641 15.4647 14.8611 14.8752 14.8611C14.2857 14.8611 13.7887 14.6641 13.384 14.27C12.9794 13.8759 12.7701 13.3854 12.7563 12.7986H7.39244C7.37856 13.3841 7.16862 13.8742 6.76263 14.269C6.35666 14.6637 5.85894 14.8611 5.26946 14.8611ZM12.1136 8.624H15.9606L13.2627 6.03907C13.2359 6.01769 13.2079 6.00033 13.1785 5.98698C13.1491 5.97362 13.1184 5.96694 13.0863 5.96694H12.1136V8.624ZM7.44774 8.624H10.8644V5.96694H7.44774V8.624ZM2.78188 8.624H6.19855V5.96694H2.78188V8.624ZM5.26676 13.7401C5.54073 13.7401 5.77387 13.6458 5.96617 13.4572C6.15848 13.2686 6.25463 13.0364 6.25463 12.7605C6.25463 12.4846 6.15978 12.2512 5.97007 12.0603C5.78035 11.8693 5.5481 11.7738 5.27334 11.7738C4.99859 11.7738 4.76573 11.8681 4.57476 12.0567C4.38378 12.2454 4.2883 12.4776 4.2883 12.7535C4.2883 13.0293 4.38288 13.2627 4.57205 13.4537C4.76121 13.6447 4.99278 13.7401 5.26676 13.7401ZM14.8725 13.7401C15.1465 13.7401 15.3796 13.6458 15.5719 13.4572C15.7642 13.2686 15.8604 13.0364 15.8604 12.7605C15.8604 12.4846 15.7655 12.2512 15.5758 12.0603C15.3861 11.8693 15.1539 11.7738 14.8791 11.7738C14.6043 11.7738 14.3715 11.8681 14.1805 12.0567C13.9895 12.2454 13.894 12.4776 13.894 12.7535C13.894 13.0293 13.9886 13.2627 14.1778 13.4537C14.367 13.6447 14.5985 13.7401 14.8725 13.7401ZM3.0383 11.5495H3.56313C3.73195 11.2995 3.96492 11.0847 4.26205 10.9052C4.55917 10.7257 4.89498 10.636 5.26946 10.636C5.64395 10.636 5.97575 10.7217 6.26486 10.8932C6.55397 11.0647 6.79228 11.2835 6.9798 11.5495H13.1769C13.3366 11.2995 13.5654 11.0847 13.8634 10.9052C14.1613 10.7257 14.498 10.636 14.8734 10.636C15.2489 10.636 15.5812 10.7217 15.8703 10.8932C16.1593 11.0647 16.3978 11.2835 16.5855 11.5495H16.9653C17.0375 11.5495 17.0982 11.5254 17.1477 11.4774C17.1971 11.4293 17.2218 11.3678 17.2218 11.293V10.1296C17.2218 10.0548 17.2184 9.99872 17.2118 9.96134C17.2051 9.92393 17.1897 9.89454 17.1657 9.87317H2.78188V11.293C2.78188 11.3678 2.80592 11.4293 2.85401 11.4774C2.90208 11.5254 2.96351 11.5495 3.0383 11.5495Z" fill="#202020"/>
</g>
</g>
</svg>
