<svg width="40" height="40" viewBox="0 0 40 40" fill="none" xmlns="http://www.w3.org/2000/svg">
<mask id="mask0_886_42771" style="mask-type:alpha" maskUnits="userSpaceOnUse" x="0" y="0" width="40" height="40">
<rect width="40" height="40" fill="#D9D9D9"/>
</mask>
<g mask="url(#mask0_886_42771)">
<path d="M19.9963 26.293C19.8136 26.293 19.6435 26.2629 19.4861 26.2027C19.3287 26.1425 19.176 26.0384 19.0278 25.8902L12.8334 19.6958C12.5648 19.4272 12.4352 19.0985 12.4445 18.7096C12.4537 18.3207 12.5926 17.9921 12.8611 17.7236C13.1296 17.455 13.4607 17.3184 13.8542 17.3138C14.2477 17.3092 14.5787 17.4411 14.8472 17.7096L18.6111 21.5013V8.05684C18.6111 7.66334 18.7447 7.33348 19.0119 7.06726C19.279 6.80107 19.61 6.66797 20.0049 6.66797C20.3998 6.66797 20.7292 6.80107 20.9931 7.06726C21.257 7.33348 21.3889 7.66334 21.3889 8.05684V21.5013L25.1806 17.7096C25.4491 17.4411 25.7801 17.3092 26.1736 17.3138C26.5671 17.3184 26.8982 17.455 27.1667 17.7236C27.4352 17.9921 27.5695 18.3207 27.5695 18.7096C27.5695 19.0985 27.4352 19.4272 27.1667 19.6958L20.9722 25.8902C20.8241 26.0384 20.6701 26.1425 20.5102 26.2027C20.3503 26.2629 20.179 26.293 19.9963 26.293ZM9.44444 33.3346C8.69444 33.3346 8.04398 33.0592 7.49306 32.5083C6.94215 31.9573 6.66669 31.3069 6.66669 30.5569V26.3068C6.66669 25.9133 6.80026 25.5835 7.0674 25.3173C7.33453 25.0511 7.66555 24.918 8.06044 24.918C8.45533 24.918 8.78471 25.0511 9.0486 25.3173C9.31249 25.5835 9.44444 25.9133 9.44444 26.3068V30.5569H30.5556V26.3068C30.5556 25.9133 30.6892 25.5835 30.9563 25.3173C31.2235 25.0511 31.5545 24.918 31.9494 24.918C32.3442 24.918 32.6736 25.0511 32.9375 25.3173C33.2014 25.5835 33.3334 25.9133 33.3334 26.3068V30.5569C33.3334 31.3069 33.0579 31.9573 32.507 32.5083C31.9561 33.0592 31.3056 33.3346 30.5556 33.3346H9.44444Z" fill="#202020"/>
</g>
</svg>
