<svg width="264" height="69" viewBox="0 0 264 69" fill="none" xmlns="http://www.w3.org/2000/svg">
<mask id="mask0_566_25094" style="mask-type:luminance" maskUnits="userSpaceOnUse" x="1" y="1" width="263" height="67">
<path fill-rule="evenodd" clip-rule="evenodd" d="M1.57129 1.45117H263.618V68.0008H1.57129V1.45117Z" fill="white"/>
</mask>
<g mask="url(#mask0_566_25094)">
<path fill-rule="evenodd" clip-rule="evenodd" d="M263.618 64.7694C263.618 66.5544 262.167 68.001 260.376 68.001H4.81343C3.02268 68.001 1.57129 66.5544 1.57129 64.7694V4.68278C1.57129 2.89785 3.02268 1.45117 4.81343 1.45117H260.376C262.167 1.45117 263.618 2.89785 263.618 4.68278V64.7694Z" fill="#CFCFCF"/>
</g>
<path fill-rule="evenodd" clip-rule="evenodd" d="M263 64.7465C263 66.5429 261.549 68 259.758 68H4.24156C2.45113 68 1 66.5429 1 64.7465V4.25347C1 2.45646 2.45113 1 4.24156 1H259.758C261.549 1 263 2.45646 263 4.25347V64.7465Z" fill="#F8F8F8"/>
<path fill-rule="evenodd" clip-rule="evenodd" d="M263 64.7465C263 66.5429 261.549 68 259.758 68H4.24156C2.45113 68 1 66.5429 1 64.7465V4.25347C1 2.45646 2.45113 1 4.24156 1H259.758C261.549 1 263 2.45646 263 4.25347V64.7465Z" stroke="#CFCFCF" stroke-width="0.478"/>
<path fill-rule="evenodd" clip-rule="evenodd" d="M236.14 27.5519C234.932 29.3758 232.819 30.5846 230.417 30.5846C227.976 30.5846 225.837 29.3377 224.638 27.466L228.239 24H217V34.8223L219.881 32.0472C222.338 35.0634 226.143 37 230.417 37C234.717 37 238.544 35.0399 241 31.9912L236.14 27.5519Z" fill="#B4B6B9"/>
<path fill-rule="evenodd" clip-rule="evenodd" d="M230 10H219.229L222.015 12.7428C218.963 15.1216 217 18.8308 217 23H223.415C223.415 20.5798 224.723 18.4675 226.668 17.323L230 20.6027V10Z" fill="#3791FF"/>
<path fill-rule="evenodd" clip-rule="evenodd" d="M240.587 15.2132C238.187 12.0509 234.34 10 230 10V16.3498C232.515 16.3498 234.702 17.7093 235.84 19.7155L232.378 23H243V12.9237L240.587 15.2132Z" fill="#1432B9"/>
<path fill-rule="evenodd" clip-rule="evenodd" d="M208.902 43.866L208.514 43.8436C208.343 43.8436 208.2 43.9011 208.087 44.0156C207.975 44.1307 207.888 44.2925 207.829 44.5017V48H207V43.0902H207.755L207.816 43.8295C207.909 43.5698 208.03 43.3665 208.18 43.22C208.33 43.0735 208.502 43 208.698 43C208.752 43 208.808 43.0051 208.866 43.0153C208.922 43.0262 208.968 43.0384 209 43.0544L208.902 43.866Z" fill="#8C9196"/>
<path fill-rule="evenodd" clip-rule="evenodd" d="M211.05 43.6866C210.752 43.6866 210.512 43.8134 210.331 44.0688C210.151 44.3255 210.051 44.648 210.031 45.039H211.974V44.8558C211.974 44.5119 211.896 44.2313 211.739 44.0129C211.583 43.7952 211.354 43.6866 211.05 43.6866ZM211.168 48C210.512 48 209.986 47.8017 209.592 47.4038C209.197 47.0059 209 46.4969 209 45.8769V45.1727C209 44.5432 209.193 44.0242 209.579 43.6144C209.964 43.2052 210.456 43 211.05 43C211.677 43 212.158 43.1864 212.494 43.5592C212.832 43.932 213 44.4322 213 45.0616V45.6848H210.031V45.8769C210.031 46.2917 210.136 46.6356 210.344 46.9074C210.553 47.1785 210.85 47.3147 211.235 47.3147C211.52 47.3147 211.765 47.2751 211.969 47.1961C212.174 47.1182 212.367 47.0028 212.551 46.8509L212.877 47.4126C212.704 47.5852 212.471 47.7257 212.178 47.8343C211.886 47.9454 211.549 48 211.168 48Z" fill="#8C9196"/>
<path fill-rule="evenodd" clip-rule="evenodd" d="M217.987 45.8364L218 45.8654C217.998 46.5438 217.827 47.0693 217.491 47.4421C217.154 47.8136 216.679 48 216.064 48C215.437 48 214.937 47.7754 214.562 47.3269C214.187 46.879 214 46.2533 214 45.4491V43.5614C214 42.7566 214.185 42.1296 214.556 41.6791C214.927 41.2266 215.42 41 216.037 41C216.664 41 217.145 41.1838 217.483 41.5473C217.819 41.9116 217.991 42.4444 218 43.1452L217.987 43.1728H217.144C217.135 42.6749 217.043 42.3081 216.867 42.0729C216.691 41.8378 216.415 41.7199 216.037 41.7199C215.672 41.7199 215.388 41.878 215.186 42.1935C214.983 42.5076 214.882 42.9568 214.882 43.541V45.4458C214.882 46.0392 214.985 46.493 215.192 46.8079C215.399 47.1227 215.689 47.2808 216.064 47.2808C216.432 47.2808 216.702 47.1668 216.874 46.937C217.045 46.7084 217.134 46.3416 217.14 45.8364H217.987Z" fill="#8C9196"/>
<path fill-rule="evenodd" clip-rule="evenodd" d="M219.65 45.4568H221.355L220.518 42.3993H220.491L219.65 45.4568ZM221.567 46.2307H219.433L218.947 48H218L220.059 41H220.96L223 48H222.053L221.567 46.2307Z" fill="#8C9196"/>
<path fill-rule="evenodd" clip-rule="evenodd" d="M224.888 44.4898H226.092C226.427 44.4898 226.681 44.3611 226.854 44.1022C227.026 43.8434 227.112 43.5167 227.112 43.1244C227.112 42.7259 227.027 42.3959 226.856 42.1337C226.685 41.8714 226.43 41.74 226.092 41.74H224.888V44.4898ZM224.888 45.2305V48H224V41H226.092C226.687 41 227.154 41.1938 227.492 41.5834C227.831 41.9711 228 42.482 228 43.1156C228 43.7512 227.831 44.2635 227.492 44.6498C227.154 45.038 226.687 45.2305 226.092 45.2305H224.888Z" fill="#8C9196"/>
<path fill-rule="evenodd" clip-rule="evenodd" d="M233 41.7407H231.424V48H230.567V41.7407H229V41H233V41.7407Z" fill="#8C9196"/>
<path fill-rule="evenodd" clip-rule="evenodd" d="M237.987 45.8364L238 45.8654C237.997 46.5438 237.827 47.0693 237.49 47.4421C237.154 47.8136 236.678 48 236.064 48C235.437 48 234.936 47.7754 234.562 47.3269C234.187 46.879 234 46.2533 234 45.4491V43.5614C234 42.7566 234.185 42.1296 234.556 41.6791C234.926 41.2266 235.42 41 236.037 41C236.663 41 237.145 41.1838 237.482 41.5473C237.819 41.9116 237.991 42.4444 238 43.1452L237.987 43.1728H237.144C237.135 42.6749 237.043 42.3081 236.867 42.0729C236.691 41.8378 236.415 41.7199 236.037 41.7199C235.671 41.7199 235.387 41.878 235.186 42.1935C234.983 42.5076 234.882 42.9568 234.882 43.541V45.4458C234.882 46.0392 234.985 46.493 235.192 46.8079C235.398 47.1227 235.689 47.2808 236.064 47.2808C236.432 47.2808 236.702 47.1668 236.874 46.937C237.045 46.7084 237.133 46.3416 237.139 45.8364H237.987Z" fill="#8C9196"/>
<path fill-rule="evenodd" clip-rule="evenodd" d="M243 48H242.161V44.9086H239.843V48H239V41H239.843V44.168H242.161V41H243V48Z" fill="#8C9196"/>
<path fill-rule="evenodd" clip-rule="evenodd" d="M245.65 45.4568H247.355L246.518 42.3993H246.491L245.65 45.4568ZM247.567 46.2307H245.433L244.947 48H244L246.059 41H246.96L249 48H248.053L247.567 46.2307Z" fill="#8C9196"/>
<path fill-rule="evenodd" clip-rule="evenodd" d="M203.753 55.4622H205.126C205.504 55.4622 205.785 55.3708 205.97 55.1894C206.155 55.0086 206.249 54.7791 206.249 54.5032C206.249 54.2254 206.155 53.9952 205.968 53.8101C205.78 53.6249 205.501 53.5323 205.126 53.5323H203.753V55.4622ZM203.753 55.9945V58H203V53H205.126C205.719 53 206.18 53.1376 206.508 53.4122C206.836 53.6875 207 54.0484 207 54.4976C207 54.953 206.836 55.317 206.508 55.5873C206.18 55.8588 205.719 55.9945 205.126 55.9945H203.753Z" fill="#8C9196"/>
<path fill-rule="evenodd" clip-rule="evenodd" d="M209.899 54.7037L209.525 54.6819C209.332 54.6819 209.17 54.7269 209.037 54.8161C208.904 54.9061 208.803 55.0317 208.731 55.1938V58H208V54.0728H208.653L208.724 54.6455C208.837 54.4425 208.978 54.2837 209.144 54.1693C209.312 54.0562 209.505 54 209.722 54C209.776 54 209.828 54.0033 209.878 54.0119C209.927 54.0212 209.968 54.0298 210 54.0397L209.899 54.7037Z" fill="#8C9196"/>
<mask id="mask1_566_25094" style="mask-type:luminance" maskUnits="userSpaceOnUse" x="1" y="1" width="263" height="67">
<path fill-rule="evenodd" clip-rule="evenodd" d="M1 68H264V1H1V68Z" fill="white"/>
</mask>
<g mask="url(#mask1_566_25094)">
<path fill-rule="evenodd" clip-rule="evenodd" d="M210 59H211V54.8398H210V59ZM210 53.7735H211V53H210V53.7735Z" fill="#8C9196"/>
<path fill-rule="evenodd" clip-rule="evenodd" d="M213.446 56.82L213.501 57.1015H213.52L213.579 56.82L214.366 54H215L213.744 58H213.273L212 54H212.638L213.446 56.82Z" fill="#8C9196"/>
<path fill-rule="evenodd" clip-rule="evenodd" d="M217.244 57.4094C217.48 57.4094 217.693 57.3445 217.883 57.2134C218.073 57.0836 218.197 56.9349 218.254 56.7668V56.1412H217.522C217.258 56.1412 217.048 56.2126 216.891 56.354C216.732 56.4962 216.653 56.6636 216.653 56.8551C216.653 57.0258 216.703 57.1601 216.803 57.2607C216.902 57.3594 217.05 57.4094 217.244 57.4094ZM218.328 57.926C218.305 57.8092 218.288 57.706 218.276 57.6171C218.263 57.5288 218.257 57.4392 218.254 57.3484C218.133 57.5333 217.975 57.6885 217.778 57.8137C217.583 57.9383 217.373 58 217.148 58C216.774 58 216.49 57.8988 216.293 57.693C216.098 57.4866 216 57.2043 216 56.8428C216 56.4748 216.139 56.1866 216.417 55.9789C216.694 55.7712 217.07 55.6667 217.545 55.6667H218.254V55.2864C218.254 55.0599 218.19 54.882 218.062 54.7496C217.934 54.6172 217.753 54.5523 217.519 54.5523C217.308 54.5523 217.138 54.6094 217.006 54.7243C216.875 54.8405 216.809 54.9781 216.809 55.1397H216.186L216.179 55.1183C216.166 54.8386 216.289 54.5822 216.549 54.3492C216.809 54.1168 217.144 54 217.555 54C217.961 54 218.288 54.1103 218.537 54.3336C218.784 54.5556 218.908 54.8749 218.908 55.2929V57.1498C218.908 57.2867 218.914 57.4211 218.927 57.5483C218.941 57.6761 218.965 57.802 219 57.926H218.328Z" fill="#8C9196"/>
<path fill-rule="evenodd" clip-rule="evenodd" d="M221.597 57.4477C221.811 57.4477 222 57.3769 222.163 57.2328C222.326 57.0888 222.408 56.9135 222.408 56.7032H222.989L222.995 56.7253C223.007 57.0576 222.87 57.3529 222.587 57.6125C222.304 57.8702 221.974 58 221.597 58C221.08 58 220.684 57.817 220.411 57.4516C220.137 57.0855 220 56.626 220 56.0737V55.9231C220 55.3747 220.138 54.9177 220.412 54.5497C220.687 54.183 221.082 54 221.597 54C222.013 54 222.353 54.1331 222.617 54.3992C222.881 54.6646 223.008 54.9917 223 55.3785L222.992 55.4006H222.408C222.408 55.1644 222.332 54.9645 222.178 54.7996C222.025 54.6348 221.831 54.5517 221.597 54.5517C221.257 54.5517 221.014 54.6841 220.868 54.9476C220.724 55.213 220.651 55.5376 220.651 55.9211V56.0711C220.651 56.465 220.723 56.7928 220.867 57.0557C221.011 57.3166 221.255 57.4477 221.597 57.4477Z" fill="#8C9196"/>
<path fill-rule="evenodd" clip-rule="evenodd" d="M224.38 57.2406L224.487 57.6886H224.506L225.325 55H226L224.598 59.107C224.514 59.3469 224.394 59.555 224.236 59.7331C224.079 59.9106 223.868 60 223.6 60C223.552 60 223.489 59.994 223.412 59.9814C223.337 59.97 223.278 59.9574 223.237 59.9478L223.299 59.4368C223.287 59.4344 223.323 59.4368 223.408 59.4428C223.493 59.4506 223.548 59.453 223.57 59.453C223.699 59.453 223.805 59.3925 223.887 59.2683C223.969 59.1466 224.038 59.0104 224.093 58.8611L224.238 58.4887L223 55H223.678L224.38 57.2406Z" fill="#8C9196"/>
<path fill-rule="evenodd" clip-rule="evenodd" d="M229 56.923H231V56.077H229V56.923Z" fill="#8C9196"/>
<path fill-rule="evenodd" clip-rule="evenodd" d="M237 53.5323H235.347V58H234.651V53.5323H233V53H237V53.5323Z" fill="#8C9196"/>
<path fill-rule="evenodd" clip-rule="evenodd" d="M238.533 54.5523C238.315 54.5523 238.128 54.6516 237.973 54.8483C237.818 55.0462 237.724 55.2942 237.689 55.5934L237.695 55.6109H239.348V55.5187C239.348 55.2436 239.279 55.0138 239.142 54.8295C239.005 54.6451 238.802 54.5523 238.533 54.5523ZM238.632 58C238.133 58 237.737 57.8228 237.441 57.4639C237.147 57.1076 237 56.6442 237 56.0743V55.9172C237 55.3688 237.152 54.9119 237.455 54.5465C237.759 54.1824 238.118 54 238.533 54C239.016 54 239.381 54.1577 239.628 54.4706C239.876 54.7834 240 55.202 240 55.7245V56.1626H237.676L237.666 56.1808C237.672 56.5501 237.759 56.8538 237.926 57.0914C238.095 57.3302 238.329 57.4483 238.632 57.4483C238.852 57.4483 239.047 57.4152 239.214 57.3477C239.38 57.2796 239.524 57.1868 239.645 57.0673L239.9 57.5243C239.773 57.6606 239.603 57.7741 239.394 57.865C239.184 57.9552 238.931 58 238.632 58Z" fill="#8C9196"/>
<path fill-rule="evenodd" clip-rule="evenodd" d="M242.899 54.7037L242.525 54.6819C242.332 54.6819 242.169 54.7269 242.037 54.8161C241.904 54.9061 241.803 55.0317 241.731 55.1938V58H241V54.0728H241.653L241.724 54.6455C241.837 54.4425 241.978 54.2837 242.144 54.1693C242.312 54.0562 242.504 54 242.722 54C242.776 54 242.828 54.0033 242.878 54.0119C242.927 54.0212 242.968 54.0298 243 54.0397L242.899 54.7037Z" fill="#8C9196"/>
<path fill-rule="evenodd" clip-rule="evenodd" d="M244.585 54.0728L244.631 54.5873C244.749 54.4015 244.898 54.2566 245.079 54.1534C245.259 54.0516 245.469 54 245.708 54C245.948 54 246.154 54.0595 246.326 54.1812C246.497 54.3022 246.626 54.4841 246.713 54.7255C246.826 54.5026 246.975 54.3261 247.162 54.1964C247.348 54.0642 247.565 54 247.812 54C248.179 54 248.468 54.1369 248.681 54.412C248.893 54.6865 249 55.0999 249 55.6515V58H248.345V55.6442C248.345 55.2573 248.284 54.9828 248.162 54.8214C248.04 54.6614 247.858 54.5807 247.617 54.5807C247.393 54.5807 247.212 54.6653 247.074 54.834C246.935 55.004 246.854 55.2176 246.829 55.4769V55.506V58H246.171V55.6442C246.171 55.2758 246.108 55.0073 245.983 54.836C245.858 54.6653 245.678 54.5807 245.443 54.5807C245.243 54.5807 245.079 54.6257 244.951 54.7149C244.822 54.8049 244.724 54.9299 244.655 55.0926V58H244V54.0728H244.585Z" fill="#8C9196"/>
<path fill-rule="evenodd" clip-rule="evenodd" d="M252.313 56.8999C252.313 56.7461 252.255 56.6176 252.141 56.5189C252.026 56.4196 251.808 56.3326 251.487 56.2593C251.029 56.1561 250.685 56.0191 250.452 55.8446C250.221 55.67 250.105 55.4318 250.105 55.1306C250.105 54.8178 250.235 54.5517 250.497 54.331C250.757 54.1103 251.096 54 251.514 54C251.954 54 252.303 54.1155 252.562 54.3453C252.821 54.5757 252.945 54.8567 252.934 55.1858L252.927 55.2079H252.272C252.272 55.0391 252.201 54.8866 252.064 54.7529C251.926 54.6192 251.742 54.5523 251.514 54.5523C251.27 54.5523 251.089 54.6068 250.971 54.7159C250.852 54.8262 250.793 54.9567 250.793 55.1118C250.793 55.2637 250.845 55.3837 250.95 55.472C251.055 55.559 251.268 55.6382 251.588 55.7063C252.064 55.8108 252.418 55.9529 252.651 56.1321C252.884 56.3112 253 56.552 253 56.8538C253 57.1958 252.865 57.4723 252.593 57.6839C252.323 57.8955 251.969 58 251.532 58C251.051 58 250.672 57.876 250.395 57.6275C250.119 57.3769 249.987 57.0862 250.001 56.7532L250.009 56.7324H250.663C250.676 56.9804 250.766 57.1621 250.936 57.277C251.106 57.3919 251.304 57.4483 251.532 57.4483C251.776 57.4483 251.967 57.3983 252.106 57.2971C252.244 57.1958 252.313 57.0641 252.313 56.8999Z" fill="#8C9196"/>
<path fill-rule="evenodd" clip-rule="evenodd" d="M53 38H54V29H53V38Z" fill="black"/>
<path fill-rule="evenodd" clip-rule="evenodd" d="M57 30.0745L55.7542 32H55L55.4666 30.0912V29H57V30.0745Z" fill="black"/>
<path fill-rule="evenodd" clip-rule="evenodd" d="M60.0527 31.1276L60.1357 32.0291C60.347 31.7036 60.6165 31.4498 60.9418 31.2703C61.2658 31.0894 61.645 31 62.075 31C62.5062 31 62.8767 31.1065 63.1865 31.317C63.4944 31.5287 63.7274 31.8476 63.8829 32.2698C64.0861 31.8812 64.3563 31.5721 64.6908 31.3433C65.0266 31.1144 65.4164 31 65.8637 31C66.5217 31 67.0428 31.2407 67.4263 31.7214C67.8092 32.2014 68 32.9241 68 33.8907V38H66.8222V33.8776C66.8222 33.2003 66.7113 32.7209 66.4926 32.4388C66.2739 32.156 65.9455 32.016 65.5105 32.016C65.1084 32.016 64.7813 32.1646 64.5316 32.4605C64.2838 32.7571 64.1357 33.1326 64.0929 33.5843V33.6363V38H62.9071V33.8776C62.9071 33.2338 62.7949 32.7623 62.5694 32.4638C62.3432 32.1652 62.0192 32.016 61.5973 32.016C61.2379 32.016 60.9418 32.0949 60.7107 32.2514C60.4796 32.4085 60.3024 32.6275 60.1772 32.9123V38H59V31.1276H60.0527Z" fill="black"/>
<path fill-rule="evenodd" clip-rule="evenodd" d="M74.202 31.1276L74.2982 32.1501C74.5444 31.7852 74.8521 31.5031 75.2236 31.3018C75.595 31.1006 76.0173 31 76.492 31C77.2894 31 77.9063 31.2177 78.3435 31.651C78.7807 32.0844 79 32.7558 79 33.6619V38H77.6537V33.6876C77.6537 33.0813 77.5249 32.6512 77.2674 32.3974C77.0106 32.1435 76.6173 32.016 76.0888 32.016C75.7018 32.016 75.3587 32.1021 75.0601 32.277C74.7623 32.4513 74.5232 32.6874 74.3456 32.9872V38H73V31.1276H74.202Z" fill="black"/>
<path fill-rule="evenodd" clip-rule="evenodd" d="M81.2199 34.5684C81.2199 35.2827 81.3699 35.8725 81.6686 36.3358C81.9686 36.8017 82.4128 37.034 83.0038 37.034C83.5853 37.034 84.0276 36.8017 84.3288 36.3358C84.6301 35.8725 84.7808 35.2827 84.7808 34.5684V34.4316C84.7808 33.7257 84.6282 33.1385 84.3256 32.67C84.0218 32.2009 83.5769 31.9666 82.991 31.9666C82.4083 31.9666 81.9686 32.2009 81.6686 32.67C81.3699 33.1385 81.2199 33.7257 81.2199 34.4316V34.5684ZM80 34.4348C80 33.4366 80.2686 32.6151 80.8051 31.9699C81.3417 31.3226 82.0705 31 82.991 31C83.9199 31 84.6532 31.322 85.1923 31.9666C85.7314 32.61 86 33.4334 86 34.4348V34.5716C86 35.577 85.7321 36.4004 85.1955 37.0398C84.659 37.6793 83.9276 38 83.0038 38C82.0782 38 81.3468 37.6787 80.8083 37.0366C80.2692 36.3952 80 35.5737 80 34.5716V34.4348Z" fill="black"/>
<path fill-rule="evenodd" clip-rule="evenodd" d="M89.5279 30V31.7225H90.9319V32.6856H89.5279V37.0206C89.5279 37.3553 89.5995 37.5903 89.7435 37.7262C89.8867 37.8628 90.0775 37.9304 90.3157 37.9304C90.3937 37.9304 90.4788 37.9215 90.5724 37.9045C90.666 37.8874 90.7497 37.8655 90.822 37.8382L91 38.7282C90.9 38.8081 90.7525 38.873 90.5582 38.9235C90.3647 38.974 90.1697 39 89.9725 39C89.4244 39 88.989 38.8402 88.6642 38.5219C88.3402 38.2022 88.1785 37.7023 88.1785 37.0206V32.6856H87V31.7225H88.1785V30H89.5279Z" fill="black"/>
<path fill-rule="evenodd" clip-rule="evenodd" d="M97.4859 36.9651C97.9588 36.9651 98.3857 36.8509 98.766 36.6231C99.1455 36.3947 99.3933 36.134 99.5086 35.8398V34.7468H98.0432C97.5175 34.7468 97.0961 34.87 96.7797 35.1191C96.464 35.3675 96.3061 35.6604 96.3061 35.9953C96.3061 36.294 96.4063 36.5295 96.6047 36.7038C96.8037 36.878 97.0975 36.9651 97.4859 36.9651ZM99.6548 37.8684C99.6102 37.6651 99.5758 37.4851 99.5511 37.329C99.5271 37.1735 99.5127 37.016 99.5086 36.8592C99.2649 37.1832 98.9485 37.4548 98.5573 37.6729C98.1654 37.8903 97.7447 38 97.2938 38C96.547 38 95.978 37.8193 95.5861 37.4612C95.1956 37.1012 95 36.605 95 35.974C95 35.3294 95.2773 34.8262 95.8325 34.4623C96.3864 34.099 97.1393 33.9164 98.0892 33.9164H99.5086V33.2505C99.5086 32.8557 99.3802 32.5427 99.1242 32.3117C98.8675 32.082 98.5051 31.9665 98.0364 31.9665C97.6163 31.9665 97.2752 32.0672 97.0124 32.2685C96.7495 32.4705 96.6177 32.7118 96.6177 32.995H95.3713L95.3583 32.957C95.3308 32.4672 95.5779 32.0175 96.0968 31.611C96.617 31.2039 97.2869 31 98.1091 31C98.9231 31 99.5765 31.1942 100.072 31.5826C100.567 31.9711 100.815 32.5318 100.815 33.2628V36.5102C100.815 36.7515 100.828 36.9831 100.854 37.2083C100.881 37.4322 100.929 37.6522 101 37.8684H99.6548Z" fill="black"/>
<path fill-rule="evenodd" clip-rule="evenodd" d="M108.85 32.2323L108.287 32.1942C107.998 32.1942 107.754 32.2731 107.555 32.4302C107.357 32.5861 107.204 32.8064 107.096 33.0905V38H106V31.1276H106.979L107.085 32.131C107.256 31.776 107.467 31.4978 107.717 31.2985C107.968 31.1 108.256 31 108.583 31C108.665 31 108.742 31.0079 108.816 31.0224C108.891 31.0381 108.952 31.0526 109 31.0704L108.85 32.2323Z" fill="black"/>
<path fill-rule="evenodd" clip-rule="evenodd" d="M111.22 34.5684C111.22 35.2827 111.37 35.8725 111.669 36.3358C111.968 36.8017 112.413 37.034 113.004 37.034C113.586 37.034 114.027 36.8017 114.328 36.3358C114.63 35.8725 114.78 35.2827 114.78 34.5684V34.4316C114.78 33.7257 114.628 33.1385 114.325 32.67C114.021 32.2009 113.577 31.9666 112.991 31.9666C112.409 31.9666 111.968 32.2009 111.669 32.67C111.37 33.1385 111.22 33.7257 111.22 34.4316V34.5684ZM110 34.4348C110 33.4366 110.269 32.6151 110.806 31.9699C111.342 31.3226 112.07 31 112.991 31C113.919 31 114.653 31.322 115.192 31.9666C115.731 32.61 116 33.4334 116 34.4348V34.5716C116 35.577 115.732 36.4004 115.195 37.0398C114.658 37.6793 113.928 38 113.004 38C112.079 38 111.347 37.6787 110.808 37.0366C110.27 36.3952 110 35.5737 110 34.5716V34.4348Z" fill="black"/>
<path fill-rule="evenodd" clip-rule="evenodd" d="M121.721 35.5717C121.721 34.788 121.573 34.1483 121.275 33.652C120.98 33.1564 120.528 32.9089 119.922 32.9089C119.528 32.9089 119.196 33.0031 118.925 33.1904C118.655 33.3777 118.439 33.6304 118.278 33.9466V36.9127C118.443 37.2499 118.659 37.5137 118.925 37.7036C119.192 37.8935 119.528 37.9871 119.935 37.9871C120.537 37.9871 120.984 37.7789 121.279 37.3618C121.573 36.9447 121.721 36.3921 121.721 35.7046V35.5717ZM123 35.7046C123 36.6914 122.757 37.4875 122.27 38.0919C121.782 38.6975 121.113 39 120.26 39C119.796 39 119.394 38.9129 119.052 38.7381C118.71 38.5626 118.425 38.3047 118.201 37.9629L118.045 38.8671H117V29H118.278V32.8336C118.499 32.5298 118.774 32.298 119.1 32.1376C119.427 31.9771 119.81 31.8973 120.246 31.8973C121.113 31.8973 121.788 32.2345 122.273 32.9089C122.757 33.5839 123 34.4704 123 35.5717V35.7046Z" fill="black"/>
<path fill-rule="evenodd" clip-rule="evenodd" d="M125.22 34.5684C125.22 35.2827 125.37 35.8725 125.669 36.3358C125.969 36.8017 126.413 37.034 127.004 37.034C127.585 37.034 128.028 36.8017 128.329 36.3358C128.63 35.8725 128.781 35.2827 128.781 34.5684V34.4316C128.781 33.7257 128.628 33.1385 128.326 32.67C128.022 32.2009 127.577 31.9666 126.991 31.9666C126.408 31.9666 125.969 32.2009 125.669 32.67C125.37 33.1385 125.22 33.7257 125.22 34.4316V34.5684ZM124 34.4348C124 33.4366 124.269 32.6151 124.805 31.9699C125.342 31.3226 126.071 31 126.991 31C127.92 31 128.653 31.322 129.192 31.9666C129.731 32.61 130 33.4334 130 34.4348V34.5716C130 35.577 129.732 36.4004 129.196 37.0398C128.659 37.6793 127.928 38 127.004 38C126.078 38 125.347 37.6787 124.808 37.0366C124.269 36.3952 124 35.5737 124 34.5716V34.4348Z" fill="black"/>
<path fill-rule="evenodd" clip-rule="evenodd" d="M133.528 30V31.7225H134.932V32.6856H133.528V37.0206C133.528 37.3553 133.6 37.5903 133.743 37.7262C133.887 37.8628 134.077 37.9304 134.316 37.9304C134.394 37.9304 134.479 37.9215 134.572 37.9045C134.665 37.8874 134.75 37.8655 134.822 37.8382L135 38.7282C134.9 38.8081 134.753 38.873 134.558 38.9235C134.365 38.974 134.169 39 133.973 39C133.424 39 132.988 38.8402 132.664 38.5219C132.339 38.2022 132.178 37.7023 132.178 37.0206V32.6856H131V31.7225H132.178V30H133.528Z" fill="black"/>
<path fill-rule="evenodd" clip-rule="evenodd" d="M40 43.7167C40 45.5304 38.5283 47 36.7127 47H18.288C16.4723 47 15 45.5304 15 43.7167V25.2839C15 23.4703 16.4723 22 18.288 22H36.7127C38.5283 22 40 23.4703 40 25.2839V43.7167Z" fill="white"/>
<path fill-rule="evenodd" clip-rule="evenodd" d="M40 43.7167C40 45.5304 38.5283 47 36.7127 47H18.288C16.4723 47 15 45.5304 15 43.7167V25.2839C15 23.4703 16.4723 22 18.288 22H36.7127C38.5283 22 40 23.4703 40 25.2839V43.7167Z" stroke="#CFCFCF" stroke-width="2.229"/>
<path fill-rule="evenodd" clip-rule="evenodd" d="M217 23H223.877C223.877 22.6581 223.92 22.3241 224 22H217.061C217.021 22.3293 217 22.6628 217 23Z" fill="#2387F5"/>
<path fill-rule="evenodd" clip-rule="evenodd" d="M230 10V16.9204C230.34 16.9204 230.673 16.9492 231 17V10.0412C230.669 10.0144 230.337 10 230 10Z" fill="#071EA0"/>
</g>
</svg>
