<svg width="52" height="52" viewBox="0 0 52 52" fill="none" xmlns="http://www.w3.org/2000/svg">
<g filter="url(#filter0_d_601_20824)">
<rect x="2" y="2" width="44" height="44" rx="8" fill="white"/>
<rect x="2.5" y="2.5" width="43" height="43" rx="7.5" stroke="#EDEDED"/>
</g>
<path d="M23.8 17.3H37.5C38.3284 17.3 39 17.9716 39 18.8V29.2C39 30.0285 38.3284 30.7 37.5 30.7H23.8V17.3Z" stroke="#FF5050"/>
<path d="M8 18.8C8 17.6955 8.89543 16.8 10 16.8H24.2V31.2H10C8.89543 31.2 8 30.3046 8 29.2V18.8Z" fill="#FF5050"/>
<mask id="mask0_601_20824" style="mask-type:alpha" maskUnits="userSpaceOnUse" x="10" y="18" width="12" height="12">
<rect x="10.7" y="18.6" width="10.8" height="10.8" fill="#D9D9D9"/>
</mask>
<g mask="url(#mask0_601_20824)">
<path d="M13.1978 21.1962C13.1309 21.1962 13.0742 21.1686 13.0277 21.1135C12.9813 21.0584 12.9713 20.9983 12.9979 20.9331C13.0487 20.7231 13.1526 20.55 13.3098 20.4139C13.4671 20.2777 13.6818 20.2096 13.9541 20.2096C14.1116 20.2096 14.2337 20.175 14.3202 20.1058C14.4067 20.0366 14.463 19.9434 14.4889 19.8263C14.5034 19.7819 14.5295 19.7452 14.5673 19.7164C14.605 19.6875 14.6479 19.6731 14.6958 19.6731C14.776 19.6731 14.838 19.7025 14.8818 19.7614C14.9257 19.8202 14.9352 19.8843 14.9104 19.9535C14.8538 20.1577 14.7455 20.3265 14.5854 20.4597C14.4253 20.593 14.2149 20.6596 13.9541 20.6596C13.8024 20.6596 13.6818 20.6918 13.5924 20.7561C13.503 20.8205 13.4453 20.9074 13.4193 21.017C13.3991 21.0747 13.3697 21.119 13.3311 21.1499C13.2924 21.1807 13.248 21.1962 13.1978 21.1962ZM13.3137 27.6C13.2093 27.6 13.1226 27.5656 13.0537 27.4966C12.9848 27.4277 12.9503 27.341 12.9503 27.2366V23.4851L12.258 24.0243C12.2049 24.0646 12.1501 24.0802 12.0936 24.071C12.037 24.0618 11.9885 24.0306 11.9482 23.9775C11.9078 23.9244 11.8908 23.8696 11.8971 23.8131C11.9035 23.7566 11.9323 23.7081 11.9837 23.6677L12.9503 22.92V21.9577C12.9503 21.8937 12.9718 21.8402 13.0148 21.7972C13.0577 21.7542 13.1112 21.7327 13.1753 21.7327C13.2393 21.7327 13.2928 21.7542 13.3358 21.7972C13.3788 21.8402 13.4003 21.8937 13.4003 21.9577V22.5713L15.8822 20.683C15.9139 20.6588 15.948 20.6402 15.9843 20.6272C16.0207 20.6142 16.0593 20.6077 16.1003 20.6077C16.1413 20.6077 16.1799 20.6142 16.2163 20.6272C16.2526 20.6402 16.2866 20.6588 16.3184 20.683L20.2169 23.6677C20.2683 23.7081 20.2971 23.7566 20.3035 23.8131C20.3098 23.8696 20.2928 23.9244 20.2524 23.9775C20.212 24.0289 20.1636 24.0592 20.107 24.0684C20.0505 24.0776 19.9965 24.062 19.9452 24.0217L19.2503 23.4851V27.2366C19.2503 27.341 19.2158 27.4277 19.1469 27.4966C19.0779 27.5656 18.9913 27.6 18.8868 27.6H16.7234V25.6269C16.7234 25.4533 16.6629 25.306 16.5421 25.1852C16.4212 25.0643 16.2739 25.0039 16.1003 25.0039C15.9266 25.0039 15.7794 25.0643 15.6585 25.1852C15.5376 25.306 15.4772 25.4533 15.4772 25.6269V27.6H13.3137Z" fill="white"/>
</g>
<mask id="mask1_601_20824" style="mask-type:alpha" maskUnits="userSpaceOnUse" x="26" y="18" width="11" height="12">
<rect x="26" y="18.6" width="10.8" height="10.8" fill="#D9D9D9"/>
</mask>
<g mask="url(#mask1_601_20824)">
<path d="M28.4977 21.1962C28.4308 21.1962 28.3741 21.1686 28.3277 21.1135C28.2812 21.0584 28.2713 20.9983 28.2978 20.9331C28.3486 20.7231 28.4526 20.55 28.6098 20.4139C28.767 20.2777 28.9818 20.2096 29.2541 20.2096C29.4116 20.2096 29.5336 20.175 29.6201 20.1058C29.7067 20.0366 29.7629 19.9434 29.7889 19.8263C29.8033 19.7819 29.8294 19.7452 29.8672 19.7164C29.905 19.6875 29.9478 19.6731 29.9957 19.6731C30.0759 19.6731 30.1379 19.7025 30.1817 19.7614C30.2256 19.8202 30.2351 19.8843 30.2103 19.9535C30.1538 20.1577 30.0454 20.3265 29.8854 20.4597C29.7253 20.593 29.5148 20.6596 29.2541 20.6596C29.1023 20.6596 28.9818 20.6918 28.8923 20.7561C28.8029 20.8205 28.7452 20.9074 28.7192 21.017C28.6991 21.0747 28.6696 21.119 28.631 21.1499C28.5923 21.1807 28.5479 21.1962 28.4977 21.1962ZM28.6137 27.6C28.5092 27.6 28.4226 27.5656 28.3536 27.4966C28.2847 27.4277 28.2502 27.341 28.2502 27.2366V23.4851L27.5579 24.0243C27.5048 24.0646 27.45 24.0802 27.3935 24.071C27.3369 24.0618 27.2885 24.0306 27.2481 23.9775C27.2077 23.9244 27.1907 23.8696 27.197 23.8131C27.2034 23.7566 27.2322 23.7081 27.2836 23.6677L28.2502 22.92V21.9577C28.2502 21.8937 28.2717 21.8402 28.3147 21.7972C28.3577 21.7542 28.4112 21.7327 28.4752 21.7327C28.5392 21.7327 28.5928 21.7542 28.6357 21.7972C28.6787 21.8402 28.7002 21.8937 28.7002 21.9577V22.5713L31.1821 20.683C31.2139 20.6588 31.2479 20.6402 31.2842 20.6272C31.3206 20.6142 31.3592 20.6077 31.4002 20.6077C31.4412 20.6077 31.4798 20.6142 31.5162 20.6272C31.5525 20.6402 31.5866 20.6588 31.6183 20.683L35.5168 23.6677C35.5682 23.7081 35.597 23.7566 35.6034 23.8131C35.6097 23.8696 35.5927 23.9244 35.5523 23.9775C35.5119 24.0289 35.4635 24.0592 35.4069 24.0684C35.3504 24.0776 35.2965 24.062 35.2451 24.0217L34.5502 23.4851V27.2366C34.5502 27.341 34.5157 27.4277 34.4468 27.4966C34.3779 27.5656 34.2912 27.6 34.1868 27.6H32.0233V25.6269C32.0233 25.4533 31.9629 25.306 31.842 25.1852C31.7211 25.0643 31.5739 25.0039 31.4002 25.0039C31.2266 25.0039 31.0793 25.0643 30.9584 25.1852C30.8376 25.306 30.7771 25.4533 30.7771 25.6269V27.6H28.6137Z" fill="#FF5050"/>
</g>
<line x1="23.8" y1="15.5" x2="23.8" y2="32.5" stroke="#FF5050" stroke-linecap="round" stroke-dasharray="3 3"/>
<defs>
<filter id="filter0_d_601_20824" x="0" y="0" width="52" height="52" filterUnits="userSpaceOnUse" color-interpolation-filters="sRGB">
<feFlood flood-opacity="0" result="BackgroundImageFix"/>
<feColorMatrix in="SourceAlpha" type="matrix" values="0 0 0 0 0 0 0 0 0 0 0 0 0 0 0 0 0 0 127 0" result="hardAlpha"/>
<feOffset dx="2" dy="2"/>
<feGaussianBlur stdDeviation="2"/>
<feComposite in2="hardAlpha" operator="out"/>
<feColorMatrix type="matrix" values="0 0 0 0 0 0 0 0 0 0 0 0 0 0 0 0 0 0 0.25 0"/>
<feBlend mode="normal" in2="BackgroundImageFix" result="effect1_dropShadow_601_20824"/>
<feBlend mode="normal" in="SourceGraphic" in2="effect1_dropShadow_601_20824" result="shape"/>
</filter>
</defs>
</svg>
