<svg width="20" height="20" viewBox="0 0 20 20" fill="none" xmlns="http://www.w3.org/2000/svg">
<mask id="mask0_945_36007" style="mask-type:alpha" maskUnits="userSpaceOnUse" x="0" y="0" width="20" height="20">
<rect width="20" height="20" fill="#D9D9D9"/>
</mask>
<g mask="url(#mask0_945_36007)">
<path d="M2.54175 15.8334C2.30564 15.8334 2.10078 15.7465 1.92716 15.5729C1.75355 15.3993 1.66675 15.1966 1.66675 14.9649V10.875C1.66675 10.5278 1.74314 10.1964 1.89591 9.88083C2.04869 9.56525 2.25008 9.28553 2.50008 9.04169V6.70835C2.50008 6.00234 2.74921 5.40222 3.24748 4.908C3.74574 4.41379 4.35078 4.16669 5.06258 4.16669H8.31258C8.6371 4.16669 8.94045 4.22571 9.22265 4.34377C9.50483 4.46183 9.76397 4.61808 10.0001 4.81252C10.2362 4.61808 10.5001 4.46183 10.7917 4.34377C11.0834 4.22571 11.389 4.16669 11.7084 4.16669H14.9167C15.6251 4.16669 16.2327 4.41379 16.7397 4.908C17.2466 5.40222 17.5001 6.00234 17.5001 6.70835V9.04169C17.7501 9.28553 17.9515 9.56525 18.1042 9.88083C18.257 10.1964 18.3334 10.5278 18.3334 10.875V14.9649C18.3334 15.1966 18.2466 15.3993 18.073 15.5729C17.8994 15.7465 17.6945 15.8334 17.4584 15.8334C17.2223 15.8334 17.0174 15.7465 16.8438 15.5729C16.6702 15.3993 16.5834 15.1945 16.5834 14.9584V14.2292H3.41675V14.9584C3.41675 15.1945 3.32994 15.3993 3.15633 15.5729C2.98272 15.7465 2.77786 15.8334 2.54175 15.8334ZM10.8751 8.31252H15.7501V6.71529C15.7501 6.48903 15.6702 6.29936 15.5105 6.14629C15.3508 5.99322 15.1529 5.91669 14.9167 5.91669H11.7084C11.4723 5.91669 11.2744 5.99322 11.1147 6.14629C10.9549 6.29936 10.8751 6.48903 10.8751 6.71529V8.31252ZM4.25008 8.31252H9.12508V6.71458C9.12508 6.48821 9.04706 6.29863 8.89102 6.14585C8.73498 5.99308 8.54162 5.91669 8.31096 5.91669H5.05442C4.82375 5.91669 4.63203 5.99322 4.47925 6.14629C4.32647 6.29936 4.25008 6.48903 4.25008 6.71529V8.31252ZM3.41675 12.4792H16.5834V10.875C16.5834 10.6448 16.5055 10.4518 16.3498 10.2961C16.1941 10.1404 16.0011 10.0625 15.7709 10.0625H4.24035C4.00701 10.0625 3.8114 10.1397 3.65354 10.2941C3.49568 10.4485 3.41675 10.6398 3.41675 10.8681V12.4792Z" fill="#202020"/>
</g>
</svg>
