<svg width="20" height="20" viewBox="0 0 20 20" fill="none" xmlns="http://www.w3.org/2000/svg">
<g id="shopping_bag">
<mask id="mask0_832_34571" style="mask-type:alpha" maskUnits="userSpaceOnUse" x="0" y="0" width="20" height="20">
<rect id="Bounding box" width="20" height="20" fill="#D9D9D9"/>
</mask>
<g mask="url(#mask0_832_34571)">
<path id="shopping_bag_2" d="M5.81121 17.5391C5.45902 17.5391 5.16268 17.4179 4.92221 17.1753C4.68175 16.9328 4.56152 16.6355 4.56152 16.2835V7.41224C4.56152 7.06441 4.68279 6.7685 4.92534 6.52453C5.16789 6.28057 5.46516 6.15859 5.81713 6.15859H7.25221V5.61691C7.25221 4.86477 7.49398 4.20251 7.97752 3.63013C8.46107 3.05776 9.07992 2.75074 9.83409 2.70907C10.6438 2.66741 11.3325 2.91623 11.9 3.45553C12.4676 3.99484 12.7514 4.65974 12.7514 5.45024V6.15859H14.1881C14.5362 6.15859 14.8322 6.28057 15.0761 6.52453C15.3201 6.7685 15.4421 7.06441 15.4421 7.41224V16.2835C15.4421 16.6355 15.32 16.9328 15.0759 17.1753C14.8317 17.4179 14.5356 17.5391 14.1876 17.5391H5.81121ZM5.81713 16.54H14.1865C14.2506 16.54 14.3093 16.5139 14.3628 16.4618C14.4162 16.4097 14.4429 16.3503 14.4429 16.2835V7.41418C14.4429 7.35008 14.4162 7.29132 14.3628 7.23788C14.3093 7.18447 14.2506 7.15776 14.1865 7.15776H12.7514V8.66018C12.7514 8.79841 12.7028 8.91591 12.6055 9.01266C12.5083 9.10939 12.3912 9.15776 12.2542 9.15776C12.1172 9.15776 11.9993 9.10939 11.9004 9.01266C11.8016 8.91591 11.7522 8.79841 11.7522 8.66018V7.15776H8.25138V8.66018C8.25138 8.79841 8.20276 8.91591 8.10552 9.01266C8.0083 9.10939 7.89119 9.15776 7.75419 9.15776C7.61718 9.15776 7.49926 9.10939 7.40044 9.01266C7.30162 8.91591 7.25221 8.79841 7.25221 8.66018V7.15776H5.81713C5.75035 7.15776 5.69091 7.18447 5.63882 7.23788C5.58673 7.29132 5.56069 7.35008 5.56069 7.41418V16.2835C5.56069 16.3503 5.58673 16.4097 5.63882 16.4618C5.69091 16.5139 5.75035 16.54 5.81713 16.54ZM8.25138 6.15859H11.7522V5.45024C11.7522 4.96509 11.582 4.55346 11.2415 4.21536C10.9011 3.87728 10.486 3.70824 9.99634 3.70824C9.50666 3.70824 9.09341 3.87789 8.75659 4.2172C8.41978 4.5565 8.25138 4.96752 8.25138 5.45024V6.15859Z" fill="#202020"/>
</g>
</g>
</svg>
