<svg width="20" height="20" viewBox="0 0 20 20" fill="none" xmlns="http://www.w3.org/2000/svg">
<mask id="mask0_1015_52160" style="mask-type:alpha" maskUnits="userSpaceOnUse" x="0" y="0" width="20" height="20">
<rect width="20" height="20" fill="#D9D9D9"/>
</mask>
<g mask="url(#mask0_1015_52160)">
<path d="M5.26971 14.8613C4.68024 14.8613 4.18318 14.6643 3.77854 14.2702C3.37389 13.8761 3.16462 13.3856 3.15073 12.7988H2.95521C2.53381 12.7988 2.19141 12.6514 1.92802 12.3566C1.66465 12.0617 1.53296 11.7073 1.53296 11.2932V5.92546C1.53296 5.59339 1.65119 5.30912 1.88765 5.07266C2.12412 4.83619 2.40839 4.71796 2.74046 4.71796H13.1595C13.3603 4.71796 13.5516 4.75623 13.7335 4.83279C13.9155 4.90933 14.0778 5.01689 14.2204 5.15546L17.9992 8.78844C18.148 8.93059 18.2638 9.09728 18.3468 9.2885C18.4297 9.47971 18.4712 9.68081 18.4712 9.89181V11.2932C18.4712 11.7073 18.3389 12.0617 18.0742 12.3566C17.8096 12.6514 17.4678 12.7988 17.0489 12.7988H16.9984C16.9845 13.3856 16.7746 13.8761 16.3686 14.2702C15.9627 14.6643 15.4649 14.8613 14.8755 14.8613C14.286 14.8613 13.7889 14.6643 13.3843 14.2702C12.9797 13.8761 12.7704 13.3856 12.7565 12.7988H7.39269C7.3788 13.3843 7.16886 13.8744 6.76288 14.2692C6.3569 14.6639 5.85918 14.8613 5.26971 14.8613ZM12.1138 8.62419H15.9608L13.2629 6.03925C13.2362 6.01787 13.2081 6.00051 13.1788 5.98716C13.1494 5.9738 13.1186 5.96712 13.0866 5.96712H12.1138V8.62419ZM7.44798 8.62419H10.8646V5.96712H7.44798V8.62419ZM2.78213 8.62419H6.19879V5.96712H2.78213V8.62419ZM5.267 13.7403C5.54097 13.7403 5.77411 13.646 5.96642 13.4574C6.15872 13.2688 6.25488 13.0365 6.25488 12.7607C6.25488 12.4848 6.16002 12.2514 5.97031 12.0604C5.78059 11.8695 5.54835 11.774 5.27358 11.774C4.99883 11.774 4.76597 11.8683 4.575 12.0569C4.38403 12.2455 4.28854 12.4778 4.28854 12.7536C4.28854 13.0295 4.38313 13.2629 4.57229 13.4539C4.76146 13.6448 4.99303 13.7403 5.267 13.7403ZM14.8728 13.7403C15.1467 13.7403 15.3799 13.646 15.5722 13.4574C15.7645 13.2688 15.8606 13.0365 15.8606 12.7607C15.8606 12.4848 15.7658 12.2514 15.5761 12.0604C15.3864 11.8695 15.1541 11.774 14.8794 11.774C14.6046 11.774 14.3717 11.8683 14.1808 12.0569C13.9898 12.2455 13.8943 12.4778 13.8943 12.7536C13.8943 13.0295 13.9889 13.2629 14.178 13.4539C14.3672 13.6448 14.5988 13.7403 14.8728 13.7403ZM3.03854 11.5497H3.56338C3.7322 11.2997 3.96517 11.0849 4.26229 10.9054C4.55942 10.7259 4.89522 10.6362 5.26971 10.6362C5.64419 10.6362 5.97599 10.7219 6.2651 10.8934C6.55422 11.0649 6.79253 11.2836 6.98004 11.5497H13.1772C13.3369 11.2997 13.5657 11.0849 13.8636 10.9054C14.1615 10.7259 14.4982 10.6362 14.8737 10.6362C15.2492 10.6362 15.5814 10.7219 15.8705 10.8934C16.1596 11.0649 16.398 11.2836 16.5858 11.5497H16.9656C17.0377 11.5497 17.0985 11.5256 17.1479 11.4775C17.1973 11.4295 17.222 11.368 17.222 11.2932V10.1298C17.222 10.055 17.2187 9.99891 17.212 9.96152C17.2053 9.92412 17.19 9.89473 17.1659 9.87335H2.78213V11.2932C2.78213 11.368 2.80617 11.4295 2.85425 11.4775C2.90232 11.5256 2.96375 11.5497 3.03854 11.5497Z" fill="#202020"/>
</g>
</svg>
