<svg width="48" height="48" viewBox="0 0 48 48" fill="none" xmlns="http://www.w3.org/2000/svg">
<g id="swipe">
<mask id="mask0_518_15668" style="mask-type:alpha" maskUnits="userSpaceOnUse" x="0" y="0" width="48" height="48">
<rect id="Bounding box" width="48" height="48" fill="#D9D9D9"/>
</mask>
<g mask="url(#mask0_518_15668)">
<path id="swipe_2" d="M23.5 44C22.7706 44 22.0716 43.8667 21.4029 43.6C20.7343 43.3333 20.1333 42.9333 19.6 42.4L10.1 32.9C9.83333 32.6333 9.68333 32.3167 9.65 31.95C9.61666 31.5833 9.7 31.25 9.9 30.95L9.95 30.9C10.3167 30.3667 10.7917 29.9917 11.375 29.775C11.9583 29.5583 12.5667 29.5333 13.2 29.7L18 31V14C18 13.575 18.1446 13.2188 18.4337 12.9313C18.7229 12.6438 19.0813 12.5 19.5087 12.5C19.9362 12.5 20.2917 12.6438 20.575 12.9313C20.8583 13.2188 21 13.575 21 14V33.05C21 33.55 20.8 33.95 20.4 34.25C20 34.55 19.5667 34.6333 19.1 34.5L14.8 33.35L21.7589 40.3089C21.9863 40.5363 22.2522 40.7083 22.5565 40.825C22.8609 40.9417 23.1754 41 23.5 41H32C33.4 41 34.5833 40.5167 35.55 39.55C36.5167 38.5833 37 37.4 37 36V27C37 26.575 37.1446 26.2188 37.4337 25.9312C37.7229 25.6437 38.0813 25.5 38.5087 25.5C38.9362 25.5 39.2917 25.6437 39.575 25.9312C39.8583 26.2188 40 26.575 40 27V36C40 38.2 39.2167 40.0833 37.65 41.65C36.0833 43.2167 34.2 44 32 44H23.5ZM25.8587 19.5C26.2862 19.5 26.6417 19.6437 26.925 19.9312C27.2083 20.2187 27.35 20.575 27.35 21V28C27.35 28.425 27.2054 28.7812 26.9162 29.0688C26.627 29.3563 26.2687 29.5 25.8412 29.5C25.4137 29.5 25.0583 29.3563 24.775 29.0688C24.4917 28.7812 24.35 28.425 24.35 28V21C24.35 20.575 24.4946 20.2187 24.7837 19.9312C25.0729 19.6437 25.4313 19.5 25.8587 19.5ZM32.1587 21.5C32.5862 21.5 32.9417 21.6437 33.225 21.9312C33.5083 22.2188 33.65 22.575 33.65 23V28C33.65 28.425 33.5054 28.7812 33.2162 29.0688C32.927 29.3563 32.5687 29.5 32.1412 29.5C31.7137 29.5 31.3583 29.3563 31.075 29.0688C30.7917 28.7812 30.65 28.425 30.65 28V23C30.65 22.575 30.7946 22.2188 31.0837 21.9312C31.3729 21.6437 31.7313 21.5 32.1587 21.5Z" fill="white"/>
<path id="height" d="M41 8C41 8.17936 40.971 8.34631 40.9129 8.50084C40.8548 8.6554 40.7551 8.80231 40.6137 8.94159L36.8237 12.6766C36.6049 12.8922 36.345 13 36.0439 13C35.7428 13 35.4751 12.8846 35.2409 12.6537C35.0221 12.4476 34.9127 12.1862 34.9127 11.8695C34.9127 11.5528 35.0221 11.2866 35.2409 11.071L37.2245 9.11617L13.7755 9.11617L15.7969 11.1082C16.006 11.3143 16.1106 11.5657 16.1106 11.8624C16.1106 12.1591 15.9934 12.4228 15.7591 12.6537C15.5404 12.8598 15.2703 12.9628 14.9489 12.9628C14.6275 12.9628 14.3574 12.855 14.1386 12.6394L10.3863 8.94159C10.2449 8.80232 10.1452 8.6554 10.0871 8.50084C10.029 8.34631 10 8.17936 10 8C10 7.82064 10.029 7.65369 10.0871 7.49916C10.1452 7.3446 10.2449 7.19768 10.3863 7.05841L14.1763 3.3234C14.3951 3.1078 14.655 3 14.9561 3C15.2572 3 15.5249 3.11544 15.7591 3.34632C15.9779 3.55237 16.0873 3.81376 16.0873 4.13049C16.0873 4.44722 15.9779 4.71339 15.7591 4.92899L13.7755 6.88383L37.2245 6.88383L35.2031 4.89178C34.994 4.68573 34.8894 4.43435 34.8894 4.13764C34.8894 3.84095 35.0066 3.57718 35.2409 3.34632C35.4596 3.14025 35.7297 3.03721 36.0511 3.03721C36.3725 3.03721 36.6426 3.14501 36.8614 3.36061L40.6137 7.05841C40.7551 7.19768 40.8548 7.3446 40.9129 7.49916C40.971 7.65369 41 7.82064 41 8Z" fill="white"/>
</g>
</g>
</svg>
