<svg width="20" height="20" viewBox="0 0 20 20" fill="none" xmlns="http://www.w3.org/2000/svg">
<g id="cottage">
<mask id="mask0_832_34514" style="mask-type:alpha" maskUnits="userSpaceOnUse" x="0" y="0" width="20" height="20">
<rect id="Bounding box" width="20" height="20" fill="#D9D9D9"/>
</mask>
<g mask="url(#mask0_832_34514)">
<path id="cottage_2" d="M4.20838 17.5002C3.97226 17.5002 3.7674 17.4134 3.59379 17.2397C3.42018 17.0661 3.33338 16.8613 3.33338 16.6252V9.79183L2.58338 10.3543C2.38893 10.5071 2.17365 10.5661 1.93754 10.5314C1.70143 10.4967 1.50699 10.3821 1.35421 10.1877C1.20143 9.99322 1.1424 9.77794 1.17713 9.54183C1.21185 9.30572 1.32643 9.11127 1.52088 8.9585L3.33338 7.5835V5.9585C3.33338 5.72239 3.42018 5.51752 3.59379 5.34391C3.7674 5.1703 3.97226 5.0835 4.20838 5.0835C4.44449 5.0835 4.64935 5.1703 4.82296 5.34391C4.99657 5.51752 5.08338 5.72239 5.08338 5.9585V6.25016L9.47921 2.896C9.56254 2.82655 9.64588 2.78141 9.72921 2.76058C9.81254 2.73975 9.90282 2.72933 10 2.72933C10.0973 2.72933 10.1875 2.73975 10.2709 2.76058C10.3542 2.78141 10.4375 2.82655 10.5209 2.896L18.4792 8.97933C18.6737 9.13211 18.7848 9.32308 18.8125 9.55225C18.8403 9.78141 18.7778 9.99322 18.625 10.1877C18.4723 10.3821 18.2813 10.4967 18.0521 10.5314C17.823 10.5661 17.6112 10.5071 17.4167 10.3543L16.6667 9.79183V16.6252C16.6667 16.8613 16.5799 17.0661 16.4063 17.2397C16.2327 17.4134 16.0278 17.5002 15.7917 17.5002H4.20838ZM5.08338 15.7502H9.12504V13.3335C9.12504 13.0974 9.21185 12.8925 9.38546 12.7189C9.55907 12.5453 9.76393 12.4585 10 12.4585C10.2362 12.4585 10.441 12.5453 10.6146 12.7189C10.7882 12.8925 10.875 13.0974 10.875 13.3335V15.7502H14.9167V8.4585L10 4.72933L5.08338 8.4585V15.7502ZM4.37504 4.25016C4.06949 4.25016 3.82643 4.12169 3.64588 3.86475C3.46532 3.6078 3.47226 3.31266 3.66671 2.97933C3.88893 2.59044 4.19449 2.27447 4.58338 2.03141C4.97226 1.78836 5.40282 1.66683 5.87504 1.66683C6.00004 1.66683 6.11463 1.64252 6.21879 1.59391C6.32296 1.5453 6.40976 1.47239 6.47921 1.37516C6.63199 1.18072 6.77088 1.04183 6.89588 0.958496C7.02088 0.875163 7.1806 0.833496 7.37504 0.833496C7.65282 0.833496 7.88199 0.958496 8.06254 1.2085C8.2431 1.4585 8.2431 1.76405 8.06254 2.12516C7.89588 2.47239 7.61463 2.77447 7.21879 3.03141C6.82296 3.28836 6.37504 3.41683 5.87504 3.41683C5.75004 3.41683 5.63546 3.44114 5.53129 3.48975C5.42713 3.53836 5.34032 3.61127 5.27088 3.7085C5.1181 3.90294 4.97921 4.04183 4.85421 4.12516C4.72921 4.2085 4.56949 4.25016 4.37504 4.25016Z" fill="#1C1B1F"/>
</g>
</g>
</svg>
