<svg width="20" height="20" viewBox="0 0 20 20" fill="none" xmlns="http://www.w3.org/2000/svg">
<mask id="mask0_1021_41884" style="mask-type:alpha" maskUnits="userSpaceOnUse" x="0" y="0" width="20" height="20">
<rect width="20" height="20" fill="#D9D9D9"/>
</mask>
<g mask="url(#mask0_1021_41884)">
<path d="M9.9956 13.9999C10.2069 13.9999 10.3854 13.9285 10.5312 13.7856C10.6771 13.6427 10.75 13.4656 10.75 13.2543C10.75 13.0431 10.6785 12.8645 10.5356 12.7187C10.3927 12.5729 10.2156 12.4999 10.0044 12.4999C9.79313 12.4999 9.61458 12.5714 9.46875 12.7143C9.32292 12.8572 9.25 13.0343 9.25 13.2455C9.25 13.4568 9.32145 13.6354 9.46435 13.7812C9.60727 13.927 9.78435 13.9999 9.9956 13.9999ZM9.25 10.9999H10.75V5.99994H9.25V10.9999ZM10.0058 17.9999C8.9047 17.9999 7.86806 17.7916 6.89583 17.3749C5.92361 16.9583 5.07292 16.3854 4.34375 15.6562C3.61458 14.927 3.04167 14.0766 2.625 13.105C2.20833 12.1333 2 11.0951 2 9.9904C2 8.88565 2.20833 7.85063 2.625 6.88536C3.04167 5.92008 3.61458 5.07286 4.34375 4.34369C5.07292 3.61452 5.92332 3.04161 6.89496 2.62494C7.86661 2.20827 8.90481 1.99994 10.0095 1.99994C11.1143 1.99994 12.1493 2.20827 13.1146 2.62494C14.0799 3.04161 14.9271 3.61452 15.6562 4.34369C16.3854 5.07286 16.9583 5.92163 17.375 6.89002C17.7917 7.85843 18 8.89315 18 9.99419C18 11.0952 17.7917 12.1319 17.375 13.1041C16.9583 14.0763 16.3854 14.927 15.6562 15.6562C14.9271 16.3854 14.0783 16.9583 13.1099 17.3749C12.1415 17.7916 11.1068 17.9999 10.0058 17.9999Z" fill="#F62529"/>
</g>
</svg>
