<svg width="68" height="68" viewBox="0 0 68 68" fill="none" xmlns="http://www.w3.org/2000/svg">
<path d="M29.0832 49.166L52.6665 25.5827L48.8332 21.8327L29.0832 41.5827L19.0832 31.5827L15.3332 35.3327L29.0832 49.166ZM33.9998 67.3327C29.4443 67.3327 25.1387 66.4577 21.0832 64.7077C17.0276 62.9577 13.4859 60.5688 10.4582 57.541C7.43039 54.5132 5.0415 50.9716 3.2915 46.916C1.5415 42.8605 0.666504 38.5549 0.666504 33.9993C0.666504 29.3882 1.5415 25.0549 3.2915 20.9993C5.0415 16.9438 7.43039 13.416 10.4582 10.416C13.4859 7.41602 17.0276 5.04102 21.0832 3.29102C25.1387 1.54102 29.4443 0.666016 33.9998 0.666016C38.6109 0.666016 42.9443 1.54102 46.9998 3.29102C51.0554 5.04102 54.5832 7.41602 57.5832 10.416C60.5832 13.416 62.9582 16.9438 64.7082 20.9993C66.4582 25.0549 67.3332 29.3882 67.3332 33.9993C67.3332 38.5549 66.4582 42.8605 64.7082 46.916C62.9582 50.9716 60.5832 54.5132 57.5832 57.541C54.5832 60.5688 51.0554 62.9577 46.9998 64.7077C42.9443 66.4577 38.6109 67.3327 33.9998 67.3327ZM33.9998 62.3327C41.8887 62.3327 48.5832 59.5688 54.0832 54.041C59.5832 48.5132 62.3332 41.8327 62.3332 33.9993C62.3332 26.1105 59.5832 19.416 54.0832 13.916C48.5832 8.41602 41.8887 5.66602 33.9998 5.66602C26.1665 5.66602 19.4859 8.41602 13.9582 13.916C8.43039 19.416 5.6665 26.1105 5.6665 33.9993C5.6665 41.8327 8.43039 48.5132 13.9582 54.041C19.4859 59.5688 26.1665 62.3327 33.9998 62.3327Z" fill="#44C177"/>
</svg>
