<svg width="24" height="24" viewBox="0 0 24 24" fill="none" xmlns="http://www.w3.org/2000/svg">
<mask id="mask0_472_17221" style="mask-type:alpha" maskUnits="userSpaceOnUse" x="0" y="0" width="24" height="24">
<rect width="24" height="24" fill="#D9D9D9"/>
</mask>
<g mask="url(#mask0_472_17221)">
<path d="M7.075 16.825C5.74008 16.825 4.60218 16.3548 3.6613 15.4142C2.72043 14.4737 2.25 13.3362 2.25 12.0017C2.25 10.6673 2.72043 9.52922 3.6613 8.58755C4.60218 7.64588 5.74008 7.17505 7.075 7.17505H10.0375C10.2958 7.17505 10.5167 7.26672 10.7 7.45005C10.8833 7.63338 10.975 7.85422 10.975 8.11255C10.975 8.37088 10.8833 8.59172 10.7 8.77505C10.5167 8.95838 10.2958 9.05005 10.0375 9.05005H7.08125C6.26007 9.05005 5.56207 9.33657 4.98725 9.9096C4.41242 10.4826 4.125 11.1785 4.125 11.9971C4.125 12.8157 4.41242 13.5125 4.98725 14.0875C5.56207 14.6625 6.26007 14.95 7.08125 14.95H10.0375C10.2958 14.95 10.5167 15.0417 10.7 15.225C10.8833 15.4084 10.975 15.6292 10.975 15.8875C10.975 16.1459 10.8833 16.3667 10.7 16.55C10.5167 16.7334 10.2958 16.825 10.0375 16.825H7.075ZM9.0375 12.925C8.77917 12.925 8.55833 12.8334 8.375 12.65C8.19167 12.4667 8.1 12.2459 8.1 11.9875C8.1 11.7292 8.19167 11.5084 8.375 11.325C8.55833 11.1417 8.77917 11.05 9.0375 11.05H14.9625C15.2208 11.05 15.4417 11.1417 15.625 11.325C15.8083 11.5084 15.9 11.7292 15.9 11.9875C15.9 12.2459 15.8083 12.4667 15.625 12.65C15.4417 12.8334 15.2208 12.925 14.9625 12.925H9.0375ZM13.9625 16.825C13.7042 16.825 13.4833 16.7334 13.3 16.55C13.1167 16.3667 13.025 16.1459 13.025 15.8875C13.025 15.6292 13.1167 15.4084 13.3 15.225C13.4833 15.0417 13.7042 14.95 13.9625 14.95H16.9187C17.7399 14.95 18.4379 14.6635 19.0128 14.0905C19.5876 13.5174 19.875 12.8216 19.875 12.003C19.875 11.1844 19.5876 10.4875 19.0128 9.91255C18.4379 9.33755 17.7399 9.05005 16.9187 9.05005H13.9625C13.7042 9.05005 13.4833 8.95838 13.3 8.77505C13.1167 8.59172 13.025 8.37088 13.025 8.11255C13.025 7.85422 13.1167 7.63338 13.3 7.45005C13.4833 7.26672 13.7042 7.17505 13.9625 7.17505H16.925C18.2599 7.17505 19.3978 7.64532 20.3387 8.58587C21.2796 9.52642 21.75 10.6639 21.75 11.9984C21.75 13.3328 21.2796 14.4709 20.3387 15.4125C19.3978 16.3542 18.2599 16.825 16.925 16.825H13.9625Z" fill="#1C1B1F"/>
</g>
</svg>
