<svg width="20" height="20" viewBox="0 0 20 20" fill="none" xmlns="http://www.w3.org/2000/svg">
<mask id="mask0_441_11849" style="mask-type:alpha" maskUnits="userSpaceOnUse" x="0" y="0" width="20" height="20">
<rect width="20" height="20" fill="#D9D9D9"/>
</mask>
<g mask="url(#mask0_441_11849)">
<path d="M2.5705 17.0473C2.423 17.0964 2.29264 17.0703 2.17944 16.9691C2.06624 16.8679 2.00964 16.73 2.00964 16.5553C2.00964 16.3901 2.06971 16.2279 2.18983 16.0688C2.30997 15.9097 2.47212 15.7839 2.67629 15.6915C2.93697 15.5665 3.19966 15.4346 3.46435 15.2957C3.72903 15.1568 4.1047 15.0873 4.59135 15.0873C5.26602 15.0873 5.75079 15.2234 6.04566 15.4956C6.34054 15.7678 6.75721 15.9038 7.29566 15.9038C7.82772 15.9038 8.23932 15.7678 8.53046 15.4956C8.82158 15.2234 9.30448 15.0873 9.97916 15.0873C10.6538 15.0873 11.1464 15.2234 11.4567 15.4956C11.7671 15.7678 12.1883 15.9038 12.7204 15.9038C13.2524 15.9038 13.6569 15.7678 13.9337 15.4956C14.2106 15.2234 14.6883 15.0873 15.367 15.0873C15.8536 15.0873 16.2293 15.1568 16.494 15.2957C16.7587 15.4346 17.0296 15.5665 17.3069 15.6915C17.5084 15.7877 17.6692 15.9153 17.7893 16.0745C17.9095 16.2337 17.9695 16.394 17.9695 16.5553C17.9695 16.73 17.9129 16.8679 17.7997 16.9691C17.6865 17.0703 17.5575 17.0964 17.4127 17.0473C17.0254 16.9388 16.695 16.7932 16.4215 16.6105C16.148 16.4278 15.7965 16.3365 15.367 16.3365C14.8627 16.3365 14.4702 16.4726 14.1895 16.7448C13.9088 17.0169 13.4191 17.153 12.7204 17.153C12.0216 17.153 11.5178 17.0169 11.2087 16.7448C10.8997 16.4726 10.4898 16.3365 9.97916 16.3365C9.46848 16.3365 9.06824 16.4726 8.77843 16.7448C8.48864 17.0169 7.99439 17.153 7.29566 17.153C6.59696 17.153 6.09992 17.0169 5.80456 16.7448C5.50921 16.4726 5.10144 16.3365 4.58123 16.3365C4.15848 16.3365 3.81382 16.4278 3.54727 16.6105C3.28071 16.7932 2.95512 16.9388 2.5705 17.0473ZM2.5705 13.3726C2.423 13.4217 2.29264 13.3957 2.17944 13.2944C2.06624 13.1932 2.00964 13.0553 2.00964 12.8806C2.00964 12.7154 2.06971 12.5532 2.18983 12.3941C2.30997 12.235 2.47212 12.1093 2.67629 12.0168C2.93697 11.9057 3.19966 11.7807 3.46435 11.6418C3.72903 11.5029 4.1047 11.4335 4.59135 11.4335C5.26602 11.4335 5.75063 11.5661 6.04519 11.8313C6.33974 12.0966 6.75438 12.2292 7.2891 12.2292C7.82553 12.2292 8.23932 12.0966 8.53046 11.8313C8.82158 11.5661 9.30448 11.4335 9.97916 11.4335C10.6538 11.4335 11.1386 11.5661 11.4335 11.8313C11.7284 12.0966 12.145 12.2292 12.6835 12.2292C13.2156 12.2292 13.6271 12.0966 13.9183 11.8313C14.2094 11.5661 14.6923 11.4335 15.367 11.4335C15.8536 11.4335 16.2328 11.5064 16.5044 11.6522C16.776 11.7981 17.0435 11.9265 17.3069 12.0376C17.5084 12.1306 17.6692 12.254 17.7893 12.4078C17.9095 12.5617 17.9695 12.7193 17.9695 12.8806C17.9695 13.0553 17.9129 13.1932 17.7997 13.2944C17.6865 13.3957 17.5575 13.4217 17.4127 13.3726C17.0254 13.2641 16.695 13.122 16.4215 12.9463C16.148 12.7705 15.7997 12.6827 15.3768 12.6827C14.8563 12.6827 14.453 12.8153 14.167 13.0805C13.881 13.3457 13.3918 13.4783 12.6995 13.4783C11.9795 13.4783 11.4738 13.3457 11.1824 13.0805C10.8909 12.8153 10.4898 12.6827 9.97916 12.6827C9.49039 12.6827 9.09402 12.8153 8.79006 13.0805C8.4861 13.3457 7.98797 13.4783 7.29566 13.4783C6.60336 13.4783 6.10723 13.3457 5.80729 13.0805C5.50735 12.8153 5.10203 12.6827 4.59135 12.6827C4.16185 12.6827 3.81382 12.7705 3.54727 12.9463C3.28071 13.122 2.95512 13.2641 2.5705 13.3726ZM7.28766 9.82048C7.05037 9.82048 6.84389 9.76866 6.66821 9.66502C6.49251 9.5614 6.33469 9.45483 6.19473 9.34533L8.82294 6.71712L7.77725 5.67144C7.41293 5.30978 7.04171 5.0437 6.6636 4.87319C6.28549 4.70266 5.83886 4.58599 5.32371 4.52319C5.1201 4.49916 4.95141 4.41196 4.81764 4.26158C4.68388 4.11121 4.617 3.93346 4.617 3.72833C4.617 3.49403 4.69846 3.29683 4.86139 3.13675C5.02431 2.97667 5.22142 2.90784 5.45273 2.93027C6.15452 2.99258 6.76039 3.13715 7.27033 3.36398C7.78026 3.59081 8.28487 3.9537 8.78416 4.45265L13.7636 9.42867C13.6236 9.53817 13.4707 9.63084 13.3049 9.70669C13.139 9.78255 12.9346 9.82048 12.6915 9.82048C12.2647 9.82048 11.8886 9.68506 11.5633 9.41423C11.238 9.1434 10.7099 9.00798 9.97916 9.00798C9.2484 9.00798 8.72223 9.1434 8.40064 9.41423C8.07906 9.68506 7.70807 9.82048 7.28766 9.82048ZM13.7372 6.65142C13.2174 6.65142 12.7754 6.46926 12.4111 6.10494C12.0467 5.74063 11.8646 5.2986 11.8646 4.77883C11.8646 4.24946 12.0467 3.80501 12.4111 3.4455C12.7754 3.086 13.2174 2.90625 13.7372 2.90625C14.2569 2.90625 14.699 3.086 15.0633 3.4455C15.4276 3.80501 15.6097 4.24946 15.6097 4.77883C15.6097 5.2986 15.4276 5.74063 15.0633 6.10494C14.699 6.46926 14.2569 6.65142 13.7372 6.65142Z" fill="#202020"/>
</g>
</svg>
