<svg width="48" height="48" viewBox="0 0 48 48" fill="none" xmlns="http://www.w3.org/2000/svg">
<g clip-path="url(#clip0_886_45036)">
<path d="M24.4632 32.7653C31.7731 32.6381 37.5975 26.505 37.4725 19.0666C37.3475 11.6283 31.3203 5.70146 24.0104 5.82869C16.7005 5.95593 10.876 12.089 11.0011 19.5274C11.1261 26.9657 17.1533 32.8926 24.4632 32.7653Z" fill="#FFF6CC"/>
<path d="M34.6876 44.0999V31.4477L22.2538 18.7954L9.82007 31.4477V44.0999H34.6876Z" fill="white"/>
<path d="M1.97998 8.61771H4.69654C5.1493 7.96491 6.08912 7.27948 7.21416 7.41004C7.70808 6.6071 8.60674 6 9.65632 6C11.2135 6 12.4758 7.31212 12.4895 8.61771H19.13" stroke="#BCC0C4" stroke-width="2" stroke-miterlimit="10" stroke-linecap="round"/>
<path d="M12.5349 13.5601C11.9826 13.5601 11.5349 14.0078 11.5349 14.5601V22.2857L15.8224 17.9229V14.5601C15.8224 14.0078 15.3747 13.5601 14.8224 13.5601H12.5349Z" fill="white" stroke="#705F5E" stroke-width="2" stroke-miterlimit="10"/>
<path d="M9.82007 44.0999V31.0114" stroke="#705F5E" stroke-width="2" stroke-miterlimit="10"/>
<path d="M22.2536 11.8148L5.24789 28.691C4.45962 29.4733 4.45962 30.748 5.24789 31.5302L5.95402 32.231C6.73381 33.0048 7.99182 33.0048 8.77161 32.231L22.2536 18.8517L35.7357 32.231C36.5154 33.0048 37.7734 33.0048 38.5532 32.231L39.2594 31.5302C40.0476 30.748 40.0476 29.4733 39.2594 28.691L22.2536 11.8148Z" fill="#FDD400" stroke="#705F5E" stroke-width="2" stroke-linejoin="round"/>
<path d="M18.1099 34.5017H16.1074C15.0029 34.5017 14.1074 35.3971 14.1074 36.5017V44.1H20.1099V36.5017C20.1099 35.3971 19.2145 34.5017 18.1099 34.5017Z" stroke="#705F5E" stroke-width="2" stroke-miterlimit="10"/>
<path d="M5.53247 45.0999H38.1175" stroke="#705F5E" stroke-width="2" stroke-miterlimit="10" stroke-linecap="round"/>
<path d="M22.2539 29.2663C23.4378 29.2663 24.3976 28.2896 24.3976 27.0849C24.3976 25.8801 23.4378 24.9034 22.2539 24.9034C21.0699 24.9034 20.1101 25.8801 20.1101 27.0849C20.1101 28.2896 21.0699 29.2663 22.2539 29.2663Z" stroke="#705F5E" stroke-width="2" stroke-miterlimit="10" stroke-linecap="round"/>
<path d="M45.835 14.4252H41.8773C41.5786 13.6873 40.8726 13.0748 40.0579 13.0748C39.8 13.0748 39.5488 13.1117 39.3248 13.2076C38.8699 11.8868 37.6955 10.9423 36.3174 10.9423C34.5456 10.9423 33.1065 12.9567 33.1065 14.4325H29.5425" stroke="#BCC0C4" stroke-width="2" stroke-miterlimit="10" stroke-linecap="round"/>
<path d="M34.6875 31.0114V44.0999" stroke="#705F5E" stroke-width="2" stroke-miterlimit="10" stroke-linecap="round"/>
</g>
<defs>
<clipPath id="clip0_886_45036">
<rect width="46.06" height="41" fill="white" transform="translate(1 5)"/>
</clipPath>
</defs>
</svg>
