<svg width="20" height="20" viewBox="0 0 20 20" fill="none" xmlns="http://www.w3.org/2000/svg">
<mask id="mask0_2273_17424" style="mask-type:alpha" maskUnits="userSpaceOnUse" x="0" y="0" width="20" height="20">
<rect width="20" height="20" fill="#D9D9D9"/>
</mask>
<g mask="url(#mask0_2273_17424)">
<path d="M9.99996 13.3333C11.0416 13.3333 11.927 12.9687 12.6562 12.2395C13.3854 11.5103 13.75 10.6249 13.75 9.58325C13.75 8.54158 13.3854 7.65617 12.6562 6.927C11.927 6.19784 11.0416 5.83325 9.99996 5.83325C8.95829 5.83325 8.07288 6.19784 7.34371 6.927C6.61454 7.65617 6.24996 8.54158 6.24996 9.58325C6.24996 10.6249 6.61454 11.5103 7.34371 12.2395C8.07288 12.9687 8.95829 13.3333 9.99996 13.3333ZM9.99996 11.8333C9.37496 11.8333 8.84371 11.6145 8.40621 11.177C7.96871 10.7395 7.74996 10.2083 7.74996 9.58325C7.74996 8.95825 7.96871 8.427 8.40621 7.9895C8.84371 7.552 9.37496 7.33325 9.99996 7.33325C10.625 7.33325 11.1562 7.552 11.5937 7.9895C12.0312 8.427 12.25 8.95825 12.25 9.58325C12.25 10.2083 12.0312 10.7395 11.5937 11.177C11.1562 11.6145 10.625 11.8333 9.99996 11.8333ZM9.99996 15.8333C8.0694 15.8333 6.30551 15.3228 4.70829 14.302C3.11107 13.2812 1.90274 11.9027 1.08329 10.1666C1.04163 10.0971 1.01385 10.0103 0.999959 9.90617C0.98607 9.802 0.979126 9.69436 0.979126 9.58325C0.979126 9.47214 0.98607 9.3645 0.999959 9.26034C1.01385 9.15617 1.04163 9.06936 1.08329 8.99992C1.90274 7.26381 3.11107 5.88534 4.70829 4.8645C6.30551 3.84367 8.0694 3.33325 9.99996 3.33325C11.9305 3.33325 13.6944 3.84367 15.2916 4.8645C16.8888 5.88534 18.0972 7.26381 18.9166 8.99992C18.9583 9.06936 18.9861 9.15617 19 9.26034C19.0138 9.3645 19.0208 9.47214 19.0208 9.58325C19.0208 9.69436 19.0138 9.802 19 9.90617C18.9861 10.0103 18.9583 10.0971 18.9166 10.1666C18.0972 11.9027 16.8888 13.2812 15.2916 14.302C13.6944 15.3228 11.9305 15.8333 9.99996 15.8333ZM9.99996 14.1666C11.5694 14.1666 13.0104 13.7534 14.3229 12.927C15.6354 12.1006 16.6388 10.986 17.3333 9.58325C16.6388 8.18047 15.6354 7.06589 14.3229 6.2395C13.0104 5.41311 11.5694 4.99992 9.99996 4.99992C8.43051 4.99992 6.98954 5.41311 5.67704 6.2395C4.36454 7.06589 3.36107 8.18047 2.66663 9.58325C3.36107 10.986 4.36454 12.1006 5.67704 12.927C6.98954 13.7534 8.43051 14.1666 9.99996 14.1666Z" fill="white"/>
</g>
</svg>
