<svg width="80" height="46" viewBox="0 0 80 46" fill="none" xmlns="http://www.w3.org/2000/svg">
<g id="compare">
<g id="icon">
<path id="Rectangle 19" d="M39.3572 5.10352H78C78.8285 5.10352 79.5 5.77509 79.5 6.60352V39.4035C79.5 40.232 78.8285 40.9035 78 40.9035H39.3572V5.10352Z" stroke="#FF5050"/>
<path id="Rectangle 18" d="M0 6.60351C0 5.49894 0.89543 4.60352 2 4.60352H41.1429V41.4035H2C0.895433 41.4035 0 40.5081 0 39.4035V6.60351Z" fill="#FF5050"/>
<g id="cottage">
<mask id="mask0_480_11998" style="mask-type:alpha" maskUnits="userSpaceOnUse" x="6" y="9" width="29" height="28">
<rect id="Bounding box" x="6.85867" y="9.19727" width="27.4286" height="27.6" fill="#D9D9D9"/>
</mask>
<g mask="url(#mask0_480_11998)">
<path id="cottage_2" d="M13.2021 15.8337C13.0321 15.8337 12.8882 15.7633 12.7702 15.6225C12.6523 15.4817 12.627 15.328 12.6944 15.1614C12.8234 14.6247 13.0874 14.1824 13.4867 13.8345C13.886 13.4865 14.4314 13.3126 15.123 13.3126C15.523 13.3126 15.8329 13.2241 16.0526 13.0472C16.2724 12.8703 16.4153 12.6322 16.4812 12.3329C16.5178 12.2193 16.5842 12.1257 16.6801 12.052C16.7761 11.9783 16.8849 11.9414 17.0065 11.9414C17.2102 11.9414 17.3677 12.0166 17.479 12.167C17.5904 12.3174 17.6146 12.481 17.5516 12.658C17.408 13.1799 17.1329 13.6111 16.7263 13.9517C16.3197 14.2923 15.7853 14.4626 15.123 14.4626C14.7376 14.4626 14.4314 14.5448 14.2043 14.7092C13.9772 14.8736 13.8307 15.0958 13.7647 15.3759C13.7135 15.5234 13.6387 15.6365 13.5406 15.7154C13.4424 15.7943 13.3296 15.8337 13.2021 15.8337ZM13.4966 32.1991C13.2314 32.1991 13.0112 32.111 12.8362 31.9349C12.6611 31.7587 12.5735 31.5372 12.5735 31.2703V21.6833L10.8153 23.061C10.6805 23.1643 10.5413 23.2041 10.3977 23.1805C10.2541 23.1569 10.131 23.0773 10.0285 22.9416C9.9259 22.806 9.88268 22.6659 9.89879 22.5214C9.9149 22.3769 9.98817 22.2531 10.1186 22.1499L12.5735 20.2391V17.7799C12.5735 17.6162 12.6281 17.4795 12.7373 17.3696C12.8464 17.2598 12.9823 17.2049 13.145 17.2049C13.3076 17.2049 13.4435 17.2598 13.5526 17.3696C13.6618 17.4795 13.7164 17.6162 13.7164 17.7799V19.3479L20.0197 14.5223C20.1003 14.4604 20.1867 14.4128 20.279 14.3796C20.3713 14.3465 20.4695 14.3299 20.5735 14.3299C20.6776 14.3299 20.7757 14.3465 20.868 14.3796C20.9604 14.4128 21.0468 14.4604 21.1274 14.5223L31.0285 22.1499C31.1589 22.2531 31.2322 22.3769 31.2483 22.5214C31.2644 22.6659 31.2212 22.806 31.1186 22.9416C31.016 23.0728 30.893 23.1502 30.7494 23.1738C30.6058 23.1974 30.4688 23.1576 30.3384 23.0544L28.5735 21.6833V31.2703C28.5735 31.5372 28.486 31.7587 28.3109 31.9349C28.1358 32.111 27.9157 32.1991 27.6505 32.1991H22.156V27.1568C22.156 26.713 22.0025 26.3367 21.6955 26.0278C21.3886 25.7189 21.0146 25.5645 20.5735 25.5645C20.1325 25.5645 19.7585 25.7189 19.4516 26.0278C19.1446 26.3367 18.9911 26.713 18.9911 27.1568V32.1991H13.4966Z" fill="white"/>
</g>
</g>
<g id="cottage_3">
<mask id="mask1_480_11998" style="mask-type:alpha" maskUnits="userSpaceOnUse" x="45" y="9" width="29" height="28">
<rect id="Bounding box_2" x="45.7142" y="9.19727" width="27.4286" height="27.6" fill="#D9D9D9"/>
</mask>
<g mask="url(#mask1_480_11998)">
<path id="cottage_4" d="M52.0587 15.8337C51.8887 15.8337 51.7447 15.7633 51.6268 15.6225C51.5088 15.4817 51.4836 15.328 51.551 15.1614C51.6799 14.6247 51.944 14.1824 52.3433 13.8345C52.7425 13.4865 53.288 13.3126 53.9796 13.3126C54.3796 13.3126 54.6894 13.2241 54.9092 13.0472C55.129 12.8703 55.2719 12.6322 55.3378 12.3329C55.3744 12.2193 55.4407 12.1257 55.5367 12.052C55.6327 11.9783 55.7415 11.9414 55.8631 11.9414C56.0667 11.9414 56.2242 12.0166 56.3356 12.167C56.447 12.3174 56.4711 12.481 56.4081 12.658C56.2645 13.1799 55.9894 13.6111 55.5828 13.9517C55.1763 14.2923 54.6418 14.4626 53.9796 14.4626C53.5942 14.4626 53.288 14.5448 53.0609 14.7092C52.8338 14.8736 52.6872 15.0958 52.6213 15.3759C52.57 15.5234 52.4953 15.6365 52.3971 15.7154C52.299 15.7943 52.1861 15.8337 52.0587 15.8337ZM52.3532 32.1991C52.088 32.1991 51.8678 32.111 51.6927 31.9349C51.5176 31.7587 51.4301 31.5372 51.4301 31.2703V21.6833L49.6718 23.061C49.537 23.1643 49.3979 23.2041 49.2543 23.1805C49.1107 23.1569 48.9876 23.0773 48.885 22.9416C48.7825 22.806 48.7392 22.6659 48.7554 22.5214C48.7715 22.3769 48.8447 22.2531 48.9752 22.1499L51.4301 20.2391V17.7799C51.4301 17.6162 51.4847 17.4795 51.5938 17.3696C51.703 17.2598 51.8389 17.2049 52.0015 17.2049C52.1642 17.2049 52.3001 17.2598 52.4092 17.3696C52.5184 17.4795 52.573 17.6162 52.573 17.7799V19.3479L58.8762 14.5223C58.9568 14.4604 59.0433 14.4128 59.1356 14.3796C59.2279 14.3465 59.3261 14.3299 59.4301 14.3299C59.5341 14.3299 59.6323 14.3465 59.7246 14.3796C59.8169 14.4128 59.9034 14.4604 59.984 14.5223L69.885 22.1499C70.0155 22.2531 70.0887 22.3769 70.1048 22.5214C70.121 22.6659 70.0777 22.806 69.9752 22.9416C69.8726 23.0728 69.7495 23.1502 69.6059 23.1738C69.4623 23.1974 69.3253 23.1576 69.1949 23.0544L67.4301 21.6833V31.2703C67.4301 31.5372 67.3426 31.7587 67.1675 31.9349C66.9924 32.111 66.7722 32.1991 66.507 32.1991H61.0125V27.1568C61.0125 26.713 60.859 26.3367 60.5521 26.0278C60.2451 25.7189 59.8711 25.5645 59.4301 25.5645C58.9891 25.5645 58.6151 25.7189 58.3081 26.0278C58.0012 26.3367 57.8477 26.713 57.8477 27.1568V32.1991H52.3532Z" fill="#FF5050"/>
</g>
</g>
<line id="Line 19" x1="39.3572" y1="0.5" x2="39.3572" y2="45.5" stroke="#FF5050" stroke-linecap="round" stroke-dasharray="3 3"/>
</g>
</g>
</svg>
