<svg width="48" height="48" viewBox="0 0 48 48" fill="none" xmlns="http://www.w3.org/2000/svg">
<g clip-path="url(#clip0_888_45183)">
<path d="M47.373 18.694C47.373 8.93617 39.4853 1.01096 29.7555 0.992548C20.0256 0.974136 12.1379 8.86949 12.1379 18.6273C12.1379 28.3851 20.0256 36.3103 29.7555 36.3287C39.4853 36.3472 47.373 28.4518 47.373 18.694Z" fill="#FFF6CC"/>
<rect x="11" y="5" width="20.5225" height="32.7252" fill="#FFD400"/>
<rect x="30.0007" y="11" width="13" height="7" fill="#BCC0C4"/>
<rect x="30.0007" y="18" width="13" height="20" fill="white"/>
<path d="M14.2871 18.1981H10.3757V34.8395C10.3757 36.2333 11.4984 37.3605 12.8867 37.3605H30.7534V34.2092" stroke="#705F5E" stroke-width="2" stroke-linecap="round" stroke-linejoin="round"/>
<path d="M30.753 21.7494V18.1981H20.8901" stroke="#705F5E" stroke-width="2" stroke-linecap="round" stroke-linejoin="round"/>
<path d="M30.7534 37.3605H41.1716C42.5599 37.3605 43.6826 36.2333 43.6826 34.8395V18.1981H40.0972" stroke="#705F5E" stroke-width="2" stroke-linecap="round" stroke-linejoin="round"/>
<path d="M10.3757 18.1981V6.84124C10.3757 5.44739 11.4984 4.32019 12.8867 4.32019H28.2424C29.6307 4.32019 30.7534 5.44739 30.7534 6.84124V18.1981H34.3388" stroke="#705F5E" stroke-width="2" stroke-linecap="round" stroke-linejoin="round"/>
<path d="M30.7534 10.9016H41.1716C42.5599 10.9016 43.6826 12.0288 43.6826 13.4227V18.1981" stroke="#705F5E" stroke-width="2" stroke-linecap="round" stroke-linejoin="round"/>
<path d="M12 29.4961L13.3203 29H14.1445V34.7266H13.0352V30.1094L12.2578 30.2617L12 29.4961Z" fill="#6E5E5E"/>
<path d="M16.1836 33.8555L16.9258 33.2148C16.9909 33.3112 17.0599 33.3971 17.1328 33.4727C17.2057 33.5456 17.2852 33.6081 17.3711 33.6602C17.4596 33.7096 17.556 33.7487 17.6602 33.7773C17.7669 33.8034 17.8854 33.8164 18.0156 33.8164C18.1432 33.8164 18.2591 33.7956 18.3633 33.7539C18.4701 33.7096 18.5599 33.6484 18.6328 33.5703C18.7083 33.4896 18.7669 33.3932 18.8086 33.2812C18.8503 33.1693 18.8711 33.043 18.8711 32.9023C18.8711 32.7721 18.8542 32.6523 18.8203 32.543C18.7865 32.431 18.7357 32.3346 18.668 32.2539C18.6029 32.1706 18.5221 32.1068 18.4258 32.0625C18.3294 32.0156 18.2188 31.9922 18.0938 31.9922C17.9141 31.9922 17.7617 32.0234 17.6367 32.0859C17.5117 32.1484 17.4049 32.2201 17.3164 32.3008L16.5977 31.9258L16.7422 29.0703H19.7734V30.0859H17.6719L17.6289 31.2695L17.6367 31.2773C17.7331 31.2253 17.849 31.1823 17.9844 31.1484C18.1198 31.112 18.2839 31.0938 18.4766 31.0938C18.6745 31.0938 18.8672 31.1315 19.0547 31.207C19.2422 31.2799 19.4089 31.3919 19.5547 31.543C19.7005 31.694 19.8177 31.8841 19.9062 32.1133C19.9948 32.3398 20.0391 32.6055 20.0391 32.9102C20.0391 33.1992 19.9909 33.4622 19.8945 33.6992C19.8008 33.9336 19.668 34.1341 19.4961 34.3008C19.3268 34.4674 19.1237 34.5964 18.8867 34.6875C18.6497 34.7786 18.3906 34.8242 18.1094 34.8242C17.6745 34.8242 17.3008 34.7448 16.9883 34.5859C16.6758 34.4245 16.4076 34.181 16.1836 33.8555Z" fill="#6E5E5E"/>
<path d="M37 33.2266C37 33.0521 37.026 32.8919 37.0781 32.7461C37.1302 32.5977 37.1966 32.4648 37.2773 32.3477C37.3607 32.2279 37.4544 32.1237 37.5586 32.0352C37.6628 31.9466 37.7656 31.8737 37.8672 31.8164C37.776 31.7539 37.6875 31.6836 37.6016 31.6055C37.5182 31.5273 37.4427 31.4375 37.375 31.3359C37.3099 31.2344 37.2578 31.1198 37.2188 30.9922C37.1797 30.8646 37.1602 30.7188 37.1602 30.5547C37.1602 30.3646 37.1992 30.1771 37.2773 29.9922C37.3581 29.8047 37.4753 29.638 37.6289 29.4922C37.7852 29.3464 37.9779 29.2279 38.207 29.1367C38.4362 29.0456 38.7005 29 39 29C39.2292 29 39.4518 29.0299 39.668 29.0898C39.8867 29.1497 40.0807 29.2435 40.25 29.3711C40.4193 29.4961 40.556 29.6562 40.6602 29.8516C40.7643 30.0469 40.8164 30.2812 40.8164 30.5547C40.8164 30.7109 40.7917 30.8555 40.7422 30.9883C40.6953 31.1185 40.6367 31.2357 40.5664 31.3398C40.4961 31.444 40.4219 31.5352 40.3438 31.6133C40.2656 31.6914 40.1966 31.7565 40.1367 31.8086C40.2279 31.8555 40.3229 31.9206 40.4219 32.0039C40.5234 32.0846 40.6159 32.1797 40.6992 32.2891C40.7826 32.3984 40.8503 32.5221 40.9023 32.6602C40.957 32.7982 40.9844 32.9466 40.9844 33.1055C40.9844 33.3268 40.9557 33.5247 40.8984 33.6992C40.8438 33.8737 40.7682 34.0273 40.6719 34.1602C40.5755 34.2904 40.4622 34.401 40.332 34.4922C40.2018 34.5833 40.0625 34.6576 39.9141 34.7148C39.7682 34.7695 39.6159 34.8099 39.457 34.8359C39.2982 34.862 39.1432 34.875 38.9922 34.875C38.7552 34.875 38.5182 34.8464 38.2812 34.7891C38.0443 34.7344 37.8307 34.6432 37.6406 34.5156C37.4505 34.3854 37.2956 34.2148 37.1758 34.0039C37.0586 33.793 37 33.5339 37 33.2266ZM38.1797 33.1367C38.1797 33.3867 38.2513 33.5781 38.3945 33.7109C38.5404 33.8411 38.7396 33.9062 38.9922 33.9062C39.2448 33.9062 39.444 33.8398 39.5898 33.707C39.7357 33.5742 39.8086 33.3815 39.8086 33.1289C39.8086 32.9961 39.7826 32.8763 39.7305 32.7695C39.6784 32.6602 39.6081 32.5677 39.5195 32.4922C39.4336 32.4167 39.3333 32.3594 39.2188 32.3203C39.1042 32.2786 38.9844 32.2578 38.8594 32.2578C38.7057 32.3151 38.5833 32.3828 38.4922 32.4609C38.4036 32.5365 38.3359 32.6159 38.2891 32.6992C38.2422 32.7799 38.2122 32.8594 38.1992 32.9375C38.1862 33.013 38.1797 33.0794 38.1797 33.1367ZM38.3281 30.6641C38.3281 30.7656 38.3464 30.8529 38.3828 30.9258C38.4193 30.9987 38.4648 31.0625 38.5195 31.1172C38.5768 31.1719 38.6393 31.2174 38.707 31.2539C38.7773 31.2904 38.8438 31.3216 38.9062 31.3477C38.9714 31.3711 39.0299 31.3906 39.082 31.4062C39.1367 31.4219 39.1771 31.4362 39.2031 31.4492C39.362 31.3503 39.474 31.2409 39.5391 31.1211C39.6068 31.0013 39.6406 30.849 39.6406 30.6641C39.6406 30.5599 39.625 30.4648 39.5938 30.3789C39.5625 30.2904 39.5182 30.2148 39.4609 30.1523C39.4036 30.0872 39.3346 30.0365 39.2539 30C39.1758 29.9635 39.0885 29.9453 38.9922 29.9453C38.8802 29.9453 38.7826 29.9635 38.6992 30C38.6159 30.0365 38.5469 30.0872 38.4922 30.1523C38.4375 30.2148 38.3958 30.2904 38.3672 30.3789C38.3411 30.4648 38.3281 30.5599 38.3281 30.6641Z" fill="#705F5E"/>
<path d="M12 6.49609L13.3203 6H14.1445V11.7266H13.0352V7.10938L12.2578 7.26172L12 6.49609Z" fill="#6E5E5E"/>
<path d="M16.1836 10.8555L16.9258 10.2148C16.9909 10.3112 17.0599 10.3971 17.1328 10.4727C17.2057 10.5456 17.2852 10.6081 17.3711 10.6602C17.4596 10.7096 17.556 10.7487 17.6602 10.7773C17.7669 10.8034 17.8854 10.8164 18.0156 10.8164C18.1432 10.8164 18.2591 10.7956 18.3633 10.7539C18.4701 10.7096 18.5599 10.6484 18.6328 10.5703C18.7083 10.4896 18.7669 10.3932 18.8086 10.2812C18.8503 10.1693 18.8711 10.043 18.8711 9.90234C18.8711 9.77214 18.8542 9.65234 18.8203 9.54297C18.7865 9.43099 18.7357 9.33464 18.668 9.25391C18.6029 9.17057 18.5221 9.10677 18.4258 9.0625C18.3294 9.01562 18.2188 8.99219 18.0938 8.99219C17.9141 8.99219 17.7617 9.02344 17.6367 9.08594C17.5117 9.14844 17.4049 9.22005 17.3164 9.30078L16.5977 8.92578L16.7422 6.07031H19.7734V7.08594H17.6719L17.6289 8.26953L17.6367 8.27734C17.7331 8.22526 17.849 8.18229 17.9844 8.14844C18.1198 8.11198 18.2839 8.09375 18.4766 8.09375C18.6745 8.09375 18.8672 8.13151 19.0547 8.20703C19.2422 8.27995 19.4089 8.39193 19.5547 8.54297C19.7005 8.69401 19.8177 8.88411 19.9062 9.11328C19.9948 9.33984 20.0391 9.60547 20.0391 9.91016C20.0391 10.1992 19.9909 10.4622 19.8945 10.6992C19.8008 10.9336 19.668 11.1341 19.4961 11.3008C19.3268 11.4674 19.1237 11.5964 18.8867 11.6875C18.6497 11.7786 18.3906 11.8242 18.1094 11.8242C17.6745 11.8242 17.3008 11.7448 16.9883 11.5859C16.6758 11.4245 16.4076 11.181 16.1836 10.8555Z" fill="#6E5E5E"/>
<path d="M3.97314 3.47681V37.6065" stroke="#705F5E" stroke-width="1.87" stroke-linecap="round" stroke-linejoin="round"/>
<path d="M1.6123 5.84759L3.97362 3.47681L6.33494 5.84759" stroke="#705F5E" stroke-width="2" stroke-linecap="round" stroke-linejoin="round"/>
<path d="M6.33494 35.2278L3.97362 37.6065L1.6123 35.2278" stroke="#705F5E" stroke-width="2" stroke-linecap="round" stroke-linejoin="round"/>
<path d="M44.3453 44.0107H10.3518" stroke="#705F5E" stroke-width="2" stroke-linecap="round" stroke-linejoin="round"/>
<path d="M41.9839 41.6321L44.3452 44.0108L41.9839 46.3816" stroke="#705F5E" stroke-width="2" stroke-linecap="round" stroke-linejoin="round"/>
<path d="M12.721 46.3816L10.3518 44.0108L12.721 41.6321" stroke="#705F5E" stroke-width="2" stroke-linecap="round" stroke-linejoin="round"/>
</g>
<defs>
<clipPath id="clip0_888_45183">
<rect width="48" height="48" fill="white"/>
</clipPath>
</defs>
</svg>
