<svg width="20" height="20" viewBox="0 0 20 20" fill="none" xmlns="http://www.w3.org/2000/svg">
<g id="perm_phone_msg">
<mask id="mask0_832_34600" style="mask-type:alpha" maskUnits="userSpaceOnUse" x="0" y="0" width="20" height="20">
<rect id="Bounding box" width="20" height="20" fill="#D9D9D9"/>
</mask>
<g mask="url(#mask0_832_34600)">
<path id="perm_phone_msg_2" d="M10.6875 10.1877C10.5347 10.3404 10.3681 10.3752 10.1875 10.2918C10.0069 10.2085 9.91667 10.0627 9.91667 9.85433V3.29893C9.91667 3.06081 9.99853 2.8612 10.1623 2.70012C10.326 2.53904 10.5288 2.4585 10.7708 2.4585H16.6589C16.8972 2.4585 17.0969 2.53836 17.2582 2.69808C17.4194 2.8578 17.5 3.05572 17.5 3.29183V7.53531C17.5 7.77577 17.4205 7.97933 17.2614 8.146C17.1024 8.31266 16.9053 8.396 16.6701 8.396H12.5208L10.6875 10.1877ZM11.6667 6.646H15.75V4.2085H11.6667V6.646ZM16.6458 17.5002C14.8264 17.5002 13.066 17.1043 11.3646 16.3127C9.6632 15.521 8.15625 14.4689 6.84375 13.1564C5.53125 11.8439 4.47917 10.337 3.6875 8.63558C2.89583 6.93419 2.5 5.17377 2.5 3.35433C2.5 3.11822 2.58681 2.91683 2.76042 2.75016C2.93403 2.5835 3.13889 2.50016 3.375 2.50016H6.82671C7.02557 2.50016 7.19821 2.56266 7.34462 2.68766C7.49103 2.81266 7.57754 2.97239 7.60417 3.16683L8.1875 6.146C8.21528 6.32993 8.20833 6.49744 8.16667 6.64854C8.125 6.79962 8.04861 6.93072 7.9375 7.04183L5.91667 9.10433C6.44444 10.0488 7.14236 10.9585 8.01042 11.8335C8.87847 12.7085 9.83333 13.4585 10.875 14.0835L12.8333 12.0835C12.9722 11.9446 13.125 11.8509 13.2917 11.8022C13.4583 11.7536 13.6389 11.7432 13.8333 11.771L16.8333 12.396C17.0278 12.4238 17.1875 12.5106 17.3125 12.6564C17.4375 12.8022 17.5 12.9724 17.5 13.1668V16.6252C17.5 16.8613 17.4167 17.0661 17.25 17.2397C17.0833 17.4134 16.8819 17.5002 16.6458 17.5002ZM5.08333 7.43766L6.39583 6.12516L6.03852 4.25016H4.29167C4.36111 4.80572 4.45486 5.34391 4.57292 5.86475C4.69097 6.38558 4.86111 6.90989 5.08333 7.43766ZM15.75 15.7085V13.96L13.8333 13.5627L12.5208 14.9168C13.0625 15.1252 13.5972 15.2918 14.125 15.4168C14.6528 15.5418 15.1944 15.6391 15.75 15.7085Z" fill="#1C1B1F"/>
</g>
</g>
</svg>
