<svg width="40" height="40" viewBox="0 0 40 40" fill="none" xmlns="http://www.w3.org/2000/svg">
<path d="M15 15.4C15 13.0167 16.9749 11 19.4092 11C21.7975 11 23.8184 13.0167 23.8184 15.4C23.8184 16.3625 23.4969 17.2333 22.9916 17.9667L25.7933 20.7625C26.0689 21.0375 26.0689 21.5417 25.7933 21.8167C25.6555 21.9542 25.4718 22 25.2881 22C25.0585 22 24.8747 21.9542 24.737 21.8167L21.9353 19.0208C21.2004 19.525 20.3278 19.8 19.4092 19.8C16.9749 19.8 15 17.8292 15 15.4ZM22.3486 15.4C22.3486 13.7958 21.0167 12.4667 19.4092 12.4667C17.7557 12.4667 16.4697 13.7958 16.4697 15.4C16.4697 17.05 17.7557 18.3333 19.4092 18.3333C21.0167 18.3333 22.3486 17.05 22.3486 15.4Z" fill="#202020"/>
<path d="M25.4 6C27.3688 6 29 7.58594 29 9.5V30.5C29 32.4688 27.3688 34 25.4 34H14.6C12.575 34 11 32.4688 11 30.5V9.5C11 7.58594 12.575 6 14.6 6H25.4ZM27.2 30.5V27.5833H12.8V30.5C12.8 31.4844 13.5875 32.25 14.6 32.25H25.4C26.3563 32.25 27.2 31.4844 27.2 30.5ZM27.2 25.8333V9.5C27.2 8.57031 26.3563 7.75 25.4 7.75H14.6C13.5875 7.75 12.8 8.57031 12.8 9.5V25.8333H27.2ZM18.2 30.7917C17.6938 30.7917 17.3 30.4089 17.3 29.9167C17.3 29.4792 17.6938 29.0417 18.2 29.0417H21.8C22.25 29.0417 22.7 29.4792 22.7 29.9167C22.7 30.4089 22.25 30.7917 21.8 30.7917H18.2Z" fill="#202020"/>
</svg>
