<svg width="20" height="20" viewBox="0 0 20 20" fill="none" xmlns="http://www.w3.org/2000/svg">
<mask id="mask0_945_36004" style="mask-type:alpha" maskUnits="userSpaceOnUse" x="0" y="0" width="20" height="20">
<rect width="20" height="20" fill="#D9D9D9"/>
</mask>
<g mask="url(#mask0_945_36004)">
<path d="M10.0025 10.0417C10.473 10.0417 10.8749 9.87416 11.2083 9.5391C11.5416 9.20405 11.7083 8.80127 11.7083 8.33077C11.7083 7.86027 11.5407 7.45835 11.2057 7.12502C10.8706 6.79169 10.4678 6.62502 9.99734 6.62502C9.52684 6.62502 9.12492 6.79255 8.79159 7.1276C8.45825 7.46266 8.29159 7.86544 8.29159 8.33594C8.29159 8.80644 8.45911 9.20835 8.79417 9.54169C9.12922 9.87502 9.532 10.0417 10.0025 10.0417ZM9.99992 16C11.6805 14.4584 12.9201 13.0646 13.7187 11.8188C14.5173 10.573 14.9166 9.46671 14.9166 8.50002C14.9166 6.98613 14.4444 5.76044 13.4999 4.82294C12.5555 3.88544 11.3888 3.41669 9.99992 3.41669C8.61103 3.41669 7.44436 3.88544 6.49992 4.82294C5.55547 5.76044 5.08325 6.98613 5.08325 8.50002C5.08325 9.46671 5.48256 10.573 6.28117 11.8188C7.07978 13.0646 8.31936 14.4584 9.99992 16ZM9.99471 17.9792C9.87318 17.9792 9.75686 17.9584 9.64575 17.9167C9.53464 17.875 9.43047 17.8195 9.33325 17.75C7.30547 15.9445 5.79853 14.2847 4.81242 12.7709C3.82631 11.257 3.33325 9.83065 3.33325 8.4919C3.33325 6.40009 3.99992 4.7396 5.33325 3.51044C6.66659 2.28127 8.22214 1.66669 9.99992 1.66669C11.7777 1.66669 13.3333 2.28127 14.6666 3.51044C15.9999 4.7396 16.6666 6.40009 16.6666 8.4919C16.6666 9.83065 16.1735 11.257 15.1874 12.7709C14.2013 14.2847 12.6944 15.9442 10.6666 17.7493C10.5833 17.8192 10.4808 17.875 10.3593 17.9167C10.2378 17.9584 10.1162 17.9792 9.99471 17.9792Z" fill="#202020"/>
</g>
</svg>
