<svg width="32" height="18" viewBox="0 0 32 18" fill="none" xmlns="http://www.w3.org/2000/svg">
<g id="icon">
<path id="Rectangle 19" d="M15.8 2.2998H29.5C30.3284 2.2998 31 2.97138 31 3.7998V14.1998C31 15.0282 30.3284 15.6998 29.5 15.6998H15.8V2.2998Z" stroke="#FF5050"/>
<path id="Rectangle 18" d="M0 3.79981C0 2.69524 0.895431 1.7998 2 1.7998H16.2V16.1998H2C0.89543 16.1998 0 15.3044 0 14.1998V3.79981Z" fill="#FF5050"/>
<g id="cottage">
<mask id="mask0_93_44046" style="mask-type:alpha" maskUnits="userSpaceOnUse" x="2" y="3" width="12" height="12">
<rect id="Bounding box" x="2.70001" y="3.6001" width="10.8" height="10.8" fill="#D9D9D9"/>
</mask>
<g mask="url(#mask0_93_44046)">
<path id="cottage_2" d="M5.19779 6.19642C5.13086 6.19642 5.07418 6.16887 5.02773 6.11378C4.98129 6.05868 4.97134 5.99854 4.99788 5.93334C5.04865 5.72334 5.15264 5.55026 5.30985 5.41411C5.46706 5.27796 5.68182 5.20989 5.95413 5.20989C6.11163 5.20989 6.23365 5.17527 6.32019 5.10604C6.40673 5.0368 6.46298 4.94363 6.48894 4.82652C6.50336 4.7821 6.52947 4.74546 6.56726 4.71661C6.60504 4.68776 6.64788 4.67334 6.69577 4.67334C6.77596 4.67334 6.83798 4.70276 6.88182 4.76161C6.92567 4.82046 6.93519 4.8845 6.91038 4.95373C6.85384 5.15796 6.74552 5.32671 6.58543 5.45998C6.42533 5.59325 6.2149 5.65989 5.95413 5.65989C5.8024 5.65989 5.68182 5.69205 5.5924 5.75638C5.50298 5.8207 5.44529 5.90767 5.41932 6.01729C5.39913 6.07498 5.36971 6.11926 5.33105 6.15013C5.2924 6.18099 5.24798 6.19642 5.19779 6.19642ZM5.31374 12.6003C5.20932 12.6003 5.12264 12.5658 5.0537 12.4969C4.98476 12.4279 4.95029 12.3412 4.95029 12.2368V8.48537L4.25797 9.0245C4.20489 9.06489 4.15009 9.08047 4.09355 9.07123C4.03701 9.062 3.98855 9.03085 3.94817 8.97777C3.90778 8.92469 3.89076 8.86989 3.89711 8.81335C3.90345 8.75681 3.9323 8.70834 3.98365 8.66796L4.95029 7.92027V6.95796C4.95029 6.89392 4.97178 6.84041 5.01476 6.79743C5.05773 6.75445 5.11124 6.73296 5.17529 6.73296C5.23932 6.73296 5.29283 6.75445 5.33581 6.79743C5.37879 6.84041 5.40029 6.89392 5.40029 6.95796V7.57152L7.8822 5.68325C7.91394 5.65902 7.94798 5.64041 7.98432 5.62743C8.02067 5.61445 8.05932 5.60796 8.10029 5.60796C8.14125 5.60796 8.17991 5.61445 8.21625 5.62743C8.2526 5.64041 8.28663 5.65902 8.31837 5.68325L12.2169 8.66796C12.2683 8.70834 12.2971 8.75681 12.3035 8.81335C12.3098 8.86989 12.2928 8.92469 12.2524 8.97777C12.212 9.02911 12.1636 9.0594 12.107 9.06864C12.0505 9.07787 11.9965 9.06229 11.9452 9.0219L11.2503 8.48537V12.2368C11.2503 12.3412 11.2158 12.4279 11.1469 12.4969C11.0779 12.5658 10.9913 12.6003 10.8868 12.6003H8.72337V10.6272C8.72337 10.4535 8.66293 10.3063 8.54206 10.1854C8.4212 10.0645 8.27394 10.0041 8.10029 10.0041C7.92663 10.0041 7.77937 10.0645 7.65851 10.1854C7.53764 10.3063 7.4772 10.4535 7.4772 10.6272V12.6003H5.31374Z" fill="white"/>
</g>
</g>
<g id="cottage_3">
<mask id="mask1_93_44046" style="mask-type:alpha" maskUnits="userSpaceOnUse" x="18" y="3" width="11" height="12">
<rect id="Bounding box_2" x="18" y="3.6001" width="10.8" height="10.8" fill="#D9D9D9"/>
</mask>
<g mask="url(#mask1_93_44046)">
<path id="cottage_4" d="M20.4977 6.19642C20.4308 6.19642 20.3741 6.16887 20.3277 6.11378C20.2812 6.05868 20.2713 5.99854 20.2978 5.93334C20.3486 5.72334 20.4526 5.55026 20.6098 5.41411C20.767 5.27796 20.9818 5.20989 21.2541 5.20989C21.4116 5.20989 21.5336 5.17527 21.6201 5.10604C21.7067 5.0368 21.7629 4.94363 21.7889 4.82652C21.8033 4.7821 21.8294 4.74546 21.8672 4.71661C21.905 4.68776 21.9478 4.67334 21.9957 4.67334C22.0759 4.67334 22.1379 4.70276 22.1817 4.76161C22.2256 4.82046 22.2351 4.8845 22.2103 4.95373C22.1538 5.15796 22.0454 5.32671 21.8854 5.45998C21.7253 5.59325 21.5148 5.65989 21.2541 5.65989C21.1023 5.65989 20.9818 5.69205 20.8923 5.75638C20.8029 5.8207 20.7452 5.90767 20.7192 6.01729C20.6991 6.07498 20.6696 6.11926 20.631 6.15013C20.5923 6.18099 20.5479 6.19642 20.4977 6.19642ZM20.6137 12.6003C20.5092 12.6003 20.4226 12.5658 20.3536 12.4969C20.2847 12.4279 20.2502 12.3412 20.2502 12.2368V8.48537L19.5579 9.0245C19.5048 9.06489 19.45 9.08047 19.3935 9.07123C19.3369 9.062 19.2885 9.03085 19.2481 8.97777C19.2077 8.92469 19.1907 8.86989 19.197 8.81335C19.2034 8.75681 19.2322 8.70834 19.2836 8.66796L20.2502 7.92027V6.95796C20.2502 6.89392 20.2717 6.84041 20.3147 6.79743C20.3577 6.75445 20.4112 6.73296 20.4752 6.73296C20.5392 6.73296 20.5928 6.75445 20.6357 6.79743C20.6787 6.84041 20.7002 6.89392 20.7002 6.95796V7.57152L23.1821 5.68325C23.2139 5.65902 23.2479 5.64041 23.2842 5.62743C23.3206 5.61445 23.3592 5.60796 23.4002 5.60796C23.4412 5.60796 23.4798 5.61445 23.5162 5.62743C23.5525 5.64041 23.5866 5.65902 23.6183 5.68325L27.5168 8.66796C27.5682 8.70834 27.597 8.75681 27.6034 8.81335C27.6097 8.86989 27.5927 8.92469 27.5523 8.97777C27.5119 9.02911 27.4635 9.0594 27.4069 9.06864C27.3504 9.07787 27.2965 9.06229 27.2451 9.0219L26.5502 8.48537V12.2368C26.5502 12.3412 26.5157 12.4279 26.4468 12.4969C26.3779 12.5658 26.2912 12.6003 26.1868 12.6003H24.0233V10.6272C24.0233 10.4535 23.9629 10.3063 23.842 10.1854C23.7211 10.0645 23.5739 10.0041 23.4002 10.0041C23.2266 10.0041 23.0793 10.0645 22.9584 10.1854C22.8376 10.3063 22.7771 10.4535 22.7771 10.6272V12.6003H20.6137Z" fill="#FF5050"/>
</g>
</g>
<line id="Line 19" x1="15.8" y1="0.5" x2="15.8" y2="17.5" stroke="#FF5050" stroke-linecap="round" stroke-dasharray="3 3"/>
</g>
</svg>
