<svg width="20" height="20" viewBox="0 0 20 20" fill="none" xmlns="http://www.w3.org/2000/svg">
<mask id="mask0_350_9970" style="mask-type:alpha" maskUnits="userSpaceOnUse" x="0" y="0" width="20" height="20">
<rect width="20" height="20" fill="#D9D9D9"/>
</mask>
<g mask="url(#mask0_350_9970)">
<path d="M4.16667 17.4998C3.70833 17.4998 3.31597 17.3366 2.98958 17.0103C2.66319 16.6839 2.5 16.2915 2.5 15.8332V4.1665C2.5 3.70817 2.66319 3.31581 2.98958 2.98942C3.31597 2.66303 3.70833 2.49984 4.16667 2.49984H7.5C7.73611 2.49984 7.93403 2.5797 8.09375 2.73942C8.25347 2.89914 8.33333 3.09706 8.33333 3.33317C8.33333 3.56928 8.25347 3.7672 8.09375 3.92692C7.93403 4.08664 7.73611 4.1665 7.5 4.1665H4.16667V15.8332H15.8333V13.0415C15.8333 12.8054 15.9132 12.6075 16.0729 12.4478C16.2326 12.288 16.4306 12.2082 16.6667 12.2082C16.9028 12.2082 17.1007 12.288 17.2604 12.4478C17.4201 12.6075 17.5 12.8054 17.5 13.0415V15.8332C17.5 16.2915 17.3368 16.6839 17.0104 17.0103C16.684 17.3366 16.2917 17.4998 15.8333 17.4998H4.16667ZM9.375 13.3332L11.5417 10.4373C11.625 10.3262 11.7361 10.2707 11.875 10.2707C12.0139 10.2707 12.125 10.3262 12.2083 10.4373L14.5 13.4998C14.6111 13.6387 14.625 13.7846 14.5417 13.9373C14.4583 14.0901 14.3333 14.1665 14.1667 14.1665H5.83333C5.66667 14.1665 5.54167 14.0901 5.45833 13.9373C5.375 13.7846 5.38889 13.6387 5.5 13.4998L7.16667 11.2707C7.25 11.1596 7.36111 11.104 7.5 11.104C7.63889 11.104 7.75 11.1596 7.83333 11.2707L9.375 13.3332ZM13.375 9.1665C12.3472 9.1665 11.4722 8.80192 10.75 8.07275C10.0278 7.34359 9.66667 6.45817 9.66667 5.4165C9.66667 4.37484 10.0313 3.48942 10.7604 2.76025C11.4896 2.03109 12.375 1.6665 13.4167 1.6665C14.4583 1.6665 15.3438 2.03109 16.0729 2.76025C16.8021 3.48942 17.1667 4.37484 17.1667 5.4165C17.1667 5.7915 17.1111 6.15262 17 6.49984C16.8889 6.84706 16.75 7.1665 16.5833 7.45817L18.5417 9.4165C18.6944 9.56928 18.7708 9.76373 18.7708 9.99984C18.7708 10.2359 18.6944 10.4304 18.5417 10.5832C18.3889 10.7359 18.1944 10.8123 17.9583 10.8123C17.7222 10.8123 17.5278 10.7359 17.375 10.5832L15.375 8.58317C15.0833 8.77762 14.7708 8.92345 14.4375 9.02067C14.1042 9.11789 13.75 9.1665 13.375 9.1665ZM13.4167 7.49984C14 7.49984 14.4931 7.29845 14.8958 6.89567C15.2986 6.49289 15.5 5.99984 15.5 5.4165C15.5 4.83317 15.2986 4.34012 14.8958 3.93734C14.4931 3.53456 14 3.33317 13.4167 3.33317C12.8333 3.33317 12.3403 3.53456 11.9375 3.93734C11.5347 4.34012 11.3333 4.83317 11.3333 5.4165C11.3333 5.99984 11.5347 6.49289 11.9375 6.89567C12.3403 7.29845 12.8333 7.49984 13.4167 7.49984Z" fill="white"/>
</g>
</svg>
