<svg width="20" height="20" viewBox="0 0 20 20" fill="none" xmlns="http://www.w3.org/2000/svg">
<mask id="mask0_1017_41232" style="mask-type:alpha" maskUnits="userSpaceOnUse" x="0" y="0" width="20" height="20">
<rect width="20" height="20" fill="#D9D9D9"/>
</mask>
<g mask="url(#mask0_1017_41232)">
<path d="M10.0011 13.3329C11.0427 13.3329 11.9281 12.9683 12.6573 12.2391C13.3865 11.51 13.7511 10.6246 13.7511 9.58288C13.7511 8.54122 13.3865 7.6558 12.6573 6.92663C11.9281 6.19747 11.0427 5.83289 10.0011 5.83289C8.95939 5.83289 8.07397 6.19747 7.34481 6.92663C6.61564 7.6558 6.25106 8.54122 6.25106 9.58288C6.25106 10.6246 6.61564 11.51 7.34481 12.2391C8.07397 12.9683 8.95939 13.3329 10.0011 13.3329ZM10.0011 11.8329C9.37606 11.8329 8.84481 11.6141 8.40731 11.1766C7.96981 10.7391 7.75106 10.2079 7.75106 9.58288C7.75106 8.95788 7.96981 8.42663 8.40731 7.98913C8.84481 7.55163 9.37606 7.33288 10.0011 7.33288C10.6261 7.33288 11.1573 7.55163 11.5948 7.98913C12.0323 8.42663 12.2511 8.95788 12.2511 9.58288C12.2511 10.2079 12.0323 10.7391 11.5948 11.1766C11.1573 11.6141 10.6261 11.8329 10.0011 11.8329ZM10.0011 15.8329C8.0705 15.8329 6.30661 15.3225 4.70939 14.3016C3.11217 13.2808 1.90384 11.9023 1.08439 10.1662C1.04272 10.0968 1.01495 10.01 1.00106 9.9058C0.987169 9.80163 0.980225 9.69399 0.980225 9.58288C0.980225 9.47177 0.987169 9.36413 1.00106 9.25997C1.01495 9.1558 1.04272 9.06899 1.08439 8.99955C1.90384 7.26344 3.11217 5.88497 4.70939 4.86414C6.30661 3.8433 8.0705 3.33289 10.0011 3.33289C11.9316 3.33289 13.6955 3.8433 15.2927 4.86414C16.8899 5.88497 18.0983 7.26344 18.9177 8.99955C18.9594 9.06899 18.9872 9.1558 19.0011 9.25997C19.0149 9.36413 19.0219 9.47177 19.0219 9.58288C19.0219 9.69399 19.0149 9.80163 19.0011 9.9058C18.9872 10.01 18.9594 10.0968 18.9177 10.1662C18.0983 11.9023 16.8899 13.2808 15.2927 14.3016C13.6955 15.3225 11.9316 15.8329 10.0011 15.8329ZM10.0011 14.1662C11.5705 14.1662 13.0115 13.753 14.324 12.9266C15.6365 12.1002 16.6399 10.9857 17.3344 9.58288C16.6399 8.18011 15.6365 7.06552 14.324 6.23913C13.0115 5.41275 11.5705 4.99955 10.0011 4.99955C8.43161 4.99955 6.99064 5.41275 5.67814 6.23913C4.36564 7.06552 3.36217 8.18011 2.66772 9.58288C3.36217 10.9857 4.36564 12.1002 5.67814 12.9266C6.99064 13.753 8.43161 14.1662 10.0011 14.1662Z" fill="#202020"/>
</g>
</svg>
